<?xml version="1.0" standalone="no"?>
<!DOCTYPE svg PUBLIC "-//W3C//DTD SVG 1.1//EN" "http://www.w3.org/Graphics/SVG/1.1/DTD/svg11.dtd" >
<svg xmlns="http://www.w3.org/2000/svg" xmlns:xlink="http://www.w3.org/1999/xlink" version="1.1">
<metadata>
Created by FontForge 20170731 at Fri Jul 30 17:29:25 2021
 By Aleksey,,,
Copyright 2020 The JetBrains Mono Project Authors (https://github.com/JetBrains/JetBrainsMono)
</metadata>
<defs>
<font id="JetBrainsMono-Italic" horiz-adv-x="600" >
  <font-face 
    font-family="JetBrains Mono"
    font-weight="400"
    font-style="italic"
    font-stretch="normal"
    units-per-em="1000"
    panose-1="2 0 0 9 0 0 0 0 0 0"
    ascent="800"
    descent="-200"
    x-height="550"
    cap-height="730"
    bbox="-1746 -400 796 1120"
    underline-thickness="50"
    underline-position="-230"
    slope="-9"
    unicode-range="U+000D-1D54A"
  />
<missing-glyph 
d="M90 0v730h420v-730h-420zM140 109l300 571h-300v-571zM160 50h300v571z" />
    <glyph glyph-name=".notdef" 
d="M90 0v730h420v-730h-420zM140 109l300 571h-300v-571zM160 50h300v571z" />
    <glyph glyph-name=".null" horiz-adv-x="0" 
 />
    <glyph glyph-name="nonmarkingreturn" horiz-adv-x="333" 
 />
    <glyph glyph-name="nullcontrol" unicode="&#x2400;" 
d="M11.1807 245l38.2822 240.912h39.2715l41.2529 -206.261q0.65918 8.25098 1.64941 20.2969q0.990234 12.0449 2.64062 25.4111q1.65039 13.3652 3.62988 25.2461l21.4512 135.307h28.7119l-38.2822 -240.912h-39.2725l-40.9219 206.261
q-0.660156 -7.9209 -1.81543 -19.9658q-1.1543 -12.0459 -2.80469 -25.4111q-1.65039 -13.3662 -3.62988 -25.5771l-21.4512 -135.307h-28.7119zM278.824 241.7q-33.6621 0 -48.5127 18.6455q-14.8506 18.6465 -9.57031 50.6582l27.7217 174.908h29.7012l-27.7207 -174.908
q-3.30078 -19.8018 4.62012 -31.3525q7.91992 -11.5498 28.0508 -11.5498q19.8018 0 31.5166 11.5498q11.7158 11.5508 15.0156 31.3525l27.7217 174.908h29.7021l-27.7217 -174.908q-5.28027 -32.3418 -25.9062 -50.8232q-20.626 -18.4805 -54.6182 -18.4805zM436.031 245
l38.2822 240.912h29.7012l-33.9912 -213.851h108.905l-4.29004 -27.0615h-138.607z" />
    <glyph glyph-name="nullcontrol" 
d="M11.1807 245l38.2822 240.912h39.2715l41.2529 -206.261q0.65918 8.25098 1.64941 20.2969q0.990234 12.0449 2.64062 25.4111q1.65039 13.3652 3.62988 25.2461l21.4512 135.307h28.7119l-38.2822 -240.912h-39.2725l-40.9219 206.261
q-0.660156 -7.9209 -1.81543 -19.9658q-1.1543 -12.0459 -2.80469 -25.4111q-1.65039 -13.3662 -3.62988 -25.5771l-21.4512 -135.307h-28.7119zM278.824 241.7q-33.6621 0 -48.5127 18.6455q-14.8506 18.6465 -9.57031 50.6582l27.7217 174.908h29.7012l-27.7207 -174.908
q-3.30078 -19.8018 4.62012 -31.3525q7.91992 -11.5498 28.0508 -11.5498q19.8018 0 31.5166 11.5498q11.7158 11.5508 15.0156 31.3525l27.7217 174.908h29.7021l-27.7217 -174.908q-5.28027 -32.3418 -25.9062 -50.8232q-20.626 -18.4805 -54.6182 -18.4805zM436.031 245
l38.2822 240.912h29.7012l-33.9912 -213.851h108.905l-4.29004 -27.0615h-138.607z" />
    <glyph glyph-name="startOfHeadingcontrol" unicode="&#x2401;" 
d="M81.1445 241.7q-35.3115 0 -52.8027 17.6553q-17.4912 17.6562 -13.2012 48.3477h29.7021q-2.9707 -18.1504 7.75488 -28.7109t32.8369 -10.5605q20.791 0 34.1572 10.2305q13.3652 10.2305 16.3359 28.3809q2.30957 15.5107 -3.7959 26.4014t-19.3057 15.1807
l-31.0215 10.2305q-23.1016 7.59082 -33.9922 25.082q-10.8906 17.4902 -7.58984 41.252q3.2998 19.4707 14.1904 33.8262q10.8906 14.3564 28.0518 22.4414q17.1602 8.08594 38.6113 8.08594q31.6816 0 48.0176 -17.6562t12.0459 -47.0273h-29.7012
q2.96973 17.8213 -6.10547 27.8867q-9.07617 10.0654 -28.5469 10.0654q-19.1406 0 -31.3516 -9.24121q-12.2109 -9.24023 -14.8506 -25.7412q-2.31055 -15.1807 3.79492 -26.4014t19.6357 -15.8408l31.3525 -10.5605q22.7705 -7.58984 33.3311 -25.4111
q10.5605 -17.8203 6.93066 -41.9121q-2.9707 -19.8008 -14.6855 -34.6514q-11.7158 -14.8506 -29.7021 -23.1016q-17.9854 -8.25 -40.0967 -8.25zM278.824 241.7q-32.3418 0 -48.1826 18.4805q-15.8408 18.4814 -10.5605 50.8232l17.1611 108.905
q5.28027 32.3418 26.8965 50.8223q21.6162 18.4814 53.958 18.4814t48.1826 -18.3164q15.8408 -18.3154 10.8906 -50.6572l-17.1611 -109.235q-5.28027 -32.3418 -27.0615 -50.8232q-21.7812 -18.4805 -54.123 -18.4805zM283.114 268.432q19.4717 0 31.6816 11.0547
q12.2109 11.0557 15.5107 31.5176l17.1611 108.905q3.2998 20.4609 -5.44531 31.5166t-28.2158 11.0557q-19.1416 0 -31.3525 -11.0557q-12.21 -11.0557 -15.5107 -31.5166l-17.1602 -108.905q-3.30078 -20.4619 5.44531 -31.5176q8.74512 -11.0547 27.8857 -11.0547z
M422.171 245l38.2822 240.912h29.7012l-16.501 -102.965h77.2246l16.5 102.965h29.7021l-38.2822 -240.912h-29.7012l17.4902 110.886h-77.2236l-17.4912 -110.886h-29.7012z" />
    <glyph glyph-name="startOfHeadingcontrol" 
d="M81.1445 241.7q-35.3115 0 -52.8027 17.6553q-17.4912 17.6562 -13.2012 48.3477h29.7021q-2.9707 -18.1504 7.75488 -28.7109t32.8369 -10.5605q20.791 0 34.1572 10.2305q13.3652 10.2305 16.3359 28.3809q2.30957 15.5107 -3.7959 26.4014t-19.3057 15.1807
l-31.0215 10.2305q-23.1016 7.59082 -33.9922 25.082q-10.8906 17.4902 -7.58984 41.252q3.2998 19.4707 14.1904 33.8262q10.8906 14.3564 28.0518 22.4414q17.1602 8.08594 38.6113 8.08594q31.6816 0 48.0176 -17.6562t12.0459 -47.0273h-29.7012
q2.96973 17.8213 -6.10547 27.8867q-9.07617 10.0654 -28.5469 10.0654q-19.1406 0 -31.3516 -9.24121q-12.2109 -9.24023 -14.8506 -25.7412q-2.31055 -15.1807 3.79492 -26.4014t19.6357 -15.8408l31.3525 -10.5605q22.7705 -7.58984 33.3311 -25.4111
q10.5605 -17.8203 6.93066 -41.9121q-2.9707 -19.8008 -14.6855 -34.6514q-11.7158 -14.8506 -29.7021 -23.1016q-17.9854 -8.25 -40.0967 -8.25zM278.824 241.7q-32.3418 0 -48.1826 18.4805q-15.8408 18.4814 -10.5605 50.8232l17.1611 108.905
q5.28027 32.3418 26.8965 50.8223q21.6162 18.4814 53.958 18.4814t48.1826 -18.3164q15.8408 -18.3154 10.8906 -50.6572l-17.1611 -109.235q-5.28027 -32.3418 -27.0615 -50.8232q-21.7812 -18.4805 -54.123 -18.4805zM283.114 268.432q19.4717 0 31.6816 11.0547
q12.2109 11.0557 15.5107 31.5176l17.1611 108.905q3.2998 20.4609 -5.44531 31.5166t-28.2158 11.0557q-19.1416 0 -31.3525 -11.0557q-12.21 -11.0557 -15.5107 -31.5166l-17.1602 -108.905q-3.30078 -20.4619 5.44531 -31.5176q8.74512 -11.0547 27.8857 -11.0547z
M422.171 245l38.2822 240.912h29.7012l-16.501 -102.965h77.2246l16.5 102.965h29.7021l-38.2822 -240.912h-29.7012l17.4902 110.886h-77.2236l-17.4912 -110.886h-29.7012z" />
    <glyph glyph-name="startOfTextcontrol" unicode="&#x2402;" 
d="M81.1445 241.7q-35.3115 0 -52.8027 17.6553q-17.4912 17.6562 -13.2012 48.3477h29.7021q-2.9707 -18.1504 7.75488 -28.7109t32.8369 -10.5605q20.791 0 34.1572 10.2305q13.3652 10.2305 16.3359 28.3809q2.30957 15.5107 -3.7959 26.4014t-19.3057 15.1807
l-31.0215 10.2305q-23.1016 7.59082 -33.9922 25.082q-10.8906 17.4902 -7.58984 41.252q3.2998 19.4707 14.1904 33.8262q10.8906 14.3564 28.0518 22.4414q17.1602 8.08594 38.6113 8.08594q31.6816 0 48.0176 -17.6562t12.0459 -47.0273h-29.7012
q2.96973 17.8213 -6.10547 27.8867q-9.07617 10.0654 -28.5469 10.0654q-19.1406 0 -31.3516 -9.24121q-12.2109 -9.24023 -14.8506 -25.7412q-2.31055 -15.1807 3.79492 -26.4014t19.6357 -15.8408l31.3525 -10.5605q22.7705 -7.58984 33.3311 -25.4111
q10.5605 -17.8203 6.93066 -41.9121q-2.9707 -19.8008 -14.6855 -34.6514q-11.7158 -14.8506 -29.7021 -23.1016q-17.9854 -8.25 -40.0967 -8.25zM264.634 245l33.9912 213.852h-66.0029l4.29004 27.0605h161.708l-4.29004 -27.0605h-66.0029l-33.9922 -213.852h-29.7012z
M404.68 245l88.4453 122.767l-46.5332 118.146h33.002l26.0713 -71.2832q1.98047 -5.61035 4.45508 -12.0459q2.47559 -6.43555 3.7959 -10.0654q2.30957 3.62988 6.10449 10.0654q3.7959 6.43555 7.75586 12.0459l49.1729 71.2832h33.9912l-83.8242 -117.485
l49.1729 -123.427h-32.6719l-29.3711 76.5645q-2.31055 5.60938 -4.45605 12.0449q-2.14453 6.43555 -3.13477 10.3955q-2.31055 -3.95996 -6.43555 -10.2305t-7.75488 -11.8809l-53.4629 -76.8936h-34.3223z" />
    <glyph glyph-name="startOfTextcontrol" 
d="M81.1445 241.7q-35.3115 0 -52.8027 17.6553q-17.4912 17.6562 -13.2012 48.3477h29.7021q-2.9707 -18.1504 7.75488 -28.7109t32.8369 -10.5605q20.791 0 34.1572 10.2305q13.3652 10.2305 16.3359 28.3809q2.30957 15.5107 -3.7959 26.4014t-19.3057 15.1807
l-31.0215 10.2305q-23.1016 7.59082 -33.9922 25.082q-10.8906 17.4902 -7.58984 41.252q3.2998 19.4707 14.1904 33.8262q10.8906 14.3564 28.0518 22.4414q17.1602 8.08594 38.6113 8.08594q31.6816 0 48.0176 -17.6562t12.0459 -47.0273h-29.7012
q2.96973 17.8213 -6.10547 27.8867q-9.07617 10.0654 -28.5469 10.0654q-19.1406 0 -31.3516 -9.24121q-12.2109 -9.24023 -14.8506 -25.7412q-2.31055 -15.1807 3.79492 -26.4014t19.6357 -15.8408l31.3525 -10.5605q22.7705 -7.58984 33.3311 -25.4111
q10.5605 -17.8203 6.93066 -41.9121q-2.9707 -19.8008 -14.6855 -34.6514q-11.7158 -14.8506 -29.7021 -23.1016q-17.9854 -8.25 -40.0967 -8.25zM264.634 245l33.9912 213.852h-66.0029l4.29004 27.0605h161.708l-4.29004 -27.0605h-66.0029l-33.9922 -213.852h-29.7012z
M404.68 245l88.4453 122.767l-46.5332 118.146h33.002l26.0713 -71.2832q1.98047 -5.61035 4.45508 -12.0459q2.47559 -6.43555 3.7959 -10.0654q2.30957 3.62988 6.10449 10.0654q3.7959 6.43555 7.75586 12.0459l49.1729 71.2832h33.9912l-83.8242 -117.485
l49.1729 -123.427h-32.6719l-29.3711 76.5645q-2.31055 5.60938 -4.45605 12.0449q-2.14453 6.43555 -3.13477 10.3955q-2.31055 -3.95996 -6.43555 -10.2305t-7.75488 -11.8809l-53.4629 -76.8936h-34.3223z" />
    <glyph glyph-name="endOfTextcontrol" unicode="&#x2403;" 
d="M14.4805 245l38.2822 240.912h138.607l-4.29004 -27.0605h-109.236l-11.8799 -74.584h97.6846l-4.29004 -26.7314h-97.6846l-13.5312 -85.4746h109.235l-4.29004 -27.0615h-138.607zM264.634 245l33.9912 213.852h-66.0029l4.29004 27.0605h161.708l-4.29004 -27.0605
h-66.0029l-33.9922 -213.852h-29.7012zM404.68 245l88.4453 122.767l-46.5332 118.146h33.002l26.0713 -71.2832q1.98047 -5.61035 4.45508 -12.0459q2.47559 -6.43555 3.7959 -10.0654q2.30957 3.62988 6.10449 10.0654q3.7959 6.43555 7.75586 12.0459l49.1729 71.2832
h33.9912l-83.8242 -117.485l49.1729 -123.427h-32.6719l-29.3711 76.5645q-2.31055 5.60938 -4.45605 12.0449q-2.14453 6.43555 -3.13477 10.3955q-2.31055 -3.95996 -6.43555 -10.2305t-7.75488 -11.8809l-53.4629 -76.8936h-34.3223z" />
    <glyph glyph-name="endOfTextcontrol" 
d="M14.4805 245l38.2822 240.912h138.607l-4.29004 -27.0605h-109.236l-11.8799 -74.584h97.6846l-4.29004 -26.7314h-97.6846l-13.5312 -85.4746h109.235l-4.29004 -27.0615h-138.607zM264.634 245l33.9912 213.852h-66.0029l4.29004 27.0605h161.708l-4.29004 -27.0605
h-66.0029l-33.9922 -213.852h-29.7012zM404.68 245l88.4453 122.767l-46.5332 118.146h33.002l26.0713 -71.2832q1.98047 -5.61035 4.45508 -12.0459q2.47559 -6.43555 3.7959 -10.0654q2.30957 3.62988 6.10449 10.0654q3.7959 6.43555 7.75586 12.0459l49.1729 71.2832
h33.9912l-83.8242 -117.485l49.1729 -123.427h-32.6719l-29.3711 76.5645q-2.31055 5.60938 -4.45605 12.0449q-2.14453 6.43555 -3.13477 10.3955q-2.31055 -3.95996 -6.43555 -10.2305t-7.75488 -11.8809l-53.4629 -76.8936h-34.3223z" />
    <glyph glyph-name="endOfTransmissioncontrol" unicode="&#x2404;" 
d="M14.4805 245l38.2822 240.912h138.607l-4.29004 -27.0605h-109.236l-11.8799 -74.584h97.6846l-4.29004 -26.7314h-97.6846l-13.5312 -85.4746h109.235l-4.29004 -27.0615h-138.607zM278.824 241.7q-32.3418 0 -48.1826 18.4805q-15.8408 18.4814 -10.5605 50.8232
l17.1611 108.905q5.28027 32.3418 26.8965 50.8223q21.6162 18.4814 53.958 18.4814t48.1826 -18.3164q15.8408 -18.3154 10.8906 -50.6572l-17.1611 -109.235q-5.28027 -32.3418 -27.0615 -50.8232q-21.7812 -18.4805 -54.123 -18.4805zM283.114 268.432
q19.4717 0 31.6816 11.0547q12.2109 11.0557 15.5107 31.5176l17.1611 108.905q3.2998 20.4609 -5.44531 31.5166t-28.2158 11.0557q-19.1416 0 -31.3525 -11.0557q-12.21 -11.0557 -15.5107 -31.5166l-17.1602 -108.905q-3.30078 -20.4619 5.44531 -31.5176
q8.74512 -11.0547 27.8857 -11.0547zM475.634 245l33.9912 213.852h-66.0029l4.29004 27.0605h161.708l-4.29004 -27.0605h-66.0029l-33.9922 -213.852h-29.7012z" />
    <glyph glyph-name="endOfTransmissioncontrol" 
d="M14.4805 245l38.2822 240.912h138.607l-4.29004 -27.0605h-109.236l-11.8799 -74.584h97.6846l-4.29004 -26.7314h-97.6846l-13.5312 -85.4746h109.235l-4.29004 -27.0615h-138.607zM278.824 241.7q-32.3418 0 -48.1826 18.4805q-15.8408 18.4814 -10.5605 50.8232
l17.1611 108.905q5.28027 32.3418 26.8965 50.8223q21.6162 18.4814 53.958 18.4814t48.1826 -18.3164q15.8408 -18.3154 10.8906 -50.6572l-17.1611 -109.235q-5.28027 -32.3418 -27.0615 -50.8232q-21.7812 -18.4805 -54.123 -18.4805zM283.114 268.432
q19.4717 0 31.6816 11.0547q12.2109 11.0557 15.5107 31.5176l17.1611 108.905q3.2998 20.4609 -5.44531 31.5166t-28.2158 11.0557q-19.1416 0 -31.3525 -11.0557q-12.21 -11.0557 -15.5107 -31.5166l-17.1602 -108.905q-3.30078 -20.4619 5.44531 -31.5176
q8.74512 -11.0547 27.8857 -11.0547zM475.634 245l33.9912 213.852h-66.0029l4.29004 27.0605h161.708l-4.29004 -27.0605h-66.0029l-33.9922 -213.852h-29.7012z" />
    <glyph glyph-name="enquirycontrol" unicode="&#x2405;" 
d="M14.4805 245l38.2822 240.912h138.607l-4.29004 -27.0605h-109.236l-11.8799 -74.584h97.6846l-4.29004 -26.7314h-97.6846l-13.5312 -85.4746h109.235l-4.29004 -27.0615h-138.607zM210.181 245l38.2822 240.912h39.2715l41.2529 -206.261
q0.65918 8.25098 1.64941 20.2969q0.990234 12.0449 2.64062 25.4111q1.65039 13.3652 3.62988 25.2461l21.4512 135.307h28.7119l-38.2822 -240.912h-39.2725l-40.9219 206.261q-0.660156 -7.9209 -1.81543 -19.9658q-1.1543 -12.0459 -2.80469 -25.4111
q-1.65039 -13.3662 -3.62988 -25.5771l-21.4512 -135.307h-28.7119zM522.166 185.597l-25.0811 56.7627q-3.63086 -0.65918 -7.26074 -0.65918q-33.332 0 -49.9971 19.3057q-16.666 19.3057 -11.3857 51.6475l16.8311 105.605q3.62988 21.7812 14.8506 37.6221
t29.041 24.5859q17.8213 8.74609 39.9326 8.74609q33.3311 0 49.9971 -19.3066q16.666 -19.3057 11.3857 -51.6475l-16.8311 -105.605q-3.62988 -22.4414 -16.0059 -39.1064q-12.375 -16.666 -31.1865 -24.5869l28.0518 -63.3633h-32.3418zM494.114 268.102
q19.4717 0 33.002 12.21q13.5303 12.2109 16.8311 32.3418l16.8311 105.605q3.2998 20.4609 -6.43555 32.5068t-29.207 12.0459q-19.4707 0 -33.166 -12.0459q-13.6963 -12.0459 -16.9961 -32.5068l-16.8311 -105.605q-3.2998 -20.1309 6.60059 -32.3418
q9.90039 -12.21 29.3711 -12.21z" />
    <glyph glyph-name="enquirycontrol" 
d="M14.4805 245l38.2822 240.912h138.607l-4.29004 -27.0605h-109.236l-11.8799 -74.584h97.6846l-4.29004 -26.7314h-97.6846l-13.5312 -85.4746h109.235l-4.29004 -27.0615h-138.607zM210.181 245l38.2822 240.912h39.2715l41.2529 -206.261
q0.65918 8.25098 1.64941 20.2969q0.990234 12.0449 2.64062 25.4111q1.65039 13.3652 3.62988 25.2461l21.4512 135.307h28.7119l-38.2822 -240.912h-39.2725l-40.9219 206.261q-0.660156 -7.9209 -1.81543 -19.9658q-1.1543 -12.0459 -2.80469 -25.4111
q-1.65039 -13.3662 -3.62988 -25.5771l-21.4512 -135.307h-28.7119zM522.166 185.597l-25.0811 56.7627q-3.63086 -0.65918 -7.26074 -0.65918q-33.332 0 -49.9971 19.3057q-16.666 19.3057 -11.3857 51.6475l16.8311 105.605q3.62988 21.7812 14.8506 37.6221
t29.041 24.5859q17.8213 8.74609 39.9326 8.74609q33.3311 0 49.9971 -19.3066q16.666 -19.3057 11.3857 -51.6475l-16.8311 -105.605q-3.62988 -22.4414 -16.0059 -39.1064q-12.375 -16.666 -31.1865 -24.5869l28.0518 -63.3633h-32.3418zM494.114 268.102
q19.4717 0 33.002 12.21q13.5303 12.2109 16.8311 32.3418l16.8311 105.605q3.2998 20.4609 -6.43555 32.5068t-29.207 12.0459q-19.4707 0 -33.166 -12.0459q-13.6963 -12.0459 -16.9961 -32.5068l-16.8311 -105.605q-3.2998 -20.1309 6.60059 -32.3418
q9.90039 -12.21 29.3711 -12.21z" />
    <glyph glyph-name="acknowledgecontrol" unicode="&#x2406;" 
d="M-2.01953 245l100.984 240.912h39.9326l24.0908 -240.912h-29.041l-5.61035 64.0234h-72.9336l-26.0713 -64.0234h-31.3516zM65.3037 334.104h60.7227l-6.92969 74.2539q-1.98047 21.1211 -2.64062 35.3115q-0.660156 14.1914 -0.660156 18.4814
q-1.31934 -4.29004 -6.43457 -18.4814q-5.11523 -14.1904 -13.6963 -34.9814zM280.145 241.7q-33.002 0 -49.1729 18.4805q-16.1709 18.4814 -10.8906 50.8232l17.1611 108.905q5.28027 32.3418 27.2266 50.8223q21.9463 18.4814 54.9473 18.4814
q32.3418 0 48.5127 -18.6465q16.1709 -18.6455 11.2207 -50.6572h-29.7012q3.2998 20.4609 -5.77539 31.5166t-28.5469 11.0557q-19.4707 0 -32.1768 -10.8906q-12.7051 -10.8906 -16.0059 -31.3516l-17.1602 -109.235q-3.30078 -20.4619 5.93945 -31.5176
q9.24121 -11.0547 28.7119 -11.0547t32.0117 11.0547q12.541 11.0557 15.8408 31.5176h29.7012q-5.28027 -32.0117 -27.3906 -50.6582q-22.1113 -18.6455 -54.4531 -18.6455zM421.841 245l38.2822 240.912h29.7012l-16.501 -103.295h34.9824l69.9629 103.295h33.002
l-78.2139 -116.826l43.2324 -124.086h-33.002l-38.2822 111.546h-35.6416l-17.8213 -111.546h-29.7012z" />
    <glyph glyph-name="acknowledgecontrol" 
d="M-2.01953 245l100.984 240.912h39.9326l24.0908 -240.912h-29.041l-5.61035 64.0234h-72.9336l-26.0713 -64.0234h-31.3516zM65.3037 334.104h60.7227l-6.92969 74.2539q-1.98047 21.1211 -2.64062 35.3115q-0.660156 14.1914 -0.660156 18.4814
q-1.31934 -4.29004 -6.43457 -18.4814q-5.11523 -14.1904 -13.6963 -34.9814zM280.145 241.7q-33.002 0 -49.1729 18.4805q-16.1709 18.4814 -10.8906 50.8232l17.1611 108.905q5.28027 32.3418 27.2266 50.8223q21.9463 18.4814 54.9473 18.4814
q32.3418 0 48.5127 -18.6465q16.1709 -18.6455 11.2207 -50.6572h-29.7012q3.2998 20.4609 -5.77539 31.5166t-28.5469 11.0557q-19.4707 0 -32.1768 -10.8906q-12.7051 -10.8906 -16.0059 -31.3516l-17.1602 -109.235q-3.30078 -20.4619 5.93945 -31.5176
q9.24121 -11.0547 28.7119 -11.0547t32.0117 11.0547q12.541 11.0557 15.8408 31.5176h29.7012q-5.28027 -32.0117 -27.3906 -50.6582q-22.1113 -18.6455 -54.4531 -18.6455zM421.841 245l38.2822 240.912h29.7012l-16.501 -103.295h34.9824l69.9629 103.295h33.002
l-78.2139 -116.826l43.2324 -124.086h-33.002l-38.2822 111.546h-35.6416l-17.8213 -111.546h-29.7012z" />
    <glyph glyph-name="bellcontrol" unicode="&#x2407;" 
d="M12.1709 245l38.2822 240.912h68.3135q33.001 0 49.0068 -16.5q16.0059 -16.501 11.3857 -45.873q-2.96973 -19.8008 -14.6855 -33.167q-11.7158 -13.3652 -29.8662 -18.3154q18.8105 -5.28027 27.3916 -21.1211q8.58008 -15.8408 4.9502 -38.9424
q-4.9502 -31.0215 -26.7314 -49.0068q-21.7812 -17.9863 -54.7832 -17.9863h-73.2637zM62.9932 383.277h38.9424q19.1406 0 31.8467 10.2305t15.6758 27.7217q2.63965 17.4902 -6.60059 27.7207t-28.3809 10.2305h-39.2725zM45.5029 271.731h40.9219
q20.791 0 34.4863 11.0557q13.6963 11.0557 16.9961 30.1963q2.9707 19.8008 -7.0957 32.1768q-10.0654 12.376 -30.8564 12.376h-40.9219zM219.48 245l38.2822 240.912h138.607l-4.29004 -27.0605h-109.236l-11.8799 -74.584h97.6846l-4.29004 -26.7314h-97.6846
l-13.5312 -85.4746h109.235l-4.29004 -27.0615h-138.607zM436.031 245l38.2822 240.912h29.7012l-33.9912 -213.851h108.905l-4.29004 -27.0615h-138.607z" />
    <glyph glyph-name="bellcontrol" 
d="M12.1709 245l38.2822 240.912h68.3135q33.001 0 49.0068 -16.5q16.0059 -16.501 11.3857 -45.873q-2.96973 -19.8008 -14.6855 -33.167q-11.7158 -13.3652 -29.8662 -18.3154q18.8105 -5.28027 27.3916 -21.1211q8.58008 -15.8408 4.9502 -38.9424
q-4.9502 -31.0215 -26.7314 -49.0068q-21.7812 -17.9863 -54.7832 -17.9863h-73.2637zM62.9932 383.277h38.9424q19.1406 0 31.8467 10.2305t15.6758 27.7217q2.63965 17.4902 -6.60059 27.7207t-28.3809 10.2305h-39.2725zM45.5029 271.731h40.9219
q20.791 0 34.4863 11.0557q13.6963 11.0557 16.9961 30.1963q2.9707 19.8008 -7.0957 32.1768q-10.0654 12.376 -30.8564 12.376h-40.9219zM219.48 245l38.2822 240.912h138.607l-4.29004 -27.0605h-109.236l-11.8799 -74.584h97.6846l-4.29004 -26.7314h-97.6846
l-13.5312 -85.4746h109.235l-4.29004 -27.0615h-138.607zM436.031 245l38.2822 240.912h29.7012l-33.9912 -213.851h108.905l-4.29004 -27.0615h-138.607z" />
    <glyph glyph-name="backspacecontrol" unicode="&#x2408;" 
d="M115.171 245l38.2822 240.912h68.3135q33.001 0 49.0068 -16.5q16.0059 -16.501 11.3857 -45.873q-2.96973 -19.8008 -14.6855 -33.167q-11.7158 -13.3652 -29.8662 -18.3154q18.8105 -5.28027 27.3916 -21.1211q8.58008 -15.8408 4.9502 -38.9424
q-4.9502 -31.0215 -26.7314 -49.0068q-21.7812 -17.9863 -54.7832 -17.9863h-73.2637zM165.993 383.277h38.9424q19.1406 0 31.8467 10.2305t15.6758 27.7217q2.63965 17.4902 -6.60059 27.7207t-28.3809 10.2305h-39.2725zM148.503 271.731h40.9219
q20.791 0 34.4863 11.0557q13.6963 11.0557 16.9961 30.1963q2.9707 19.8008 -7.0957 32.1768q-10.0654 12.376 -30.8564 12.376h-40.9219zM387.145 241.7q-35.3115 0 -52.8027 17.6553q-17.4912 17.6562 -13.2012 48.3477h29.7021q-2.9707 -18.1504 7.75488 -28.7109
t32.8369 -10.5605q20.791 0 34.1572 10.2305q13.3652 10.2305 16.3359 28.3809q2.30957 15.5107 -3.7959 26.4014t-19.3057 15.1807l-31.0215 10.2305q-23.1016 7.59082 -33.9922 25.082q-10.8906 17.4902 -7.58984 41.252q3.2998 19.4707 14.1904 33.8262
q10.8906 14.3564 28.0518 22.4414q17.1602 8.08594 38.6113 8.08594q31.6816 0 48.0176 -17.6562t12.0459 -47.0273h-29.7012q2.96973 17.8213 -6.10547 27.8867q-9.07617 10.0654 -28.5469 10.0654q-19.1406 0 -31.3516 -9.24121q-12.2109 -9.24023 -14.8506 -25.7412
q-2.31055 -15.1807 3.79492 -26.4014t19.6357 -15.8408l31.3525 -10.5605q22.7705 -7.58984 33.3311 -25.4111q10.5605 -17.8203 6.93066 -41.9121q-2.9707 -19.8008 -14.6855 -34.6514q-11.7158 -14.8506 -29.7021 -23.1016q-17.9854 -8.25 -40.0967 -8.25z" />
    <glyph glyph-name="backspacecontrol" 
d="M115.171 245l38.2822 240.912h68.3135q33.001 0 49.0068 -16.5q16.0059 -16.501 11.3857 -45.873q-2.96973 -19.8008 -14.6855 -33.167q-11.7158 -13.3652 -29.8662 -18.3154q18.8105 -5.28027 27.3916 -21.1211q8.58008 -15.8408 4.9502 -38.9424
q-4.9502 -31.0215 -26.7314 -49.0068q-21.7812 -17.9863 -54.7832 -17.9863h-73.2637zM165.993 383.277h38.9424q19.1406 0 31.8467 10.2305t15.6758 27.7217q2.63965 17.4902 -6.60059 27.7207t-28.3809 10.2305h-39.2725zM148.503 271.731h40.9219
q20.791 0 34.4863 11.0557q13.6963 11.0557 16.9961 30.1963q2.9707 19.8008 -7.0957 32.1768q-10.0654 12.376 -30.8564 12.376h-40.9219zM387.145 241.7q-35.3115 0 -52.8027 17.6553q-17.4912 17.6562 -13.2012 48.3477h29.7021q-2.9707 -18.1504 7.75488 -28.7109
t32.8369 -10.5605q20.791 0 34.1572 10.2305q13.3652 10.2305 16.3359 28.3809q2.30957 15.5107 -3.7959 26.4014t-19.3057 15.1807l-31.0215 10.2305q-23.1016 7.59082 -33.9922 25.082q-10.8906 17.4902 -7.58984 41.252q3.2998 19.4707 14.1904 33.8262
q10.8906 14.3564 28.0518 22.4414q17.1602 8.08594 38.6113 8.08594q31.6816 0 48.0176 -17.6562t12.0459 -47.0273h-29.7012q2.96973 17.8213 -6.10547 27.8867q-9.07617 10.0654 -28.5469 10.0654q-19.1406 0 -31.3516 -9.24121q-12.2109 -9.24023 -14.8506 -25.7412
q-2.31055 -15.1807 3.79492 -26.4014t19.6357 -15.8408l31.3525 -10.5605q22.7705 -7.58984 33.3311 -25.4111q10.5605 -17.8203 6.93066 -41.9121q-2.9707 -19.8008 -14.6855 -34.6514q-11.7158 -14.8506 -29.7021 -23.1016q-17.9854 -8.25 -40.0967 -8.25z" />
    <glyph glyph-name="verticalTabulationcontrol" unicode="&#x240b;" 
d="M163.023 245l-23.7617 240.912h30.0322l14.8506 -163.688q1.65039 -17.1602 2.47461 -31.8467q0.825195 -14.6855 0.825195 -22.2754q2.31055 7.58984 7.42578 22.2754q5.11523 14.6865 12.0459 31.8467l66.6631 163.688h30.6914l-100.655 -240.912h-40.5918z
M371.634 245l33.9912 213.852h-66.0029l4.29004 27.0605h161.708l-4.29004 -27.0605h-66.0029l-33.9922 -213.852h-29.7012z" />
    <glyph glyph-name="verticalTabulationcontrol" 
d="M163.023 245l-23.7617 240.912h30.0322l14.8506 -163.688q1.65039 -17.1602 2.47461 -31.8467q0.825195 -14.6855 0.825195 -22.2754q2.31055 7.58984 7.42578 22.2754q5.11523 14.6865 12.0459 31.8467l66.6631 163.688h30.6914l-100.655 -240.912h-40.5918z
M371.634 245l33.9912 213.852h-66.0029l4.29004 27.0605h161.708l-4.29004 -27.0605h-66.0029l-33.9922 -213.852h-29.7012z" />
    <glyph glyph-name="formFeedcontrol" unicode="&#x240c;" 
d="M115.831 245l38.2822 240.912h141.907l-4.29004 -27.0605h-112.866l-12.8711 -79.8643h104.286l-4.29102 -27.0615h-103.625l-16.8311 -106.926h-29.7012zM318.831 245l38.2822 240.912h141.907l-4.29004 -27.0605h-112.866l-12.8711 -79.8643h104.286l-4.29102 -27.0615
h-103.625l-16.8311 -106.926h-29.7012z" />
    <glyph glyph-name="formFeedcontrol" 
d="M115.831 245l38.2822 240.912h141.907l-4.29004 -27.0605h-112.866l-12.8711 -79.8643h104.286l-4.29102 -27.0615h-103.625l-16.8311 -106.926h-29.7012zM318.831 245l38.2822 240.912h141.907l-4.29004 -27.0605h-112.866l-12.8711 -79.8643h104.286l-4.29102 -27.0615
h-103.625l-16.8311 -106.926h-29.7012z" />
    <glyph glyph-name="CR" unicode="&#xd;" 
 />
    <glyph glyph-name="shiftOutcontrol" unicode="&#x240e;" 
d="M184.145 241.7q-35.3115 0 -52.8027 17.6553q-17.4912 17.6562 -13.2012 48.3477h29.7021q-2.9707 -18.1504 7.75488 -28.7109t32.8369 -10.5605q20.791 0 34.1572 10.2305q13.3652 10.2305 16.3359 28.3809q2.30957 15.5107 -3.7959 26.4014t-19.3057 15.1807
l-31.0215 10.2305q-23.1016 7.59082 -33.9922 25.082q-10.8906 17.4902 -7.58984 41.252q3.2998 19.4707 14.1904 33.8262q10.8906 14.3564 28.0518 22.4414q17.1602 8.08594 38.6113 8.08594q31.6816 0 48.0176 -17.6562t12.0459 -47.0273h-29.7012
q2.96973 17.8213 -6.10547 27.8867q-9.07617 10.0654 -28.5469 10.0654q-19.1406 0 -31.3516 -9.24121q-12.2109 -9.24023 -14.8506 -25.7412q-2.31055 -15.1807 3.79492 -26.4014t19.6357 -15.8408l31.3525 -10.5605q22.7705 -7.58984 33.3311 -25.4111
q10.5605 -17.8203 6.93066 -41.9121q-2.9707 -19.8008 -14.6855 -34.6514q-11.7158 -14.8506 -29.7021 -23.1016q-17.9854 -8.25 -40.0967 -8.25zM385.824 241.7q-32.3418 0 -48.1826 18.4805q-15.8408 18.4814 -10.5605 50.8232l17.1611 108.905
q5.28027 32.3418 26.8965 50.8223q21.6162 18.4814 53.958 18.4814t48.1826 -18.3164q15.8408 -18.3154 10.8906 -50.6572l-17.1611 -109.235q-5.28027 -32.3418 -27.0615 -50.8232q-21.7812 -18.4805 -54.123 -18.4805zM390.114 268.432q19.4717 0 31.6816 11.0547
q12.2109 11.0557 15.5107 31.5176l17.1611 108.905q3.2998 20.4609 -5.44531 31.5166t-28.2158 11.0557q-19.1416 0 -31.3525 -11.0557q-12.21 -11.0557 -15.5107 -31.5166l-17.1602 -108.905q-3.30078 -20.4619 5.44531 -31.5176q8.74512 -11.0547 27.8857 -11.0547z" />
    <glyph glyph-name="shiftOutcontrol" 
d="M184.145 241.7q-35.3115 0 -52.8027 17.6553q-17.4912 17.6562 -13.2012 48.3477h29.7021q-2.9707 -18.1504 7.75488 -28.7109t32.8369 -10.5605q20.791 0 34.1572 10.2305q13.3652 10.2305 16.3359 28.3809q2.30957 15.5107 -3.7959 26.4014t-19.3057 15.1807
l-31.0215 10.2305q-23.1016 7.59082 -33.9922 25.082q-10.8906 17.4902 -7.58984 41.252q3.2998 19.4707 14.1904 33.8262q10.8906 14.3564 28.0518 22.4414q17.1602 8.08594 38.6113 8.08594q31.6816 0 48.0176 -17.6562t12.0459 -47.0273h-29.7012
q2.96973 17.8213 -6.10547 27.8867q-9.07617 10.0654 -28.5469 10.0654q-19.1406 0 -31.3516 -9.24121q-12.2109 -9.24023 -14.8506 -25.7412q-2.31055 -15.1807 3.79492 -26.4014t19.6357 -15.8408l31.3525 -10.5605q22.7705 -7.58984 33.3311 -25.4111
q10.5605 -17.8203 6.93066 -41.9121q-2.9707 -19.8008 -14.6855 -34.6514q-11.7158 -14.8506 -29.7021 -23.1016q-17.9854 -8.25 -40.0967 -8.25zM385.824 241.7q-32.3418 0 -48.1826 18.4805q-15.8408 18.4814 -10.5605 50.8232l17.1611 108.905
q5.28027 32.3418 26.8965 50.8223q21.6162 18.4814 53.958 18.4814t48.1826 -18.3164q15.8408 -18.3154 10.8906 -50.6572l-17.1611 -109.235q-5.28027 -32.3418 -27.0615 -50.8232q-21.7812 -18.4805 -54.123 -18.4805zM390.114 268.432q19.4717 0 31.6816 11.0547
q12.2109 11.0557 15.5107 31.5176l17.1611 108.905q3.2998 20.4609 -5.44531 31.5166t-28.2158 11.0557q-19.1416 0 -31.3525 -11.0557q-12.21 -11.0557 -15.5107 -31.5166l-17.1602 -108.905q-3.30078 -20.4619 5.44531 -31.5176q8.74512 -11.0547 27.8857 -11.0547z" />
    <glyph glyph-name="shiftIncontrol" unicode="&#x240f;" 
d="M184.145 241.7q-35.3115 0 -52.8027 17.6553q-17.4912 17.6562 -13.2012 48.3477h29.7021q-2.9707 -18.1504 7.75488 -28.7109t32.8369 -10.5605q20.791 0 34.1572 10.2305q13.3652 10.2305 16.3359 28.3809q2.30957 15.5107 -3.7959 26.4014t-19.3057 15.1807
l-31.0215 10.2305q-23.1016 7.59082 -33.9922 25.082q-10.8906 17.4902 -7.58984 41.252q3.2998 19.4707 14.1904 33.8262q10.8906 14.3564 28.0518 22.4414q17.1602 8.08594 38.6113 8.08594q31.6816 0 48.0176 -17.6562t12.0459 -47.0273h-29.7012
q2.96973 17.8213 -6.10547 27.8867q-9.07617 10.0654 -28.5469 10.0654q-19.1406 0 -31.3516 -9.24121q-12.2109 -9.24023 -14.8506 -25.7412q-2.31055 -15.1807 3.79492 -26.4014t19.6357 -15.8408l31.3525 -10.5605q22.7705 -7.58984 33.3311 -25.4111
q10.5605 -17.8203 6.93066 -41.9121q-2.9707 -19.8008 -14.6855 -34.6514q-11.7158 -14.8506 -29.7021 -23.1016q-17.9854 -8.25 -40.0967 -8.25zM322.131 245l4.29004 27.0615h49.1729l29.7012 186.79h-49.1719l4.29004 27.0605h128.707l-4.29102 -27.0605h-49.1719
l-29.7021 -186.79h49.1729l-4.29004 -27.0615h-128.707z" />
    <glyph glyph-name="shiftIncontrol" 
d="M184.145 241.7q-35.3115 0 -52.8027 17.6553q-17.4912 17.6562 -13.2012 48.3477h29.7021q-2.9707 -18.1504 7.75488 -28.7109t32.8369 -10.5605q20.791 0 34.1572 10.2305q13.3652 10.2305 16.3359 28.3809q2.30957 15.5107 -3.7959 26.4014t-19.3057 15.1807
l-31.0215 10.2305q-23.1016 7.59082 -33.9922 25.082q-10.8906 17.4902 -7.58984 41.252q3.2998 19.4707 14.1904 33.8262q10.8906 14.3564 28.0518 22.4414q17.1602 8.08594 38.6113 8.08594q31.6816 0 48.0176 -17.6562t12.0459 -47.0273h-29.7012
q2.96973 17.8213 -6.10547 27.8867q-9.07617 10.0654 -28.5469 10.0654q-19.1406 0 -31.3516 -9.24121q-12.2109 -9.24023 -14.8506 -25.7412q-2.31055 -15.1807 3.79492 -26.4014t19.6357 -15.8408l31.3525 -10.5605q22.7705 -7.58984 33.3311 -25.4111
q10.5605 -17.8203 6.93066 -41.9121q-2.9707 -19.8008 -14.6855 -34.6514q-11.7158 -14.8506 -29.7021 -23.1016q-17.9854 -8.25 -40.0967 -8.25zM322.131 245l4.29004 27.0615h49.1729l29.7012 186.79h-49.1719l4.29004 27.0605h128.707l-4.29102 -27.0605h-49.1719
l-29.7021 -186.79h49.1729l-4.29004 -27.0615h-128.707z" />
    <glyph glyph-name="dataLinkEscapecontrol" unicode="&#x2410;" 
d="M11.8408 245l38.2822 240.912h62.373q34.9814 0 52.4727 -19.6357t12.2109 -52.6377l-15.1807 -96.0352q-3.30078 -22.1113 -15.3467 -38.4463q-12.0449 -16.3359 -30.5264 -25.2471q-18.4805 -8.91016 -41.9121 -8.91016h-62.373zM45.833 271.401h32.6709
q21.7812 0 36.1377 12.2109q14.3555 12.21 17.6553 33.9912l15.1807 96.0352q3.63086 21.4512 -6.92969 33.6621q-10.5605 12.21 -32.3418 12.21h-32.6719zM225.031 245l38.2822 240.912h29.7012l-33.9912 -213.851h108.905l-4.29004 -27.0615h-138.607zM424.48 245
l38.2822 240.912h138.607l-4.29004 -27.0605h-109.236l-11.8799 -74.584h97.6846l-4.29004 -26.7314h-97.6846l-13.5312 -85.4746h109.235l-4.29004 -27.0615h-138.607z" />
    <glyph glyph-name="dataLinkEscapecontrol" 
d="M11.8408 245l38.2822 240.912h62.373q34.9814 0 52.4727 -19.6357t12.2109 -52.6377l-15.1807 -96.0352q-3.30078 -22.1113 -15.3467 -38.4463q-12.0449 -16.3359 -30.5264 -25.2471q-18.4805 -8.91016 -41.9121 -8.91016h-62.373zM45.833 271.401h32.6709
q21.7812 0 36.1377 12.2109q14.3555 12.21 17.6553 33.9912l15.1807 96.0352q3.63086 21.4512 -6.92969 33.6621q-10.5605 12.21 -32.3418 12.21h-32.6719zM225.031 245l38.2822 240.912h29.7012l-33.9912 -213.851h108.905l-4.29004 -27.0615h-138.607zM424.48 245
l38.2822 240.912h138.607l-4.29004 -27.0605h-109.236l-11.8799 -74.584h97.6846l-4.29004 -26.7314h-97.6846l-13.5312 -85.4746h109.235l-4.29004 -27.0615h-138.607z" />
    <glyph glyph-name="deviceControlOnecontrol" unicode="&#x2411;" 
d="M11.8408 245l38.2822 240.912h62.373q34.9814 0 52.4727 -19.6357t12.2109 -52.6377l-15.1807 -96.0352q-3.30078 -22.1113 -15.3467 -38.4463q-12.0449 -16.3359 -30.5264 -25.2471q-18.4805 -8.91016 -41.9121 -8.91016h-62.373zM45.833 271.401h32.6709
q21.7812 0 36.1377 12.2109q14.3555 12.21 17.6553 33.9912l15.1807 96.0352q3.63086 21.4512 -6.92969 33.6621q-10.5605 12.21 -32.3418 12.21h-32.6719zM280.145 241.7q-33.002 0 -49.1729 18.4805q-16.1709 18.4814 -10.8906 50.8232l17.1611 108.905
q5.28027 32.3418 27.2266 50.8223q21.9463 18.4814 54.9473 18.4814q32.3418 0 48.5127 -18.6465q16.1709 -18.6455 11.2207 -50.6572h-29.7012q3.2998 20.4609 -5.77539 31.5166t-28.5469 11.0557q-19.4707 0 -32.1768 -10.8906q-12.7051 -10.8906 -16.0059 -31.3516
l-17.1602 -109.235q-3.30078 -20.4619 5.93945 -31.5176q9.24121 -11.0547 28.7119 -11.0547t32.0117 11.0547q12.541 11.0557 15.8408 31.5176h29.7012q-5.28027 -32.0117 -27.3906 -50.6582q-22.1113 -18.6455 -54.4531 -18.6455zM421.181 245l4.29004 27.0615h65.3438
l30.0312 189.1l-73.2637 -48.8428l5.28027 33.002l61.0537 40.5918h40.5918l-33.9922 -213.851h53.4629l-4.29004 -27.0615h-148.508z" />
    <glyph glyph-name="deviceControlOnecontrol" 
d="M11.8408 245l38.2822 240.912h62.373q34.9814 0 52.4727 -19.6357t12.2109 -52.6377l-15.1807 -96.0352q-3.30078 -22.1113 -15.3467 -38.4463q-12.0449 -16.3359 -30.5264 -25.2471q-18.4805 -8.91016 -41.9121 -8.91016h-62.373zM45.833 271.401h32.6709
q21.7812 0 36.1377 12.2109q14.3555 12.21 17.6553 33.9912l15.1807 96.0352q3.63086 21.4512 -6.92969 33.6621q-10.5605 12.21 -32.3418 12.21h-32.6719zM280.145 241.7q-33.002 0 -49.1729 18.4805q-16.1709 18.4814 -10.8906 50.8232l17.1611 108.905
q5.28027 32.3418 27.2266 50.8223q21.9463 18.4814 54.9473 18.4814q32.3418 0 48.5127 -18.6465q16.1709 -18.6455 11.2207 -50.6572h-29.7012q3.2998 20.4609 -5.77539 31.5166t-28.5469 11.0557q-19.4707 0 -32.1768 -10.8906q-12.7051 -10.8906 -16.0059 -31.3516
l-17.1602 -109.235q-3.30078 -20.4619 5.93945 -31.5176q9.24121 -11.0547 28.7119 -11.0547t32.0117 11.0547q12.541 11.0557 15.8408 31.5176h29.7012q-5.28027 -32.0117 -27.3906 -50.6582q-22.1113 -18.6455 -54.4531 -18.6455zM421.181 245l4.29004 27.0615h65.3438
l30.0312 189.1l-73.2637 -48.8428l5.28027 33.002l61.0537 40.5918h40.5918l-33.9922 -213.851h53.4629l-4.29004 -27.0615h-148.508z" />
    <glyph glyph-name="deviceControlTwocontrol" unicode="&#x2412;" 
d="M11.8408 245l38.2822 240.912h62.373q34.9814 0 52.4727 -19.6357t12.2109 -52.6377l-15.1807 -96.0352q-3.30078 -22.1113 -15.3467 -38.4463q-12.0449 -16.3359 -30.5264 -25.2471q-18.4805 -8.91016 -41.9121 -8.91016h-62.373zM45.833 271.401h32.6709
q21.7812 0 36.1377 12.2109q14.3555 12.21 17.6553 33.9912l15.1807 96.0352q3.63086 21.4512 -6.92969 33.6621q-10.5605 12.21 -32.3418 12.21h-32.6719zM280.145 241.7q-33.002 0 -49.1729 18.4805q-16.1709 18.4814 -10.8906 50.8232l17.1611 108.905
q5.28027 32.3418 27.2266 50.8223q21.9463 18.4814 54.9473 18.4814q32.3418 0 48.5127 -18.6465q16.1709 -18.6455 11.2207 -50.6572h-29.7012q3.2998 20.4609 -5.77539 31.5166t-28.5469 11.0557q-19.4707 0 -32.1768 -10.8906q-12.7051 -10.8906 -16.0059 -31.3516
l-17.1602 -109.235q-3.30078 -20.4619 5.93945 -31.5176q9.24121 -11.0547 28.7119 -11.0547t32.0117 11.0547q12.541 11.0557 15.8408 31.5176h29.7012q-5.28027 -32.0117 -27.3906 -50.6582q-22.1113 -18.6455 -54.4531 -18.6455zM421.841 245l4.62012 29.3711
l90.0947 83.8252q20.1309 18.4805 30.1963 33.001q10.0654 14.5215 12.376 28.3818q2.96973 19.8008 -6.60059 31.5166t-29.3711 11.7158q-20.1309 0 -33.8271 -12.0459q-13.6953 -12.0459 -16.9961 -32.5068h-29.7012q6.27051 32.6719 29.042 51.8125
q22.7705 19.1416 55.4424 19.1416q33.332 0 49.998 -18.8115q16.665 -18.8105 11.7148 -51.1523q-2.63965 -17.1611 -14.8506 -36.1367q-12.2109 -18.9766 -38.6113 -43.0674l-74.584 -67.9834h108.575l-4.29004 -27.0615h-143.228z" />
    <glyph glyph-name="deviceControlTwocontrol" 
d="M11.8408 245l38.2822 240.912h62.373q34.9814 0 52.4727 -19.6357t12.2109 -52.6377l-15.1807 -96.0352q-3.30078 -22.1113 -15.3467 -38.4463q-12.0449 -16.3359 -30.5264 -25.2471q-18.4805 -8.91016 -41.9121 -8.91016h-62.373zM45.833 271.401h32.6709
q21.7812 0 36.1377 12.2109q14.3555 12.21 17.6553 33.9912l15.1807 96.0352q3.63086 21.4512 -6.92969 33.6621q-10.5605 12.21 -32.3418 12.21h-32.6719zM280.145 241.7q-33.002 0 -49.1729 18.4805q-16.1709 18.4814 -10.8906 50.8232l17.1611 108.905
q5.28027 32.3418 27.2266 50.8223q21.9463 18.4814 54.9473 18.4814q32.3418 0 48.5127 -18.6465q16.1709 -18.6455 11.2207 -50.6572h-29.7012q3.2998 20.4609 -5.77539 31.5166t-28.5469 11.0557q-19.4707 0 -32.1768 -10.8906q-12.7051 -10.8906 -16.0059 -31.3516
l-17.1602 -109.235q-3.30078 -20.4619 5.93945 -31.5176q9.24121 -11.0547 28.7119 -11.0547t32.0117 11.0547q12.541 11.0557 15.8408 31.5176h29.7012q-5.28027 -32.0117 -27.3906 -50.6582q-22.1113 -18.6455 -54.4531 -18.6455zM421.841 245l4.62012 29.3711
l90.0947 83.8252q20.1309 18.4805 30.1963 33.001q10.0654 14.5215 12.376 28.3818q2.96973 19.8008 -6.60059 31.5166t-29.3711 11.7158q-20.1309 0 -33.8271 -12.0459q-13.6953 -12.0459 -16.9961 -32.5068h-29.7012q6.27051 32.6719 29.042 51.8125
q22.7705 19.1416 55.4424 19.1416q33.332 0 49.998 -18.8115q16.665 -18.8105 11.7148 -51.1523q-2.63965 -17.1611 -14.8506 -36.1367q-12.2109 -18.9766 -38.6113 -43.0674l-74.584 -67.9834h108.575l-4.29004 -27.0615h-143.228z" />
    <glyph glyph-name="deviceControlThreecontrol" unicode="&#x2413;" 
d="M11.8408 245l38.2822 240.912h62.373q34.9814 0 52.4727 -19.6357t12.2109 -52.6377l-15.1807 -96.0352q-3.30078 -22.1113 -15.3467 -38.4463q-12.0449 -16.3359 -30.5264 -25.2471q-18.4805 -8.91016 -41.9121 -8.91016h-62.373zM45.833 271.401h32.6709
q21.7812 0 36.1377 12.2109q14.3555 12.21 17.6553 33.9912l15.1807 96.0352q3.63086 21.4512 -6.92969 33.6621q-10.5605 12.21 -32.3418 12.21h-32.6719zM280.145 241.7q-33.002 0 -49.1729 18.4805q-16.1709 18.4814 -10.8906 50.8232l17.1611 108.905
q5.28027 32.3418 27.2266 50.8223q21.9463 18.4814 54.9473 18.4814q32.3418 0 48.5127 -18.6465q16.1709 -18.6455 11.2207 -50.6572h-29.7012q3.2998 20.4609 -5.77539 31.5166t-28.5469 11.0557q-19.4707 0 -32.1768 -10.8906q-12.7051 -10.8906 -16.0059 -31.3516
l-17.1602 -109.235q-3.30078 -20.4619 5.93945 -31.5176q9.24121 -11.0547 28.7119 -11.0547t32.0117 11.0547q12.541 11.0557 15.8408 31.5176h29.7012q-5.28027 -32.0117 -27.3906 -50.6582q-22.1113 -18.6455 -54.4531 -18.6455zM486.194 241.7
q-21.7812 0 -36.6318 8.74512t-21.2861 24.2559t-3.13574 36.3027h29.7021q-3.30078 -20.1318 6.27051 -31.5176q9.57031 -11.3848 29.7012 -11.3848q20.4609 0 33.4971 11.8799q13.0352 11.8809 16.335 31.0225l2.64062 16.5q3.2998 20.4609 -6.27051 31.6816
t-30.0312 11.2207h-26.0713l4.29004 25.7412l67.3232 62.7041h-94.0547l4.29004 27.0605h127.717l-4.62012 -27.7207l-66.0039 -61.7139q29.042 -2.30957 43.3975 -20.791q14.3564 -18.4805 9.73535 -48.1826l-2.63965 -16.5q-4.9502 -32.0117 -27.5566 -50.6582
q-22.6064 -18.6455 -56.5977 -18.6455z" />
    <glyph glyph-name="deviceControlThreecontrol" 
d="M11.8408 245l38.2822 240.912h62.373q34.9814 0 52.4727 -19.6357t12.2109 -52.6377l-15.1807 -96.0352q-3.30078 -22.1113 -15.3467 -38.4463q-12.0449 -16.3359 -30.5264 -25.2471q-18.4805 -8.91016 -41.9121 -8.91016h-62.373zM45.833 271.401h32.6709
q21.7812 0 36.1377 12.2109q14.3555 12.21 17.6553 33.9912l15.1807 96.0352q3.63086 21.4512 -6.92969 33.6621q-10.5605 12.21 -32.3418 12.21h-32.6719zM280.145 241.7q-33.002 0 -49.1729 18.4805q-16.1709 18.4814 -10.8906 50.8232l17.1611 108.905
q5.28027 32.3418 27.2266 50.8223q21.9463 18.4814 54.9473 18.4814q32.3418 0 48.5127 -18.6465q16.1709 -18.6455 11.2207 -50.6572h-29.7012q3.2998 20.4609 -5.77539 31.5166t-28.5469 11.0557q-19.4707 0 -32.1768 -10.8906q-12.7051 -10.8906 -16.0059 -31.3516
l-17.1602 -109.235q-3.30078 -20.4619 5.93945 -31.5176q9.24121 -11.0547 28.7119 -11.0547t32.0117 11.0547q12.541 11.0557 15.8408 31.5176h29.7012q-5.28027 -32.0117 -27.3906 -50.6582q-22.1113 -18.6455 -54.4531 -18.6455zM486.194 241.7
q-21.7812 0 -36.6318 8.74512t-21.2861 24.2559t-3.13574 36.3027h29.7021q-3.30078 -20.1318 6.27051 -31.5176q9.57031 -11.3848 29.7012 -11.3848q20.4609 0 33.4971 11.8799q13.0352 11.8809 16.335 31.0225l2.64062 16.5q3.2998 20.4609 -6.27051 31.6816
t-30.0312 11.2207h-26.0713l4.29004 25.7412l67.3232 62.7041h-94.0547l4.29004 27.0605h127.717l-4.62012 -27.7207l-66.0039 -61.7139q29.042 -2.30957 43.3975 -20.791q14.3564 -18.4805 9.73535 -48.1826l-2.63965 -16.5q-4.9502 -32.0117 -27.5566 -50.6582
q-22.6064 -18.6455 -56.5977 -18.6455z" />
    <glyph glyph-name="deviceControlFourcontrol" unicode="&#x2414;" 
d="M11.8408 245l38.2822 240.912h62.373q34.9814 0 52.4727 -19.6357t12.2109 -52.6377l-15.1807 -96.0352q-3.30078 -22.1113 -15.3467 -38.4463q-12.0449 -16.3359 -30.5264 -25.2471q-18.4805 -8.91016 -41.9121 -8.91016h-62.373zM45.833 271.401h32.6709
q21.7812 0 36.1377 12.2109q14.3555 12.21 17.6553 33.9912l15.1807 96.0352q3.63086 21.4512 -6.92969 33.6621q-10.5605 12.21 -32.3418 12.21h-32.6719zM280.145 241.7q-33.002 0 -49.1729 18.4805q-16.1709 18.4814 -10.8906 50.8232l17.1611 108.905
q5.28027 32.3418 27.2266 50.8223q21.9463 18.4814 54.9473 18.4814q32.3418 0 48.5127 -18.6465q16.1709 -18.6455 11.2207 -50.6572h-29.7012q3.2998 20.4609 -5.77539 31.5166t-28.5469 11.0557q-19.4707 0 -32.1768 -10.8906q-12.7051 -10.8906 -16.0059 -31.3516
l-17.1602 -109.235q-3.30078 -20.4619 5.93945 -31.5176q9.24121 -11.0547 28.7119 -11.0547t32.0117 11.0547q12.541 11.0557 15.8408 31.5176h29.7012q-5.28027 -32.0117 -27.3906 -50.6582q-22.1113 -18.6455 -54.4531 -18.6455zM523.486 245l8.25 52.8027h-108.905
l7.58984 46.5322l110.226 141.577h32.6719l-114.516 -148.508l-1.98047 -12.54h79.2041l9.57129 58.7432h29.7012l-22.1113 -138.607h-29.7012z" />
    <glyph glyph-name="deviceControlFourcontrol" 
d="M11.8408 245l38.2822 240.912h62.373q34.9814 0 52.4727 -19.6357t12.2109 -52.6377l-15.1807 -96.0352q-3.30078 -22.1113 -15.3467 -38.4463q-12.0449 -16.3359 -30.5264 -25.2471q-18.4805 -8.91016 -41.9121 -8.91016h-62.373zM45.833 271.401h32.6709
q21.7812 0 36.1377 12.2109q14.3555 12.21 17.6553 33.9912l15.1807 96.0352q3.63086 21.4512 -6.92969 33.6621q-10.5605 12.21 -32.3418 12.21h-32.6719zM280.145 241.7q-33.002 0 -49.1729 18.4805q-16.1709 18.4814 -10.8906 50.8232l17.1611 108.905
q5.28027 32.3418 27.2266 50.8223q21.9463 18.4814 54.9473 18.4814q32.3418 0 48.5127 -18.6465q16.1709 -18.6455 11.2207 -50.6572h-29.7012q3.2998 20.4609 -5.77539 31.5166t-28.5469 11.0557q-19.4707 0 -32.1768 -10.8906q-12.7051 -10.8906 -16.0059 -31.3516
l-17.1602 -109.235q-3.30078 -20.4619 5.93945 -31.5176q9.24121 -11.0547 28.7119 -11.0547t32.0117 11.0547q12.541 11.0557 15.8408 31.5176h29.7012q-5.28027 -32.0117 -27.3906 -50.6582q-22.1113 -18.6455 -54.4531 -18.6455zM523.486 245l8.25 52.8027h-108.905
l7.58984 46.5322l110.226 141.577h32.6719l-114.516 -148.508l-1.98047 -12.54h79.2041l9.57129 58.7432h29.7012l-22.1113 -138.607h-29.7012z" />
    <glyph glyph-name="negativeAcknowledgecontrol" unicode="&#x2415;" 
d="M11.1807 245l38.2822 240.912h39.2715l41.2529 -206.261q0.65918 8.25098 1.64941 20.2969q0.990234 12.0449 2.64062 25.4111q1.65039 13.3652 3.62988 25.2461l21.4512 135.307h28.7119l-38.2822 -240.912h-39.2725l-40.9219 206.261
q-0.660156 -7.9209 -1.81543 -19.9658q-1.1543 -12.0459 -2.80469 -25.4111q-1.65039 -13.3662 -3.62988 -25.5771l-21.4512 -135.307h-28.7119zM196.98 245l100.984 240.912h39.9326l24.0908 -240.912h-29.041l-5.61035 64.0234h-72.9336l-26.0713 -64.0234h-31.3516z
M264.304 334.104h60.7227l-6.92969 74.2539q-1.98047 21.1211 -2.64062 35.3115q-0.660156 14.1914 -0.660156 18.4814q-1.31934 -4.29004 -6.43457 -18.4814q-5.11523 -14.1904 -13.6963 -34.9814zM421.841 245l38.2822 240.912h29.7012l-16.501 -103.295h34.9824
l69.9629 103.295h33.002l-78.2139 -116.826l43.2324 -124.086h-33.002l-38.2822 111.546h-35.6416l-17.8213 -111.546h-29.7012z" />
    <glyph glyph-name="negativeAcknowledgecontrol" 
d="M11.1807 245l38.2822 240.912h39.2715l41.2529 -206.261q0.65918 8.25098 1.64941 20.2969q0.990234 12.0449 2.64062 25.4111q1.65039 13.3652 3.62988 25.2461l21.4512 135.307h28.7119l-38.2822 -240.912h-39.2725l-40.9219 206.261
q-0.660156 -7.9209 -1.81543 -19.9658q-1.1543 -12.0459 -2.80469 -25.4111q-1.65039 -13.3662 -3.62988 -25.5771l-21.4512 -135.307h-28.7119zM196.98 245l100.984 240.912h39.9326l24.0908 -240.912h-29.041l-5.61035 64.0234h-72.9336l-26.0713 -64.0234h-31.3516z
M264.304 334.104h60.7227l-6.92969 74.2539q-1.98047 21.1211 -2.64062 35.3115q-0.660156 14.1914 -0.660156 18.4814q-1.31934 -4.29004 -6.43457 -18.4814q-5.11523 -14.1904 -13.6963 -34.9814zM421.841 245l38.2822 240.912h29.7012l-16.501 -103.295h34.9824
l69.9629 103.295h33.002l-78.2139 -116.826l43.2324 -124.086h-33.002l-38.2822 111.546h-35.6416l-17.8213 -111.546h-29.7012z" />
    <glyph glyph-name="synchronousIdlecontrol" unicode="&#x2416;" 
d="M81.1445 241.7q-35.3115 0 -52.8027 17.6553q-17.4912 17.6562 -13.2012 48.3477h29.7021q-2.9707 -18.1504 7.75488 -28.7109t32.8369 -10.5605q20.791 0 34.1572 10.2305q13.3652 10.2305 16.3359 28.3809q2.30957 15.5107 -3.7959 26.4014t-19.3057 15.1807
l-31.0215 10.2305q-23.1016 7.59082 -33.9922 25.082q-10.8906 17.4902 -7.58984 41.252q3.2998 19.4707 14.1904 33.8262q10.8906 14.3564 28.0518 22.4414q17.1602 8.08594 38.6113 8.08594q31.6816 0 48.0176 -17.6562t12.0459 -47.0273h-29.7012
q2.96973 17.8213 -6.10547 27.8867q-9.07617 10.0654 -28.5469 10.0654q-19.1406 0 -31.3516 -9.24121q-12.2109 -9.24023 -14.8506 -25.7412q-2.31055 -15.1807 3.79492 -26.4014t19.6357 -15.8408l31.3525 -10.5605q22.7705 -7.58984 33.3311 -25.4111
q10.5605 -17.8203 6.93066 -41.9121q-2.9707 -19.8008 -14.6855 -34.6514q-11.7158 -14.8506 -29.7021 -23.1016q-17.9854 -8.25 -40.0967 -8.25zM264.634 245l14.1904 90.0947l-48.5127 150.817h30.0322l32.0117 -99.0049q2.63965 -8.25 4.125 -14.0254
q1.48438 -5.77539 1.81445 -8.41602q1.32031 2.64062 4.45605 8.41602q3.13477 5.77539 8.41504 14.0254l62.7031 99.0049h31.3516l-96.6953 -150.817l-14.1904 -90.0947h-29.7012zM421.181 245l38.2822 240.912h39.2715l41.2529 -206.261q0.65918 8.25098 1.64941 20.2969
q0.990234 12.0449 2.64062 25.4111q1.65039 13.3652 3.62988 25.2461l21.4512 135.307h28.7119l-38.2822 -240.912h-39.2725l-40.9219 206.261q-0.660156 -7.9209 -1.81543 -19.9658q-1.1543 -12.0459 -2.80469 -25.4111q-1.65039 -13.3662 -3.62988 -25.5771
l-21.4512 -135.307h-28.7119z" />
    <glyph glyph-name="synchronousIdlecontrol" 
d="M81.1445 241.7q-35.3115 0 -52.8027 17.6553q-17.4912 17.6562 -13.2012 48.3477h29.7021q-2.9707 -18.1504 7.75488 -28.7109t32.8369 -10.5605q20.791 0 34.1572 10.2305q13.3652 10.2305 16.3359 28.3809q2.30957 15.5107 -3.7959 26.4014t-19.3057 15.1807
l-31.0215 10.2305q-23.1016 7.59082 -33.9922 25.082q-10.8906 17.4902 -7.58984 41.252q3.2998 19.4707 14.1904 33.8262q10.8906 14.3564 28.0518 22.4414q17.1602 8.08594 38.6113 8.08594q31.6816 0 48.0176 -17.6562t12.0459 -47.0273h-29.7012
q2.96973 17.8213 -6.10547 27.8867q-9.07617 10.0654 -28.5469 10.0654q-19.1406 0 -31.3516 -9.24121q-12.2109 -9.24023 -14.8506 -25.7412q-2.31055 -15.1807 3.79492 -26.4014t19.6357 -15.8408l31.3525 -10.5605q22.7705 -7.58984 33.3311 -25.4111
q10.5605 -17.8203 6.93066 -41.9121q-2.9707 -19.8008 -14.6855 -34.6514q-11.7158 -14.8506 -29.7021 -23.1016q-17.9854 -8.25 -40.0967 -8.25zM264.634 245l14.1904 90.0947l-48.5127 150.817h30.0322l32.0117 -99.0049q2.63965 -8.25 4.125 -14.0254
q1.48438 -5.77539 1.81445 -8.41602q1.32031 2.64062 4.45605 8.41602q3.13477 5.77539 8.41504 14.0254l62.7031 99.0049h31.3516l-96.6953 -150.817l-14.1904 -90.0947h-29.7012zM421.181 245l38.2822 240.912h39.2715l41.2529 -206.261q0.65918 8.25098 1.64941 20.2969
q0.990234 12.0449 2.64062 25.4111q1.65039 13.3652 3.62988 25.2461l21.4512 135.307h28.7119l-38.2822 -240.912h-39.2725l-40.9219 206.261q-0.660156 -7.9209 -1.81543 -19.9658q-1.1543 -12.0459 -2.80469 -25.4111q-1.65039 -13.3662 -3.62988 -25.5771
l-21.4512 -135.307h-28.7119z" />
    <glyph glyph-name="endOfTransmissionBlockcontrol" unicode="&#x2417;" 
d="M14.4805 245l38.2822 240.912h138.607l-4.29004 -27.0605h-109.236l-11.8799 -74.584h97.6846l-4.29004 -26.7314h-97.6846l-13.5312 -85.4746h109.235l-4.29004 -27.0615h-138.607zM264.634 245l33.9912 213.852h-66.0029l4.29004 27.0605h161.708l-4.29004 -27.0605
h-66.0029l-33.9922 -213.852h-29.7012zM422.171 245l38.2822 240.912h68.3135q33.001 0 49.0068 -16.5q16.0059 -16.501 11.3857 -45.873q-2.96973 -19.8008 -14.6855 -33.167q-11.7158 -13.3652 -29.8662 -18.3154q18.8105 -5.28027 27.3916 -21.1211
q8.58008 -15.8408 4.9502 -38.9424q-4.9502 -31.0215 -26.7314 -49.0068q-21.7812 -17.9863 -54.7832 -17.9863h-73.2637zM472.993 383.277h38.9424q19.1406 0 31.8467 10.2305t15.6758 27.7217q2.63965 17.4902 -6.60059 27.7207t-28.3809 10.2305h-39.2725z
M455.503 271.731h40.9219q20.791 0 34.4863 11.0557q13.6963 11.0557 16.9961 30.1963q2.9707 19.8008 -7.0957 32.1768q-10.0654 12.376 -30.8564 12.376h-40.9219z" />
    <glyph glyph-name="endOfTransmissionBlockcontrol" 
d="M14.4805 245l38.2822 240.912h138.607l-4.29004 -27.0605h-109.236l-11.8799 -74.584h97.6846l-4.29004 -26.7314h-97.6846l-13.5312 -85.4746h109.235l-4.29004 -27.0615h-138.607zM264.634 245l33.9912 213.852h-66.0029l4.29004 27.0605h161.708l-4.29004 -27.0605
h-66.0029l-33.9922 -213.852h-29.7012zM422.171 245l38.2822 240.912h68.3135q33.001 0 49.0068 -16.5q16.0059 -16.501 11.3857 -45.873q-2.96973 -19.8008 -14.6855 -33.167q-11.7158 -13.3652 -29.8662 -18.3154q18.8105 -5.28027 27.3916 -21.1211
q8.58008 -15.8408 4.9502 -38.9424q-4.9502 -31.0215 -26.7314 -49.0068q-21.7812 -17.9863 -54.7832 -17.9863h-73.2637zM472.993 383.277h38.9424q19.1406 0 31.8467 10.2305t15.6758 27.7217q2.63965 17.4902 -6.60059 27.7207t-28.3809 10.2305h-39.2725z
M455.503 271.731h40.9219q20.791 0 34.4863 11.0557q13.6963 11.0557 16.9961 30.1963q2.9707 19.8008 -7.0957 32.1768q-10.0654 12.376 -30.8564 12.376h-40.9219z" />
    <glyph glyph-name="cancelcontrol" unicode="&#x2418;" 
d="M81.1445 241.7q-33.002 0 -49.1729 18.4805q-16.1709 18.4814 -10.8906 50.8232l17.1611 108.905q5.28027 32.3418 27.2266 50.8223q21.9463 18.4814 54.9473 18.4814q32.3418 0 48.5127 -18.6465q16.1709 -18.6455 11.2207 -50.6572h-29.7012
q3.2998 20.4609 -5.77539 31.5166t-28.5469 11.0557q-19.4707 0 -32.1768 -10.8906q-12.7051 -10.8906 -16.0059 -31.3516l-17.1602 -109.235q-3.30078 -20.4619 5.93945 -31.5176q9.24121 -11.0547 28.7119 -11.0547t32.0117 11.0547q12.541 11.0557 15.8408 31.5176
h29.7012q-5.28027 -32.0117 -27.3906 -50.6582q-22.1113 -18.6455 -54.4531 -18.6455zM196.98 245l100.984 240.912h39.9326l24.0908 -240.912h-29.041l-5.61035 64.0234h-72.9336l-26.0713 -64.0234h-31.3516zM264.304 334.104h60.7227l-6.92969 74.2539
q-1.98047 21.1211 -2.64062 35.3115q-0.660156 14.1914 -0.660156 18.4814q-1.31934 -4.29004 -6.43457 -18.4814q-5.11523 -14.1904 -13.6963 -34.9814zM421.181 245l38.2822 240.912h39.2715l41.2529 -206.261q0.65918 8.25098 1.64941 20.2969
q0.990234 12.0449 2.64062 25.4111q1.65039 13.3652 3.62988 25.2461l21.4512 135.307h28.7119l-38.2822 -240.912h-39.2725l-40.9219 206.261q-0.660156 -7.9209 -1.81543 -19.9658q-1.1543 -12.0459 -2.80469 -25.4111q-1.65039 -13.3662 -3.62988 -25.5771
l-21.4512 -135.307h-28.7119z" />
    <glyph glyph-name="cancelcontrol" 
d="M81.1445 241.7q-33.002 0 -49.1729 18.4805q-16.1709 18.4814 -10.8906 50.8232l17.1611 108.905q5.28027 32.3418 27.2266 50.8223q21.9463 18.4814 54.9473 18.4814q32.3418 0 48.5127 -18.6465q16.1709 -18.6455 11.2207 -50.6572h-29.7012
q3.2998 20.4609 -5.77539 31.5166t-28.5469 11.0557q-19.4707 0 -32.1768 -10.8906q-12.7051 -10.8906 -16.0059 -31.3516l-17.1602 -109.235q-3.30078 -20.4619 5.93945 -31.5176q9.24121 -11.0547 28.7119 -11.0547t32.0117 11.0547q12.541 11.0557 15.8408 31.5176
h29.7012q-5.28027 -32.0117 -27.3906 -50.6582q-22.1113 -18.6455 -54.4531 -18.6455zM196.98 245l100.984 240.912h39.9326l24.0908 -240.912h-29.041l-5.61035 64.0234h-72.9336l-26.0713 -64.0234h-31.3516zM264.304 334.104h60.7227l-6.92969 74.2539
q-1.98047 21.1211 -2.64062 35.3115q-0.660156 14.1914 -0.660156 18.4814q-1.31934 -4.29004 -6.43457 -18.4814q-5.11523 -14.1904 -13.6963 -34.9814zM421.181 245l38.2822 240.912h39.2715l41.2529 -206.261q0.65918 8.25098 1.64941 20.2969
q0.990234 12.0449 2.64062 25.4111q1.65039 13.3652 3.62988 25.2461l21.4512 135.307h28.7119l-38.2822 -240.912h-39.2725l-40.9219 206.261q-0.660156 -7.9209 -1.81543 -19.9658q-1.1543 -12.0459 -2.80469 -25.4111q-1.65039 -13.3662 -3.62988 -25.5771
l-21.4512 -135.307h-28.7119z" />
    <glyph glyph-name="endOfMediumcontrol" unicode="&#x2419;" 
d="M117.48 245l38.2822 240.912h138.607l-4.29004 -27.0605h-109.236l-11.8799 -74.584h97.6846l-4.29004 -26.7314h-97.6846l-13.5312 -85.4746h109.235l-4.29004 -27.0615h-138.607zM312.561 245l38.2822 240.912h38.2822l12.54 -77.8838
q1.65039 -10.5605 3.13574 -20.9561q1.48438 -10.3955 2.14453 -16.0059q2.31055 5.61035 6.60059 16.0059t9.24023 21.2861l36.3018 77.5537h39.6025l-38.2822 -240.912h-29.041l13.8604 87.4541q2.63965 15.5107 6.43555 33.9922q3.79492 18.4814 8.41504 37.457
t9.0752 36.4668q4.45605 17.4912 8.08594 30.6914l-57.7529 -120.456h-31.3516l-20.4609 120.456q-0.330078 -12.8701 -1.48535 -29.8662t-2.64062 -35.9717q-1.48438 -18.9766 -3.46484 -37.7871q-1.98047 -18.8115 -4.62012 -34.9824l-13.8613 -87.4541h-29.041z" />
    <glyph glyph-name="endOfMediumcontrol" 
d="M117.48 245l38.2822 240.912h138.607l-4.29004 -27.0605h-109.236l-11.8799 -74.584h97.6846l-4.29004 -26.7314h-97.6846l-13.5312 -85.4746h109.235l-4.29004 -27.0615h-138.607zM312.561 245l38.2822 240.912h38.2822l12.54 -77.8838
q1.65039 -10.5605 3.13574 -20.9561q1.48438 -10.3955 2.14453 -16.0059q2.31055 5.61035 6.60059 16.0059t9.24023 21.2861l36.3018 77.5537h39.6025l-38.2822 -240.912h-29.041l13.8604 87.4541q2.63965 15.5107 6.43555 33.9922q3.79492 18.4814 8.41504 37.457
t9.0752 36.4668q4.45605 17.4912 8.08594 30.6914l-57.7529 -120.456h-31.3516l-20.4609 120.456q-0.330078 -12.8701 -1.48535 -29.8662t-2.64062 -35.9717q-1.48438 -18.9766 -3.46484 -37.7871q-1.98047 -18.8115 -4.62012 -34.9824l-13.8613 -87.4541h-29.041z" />
    <glyph glyph-name="substitutecontrol" unicode="&#x241a;" 
d="M81.1445 241.7q-35.3115 0 -52.8027 17.6553q-17.4912 17.6562 -13.2012 48.3477h29.7021q-2.9707 -18.1504 7.75488 -28.7109t32.8369 -10.5605q20.791 0 34.1572 10.2305q13.3652 10.2305 16.3359 28.3809q2.30957 15.5107 -3.7959 26.4014t-19.3057 15.1807
l-31.0215 10.2305q-23.1016 7.59082 -33.9922 25.082q-10.8906 17.4902 -7.58984 41.252q3.2998 19.4707 14.1904 33.8262q10.8906 14.3564 28.0518 22.4414q17.1602 8.08594 38.6113 8.08594q31.6816 0 48.0176 -17.6562t12.0459 -47.0273h-29.7012
q2.96973 17.8213 -6.10547 27.8867q-9.07617 10.0654 -28.5469 10.0654q-19.1406 0 -31.3516 -9.24121q-12.2109 -9.24023 -14.8506 -25.7412q-2.31055 -15.1807 3.79492 -26.4014t19.6357 -15.8408l31.3525 -10.5605q22.7705 -7.58984 33.3311 -25.4111
q10.5605 -17.8203 6.93066 -41.9121q-2.9707 -19.8008 -14.6855 -34.6514q-11.7158 -14.8506 -29.7021 -23.1016q-17.9854 -8.25 -40.0967 -8.25zM278.824 241.7q-33.6621 0 -48.5127 18.6455q-14.8506 18.6465 -9.57031 50.6582l27.7217 174.908h29.7012l-27.7207 -174.908
q-3.30078 -19.8018 4.62012 -31.3525q7.91992 -11.5498 28.0508 -11.5498q19.8018 0 31.5166 11.5498q11.7158 11.5508 15.0156 31.3525l27.7217 174.908h29.7021l-27.7217 -174.908q-5.28027 -32.3418 -25.9062 -50.8232q-20.626 -18.4805 -54.6182 -18.4805zM422.171 245
l38.2822 240.912h68.3135q33.001 0 49.0068 -16.5q16.0059 -16.501 11.3857 -45.873q-2.96973 -19.8008 -14.6855 -33.167q-11.7158 -13.3652 -29.8662 -18.3154q18.8105 -5.28027 27.3916 -21.1211q8.58008 -15.8408 4.9502 -38.9424q-4.9502 -31.0215 -26.7314 -49.0068
q-21.7812 -17.9863 -54.7832 -17.9863h-73.2637zM472.993 383.277h38.9424q19.1406 0 31.8467 10.2305t15.6758 27.7217q2.63965 17.4902 -6.60059 27.7207t-28.3809 10.2305h-39.2725zM455.503 271.731h40.9219q20.791 0 34.4863 11.0557q13.6963 11.0557 16.9961 30.1963
q2.9707 19.8008 -7.0957 32.1768q-10.0654 12.376 -30.8564 12.376h-40.9219z" />
    <glyph glyph-name="substitutecontrol" 
d="M81.1445 241.7q-35.3115 0 -52.8027 17.6553q-17.4912 17.6562 -13.2012 48.3477h29.7021q-2.9707 -18.1504 7.75488 -28.7109t32.8369 -10.5605q20.791 0 34.1572 10.2305q13.3652 10.2305 16.3359 28.3809q2.30957 15.5107 -3.7959 26.4014t-19.3057 15.1807
l-31.0215 10.2305q-23.1016 7.59082 -33.9922 25.082q-10.8906 17.4902 -7.58984 41.252q3.2998 19.4707 14.1904 33.8262q10.8906 14.3564 28.0518 22.4414q17.1602 8.08594 38.6113 8.08594q31.6816 0 48.0176 -17.6562t12.0459 -47.0273h-29.7012
q2.96973 17.8213 -6.10547 27.8867q-9.07617 10.0654 -28.5469 10.0654q-19.1406 0 -31.3516 -9.24121q-12.2109 -9.24023 -14.8506 -25.7412q-2.31055 -15.1807 3.79492 -26.4014t19.6357 -15.8408l31.3525 -10.5605q22.7705 -7.58984 33.3311 -25.4111
q10.5605 -17.8203 6.93066 -41.9121q-2.9707 -19.8008 -14.6855 -34.6514q-11.7158 -14.8506 -29.7021 -23.1016q-17.9854 -8.25 -40.0967 -8.25zM278.824 241.7q-33.6621 0 -48.5127 18.6455q-14.8506 18.6465 -9.57031 50.6582l27.7217 174.908h29.7012l-27.7207 -174.908
q-3.30078 -19.8018 4.62012 -31.3525q7.91992 -11.5498 28.0508 -11.5498q19.8018 0 31.5166 11.5498q11.7158 11.5508 15.0156 31.3525l27.7217 174.908h29.7021l-27.7217 -174.908q-5.28027 -32.3418 -25.9062 -50.8232q-20.626 -18.4805 -54.6182 -18.4805zM422.171 245
l38.2822 240.912h68.3135q33.001 0 49.0068 -16.5q16.0059 -16.501 11.3857 -45.873q-2.96973 -19.8008 -14.6855 -33.167q-11.7158 -13.3652 -29.8662 -18.3154q18.8105 -5.28027 27.3916 -21.1211q8.58008 -15.8408 4.9502 -38.9424q-4.9502 -31.0215 -26.7314 -49.0068
q-21.7812 -17.9863 -54.7832 -17.9863h-73.2637zM472.993 383.277h38.9424q19.1406 0 31.8467 10.2305t15.6758 27.7217q2.63965 17.4902 -6.60059 27.7207t-28.3809 10.2305h-39.2725zM455.503 271.731h40.9219q20.791 0 34.4863 11.0557q13.6963 11.0557 16.9961 30.1963
q2.9707 19.8008 -7.0957 32.1768q-10.0654 12.376 -30.8564 12.376h-40.9219z" />
    <glyph glyph-name="escapecontrol" unicode="&#x241b;" 
d="M14.4805 245l38.2822 240.912h138.607l-4.29004 -27.0605h-109.236l-11.8799 -74.584h97.6846l-4.29004 -26.7314h-97.6846l-13.5312 -85.4746h109.235l-4.29004 -27.0615h-138.607zM280.145 241.7q-35.3115 0 -52.8027 17.6553q-17.4912 17.6562 -13.2012 48.3477
h29.7021q-2.9707 -18.1504 7.75488 -28.7109t32.8369 -10.5605q20.791 0 34.1572 10.2305q13.3652 10.2305 16.3359 28.3809q2.30957 15.5107 -3.7959 26.4014t-19.3057 15.1807l-31.0215 10.2305q-23.1016 7.59082 -33.9922 25.082q-10.8906 17.4902 -7.58984 41.252
q3.2998 19.4707 14.1904 33.8262q10.8906 14.3564 28.0518 22.4414q17.1602 8.08594 38.6113 8.08594q31.6816 0 48.0176 -17.6562t12.0459 -47.0273h-29.7012q2.96973 17.8213 -6.10547 27.8867q-9.07617 10.0654 -28.5469 10.0654q-19.1406 0 -31.3516 -9.24121
q-12.2109 -9.24023 -14.8506 -25.7412q-2.31055 -15.1807 3.79492 -26.4014t19.6357 -15.8408l31.3525 -10.5605q22.7705 -7.58984 33.3311 -25.4111q10.5605 -17.8203 6.93066 -41.9121q-2.9707 -19.8008 -14.6855 -34.6514q-11.7158 -14.8506 -29.7021 -23.1016
q-17.9854 -8.25 -40.0967 -8.25zM491.145 241.7q-33.002 0 -49.1729 18.4805q-16.1709 18.4814 -10.8906 50.8232l17.1611 108.905q5.28027 32.3418 27.2266 50.8223q21.9463 18.4814 54.9473 18.4814q32.3418 0 48.5127 -18.6465q16.1709 -18.6455 11.2207 -50.6572
h-29.7012q3.2998 20.4609 -5.77539 31.5166t-28.5469 11.0557q-19.4707 0 -32.1768 -10.8906q-12.7051 -10.8906 -16.0059 -31.3516l-17.1602 -109.235q-3.30078 -20.4619 5.93945 -31.5176q9.24121 -11.0547 28.7119 -11.0547t32.0117 11.0547
q12.541 11.0557 15.8408 31.5176h29.7012q-5.28027 -32.0117 -27.3906 -50.6582q-22.1113 -18.6455 -54.4531 -18.6455z" />
    <glyph glyph-name="escapecontrol" 
d="M14.4805 245l38.2822 240.912h138.607l-4.29004 -27.0605h-109.236l-11.8799 -74.584h97.6846l-4.29004 -26.7314h-97.6846l-13.5312 -85.4746h109.235l-4.29004 -27.0615h-138.607zM280.145 241.7q-35.3115 0 -52.8027 17.6553q-17.4912 17.6562 -13.2012 48.3477
h29.7021q-2.9707 -18.1504 7.75488 -28.7109t32.8369 -10.5605q20.791 0 34.1572 10.2305q13.3652 10.2305 16.3359 28.3809q2.30957 15.5107 -3.7959 26.4014t-19.3057 15.1807l-31.0215 10.2305q-23.1016 7.59082 -33.9922 25.082q-10.8906 17.4902 -7.58984 41.252
q3.2998 19.4707 14.1904 33.8262q10.8906 14.3564 28.0518 22.4414q17.1602 8.08594 38.6113 8.08594q31.6816 0 48.0176 -17.6562t12.0459 -47.0273h-29.7012q2.96973 17.8213 -6.10547 27.8867q-9.07617 10.0654 -28.5469 10.0654q-19.1406 0 -31.3516 -9.24121
q-12.2109 -9.24023 -14.8506 -25.7412q-2.31055 -15.1807 3.79492 -26.4014t19.6357 -15.8408l31.3525 -10.5605q22.7705 -7.58984 33.3311 -25.4111q10.5605 -17.8203 6.93066 -41.9121q-2.9707 -19.8008 -14.6855 -34.6514q-11.7158 -14.8506 -29.7021 -23.1016
q-17.9854 -8.25 -40.0967 -8.25zM491.145 241.7q-33.002 0 -49.1729 18.4805q-16.1709 18.4814 -10.8906 50.8232l17.1611 108.905q5.28027 32.3418 27.2266 50.8223q21.9463 18.4814 54.9473 18.4814q32.3418 0 48.5127 -18.6465q16.1709 -18.6455 11.2207 -50.6572
h-29.7012q3.2998 20.4609 -5.77539 31.5166t-28.5469 11.0557q-19.4707 0 -32.1768 -10.8906q-12.7051 -10.8906 -16.0059 -31.3516l-17.1602 -109.235q-3.30078 -20.4619 5.93945 -31.5176q9.24121 -11.0547 28.7119 -11.0547t32.0117 11.0547
q12.541 11.0557 15.8408 31.5176h29.7012q-5.28027 -32.0117 -27.3906 -50.6582q-22.1113 -18.6455 -54.4531 -18.6455z" />
    <glyph glyph-name="fileSeparatorcontrol" unicode="&#x241c;" 
d="M115.831 245l38.2822 240.912h141.907l-4.29004 -27.0605h-112.866l-12.8711 -79.8643h104.286l-4.29102 -27.0615h-103.625l-16.8311 -106.926h-29.7012zM387.145 241.7q-35.3115 0 -52.8027 17.6553q-17.4912 17.6562 -13.2012 48.3477h29.7021
q-2.9707 -18.1504 7.75488 -28.7109t32.8369 -10.5605q20.791 0 34.1572 10.2305q13.3652 10.2305 16.3359 28.3809q2.30957 15.5107 -3.7959 26.4014t-19.3057 15.1807l-31.0215 10.2305q-23.1016 7.59082 -33.9922 25.082q-10.8906 17.4902 -7.58984 41.252
q3.2998 19.4707 14.1904 33.8262q10.8906 14.3564 28.0518 22.4414q17.1602 8.08594 38.6113 8.08594q31.6816 0 48.0176 -17.6562t12.0459 -47.0273h-29.7012q2.96973 17.8213 -6.10547 27.8867q-9.07617 10.0654 -28.5469 10.0654q-19.1406 0 -31.3516 -9.24121
q-12.2109 -9.24023 -14.8506 -25.7412q-2.31055 -15.1807 3.79492 -26.4014t19.6357 -15.8408l31.3525 -10.5605q22.7705 -7.58984 33.3311 -25.4111q10.5605 -17.8203 6.93066 -41.9121q-2.9707 -19.8008 -14.6855 -34.6514q-11.7158 -14.8506 -29.7021 -23.1016
q-17.9854 -8.25 -40.0967 -8.25z" />
    <glyph glyph-name="fileSeparatorcontrol" 
d="M115.831 245l38.2822 240.912h141.907l-4.29004 -27.0605h-112.866l-12.8711 -79.8643h104.286l-4.29102 -27.0615h-103.625l-16.8311 -106.926h-29.7012zM387.145 241.7q-35.3115 0 -52.8027 17.6553q-17.4912 17.6562 -13.2012 48.3477h29.7021
q-2.9707 -18.1504 7.75488 -28.7109t32.8369 -10.5605q20.791 0 34.1572 10.2305q13.3652 10.2305 16.3359 28.3809q2.30957 15.5107 -3.7959 26.4014t-19.3057 15.1807l-31.0215 10.2305q-23.1016 7.59082 -33.9922 25.082q-10.8906 17.4902 -7.58984 41.252
q3.2998 19.4707 14.1904 33.8262q10.8906 14.3564 28.0518 22.4414q17.1602 8.08594 38.6113 8.08594q31.6816 0 48.0176 -17.6562t12.0459 -47.0273h-29.7012q2.96973 17.8213 -6.10547 27.8867q-9.07617 10.0654 -28.5469 10.0654q-19.1406 0 -31.3516 -9.24121
q-12.2109 -9.24023 -14.8506 -25.7412q-2.31055 -15.1807 3.79492 -26.4014t19.6357 -15.8408l31.3525 -10.5605q22.7705 -7.58984 33.3311 -25.4111q10.5605 -17.8203 6.93066 -41.9121q-2.9707 -19.8008 -14.6855 -34.6514q-11.7158 -14.8506 -29.7021 -23.1016
q-17.9854 -8.25 -40.0967 -8.25z" />
    <glyph glyph-name="groupSeparatorcontrol" unicode="&#x241d;" 
d="M184.145 241.7q-33.002 0 -49.1729 18.4805q-16.1709 18.4814 -10.8906 50.8232l17.1611 108.905q5.28027 32.3418 27.2266 50.8223q21.9463 18.4814 54.9473 18.4814q32.3418 0 48.5127 -18.6465q16.1709 -18.6455 11.2207 -50.6572h-29.7012
q3.2998 20.4609 -5.77539 31.5166t-28.5469 11.0557q-19.4707 0 -32.1768 -10.8906q-12.7051 -10.8906 -16.0059 -31.3516l-17.1602 -109.235q-3.30078 -20.4619 5.93945 -31.6816q9.24121 -11.2207 28.7119 -11.2207t32.0117 11.2207q12.541 11.2197 15.8408 31.6816
l4.62012 29.7012h-48.8428l4.29102 27.0615h78.5439l-8.91113 -56.7627q-3.2998 -21.1211 -14.5205 -36.7979q-11.2207 -15.6758 -28.3818 -24.0908q-17.1602 -8.41504 -38.9414 -8.41504zM387.145 241.7q-35.3115 0 -52.8027 17.6553q-17.4912 17.6562 -13.2012 48.3477
h29.7021q-2.9707 -18.1504 7.75488 -28.7109t32.8369 -10.5605q20.791 0 34.1572 10.2305q13.3652 10.2305 16.3359 28.3809q2.30957 15.5107 -3.7959 26.4014t-19.3057 15.1807l-31.0215 10.2305q-23.1016 7.59082 -33.9922 25.082q-10.8906 17.4902 -7.58984 41.252
q3.2998 19.4707 14.1904 33.8262q10.8906 14.3564 28.0518 22.4414q17.1602 8.08594 38.6113 8.08594q31.6816 0 48.0176 -17.6562t12.0459 -47.0273h-29.7012q2.96973 17.8213 -6.10547 27.8867q-9.07617 10.0654 -28.5469 10.0654q-19.1406 0 -31.3516 -9.24121
q-12.2109 -9.24023 -14.8506 -25.7412q-2.31055 -15.1807 3.79492 -26.4014t19.6357 -15.8408l31.3525 -10.5605q22.7705 -7.58984 33.3311 -25.4111q10.5605 -17.8203 6.93066 -41.9121q-2.9707 -19.8008 -14.6855 -34.6514q-11.7158 -14.8506 -29.7021 -23.1016
q-17.9854 -8.25 -40.0967 -8.25z" />
    <glyph glyph-name="groupSeparatorcontrol" 
d="M184.145 241.7q-33.002 0 -49.1729 18.4805q-16.1709 18.4814 -10.8906 50.8232l17.1611 108.905q5.28027 32.3418 27.2266 50.8223q21.9463 18.4814 54.9473 18.4814q32.3418 0 48.5127 -18.6465q16.1709 -18.6455 11.2207 -50.6572h-29.7012
q3.2998 20.4609 -5.77539 31.5166t-28.5469 11.0557q-19.4707 0 -32.1768 -10.8906q-12.7051 -10.8906 -16.0059 -31.3516l-17.1602 -109.235q-3.30078 -20.4619 5.93945 -31.6816q9.24121 -11.2207 28.7119 -11.2207t32.0117 11.2207q12.541 11.2197 15.8408 31.6816
l4.62012 29.7012h-48.8428l4.29102 27.0615h78.5439l-8.91113 -56.7627q-3.2998 -21.1211 -14.5205 -36.7979q-11.2207 -15.6758 -28.3818 -24.0908q-17.1602 -8.41504 -38.9414 -8.41504zM387.145 241.7q-35.3115 0 -52.8027 17.6553q-17.4912 17.6562 -13.2012 48.3477
h29.7021q-2.9707 -18.1504 7.75488 -28.7109t32.8369 -10.5605q20.791 0 34.1572 10.2305q13.3652 10.2305 16.3359 28.3809q2.30957 15.5107 -3.7959 26.4014t-19.3057 15.1807l-31.0215 10.2305q-23.1016 7.59082 -33.9922 25.082q-10.8906 17.4902 -7.58984 41.252
q3.2998 19.4707 14.1904 33.8262q10.8906 14.3564 28.0518 22.4414q17.1602 8.08594 38.6113 8.08594q31.6816 0 48.0176 -17.6562t12.0459 -47.0273h-29.7012q2.96973 17.8213 -6.10547 27.8867q-9.07617 10.0654 -28.5469 10.0654q-19.1406 0 -31.3516 -9.24121
q-12.2109 -9.24023 -14.8506 -25.7412q-2.31055 -15.1807 3.79492 -26.4014t19.6357 -15.8408l31.3525 -10.5605q22.7705 -7.58984 33.3311 -25.4111q10.5605 -17.8203 6.93066 -41.9121q-2.9707 -19.8008 -14.6855 -34.6514q-11.7158 -14.8506 -29.7021 -23.1016
q-17.9854 -8.25 -40.0967 -8.25z" />
    <glyph glyph-name="recordSeparatorcontrol" unicode="&#x241e;" 
d="M114.841 245l38.2822 240.912h74.584q21.4512 0 36.1367 -8.74512t21.1211 -24.2559t3.13477 -36.3018q-3.62988 -24.752 -19.4707 -42.2422q-15.8408 -17.4912 -38.9424 -24.0918l34.6523 -105.275h-33.6621l-31.3516 102.306h-38.6123l-16.1709 -102.306h-29.7012z
M165.004 374.037h44.8818q18.4814 0 31.5166 11.7148q13.0361 11.7158 16.0059 30.8574q3.2998 19.4707 -6.10547 31.0215q-9.40527 11.5498 -27.8867 11.5498h-44.8818zM387.145 241.7q-35.3115 0 -52.8027 17.6553q-17.4912 17.6562 -13.2012 48.3477h29.7021
q-2.9707 -18.1504 7.75488 -28.7109t32.8369 -10.5605q20.791 0 34.1572 10.2305q13.3652 10.2305 16.3359 28.3809q2.30957 15.5107 -3.7959 26.4014t-19.3057 15.1807l-31.0215 10.2305q-23.1016 7.59082 -33.9922 25.082q-10.8906 17.4902 -7.58984 41.252
q3.2998 19.4707 14.1904 33.8262q10.8906 14.3564 28.0518 22.4414q17.1602 8.08594 38.6113 8.08594q31.6816 0 48.0176 -17.6562t12.0459 -47.0273h-29.7012q2.96973 17.8213 -6.10547 27.8867q-9.07617 10.0654 -28.5469 10.0654q-19.1406 0 -31.3516 -9.24121
q-12.2109 -9.24023 -14.8506 -25.7412q-2.31055 -15.1807 3.79492 -26.4014t19.6357 -15.8408l31.3525 -10.5605q22.7705 -7.58984 33.3311 -25.4111q10.5605 -17.8203 6.93066 -41.9121q-2.9707 -19.8008 -14.6855 -34.6514q-11.7158 -14.8506 -29.7021 -23.1016
q-17.9854 -8.25 -40.0967 -8.25z" />
    <glyph glyph-name="recordSeparatorcontrol" 
d="M114.841 245l38.2822 240.912h74.584q21.4512 0 36.1367 -8.74512t21.1211 -24.2559t3.13477 -36.3018q-3.62988 -24.752 -19.4707 -42.2422q-15.8408 -17.4912 -38.9424 -24.0918l34.6523 -105.275h-33.6621l-31.3516 102.306h-38.6123l-16.1709 -102.306h-29.7012z
M165.004 374.037h44.8818q18.4814 0 31.5166 11.7148q13.0361 11.7158 16.0059 30.8574q3.2998 19.4707 -6.10547 31.0215q-9.40527 11.5498 -27.8867 11.5498h-44.8818zM387.145 241.7q-35.3115 0 -52.8027 17.6553q-17.4912 17.6562 -13.2012 48.3477h29.7021
q-2.9707 -18.1504 7.75488 -28.7109t32.8369 -10.5605q20.791 0 34.1572 10.2305q13.3652 10.2305 16.3359 28.3809q2.30957 15.5107 -3.7959 26.4014t-19.3057 15.1807l-31.0215 10.2305q-23.1016 7.59082 -33.9922 25.082q-10.8906 17.4902 -7.58984 41.252
q3.2998 19.4707 14.1904 33.8262q10.8906 14.3564 28.0518 22.4414q17.1602 8.08594 38.6113 8.08594q31.6816 0 48.0176 -17.6562t12.0459 -47.0273h-29.7012q2.96973 17.8213 -6.10547 27.8867q-9.07617 10.0654 -28.5469 10.0654q-19.1406 0 -31.3516 -9.24121
q-12.2109 -9.24023 -14.8506 -25.7412q-2.31055 -15.1807 3.79492 -26.4014t19.6357 -15.8408l31.3525 -10.5605q22.7705 -7.58984 33.3311 -25.4111q10.5605 -17.8203 6.93066 -41.9121q-2.9707 -19.8008 -14.6855 -34.6514q-11.7158 -14.8506 -29.7021 -23.1016
q-17.9854 -8.25 -40.0967 -8.25z" />
    <glyph glyph-name="unitSeparatorcontrol" unicode="&#x241f;" 
d="M182.824 241.7q-33.6621 0 -48.5127 18.6455q-14.8506 18.6465 -9.57031 50.6582l27.7217 174.908h29.7012l-27.7207 -174.908q-3.30078 -19.8018 4.62012 -31.3525q7.91992 -11.5498 28.0508 -11.5498q19.8018 0 31.5166 11.5498q11.7158 11.5508 15.0156 31.3525
l27.7217 174.908h29.7021l-27.7217 -174.908q-5.28027 -32.3418 -25.9062 -50.8232q-20.626 -18.4805 -54.6182 -18.4805zM387.145 241.7q-35.3115 0 -52.8027 17.6553q-17.4912 17.6562 -13.2012 48.3477h29.7021q-2.9707 -18.1504 7.75488 -28.7109t32.8369 -10.5605
q20.791 0 34.1572 10.2305q13.3652 10.2305 16.3359 28.3809q2.30957 15.5107 -3.7959 26.4014t-19.3057 15.1807l-31.0215 10.2305q-23.1016 7.59082 -33.9922 25.082q-10.8906 17.4902 -7.58984 41.252q3.2998 19.4707 14.1904 33.8262q10.8906 14.3564 28.0518 22.4414
q17.1602 8.08594 38.6113 8.08594q31.6816 0 48.0176 -17.6562t12.0459 -47.0273h-29.7012q2.96973 17.8213 -6.10547 27.8867q-9.07617 10.0654 -28.5469 10.0654q-19.1406 0 -31.3516 -9.24121q-12.2109 -9.24023 -14.8506 -25.7412q-2.31055 -15.1807 3.79492 -26.4014
t19.6357 -15.8408l31.3525 -10.5605q22.7705 -7.58984 33.3311 -25.4111q10.5605 -17.8203 6.93066 -41.9121q-2.9707 -19.8008 -14.6855 -34.6514q-11.7158 -14.8506 -29.7021 -23.1016q-17.9854 -8.25 -40.0967 -8.25z" />
    <glyph glyph-name="unitSeparatorcontrol" 
d="M182.824 241.7q-33.6621 0 -48.5127 18.6455q-14.8506 18.6465 -9.57031 50.6582l27.7217 174.908h29.7012l-27.7207 -174.908q-3.30078 -19.8018 4.62012 -31.3525q7.91992 -11.5498 28.0508 -11.5498q19.8018 0 31.5166 11.5498q11.7158 11.5508 15.0156 31.3525
l27.7217 174.908h29.7021l-27.7217 -174.908q-5.28027 -32.3418 -25.9062 -50.8232q-20.626 -18.4805 -54.6182 -18.4805zM387.145 241.7q-35.3115 0 -52.8027 17.6553q-17.4912 17.6562 -13.2012 48.3477h29.7021q-2.9707 -18.1504 7.75488 -28.7109t32.8369 -10.5605
q20.791 0 34.1572 10.2305q13.3652 10.2305 16.3359 28.3809q2.30957 15.5107 -3.7959 26.4014t-19.3057 15.1807l-31.0215 10.2305q-23.1016 7.59082 -33.9922 25.082q-10.8906 17.4902 -7.58984 41.252q3.2998 19.4707 14.1904 33.8262q10.8906 14.3564 28.0518 22.4414
q17.1602 8.08594 38.6113 8.08594q31.6816 0 48.0176 -17.6562t12.0459 -47.0273h-29.7012q2.96973 17.8213 -6.10547 27.8867q-9.07617 10.0654 -28.5469 10.0654q-19.1406 0 -31.3516 -9.24121q-12.2109 -9.24023 -14.8506 -25.7412q-2.31055 -15.1807 3.79492 -26.4014
t19.6357 -15.8408l31.3525 -10.5605q22.7705 -7.58984 33.3311 -25.4111q10.5605 -17.8203 6.93066 -41.9121q-2.9707 -19.8008 -14.6855 -34.6514q-11.7158 -14.8506 -29.7021 -23.1016q-17.9854 -8.25 -40.0967 -8.25z" />
    <glyph glyph-name="space" unicode=" " 
 />
    <glyph glyph-name="exclam" unicode="!" 
d="M258 215l42 395l19 120h106l-19 -120l-84 -395h-64zM240 -5q-26 0 -40 17t-10 43t23.5 43t45.5 17h30q29 0 42 -16.5t9 -42.5t-24 -43.5t-46 -17.5h-30z" />
    <glyph glyph-name="quotedbl" unicode="&#x22;" 
d="M389 430l21 210l15 90h97l-15 -90l-44 -210h-74zM186 430l21 210l15 90h97l-15 -90l-44 -210h-74z" />
    <glyph glyph-name="numbersign" unicode="#" 
d="M38 0l69 200h-84l10 65h96l68 200h-97l10 65h109l69 200h73l-69 -200h156l69 200h73l-69 -200h84l-10 -65h-96l-68 -200h97l-10 -65h-109l-69 -200h-73l69 200h-156l-69 -200h-73zM202 265h156l68 200h-156z" />
    <glyph glyph-name="dollar" unicode="$" 
d="M209 -140l21 131q-94 8 -139 60.5t-33 138.5h90q-7 -49 17.5 -80t76.5 -38l42 262l-26 8q-71 23 -103 77t-21 127q13 80 71 132t143 60l21 132h60l-21 -131q82 -8 123.5 -60t29.5 -134h-90q8 47 -12 76.5t-64 36.5l-39 -248l38 -13q69 -23 100.5 -78t19.5 -129
q-13 -82 -74 -136t-150 -63l-21 -131h-60zM226 554q-7 -45 11.5 -78t61.5 -47l36 229q-45 -7 -73.5 -34t-35.5 -70zM302 72q50 8 82.5 38t39.5 78q7 44 -12 77t-60 46l-11 4z" />
    <glyph glyph-name="percent" unicode="%" 
d="M174 400q-63 0 -95 36t-22 99l10 65q10 63 53.5 99t106.5 36t95.5 -36t22.5 -99l-10 -65q-10 -63 -54 -99t-107 -36zM-30 0l612 730h76l-612 -730h-76zM185 468q66 0 76 67l10 65q10 67 -54 67q-66 0 -76 -67l-10 -65q-10 -67 54 -67zM400 -5q-63 0 -95 36t-22 99l10 65
q10 63 53.5 99t106.5 36t95.5 -36t22.5 -99l-10 -65q-10 -63 -54 -99t-107 -36zM411 64q66 0 76 66l10 65q10 67 -55 67t-75 -67l-10 -65q-10 -66 54 -66z" />
    <glyph glyph-name="ampersand" unicode="&#x26;" 
d="M184 -10q-82 0 -121.5 44t-26.5 121l19 125q8 53 42 89.5t87 51.5l-6 10q-46 81 -35 150q11 72 67.5 115.5t137.5 43.5q87 0 131 -46t31 -125h-90q7 44 -15.5 68.5t-68.5 24.5q-41 0 -69 -22.5t-34 -60.5q-4 -25 2 -54t20 -55l135 -237l91 127h94l-145 -199l92 -161h-99
l-49 87q-89 -97 -190 -97zM202 70q34 0 69.5 22.5t63.5 62.5l-115 203q-64 -11 -75 -78l-19 -125q-7 -40 13 -62.5t63 -22.5z" />
    <glyph glyph-name="quotesingle" unicode="'" 
d="M282 430l12 150l24 150h97l-24 -150l-35 -150h-74z" />
    <glyph glyph-name="parenleft" unicode="(" 
d="M421 -125q-136 35 -199 138t-39 252l30 190q16 98 65 177.5t125 134.5t172 78l-14 -85q-66 -15 -120 -57.5t-89.5 -105.5t-48.5 -142l-30 -190q-12 -77 3.5 -140t56 -104.5t102.5 -56.5z" />
    <glyph glyph-name="parenright" unicode=")" 
d="M51 -125l14 89q67 15 120.5 56.5t89.5 104.5t48 140l30 190q13 79 -3 142t-56.5 105.5t-102.5 57.5l14 85q89 -23 147.5 -78t82.5 -134.5t8 -177.5l-30 -190q-16 -99 -64 -178.5t-123.5 -133.5t-174.5 -78z" />
    <glyph glyph-name="asterisk" unicode="*" 
d="M153 94l-64 50l66 78q24 28 57.5 55.5t58.5 45.5l-2 7q-28 2 -66 8t-67 17l-83 32l43 83l83 -32q30 -11 61 -32.5t51 -38.5l6 4q-3 28 -5 69t3 75l15 95h88l-15 -95q-5 -34 -20.5 -75t-28.5 -69l4 -4q26 17 63.5 38.5t70.5 32.5l94 32l17 -83l-94 -32q-32 -11 -71.5 -17
t-68.5 -8l-5 -8q20 -18 44 -45.5t39 -54.5l43 -78l-80 -50l-43 78q-15 27 -24.5 64t-14.5 64h-7q-14 -27 -36.5 -63.5t-45.5 -64.5z" />
    <glyph glyph-name="plus" unicode="+" 
d="M227 95l31 195h-191l13 80h191l30 195h88l-30 -195h191l-13 -80h-191l-31 -195h-88z" />
    <glyph glyph-name="comma" unicode="," 
d="M94 -160l129 311h134l-179 -311h-84z" />
    <glyph glyph-name="hyphen" unicode="-" 
d="M142 290l13 80h320l-13 -80h-320z" />
    <glyph glyph-name="period" unicode="." 
d="M254 -10q-38 0 -57 22t-13 59q6 39 32.5 62t64.5 23t56.5 -23t12.5 -62q-6 -37 -32 -59t-64 -22z" />
    <glyph glyph-name="slash" unicode="/" 
d="M14 -110l501 940h97l-501 -940h-97z" />
    <glyph glyph-name="zero" unicode="0" 
d="M254 -10q-101 0 -151.5 58.5t-34.5 156.5l51 320q11 66 45 114t88 74.5t121 26.5q101 0 151.5 -58.5t34.5 -156.5l-51 -320q-10 -65 -45 -113.5t-88.5 -75t-120.5 -26.5zM267 67q60 0 102 38.5t52 99.5l51 320q10 61 -20.5 99.5t-90.5 38.5t-102.5 -38.5t-52.5 -99.5
l-51 -320q-10 -61 21 -99.5t91 -38.5zM314 306q-27 0 -43.5 17t-16.5 45q0 27 16.5 43.5t43.5 16.5t43.5 -16.5t16.5 -43.5q0 -28 -16.5 -45t-43.5 -17z" />
    <glyph glyph-name="one" unicode="1" 
d="M46 0l13 82h198l91 573l-222 -148l16 100l185 123h123l-103 -648h162l-13 -82h-450z" />
    <glyph glyph-name="two" unicode="2" 
d="M48 0l14 89l273 254q61 56 91.5 100t37.5 86q9 60 -20 95.5t-89 35.5q-61 0 -102.5 -36.5t-51.5 -98.5h-90q19 99 88 157t168 58q101 0 151.5 -57t35.5 -155q-8 -52 -45 -109.5t-117 -130.5l-226 -206h329l-13 -82h-434z" />
    <glyph glyph-name="three" unicode="3" 
d="M243 -10q-66 0 -111 26.5t-64.5 73.5t-9.5 110h90q-10 -61 19 -95.5t90 -34.5q62 0 101.5 36t49.5 94l8 50q10 62 -19 96t-91 34h-79l13 78l204 190h-285l13 82h387l-14 -84l-200 -187q88 -7 131.5 -63t29.5 -146l-8 -50q-15 -97 -83.5 -153.5t-171.5 -56.5z" />
    <glyph glyph-name="four" unicode="4" 
d="M356 0l25 160h-330l23 141l334 429h99l-347 -450l-6 -38h240l29 178h90l-67 -420h-90z" />
    <glyph glyph-name="five" unicode="5" 
d="M252 -10q-89 0 -138.5 46t-47.5 124h90q-1 -43 27 -66.5t83 -23.5q63 0 100 34t47 96l11 71q10 62 -16 96t-88 34q-39 0 -71.5 -20.5t-50.5 -54.5h-90l69 404h384l-13 -82h-297l-42 -243h4q15 35 53.5 55t92.5 20q89 1 129.5 -54.5t25.5 -154.5l-11 -71
q-15 -97 -81.5 -153.5t-169.5 -56.5z" />
    <glyph glyph-name="six" unicode="6" 
d="M256 -10q-71 0 -119.5 29.5t-70 82t-10.5 121.5q8 48 32 98.5t64 105.5l223 303h99l-251 -337l3 -3q23 27 58.5 43t78.5 16q60 0 101 -28t58.5 -77.5t6.5 -116.5q-11 -71 -49 -124.5t-95.5 -83t-128.5 -29.5zM268 70q65 0 112 42.5t58 112.5t-22.5 112.5t-98.5 42.5
t-112.5 -42.5t-58.5 -112.5t23 -112.5t99 -42.5z" />
    <glyph glyph-name="seven" unicode="7" 
d="M147 0l362 648h-280l-19 -118h-90l32 200h465l-14 -84l-355 -646h-101z" />
    <glyph glyph-name="eight" unicode="8" 
d="M254 -10q-70 0 -119 24.5t-71 68t-13 100.5q10 62 57.5 115.5t118.5 83.5q-60 32 -85 76.5t-17 95.5q9 55 44 97t88 66t116 24t108.5 -24t67 -66t12.5 -97q-8 -50 -47 -94.5t-109 -77.5q62 -30 93 -83.5t21 -115.5q-9 -57 -45 -100.5t-92.5 -68t-127.5 -24.5zM294 427
l27 -11l27 10q50 18 84 51.5t41 73.5q8 49 -23.5 79.5t-89.5 30.5t-98.5 -31t-48.5 -79q-7 -41 16 -74t65 -50zM267 70q66 0 111.5 34.5t53.5 90.5q8 44 -13.5 79.5t-67.5 54.5l-41 17l-48 -18q-51 -19 -83 -54.5t-39 -78.5q-8 -56 26.5 -90.5t100.5 -34.5z" />
    <glyph glyph-name="nine" unicode="9" 
d="M154 0l249 337l-3 3q-22 -27 -56 -43t-77 -16q-60 0 -101 28t-58 78t-7 116q11 71 48.5 124.5t95.5 83t128 29.5q71 0 119.5 -29.5t70 -81.5t10.5 -122q-7 -48 -31.5 -98.5t-64.5 -105.5l-219 -303h-104zM312 350q65 0 112.5 42.5t58.5 112.5t-22.5 112.5t-98.5 42.5
t-112.5 -42.5t-58.5 -112.5t22.5 -112.5t98.5 -42.5z" />
    <glyph glyph-name="colon" unicode=":" 
d="M321 410q-37 0 -56.5 20.5t-14.5 54.5t31.5 54.5t63.5 20.5q38 0 57 -20.5t14 -54.5t-31 -54.5t-64 -20.5zM254 -10q-37 0 -56.5 20.5t-14.5 54.5t31.5 54.5t63.5 20.5q38 0 57 -20.5t14 -54.5t-31 -54.5t-64 -20.5z" />
    <glyph glyph-name="semicolon" unicode=";" 
d="M311 410q-33 0 -50.5 21t-12.5 54q5 32 30 53.5t57 21.5h20q32 0 50 -21.5t13 -53.5q-5 -33 -29.5 -54t-57.5 -21h-20zM101 -160l129 311h130l-179 -311h-80z" />
    <glyph glyph-name="less" unicode="&#x3c;" 
d="M481 65l-396 215l16 100l464 215l-14 -93l-334 -152q-20 -9 -37.5 -15.5t-25.5 -8.5q8 -2 24 -8.5t32 -15.5l286 -153z" />
    <glyph glyph-name="equal" unicode="=" 
d="M106 410l13 80h430l-13 -80h-430zM68 170l13 80h430l-13 -80h-430z" />
    <glyph glyph-name="greater" unicode="&#x3e;" 
d="M51 65l14 91l334 152q20 9 37.5 15.5t26.5 8.5q-9 2 -24.5 8.5t-31.5 15.5l-286 153l14 86l396 -215l-16 -100z" />
    <glyph glyph-name="question" unicode="?" 
d="M199 205l29 180h50q64 0 107 35.5t53 94.5q9 59 -23 94.5t-97 35.5h-125l14 85h125q105 0 158 -58.5t38 -156.5q-9 -57 -40.5 -102.5t-78 -72.5t-103.5 -30l-17 -105h-90zM195 -5q-26 0 -40 17t-10 43t23.5 43t45.5 17h30q29 0 42 -16.5t9 -42.5t-24 -43.5t-46 -17.5h-30
z" />
    <glyph glyph-name="at" unicode="@" 
d="M252 -180q-85 0 -142.5 35.5t-81.5 101t-10 153.5l54 340q15 90 57.5 155t108.5 100t150 35q114 0 169 -65.5t37 -179.5l-68 -430h-78l11 65h-3q-9 -34 -40.5 -54.5t-76.5 -20.5q-65 0 -93.5 39.5t-16.5 115.5l19 120q12 76 53 115.5t106 39.5q45 0 69.5 -20.5
t23.5 -54.5h4l10 80v5q14 85 -21.5 130t-115.5 45q-90 0 -149 -58t-76 -162l-54 -340q-16 -100 28.5 -157.5t137.5 -57.5h70l-12 -75h-70zM375 118q80 0 96 102l17 111q8 47 -8 69t-57 22q-80 0 -95 -92l-19 -120q-15 -92 66 -92z" />
    <glyph glyph-name="A" unicode="A" 
d="M6 0l306 730h121l73 -730h-88l-17 194h-221l-79 -194h-95zM210 270h184l-21 225q-6 64 -8 107t-2 56q-4 -13 -19.5 -56t-41.5 -106z" />
    <glyph glyph-name="B" unicode="B" 
d="M49 0l116 730h207q100 0 148.5 -50t34.5 -139q-9 -60 -44.5 -100.5t-90.5 -55.5q57 -16 83 -64t15 -118q-15 -94 -81 -148.5t-166 -54.5h-222zM203 419h118q58 0 96.5 31t47.5 84q8 53 -20 84t-86 31h-119zM150 81h124q63 0 104.5 33.5t51.5 91.5q9 60 -21.5 97.5
t-93.5 37.5h-124z" />
    <glyph glyph-name="C" unicode="C" 
d="M258 -10q-100 0 -149 56t-33 154l52 330q16 98 82.5 154t166.5 56q98 0 147 -56.5t34 -153.5h-90q10 62 -17.5 95.5t-86.5 33.5t-97.5 -33t-48.5 -95l-52 -331q-10 -62 18 -95.5t87 -33.5t97 33.5t48 95.5h90q-16 -97 -83 -153.5t-165 -56.5z" />
    <glyph glyph-name="D" unicode="D" 
d="M48 0l116 730h189q106 0 159 -59.5t37 -159.5l-46 -291q-10 -67 -46.5 -116.5t-92.5 -76.5t-127 -27h-189zM151 80h99q66 0 109.5 37t53.5 103l46 291q11 65 -21 102t-98 37h-99z" />
    <glyph glyph-name="E" unicode="E" 
d="M56 0l116 730h420l-13 -82h-331l-36 -226h296l-13 -81h-296l-41 -259h331l-13 -82h-420z" />
    <glyph glyph-name="F" unicode="F" 
d="M51 0l116 730h430l-13 -82h-342l-39 -242h316l-13 -82h-314l-51 -324h-90z" />
    <glyph glyph-name="G" unicode="G" 
d="M258 -10q-100 0 -149 56t-33 154l52 330q16 98 82.5 154t166.5 56q98 0 147 -56.5t34 -153.5h-90q10 62 -17.5 95.5t-86.5 33.5t-97.5 -33t-48.5 -95l-52 -331q-10 -62 18 -96t87 -34t97 34t48 96l14 90h-148l13 82h238l-27 -172q-10 -64 -44 -111.5t-86 -73t-118 -25.5z
" />
    <glyph glyph-name="H" unicode="H" 
d="M49 0l116 730h90l-50 -312h234l50 312h90l-116 -730h-90l53 336h-234l-53 -336h-90z" />
    <glyph glyph-name="I" unicode="I" 
d="M61 0l13 82h149l90 566h-149l13 82h390l-13 -82h-149l-90 -566h149l-13 -82h-390z" />
    <glyph glyph-name="J" unicode="J" 
d="M224 -10q-105 0 -155.5 59t-34.5 161h90q-10 -67 19.5 -103.5t93.5 -36.5t105.5 36.5t51.5 103.5l70 438h-205l13 82h295l-83 -520q-16 -105 -84 -162.5t-176 -57.5z" />
    <glyph glyph-name="K" unicode="K" 
d="M48 0l116 730h90l-50 -313h106l212 313h100l-237 -354l131 -376h-100l-116 338h-108l-54 -338h-90z" />
    <glyph glyph-name="L" unicode="L" 
d="M91 0l116 730h90l-103 -648h330l-13 -82h-420z" />
    <glyph glyph-name="M" unicode="M" 
d="M32 0l116 730h116l38 -236q5 -32 9.5 -63.5t6.5 -48.5q7 17 20 48.5t28 64.5l110 235h120l-116 -730h-88l42 265q8 47 19.5 103t25.5 113.5t27.5 110.5t24.5 93l-175 -365h-95l-62 365q-1 -39 -4.5 -90.5t-8 -109t-10.5 -114.5t-14 -106l-42 -265h-88z" />
    <glyph glyph-name="N" unicode="N" 
d="M46 0l116 730h119l125 -625q2 25 5 61.5t8 77t11 76.5l65 410h87l-116 -730h-119l-124 625q-2 -24 -5.5 -60.5t-8.5 -77t-11 -77.5l-65 -410h-87z" />
    <glyph glyph-name="O" unicode="O" 
d="M254 -10q-98 0 -146 56t-32 154l52 330q16 98 81.5 154t163.5 56t146 -55.5t33 -153.5l-52 -331q-16 -98 -82 -154t-164 -56zM267 71q59 0 96 33.5t47 95.5l52 330q10 62 -16.5 95.5t-85.5 33.5q-58 0 -95 -33.5t-47 -95.5l-52 -330q-10 -62 16.5 -95.5t84.5 -33.5z" />
    <glyph glyph-name="P" unicode="P" 
d="M48 0l116 730h235q102 0 153 -58.5t36 -156.5q-10 -65 -45.5 -113.5t-89.5 -75t-122 -26.5h-145l-48 -300h-90zM198 381h145q59 0 100.5 36.5t51.5 97.5q10 62 -20 98t-89 36h-145z" />
    <glyph glyph-name="Q" unicode="Q" 
d="M352 -180l-76 172q-11 -2 -22 -2q-101 0 -151.5 58.5t-34.5 156.5l51 320q11 66 45 114t88 74.5t121 26.5q101 0 151.5 -58.5t34.5 -156.5l-51 -320q-11 -68 -48.5 -118.5t-94.5 -74.5l85 -192h-98zM267 70q59 0 100 37t51 98l51 320q10 62 -19.5 98.5t-88.5 36.5
t-100.5 -36.5t-51.5 -98.5l-51 -320q-10 -61 20 -98t89 -37z" />
    <glyph glyph-name="R" unicode="R" 
d="M48 0l116 730h226q65 0 109.5 -26.5t64 -73.5t9.5 -110q-11 -75 -59 -128t-118 -73l105 -319h-102l-95 310h-117l-49 -310h-90zM200 391h136q56 0 95.5 35.5t48.5 93.5q10 59 -18.5 94t-84.5 35h-136z" />
    <glyph glyph-name="S" unicode="S" 
d="M258 -10q-107 0 -160 53.5t-40 146.5h90q-9 -55 23.5 -87t99.5 -32q63 0 103.5 31t49.5 86q7 47 -11.5 80t-58.5 46l-94 31q-70 23 -103 76t-23 125q10 59 43 102.5t85 68t117 24.5q96 0 145.5 -53.5t36.5 -142.5h-90q9 54 -18.5 84.5t-86.5 30.5q-58 0 -95 -28t-45 -78
q-7 -46 11.5 -80t59.5 -48l95 -32q69 -23 101 -77t21 -127q-9 -60 -44.5 -105t-90 -70t-121.5 -25z" />
    <glyph glyph-name="T" unicode="T" 
d="M211 0l103 648h-200l13 82h490l-13 -82h-200l-103 -648h-90z" />
    <glyph glyph-name="U" unicode="U" 
d="M254 -10q-102 0 -147 56.5t-29 153.5l84 530h90l-84 -530q-10 -60 14 -95t85 -35q60 0 95.5 35t45.5 95l84 530h90l-84 -530q-16 -98 -78.5 -154t-165.5 -56z" />
    <glyph glyph-name="V" unicode="V" 
d="M194 0l-72 730h91l45 -496q5 -52 7.5 -96.5t2.5 -67.5q7 23 22.5 67.5t36.5 96.5l202 496h93l-305 -730h-123z" />
    <glyph glyph-name="W" unicode="W" 
d="M65 0l32 730h84l-31 -540q-2 -33 -5 -68.5t-6 -56.5q6 21 14.5 56.5t18.5 68.5l154 540h95l-24 -540q-1 -33 -2.5 -68.5t-3.5 -56.5q5 21 13.5 56.5t17.5 68.5l143 540h82l-202 -730h-113l25 550q2 34 4 66.5t3 50.5q-5 -18 -13.5 -50.5t-18.5 -66.5l-154 -550h-113z" />
    <glyph glyph-name="X" unicode="X" 
d="M-4 0l268 372l-141 358h100l79 -216q6 -17 13.5 -36.5t11.5 -30.5q7 11 18.5 30.5t23.5 36.5l149 216h103l-254 -356l149 -374h-99l-89 232q-7 17 -13.5 36.5t-9.5 31.5q-7 -12 -19.5 -31t-23.5 -36l-162 -233h-104z" />
    <glyph glyph-name="Y" unicode="Y" 
d="M211 0l43 273l-147 457h91l97 -300q8 -25 12.5 -42.5t5.5 -25.5q4 8 13.5 25.5t25.5 42.5l190 300h95l-293 -457l-43 -273h-90z" />
    <glyph glyph-name="Z" unicode="Z" 
d="M41 0l14 90l415 558h-321l13 82h415l-15 -90l-414 -558h336l-13 -82h-430z" />
    <glyph glyph-name="bracketleft" unicode="[" 
d="M144 -110l148 940h245l-12 -80h-155l-124 -780h155l-12 -80h-245z" />
    <glyph glyph-name="backslash" unicode="\" 
d="M374 -110l-212 940h90l212 -940h-90z" />
    <glyph glyph-name="bracketright" unicode="]" 
d="M89 -110l12 80h155l124 780h-155l12 80h245l-148 -940h-245z" />
    <glyph glyph-name="asciicircum" unicode="^" 
d="M90 340l241 390h84l115 -390h-78l-71 258q-12 43 -15 67q-5 -10 -14.5 -28.5t-21.5 -38.5l-156 -258h-84z" />
    <glyph glyph-name="underscore" unicode="_" 
d="M0 -100l12 75h480l-12 -75h-480z" />
    <glyph glyph-name="grave" unicode="`" 
d="M342 645l-93 140h94l88 -140h-89z" />
    <glyph glyph-name="a" unicode="a" 
d="M223 -10q-82 0 -122 55t-25 149l25 161q15 95 72.5 150t140.5 55q62 0 97 -31t33 -84h3l15 105h90l-87 -550h-90l17 105h-2q-15 -54 -60 -84.5t-107 -30.5zM266 68q56 0 93.5 35t47.5 97l23 150q10 62 -16.5 97t-82.5 35q-57 0 -94 -34t-47 -98l-23 -150q-10 -64 16 -98
t83 -34z" />
    <glyph glyph-name="b" unicode="b" 
d="M286 -10q-63 0 -97.5 31t-32.5 84h-1l-17 -105h-90l116 730h90l-26 -160l-22 -125h4q15 53 60 84t107 31q83 0 122.5 -55t24.5 -150l-25 -161q-15 -94 -72.5 -149t-140.5 -55zM269 68q57 0 94 34t47 98l23 150q11 64 -15.5 98t-83.5 34q-55 0 -92.5 -35t-48.5 -97
l-23 -150q-10 -62 17 -97t82 -35z" />
    <glyph glyph-name="c" unicode="c" 
d="M258 -10q-100 0 -149 56t-33 154l23 150q16 98 83 154t167 56q95 0 145 -51t39 -139h-90q5 53 -23 81.5t-84 28.5q-59 0 -97.5 -33.5t-48.5 -95.5l-24 -151q-10 -62 18 -96t87 -34q56 0 93 29t49 81h90q-17 -88 -83.5 -139t-161.5 -51z" />
    <glyph glyph-name="d" unicode="d" 
d="M223 -10q-82 0 -122 55t-25 149l25 161q15 95 72.5 150t140.5 55q62 0 97 -31t33 -84h3l18 125l26 160h90l-116 -730h-90l17 105h-2q-15 -54 -60 -84.5t-107 -30.5zM266 68q56 0 93.5 35t47.5 97l23 150q11 62 -16 97t-83 35q-57 0 -93.5 -34t-47.5 -98l-23 -150
q-10 -64 16 -98t83 -34z" />
    <glyph glyph-name="e" unicode="e" 
d="M254 -10q-97 0 -145 57.5t-33 152.5l23 150q11 64 44.5 111t85 73t116.5 26q98 0 146 -57.5t32 -152.5l-15 -97h-336l-8 -53q-10 -65 15.5 -99.5t86.5 -34.5q105 0 132 74h90q-19 -69 -83 -109.5t-151 -40.5zM183 321h248l4 29q11 65 -14.5 100t-87.5 35q-61 0 -98 -35
t-48 -100z" />
    <glyph glyph-name="f" unicode="f" 
d="M0 -180l13 82h74q81 0 94 78l71 433h-171l13 82h171l12 75q12 74 64.5 117t133.5 43h125l-13 -82h-126q-82 0 -94 -78l-12 -75h214l-13 -82h-214l-71 -433q-12 -74 -64.5 -117t-133.5 -43h-73z" />
    <glyph glyph-name="g" unicode="g" 
d="M90 -180l13 82h175q81 0 94 78l11 70l18 100h-2q-14 -53 -58 -84t-106 -31q-85 0 -125.5 55.5t-25.5 149.5l18 116q15 94 73 149t143 55q63 0 97 -31t31 -84v0l17 105h89l-90 -570q-12 -74 -64.5 -117t-133.5 -43h-174zM274 113q56 0 93.5 35t47.5 97l16 105
q11 62 -16 97t-83 35q-57 0 -93.5 -34t-47.5 -98l-16 -105q-10 -64 16 -98t83 -34z" />
    <glyph glyph-name="h" unicode="h" 
d="M48 0l116 730h90l-29 -180l-17 -105h2q15 55 58 85t106 30q83 0 124 -51t27 -139l-59 -370h-90l57 360q9 59 -17 91.5t-80 32.5q-56 0 -94 -35t-49 -99l-55 -350h-90z" />
    <glyph glyph-name="i" unicode="i" 
d="M36 0l13 82h195l61 386h-170l13 82h260l-74 -468h185l-13 -82h-470zM374 649q-33 0 -49 17t-12 46q5 30 26.5 47.5t54.5 17.5t49.5 -17.5t11.5 -47.5q-4 -29 -26 -46t-55 -17z" />
    <glyph glyph-name="j" unicode="j" 
d="M12 -180l14 83h129q62 0 101.5 33.5t49.5 94.5l69 437h-230l13 82h320l-82 -519q-10 -64 -45 -111.5t-88.5 -73.5t-121.5 -26h-129zM444 649q-33 0 -49 17t-12 46q5 30 26.5 47.5t54.5 17.5t49.5 -17.5t11.5 -47.5q-4 -29 -26 -46t-55 -17z" />
    <glyph glyph-name="k" unicode="k" 
d="M51 0l116 730h90l-65 -407h94l196 227h105l-226 -265l142 -285h-103l-121 245h-99l-39 -245h-90z" />
    <glyph glyph-name="l" unicode="l" 
d="M321 0q-73 0 -109.5 42.5t-25.5 112.5l78 493h-165l13 82h255l-91 -575q-5 -34 10.5 -53.5t47.5 -19.5h185l-13 -82h-185z" />
    <glyph glyph-name="m" unicode="m" 
d="M22 0l87 550h79l-11 -66h7q11 35 37.5 55.5t62.5 20.5q71 0 78 -76h5q11 35 38.5 55.5t63.5 20.5q52 0 74.5 -39t12.5 -103l-66 -418h-83l66 419q5 34 -6.5 53t-39.5 19q-53 0 -67 -61v0v0l-2 -10l-66 -420h-72l66 419q5 35 -7.5 53.5t-40.5 18.5t-45 -18.5t-22 -52.5
l-66 -420h-83z" />
    <glyph glyph-name="n" unicode="n" 
d="M48 0l87 550h90l-17 -105h2q15 55 58 85t106 30q83 0 124 -51t27 -139l-59 -370h-90l57 360q9 59 -17 91.5t-80 32.5q-56 0 -94 -35t-49 -99l-55 -350h-90z" />
    <glyph glyph-name="o" unicode="o" 
d="M254 -10q-98 0 -146 56t-32 154l23 150q16 98 82 154t164 56t146 -55.5t33 -153.5l-24 -151q-16 -98 -82 -154t-164 -56zM267 70q59 0 96 33t47 97l23 150q11 64 -15.5 97t-85.5 33q-58 0 -95 -33t-48 -97l-23 -150q-10 -64 16.5 -97t84.5 -33z" />
    <glyph glyph-name="p" unicode="p" 
d="M19 -180l116 730h90l-17 -105h2q15 54 60.5 84.5t107.5 30.5q83 0 122 -54.5t24 -149.5l-25 -161q-15 -95 -72 -150t-140 -55q-62 0 -97.5 31t-33.5 84h-3l-18 -125l-26 -160h-90zM270 68q57 0 93.5 34t46.5 98l23 150q11 64 -15 98t-83 34q-55 0 -93 -35t-49 -97
l-23 -150q-10 -62 17.5 -97t82.5 -35z" />
    <glyph glyph-name="q" unicode="q" 
d="M345 -180l26 160l22 125h-4q-15 -53 -60 -84t-107 -31q-83 0 -122.5 55t-24.5 150l25 161q15 95 73 149.5t140 54.5q63 0 97.5 -31t32.5 -84h1l17 105h90l-116 -730h-90zM265 68q56 0 93.5 35t47.5 97l23 150q11 62 -16 97t-83 35q-57 0 -93.5 -34t-47.5 -98l-23 -150
q-10 -64 16 -98t83 -34z" />
    <glyph glyph-name="r" unicode="r" 
d="M67 0l87 550h88l-16 -100q44 110 163 110q87 0 129.5 -54.5t28.5 -147.5l-6 -33h-90l4 25q11 65 -15 99.5t-84 34.5q-57 0 -95 -35t-49 -99l-55 -350h-90z" />
    <glyph glyph-name="s" unicode="s" 
d="M232 -10q-85 0 -129 39.5t-41 105.5h90q2 -29 25.5 -47t67.5 -18h42q53 0 82.5 22.5t35.5 58.5q10 70 -79 85l-72 12q-79 13 -113 49t-23 106q11 74 65 115.5t148 41.5h38q79 0 121 -38t42 -101h-90q-2 26 -23.5 42.5t-62.5 16.5h-38q-51 0 -77.5 -20t-32.5 -58
q-5 -34 11.5 -51t58.5 -24l72 -12q86 -14 121.5 -51t24.5 -109q-13 -76 -68.5 -120.5t-153.5 -44.5h-42z" />
    <glyph glyph-name="t" unicode="t" 
d="M316 0q-71 0 -104.5 38t-22.5 107l51 323h-155l13 82h155l24 150h90l-24 -150h220l-13 -82h-220l-51 -323q-10 -63 50 -63h150l-13 -82h-150z" />
    <glyph glyph-name="u" unicode="u" 
d="M253 -10q-95 0 -142.5 56.5t-32.5 153.5l55 350h90l-55 -350q-10 -62 16.5 -96.5t81.5 -34.5q56 0 94 34.5t48 96.5l55 350h90l-55 -350q-10 -64 -44 -111.5t-85.5 -73t-115.5 -25.5z" />
    <glyph glyph-name="v" unicode="v" 
d="M195 0l-92 550h89l59 -370q5 -33 9 -63.5t6 -47.5q7 17 21 47.5t30 63.5l172 370h94l-266 -550h-122z" />
    <glyph glyph-name="w" unicode="w" 
d="M79 0l-1 550h77l-7 -390q-1 -22 -1 -47.5t-1 -42.5q5 17 13 42.5t15 47.5l124 390h88l-1 -390q0 -22 0.5 -47.5t-0.5 -42.5q5 17 13 42.5t15 47.5l119 390h76l-179 -550h-99l1 380v100q-4 -16 -13 -44l-18 -56l-122 -380h-99z" />
    <glyph glyph-name="x" unicode="x" 
d="M11 0l235 286l-136 264h104l78 -170q5 -11 10.5 -24t7.5 -21q5 8 13 21t16 24l131 170h107l-220 -271l144 -279h-104l-85 180q-5 11 -10.5 25.5t-8.5 23.5q-6 -9 -15 -23.5t-18 -25.5l-142 -180h-107z" />
    <glyph glyph-name="y" unicode="y" 
d="M90 -180l13 82h175q82 0 94 78l12 75l17 100h-2q-15 -55 -58 -85t-106 -30q-82 0 -123.5 51t-27.5 139l51 320h90l-49 -310q-10 -58 16.5 -91t80.5 -33q56 0 94.5 35t48.5 99l47 300h90l-91 -570q-11 -74 -64 -117t-134 -43h-174z" />
    <glyph glyph-name="z" unicode="z" 
d="M46 0l14 90l364 378h-296l13 82h401l-14 -90l-370 -378h321l-13 -82h-420z" />
    <glyph glyph-name="braceleft" unicode="{" 
d="M409 -110q-88 0 -132 43.5t-27 122.5l36 164q11 53 -4 76.5t-80 23.5h-110l12 80h110q65 0 88 23.5t28 76.5l16 164q8 79 65.5 122.5t145.5 43.5h45l-12 -80h-45q-47 0 -75.5 -21.5t-33.5 -64.5l-16 -164q-6 -57 -38.5 -94t-83.5 -46q48 -9 69 -46.5t9 -93.5l-36 -164
q-9 -43 12.5 -64.5t68.5 -21.5h45l-12 -80h-45z" />
    <glyph glyph-name="bar" unicode="|" 
d="M194 -110l148 940h90l-148 -940h-90z" />
    <glyph glyph-name="braceright" unicode="}" 
d="M24 -110l12 80h45q47 0 76 21.5t33 64.5l16 164q5 57 38 94.5t84 45.5q-48 9 -69 46t-9 94l36 164q9 43 -12.5 64.5t-68.5 21.5h-45l12 80h45q89 0 132.5 -43.5t26.5 -122.5l-36 -164q-11 -53 4 -76.5t80 -23.5h110l-12 -80h-110q-64 0 -87.5 -23.5t-28.5 -76.5l-16 -164
q-8 -79 -65 -122.5t-146 -43.5h-45z" />
    <glyph glyph-name="asciitilde" unicode="~" 
d="M66 255l11 70q10 59 51.5 94.5t99.5 35.5q38 0 60.5 -13t36.5 -32.5t24.5 -39t23 -32.5t32.5 -13q47 0 56 55l11 70h85l-11 -70q-9 -58 -50 -94t-100 -36q-37 0 -60 13t-37 32.5t-24.5 39t-23.5 32.5t-33 13q-47 0 -56 -55l-11 -70h-85z" />
    <glyph glyph-name="deletecontrol" unicode="&#x2421;" 
d="M11.8408 245l38.2822 240.912h62.373q34.9814 0 52.4727 -19.6357t12.2109 -52.6377l-15.1807 -96.0352q-3.30078 -22.1113 -15.3467 -38.4463q-12.0449 -16.3359 -30.5264 -25.2471q-18.4805 -8.91016 -41.9121 -8.91016h-62.373zM45.833 271.401h32.6709
q21.7812 0 36.1377 12.2109q14.3555 12.21 17.6553 33.9912l15.1807 96.0352q3.63086 21.4512 -6.92969 33.6621q-10.5605 12.21 -32.3418 12.21h-32.6719zM213.48 245l38.2822 240.912h138.607l-4.29004 -27.0605h-109.236l-11.8799 -74.584h97.6846l-4.29004 -26.7314
h-97.6846l-13.5312 -85.4746h109.235l-4.29004 -27.0615h-138.607zM436.031 245l38.2822 240.912h29.7012l-33.9912 -213.851h108.905l-4.29004 -27.0615h-138.607z" />
    <glyph glyph-name="deletecontrol" 
d="M11.8408 245l38.2822 240.912h62.373q34.9814 0 52.4727 -19.6357t12.2109 -52.6377l-15.1807 -96.0352q-3.30078 -22.1113 -15.3467 -38.4463q-12.0449 -16.3359 -30.5264 -25.2471q-18.4805 -8.91016 -41.9121 -8.91016h-62.373zM45.833 271.401h32.6709
q21.7812 0 36.1377 12.2109q14.3555 12.21 17.6553 33.9912l15.1807 96.0352q3.63086 21.4512 -6.92969 33.6621q-10.5605 12.21 -32.3418 12.21h-32.6719zM213.48 245l38.2822 240.912h138.607l-4.29004 -27.0605h-109.236l-11.8799 -74.584h97.6846l-4.29004 -26.7314
h-97.6846l-13.5312 -85.4746h109.235l-4.29004 -27.0615h-138.607zM436.031 245l38.2822 240.912h29.7012l-33.9912 -213.851h108.905l-4.29004 -27.0615h-138.607z" />
    <glyph glyph-name="uni00A0" unicode="&#xa0;" 
 />
    <glyph glyph-name="exclamdown" unicode="&#xa1;" 
d="M315 436q-29 0 -44 17t-11 44t24.5 43t49.5 16h20q29 0 45 -15.5t11 -42.5q-4 -28 -25 -45t-50 -17h-20zM174 -180l20 125l83 391h64l-41 -391l-20 -125h-106z" />
    <glyph glyph-name="cent" unicode="&#xa2;" 
d="M214 -140l21 131q-89 6 -131.5 61.5t-27.5 147.5l23 150q15 92 75 147t150 62l21 131h60l-21 -132q79 -9 118.5 -59t30.5 -129h-90q4 43 -14.5 70.5t-57.5 35.5l-63 -402q85 17 105 106h90q-16 -79 -71.5 -128.5t-136.5 -59.5l-21 -132h-60zM166 200q-9 -56 12.5 -89
t68.5 -39l65 406q-50 -6 -81.5 -39t-40.5 -88z" />
    <glyph glyph-name="sterling" unicode="&#xa3;" 
d="M31 0l16 100q27 19 56 45.5t51 55t26 53.5q4 27 4 51h-105l13 80h75q-10 26 -21 50.5t-16.5 53t0.5 66.5q14 85 79.5 135t163.5 50q99 0 148.5 -50.5t36.5 -139.5h-95q8 50 -20 80t-83 30q-58 0 -95 -28.5t-45 -81.5q-5 -35 3 -60.5t21 -49.5t23 -55h185l-13 -80h-162
q-1 -20 -4 -42q-7 -43 -30.5 -79.5t-53 -63t-55.5 -40.5h370l-13 -80h-460z" />
    <glyph glyph-name="currency" unicode="&#xa4;" 
d="M471 113l-74 88q-50 -30 -113 -30q-60 0 -102 28l-100 -85l-53 65l95 84q-11 23 -15 51t1 59q11 65 53 114l-73 87l71 61l75 -89q51 29 112 29q62 0 105 -30l96 83l54 -63l-95 -82q23 -50 12 -110q-11 -62 -51 -113l73 -86zM295 240q37 0 69 17.5t54 47.5t28 68
q9 57 -22 95t-87 38q-37 0 -70 -17.5t-55 -47.5t-28 -68q-9 -57 23 -95t88 -38z" />
    <glyph glyph-name="yen" unicode="&#xa5;" 
d="M35 120l12 75h195l12 75h-195l12 75h160l-124 385h91l97 -300q8 -25 12.5 -42.5t5.5 -25.5q4 8 13.5 25.5t25.5 42.5l190 300h95l-247 -385h161l-12 -75h-195l-12 -75h195l-12 -75h-195l-19 -120h-90l19 120h-195z" />
    <glyph glyph-name="brokenbar" unicode="&#xa6;" 
d="M282 450l60 380h90l-60 -380h-90zM194 -110l60 380h90l-60 -380h-90z" />
    <glyph glyph-name="section" unicode="&#xa7;" 
d="M217 -154q-82 0 -133 42.5t-51 111.5h95q4 -33 31.5 -53.5t69.5 -20.5h30q57 0 91 23.5t40 62.5q12 72 -86 93l-89 19q-67 14 -102 58.5t-26 102.5q6 38 28 69.5t54.5 51.5t69.5 23l1 7q-27 0 -54 13.5t-41.5 45t-6.5 84.5q11 74 70.5 117.5t153.5 43.5h30q79 0 127 -40
t48 -105h-95q-3 29 -28 47t-64 18h-30q-51 0 -83.5 -22t-37.5 -60q-5 -32 17 -55.5t65 -33.5l87 -19q69 -15 103.5 -58t24.5 -104q-6 -38 -27.5 -69.5t-54.5 -50t-73 -18.5l-1 -7q29 -1 57.5 -17t45.5 -48t8 -83q-12 -78 -74 -123.5t-160 -45.5h-30zM315 185q29 -6 53.5 8
t42 42.5t22.5 63.5q6 35 -11.5 61.5t-52.5 33.5l-71 15q-28 6 -53 -7.5t-42 -40.5t-22 -61q-7 -38 10 -65.5t51 -34.5z" />
    <glyph glyph-name="dieresis" unicode="&#xa8;" 
d="M470 649q-29 0 -43.5 17t-10.5 46q5 30 25 47.5t49 17.5t44 -17.5t10 -47.5q-4 -29 -24.5 -46t-49.5 -17zM248 649q-29 0 -43.5 17t-10.5 46q5 30 25 47.5t49 17.5t44 -17.5t10 -47.5q-4 -29 -24.5 -46t-49.5 -17z" />
    <glyph glyph-name="copyright" unicode="&#xa9;" 
d="M273 110q-76 0 -128.5 30t-76 84t-12.5 126l24 150q12 72 52 126t102.5 84t138.5 30q77 0 129.5 -30t76 -84t11.5 -126l-24 -150q-11 -72 -51.5 -126t-102.5 -84t-139 -30zM281 160q60 0 108.5 23.5t80.5 66.5t41 100l24 150q14 86 -33 138t-137 52q-59 0 -108 -24
t-81 -66.5t-41 -99.5l-24 -150q-13 -85 34 -137.5t136 -52.5zM300 245q-56 0 -85.5 31.5t-21.5 83.5l21 130q8 52 47.5 83.5t95.5 31.5t85 -31.5t21 -83.5h-65q4 27 -10 43.5t-40 16.5q-27 0 -46 -16.5t-23 -43.5l-21 -130q-4 -27 10 -43.5t41 -16.5q26 0 45 16.5t23 43.5
h65q-8 -52 -47 -83.5t-95 -31.5z" />
    <glyph glyph-name="ordfeminine" unicode="&#xaa;" 
d="M301 450q-45 0 -68 23.5t-17 62.5t37.5 62t80.5 23h90l5 29q4 23 -11.5 36.5t-45.5 13.5q-26 0 -46 -11t-25 -29h-50q11 38 44.5 59t82.5 21q53 0 80.5 -24t20.5 -66l-31 -195h-47l9 55h-3q-15 -28 -43 -44t-63 -16zM320 488q39 0 64 18t30 49v0l4 26h-90q-56 0 -62 -45
q-4 -22 11 -35t43 -13z" />
    <glyph glyph-name="guillemotleft" unicode="&#xab;" 
d="M427 40l-164 240l239 240h110l-247 -243l163 -237h-101zM194 40l-164 240l239 240h110l-247 -243l163 -237h-101z" />
    <glyph glyph-name="logicalnot" unicode="&#xac;" 
d="M433 205l21 130h-375l13 80h460l-34 -210h-85z" />
    <glyph glyph-name="uni00AD" unicode="&#xad;" 
d="M142 290l13 80h320l-13 -80h-320z" />
    <glyph glyph-name="registered" unicode="&#xae;" 
d="M273 110q-76 0 -129 30t-76 84t-12 126l24 150q12 72 52 126t102.5 84t138.5 30q77 0 129.5 -30t76 -84t11.5 -126l-24 -150q-11 -72 -51.5 -126t-102.5 -84t-139 -30zM281 160q60 0 108.5 23.5t80.5 66.5t41 100l24 150q14 86 -33 138t-137 52q-59 0 -108 -24t-81 -66.5
t-41 -99.5l-24 -150q-13 -85 34 -137.5t136 -52.5zM186 250l55 350h114q54 0 81 -28.5t19 -76.5q-11 -69 -75 -94l43 -151h-63l-38 140h-54l-22 -140h-60zM276 440h54q26 0 43 14.5t21 40.5q5 26 -8 40.5t-39 14.5h-54z" />
    <glyph glyph-name="macron" unicode="&#xaf;" 
d="M202 670l12 75h320l-12 -75h-320z" />
    <glyph glyph-name="degree" unicode="&#xb0;" 
d="M327 450q-67 0 -102 40t-25 105q11 65 58.5 105t114.5 40q68 0 103 -40t24 -105q-10 -65 -57.5 -105t-115.5 -40zM334 501q41 0 70 26t36 68q7 43 -14 69t-62 26q-40 0 -68.5 -26t-35.5 -69q-7 -42 13.5 -68t60.5 -26z" />
    <glyph glyph-name="plusminus" unicode="&#xb1;" 
d="M26 0l11 70h186l36 225h-191l12 80h191l31 195h88l-31 -195h191l-12 -80h-191l-36 -225h186l-11 -70h-460z" />
    <glyph glyph-name="uni00B2" unicode="&#xb2;" 
d="M186 405l14 87l181 121q24 16 40 38.5t20 44.5q6 38 -11.5 59.5t-52.5 21.5t-59.5 -21.5t-30.5 -59.5h-70q14 66 60 105t110 39q68 0 101 -38.5t23 -103.5q-6 -35 -32.5 -72.5t-67.5 -64.5l-143 -92h217l-10 -64h-289z" />
    <glyph glyph-name="uni00B3" unicode="&#xb3;" 
d="M303 395q-68 0 -102 38t-24 102h69q-6 -35 12 -56t55 -21q35 0 58.5 21t29.5 56q5 35 -11.5 55.5t-51.5 20.5h-30l10 67l104 89h-180l11 64h240l-13 -77l-101 -87q52 -8 77.5 -43t16.5 -89q-10 -64 -56 -102t-114 -38z" />
    <glyph glyph-name="acute" unicode="&#xb4;" 
d="M286 645l128 140h102l-133 -140h-97z" />
    <glyph glyph-name="uni00B5" unicode="&#xb5;" 
d="M21 -180l116 730h90l-55 -350q-10 -62 14.5 -97t79.5 -35q56 0 93 35t47 97l55 350h90l-87 -550h-88l17 105h-3q-12 -53 -44 -84t-94 -31t-81 31t-14 84h-2l-18 -125l-26 -160h-90z" />
    <glyph glyph-name="paragraph" unicode="&#xb6;" 
d="M182 -180l78 490q-85 0 -130 47t-33 123l13 80q8 51 38 89.5t76 59.5t103 21h80l-145 -910h-80zM352 -180l145 910h80l-145 -910h-80z" />
    <glyph glyph-name="periodcentered" unicode="&#xb7;" 
d="M254 260q-38 0 -57 22t-13 59q6 39 32.5 62t64.5 23t56.5 -23t12.5 -62q-6 -37 -32 -59t-64 -22z" />
    <glyph glyph-name="cedilla" unicode="&#xb8;" 
d="M129 -203l9 55h70q22 0 37 11.5t17 24.5q3 17 -22.5 30t-75.5 13l50 95h57l-31 -61q26 -3 52.5 -13t42.5 -28t12 -44q-5 -34 -42 -58.5t-91 -24.5h-85z" />
    <glyph glyph-name="uni00B9" unicode="&#xb9;" 
d="M175 405l10 64h131l47 298l-135 -87l12 79l108 71h95l-57 -361h104l-10 -64h-305z" />
    <glyph glyph-name="ordmasculine" unicode="&#xba;" 
d="M326 445q-52 0 -78.5 29t-19.5 76l13 80q8 47 43.5 76t87.5 29t79.5 -29t19.5 -76l-13 -80q-7 -47 -43.5 -76t-88.5 -29zM333 485q29 0 50 18t25 47l13 80q5 29 -10.5 47t-44.5 18t-49.5 -18t-25.5 -47l-13 -80q-4 -29 11 -47t44 -18z" />
    <glyph glyph-name="guillemotright" unicode="&#xbb;" 
d="M222 40l245 246l-162 234h101l164 -240l-239 -240h-109zM-11 40l245 246l-162 234h101l164 -240l-239 -240h-109z" />
    <glyph glyph-name="onequarter" unicode="&#xbc;" 
d="M46 0l261 405h-257l8 50h118l37 236q-5 -7 -15.5 -17.5t-23.5 -20.5l-70 -54l11 70l80 61h85l-44 -275h97l-2 -12l185 287h66l-470 -730h-66zM436 0l11 70h-175l13 80l153 175h69l-164 -189l-3 -16h115l14 89h60l-33 -209h-60z" />
    <glyph glyph-name="onehalf" unicode="&#xbd;" 
d="M46 0l261 405h-257l8 50h118l37 236q-5 -7 -15.5 -17.5t-23.5 -20.5l-70 -54l11 70l80 61h85l-44 -275h103l177 275h66l-470 -730h-66zM271 0l10 64l131 69q77 41 83 83q5 29 -10.5 46.5t-44.5 17.5t-49.5 -17.5t-25.5 -46.5h-60q11 52 50 83t93 31q56 0 86 -31t22 -81
q-5 -31 -32.5 -61t-72.5 -53l-101 -52l-1 -10q11 2 32.5 5t43.5 3h109l-8 -50h-255z" />
    <glyph glyph-name="threequarters" unicode="&#xbe;" 
d="M173 400q-58 0 -88 29t-23 76h60q-4 -25 12 -40t47 -15q30 0 51 15t25 40t-12 40t-45 15h-30l9 57l91 63h-156l8 50h215l-9 -55l-96 -66q45 -6 68.5 -34t16.5 -70q-7 -47 -47 -76t-97 -29zM46 0l470 730h66l-470 -730h-66zM436 0l11 70h-175l13 80l153 175h69l-164 -189
l-3 -16h115l14 89h60l-33 -209h-60z" />
    <glyph glyph-name="questiondown" unicode="&#xbf;" 
d="M360 435q-29 0 -44 17t-11 44t24.5 43t49.5 16h20q29 0 44.5 -15.5t11.5 -42.5q-4 -28 -25 -45t-50 -17h-20zM269 -170q-106 0 -159 56.5t-38 153.5q9 57 40 101t77.5 70t103.5 29l17 105h90l-29 -180h-50q-64 0 -106.5 -33t-52.5 -92q-9 -58 23.5 -91.5t97.5 -33.5h125
l-14 -85h-125z" />
    <glyph glyph-name="Agrave" unicode="&#xc0;" 
d="M6 0l306 730h121l73 -730h-88l-17 194h-221l-79 -194h-95zM210 270h184l-21 225q-6 64 -8 107t-2 56q-4 -13 -19.5 -56t-41.5 -106zM354 810l-93 140h94l88 -140h-89z" />
    <glyph glyph-name="Aacute" unicode="&#xc1;" 
d="M6 0l306 730h121l73 -730h-88l-17 194h-221l-79 -194h-95zM210 270h184l-21 225q-6 64 -8 107t-2 56q-4 -13 -19.5 -56t-41.5 -106zM323 810l128 140h102l-133 -140h-97z" />
    <glyph glyph-name="Acircumflex" unicode="&#xc2;" 
d="M6 0l306 730h121l73 -730h-88l-17 194h-221l-79 -194h-95zM210 270h184l-21 225q-6 64 -8 107t-2 56q-4 -13 -19.5 -56t-41.5 -106zM203 810l161 140h83l118 -140h-97l-69 78l-93 -78h-103z" />
    <glyph glyph-name="Atilde" unicode="&#xc3;" 
d="M6 0l306 730h121l73 -730h-88l-17 194h-221l-79 -194h-95zM210 270h184l-21 225q-6 64 -8 107t-2 56q-4 -13 -19.5 -56t-41.5 -106zM455 815q-30 0 -47 10.5t-28 24.5t-21.5 24.5t-27.5 10.5q-13 0 -23 -8.5t-12 -26.5l-5 -30h-65l5 30q7 45 36 70t69 25q30 0 47 -10.5
t28 -24.5t21.5 -24.5t27.5 -10.5q29 0 35 35l5 30h65l-5 -30q-7 -45 -35.5 -70t-69.5 -25z" />
    <glyph glyph-name="Adieresis" unicode="&#xc4;" 
d="M6 0l306 730h121l73 -730h-88l-17 194h-221l-79 -194h-95zM210 270h184l-21 225q-6 64 -8 107t-2 56q-4 -13 -19.5 -56t-41.5 -106zM496 817q-29 0 -43.5 17t-10.5 46q5 30 25.5 47.5t49.5 17.5t43.5 -17.5t9.5 -47.5q-4 -29 -24.5 -46t-49.5 -17zM274 817
q-29 0 -43.5 17t-10.5 46q5 30 25.5 47.5t49.5 17.5t43.5 -17.5t9.5 -47.5q-4 -29 -24.5 -46t-49.5 -17z" />
    <glyph glyph-name="Aring" unicode="&#xc5;" 
d="M6 0l306 730h121l73 -730h-88l-17 194h-221l-79 -194h-95zM210 270h184l-21 225q-6 64 -8 107t-2 56q-4 -13 -19.5 -56t-41.5 -106zM377 766q-54 0 -81.5 31.5t-20.5 82.5q8 51 46 82.5t92 31.5t82 -31.5t20 -82.5q-7 -51 -45.5 -82.5t-92.5 -31.5zM386 819q27 0 46 16.5
t23 44.5q5 28 -9 45t-41 17t-46 -17t-24 -45q-4 -28 10 -44.5t41 -16.5z" />
    <glyph glyph-name="AE" unicode="&#xc6;" 
d="M-14 0l261 730h395l-13 -82h-182l-36 -228h157l-13 -82h-157l-41 -256h182l-13 -82h-268l32 203h-141l-72 -203h-91zM175 278h127l59 370h-56z" />
    <glyph glyph-name="Ccedilla" unicode="&#xc7;" 
d="M134 -203l9 55h70q22 0 37 11.5t17 24.5q3 17 -22.5 30t-75.5 13l34 64q-73 15 -106.5 68t-20.5 137l52 330q16 98 82.5 154t166.5 56q98 0 147 -56.5t34 -153.5h-90q10 62 -17.5 95.5t-86.5 33.5t-97.5 -33t-48.5 -95l-52 -331q-10 -62 18 -95.5t87 -33.5t97 33.5
t48 95.5h90q-16 -97 -83 -153.5t-165 -56.5v0l-13 -25q26 -3 52.5 -13t42.5 -28t12 -44q-5 -34 -42 -58.5t-91 -24.5h-85z" />
    <glyph glyph-name="Egrave" unicode="&#xc8;" 
d="M56 0l116 730h420l-13 -82h-331l-36 -226h296l-13 -81h-296l-41 -259h331l-13 -82h-420zM374 810l-93 140h94l88 -140h-89z" />
    <glyph glyph-name="Eacute" unicode="&#xc9;" 
d="M56 0l116 730h420l-13 -82h-331l-36 -226h296l-13 -81h-296l-41 -259h331l-13 -82h-420zM343 810l128 140h102l-133 -140h-97z" />
    <glyph glyph-name="Ecircumflex" unicode="&#xca;" 
d="M56 0l116 730h420l-13 -82h-331l-36 -226h296l-13 -81h-296l-41 -259h331l-13 -82h-420zM223 810l161 140h83l118 -140h-97l-69 78l-93 -78h-103z" />
    <glyph glyph-name="Edieresis" unicode="&#xcb;" 
d="M56 0l116 730h420l-13 -82h-331l-36 -226h296l-13 -81h-296l-41 -259h331l-13 -82h-420zM516 817q-29 0 -43.5 17t-10.5 46q5 30 25.5 47.5t49.5 17.5t43.5 -17.5t9.5 -47.5q-4 -29 -24.5 -46t-49.5 -17zM294 817q-29 0 -43.5 17t-10.5 46q5 30 25.5 47.5t49.5 17.5
t43.5 -17.5t9.5 -47.5q-4 -29 -24.5 -46t-49.5 -17z" />
    <glyph glyph-name="Igrave" unicode="&#xcc;" 
d="M61 0l13 82h149l90 566h-149l13 82h390l-13 -82h-149l-90 -566h149l-13 -82h-390zM354 810l-93 140h94l88 -140h-89z" />
    <glyph glyph-name="Iacute" unicode="&#xcd;" 
d="M61 0l13 82h149l90 566h-149l13 82h390l-13 -82h-149l-90 -566h149l-13 -82h-390zM323 810l128 140h102l-133 -140h-97z" />
    <glyph glyph-name="Icircumflex" unicode="&#xce;" 
d="M61 0l13 82h149l90 566h-149l13 82h390l-13 -82h-149l-90 -566h149l-13 -82h-390zM203 810l161 140h83l118 -140h-97l-69 78l-93 -78h-103z" />
    <glyph glyph-name="Idieresis" unicode="&#xcf;" 
d="M61 0l13 82h149l90 566h-149l13 82h390l-13 -82h-149l-90 -566h149l-13 -82h-390zM496 817q-29 0 -43.5 17t-10.5 46q5 30 25.5 47.5t49.5 17.5t43.5 -17.5t9.5 -47.5q-4 -29 -24.5 -46t-49.5 -17zM274 817q-29 0 -43.5 17t-10.5 46q5 30 25.5 47.5t49.5 17.5t43.5 -17.5
t9.5 -47.5q-4 -29 -24.5 -46t-49.5 -17z" />
    <glyph glyph-name="Eth" unicode="&#xd0;" 
d="M48 0l53 335h-91v75h103l51 320h189q106 0 159 -59.5t37 -159.5l-46 -291q-10 -67 -46.5 -116.5t-92.5 -76.5t-127 -27h-189zM151 80h99q66 0 109.5 37t53.5 103l46 291q11 65 -21 102t-98 37h-99l-38 -240h87v-75h-99z" />
    <glyph glyph-name="Ntilde" unicode="&#xd1;" 
d="M46 0l116 730h119l125 -625q2 25 5 61.5t8 77t11 76.5l65 410h87l-116 -730h-119l-124 625q-2 -24 -5.5 -60.5t-8.5 -77t-11 -77.5l-65 -410h-87zM455 815q-30 0 -47 10.5t-28 24.5t-21.5 24.5t-27.5 10.5q-13 0 -23 -8.5t-12 -26.5l-5 -30h-65l5 30q7 45 36 70t69 25
q30 0 47 -10.5t28 -24.5t21.5 -24.5t27.5 -10.5q29 0 35 35l5 30h65l-5 -30q-7 -45 -35.5 -70t-69.5 -25z" />
    <glyph glyph-name="Ograve" unicode="&#xd2;" 
d="M254 -10q-98 0 -146 56t-32 154l52 330q16 98 81.5 154t163.5 56t146 -55.5t33 -153.5l-52 -331q-16 -98 -82 -154t-164 -56zM267 71q59 0 96 33.5t47 95.5l52 330q10 62 -16.5 95.5t-85.5 33.5q-58 0 -95 -33.5t-47 -95.5l-52 -330q-10 -62 16.5 -95.5t84.5 -33.5z
M354 810l-93 140h94l88 -140h-89z" />
    <glyph glyph-name="Oacute" unicode="&#xd3;" 
d="M254 -10q-98 0 -146 56t-32 154l52 330q16 98 81.5 154t163.5 56t146 -55.5t33 -153.5l-52 -331q-16 -98 -82 -154t-164 -56zM267 71q59 0 96 33.5t47 95.5l52 330q10 62 -16.5 95.5t-85.5 33.5q-58 0 -95 -33.5t-47 -95.5l-52 -330q-10 -62 16.5 -95.5t84.5 -33.5z
M323 810l128 140h102l-133 -140h-97z" />
    <glyph glyph-name="Ocircumflex" unicode="&#xd4;" 
d="M254 -10q-98 0 -146 56t-32 154l52 330q16 98 81.5 154t163.5 56t146 -55.5t33 -153.5l-52 -331q-16 -98 -82 -154t-164 -56zM267 71q59 0 96 33.5t47 95.5l52 330q10 62 -16.5 95.5t-85.5 33.5q-58 0 -95 -33.5t-47 -95.5l-52 -330q-10 -62 16.5 -95.5t84.5 -33.5z
M203 810l161 140h83l118 -140h-97l-69 78l-93 -78h-103z" />
    <glyph glyph-name="Otilde" unicode="&#xd5;" 
d="M254 -10q-98 0 -146 56t-32 154l52 330q16 98 81.5 154t163.5 56t146 -55.5t33 -153.5l-52 -331q-16 -98 -82 -154t-164 -56zM267 71q59 0 96 33.5t47 95.5l52 330q10 62 -16.5 95.5t-85.5 33.5q-58 0 -95 -33.5t-47 -95.5l-52 -330q-10 -62 16.5 -95.5t84.5 -33.5z
M455 815q-30 0 -47 10.5t-28 24.5t-21.5 24.5t-27.5 10.5q-13 0 -23 -8.5t-12 -26.5l-5 -30h-65l5 30q7 45 36 70t69 25q30 0 47 -10.5t28 -24.5t21.5 -24.5t27.5 -10.5q29 0 35 35l5 30h65l-5 -30q-7 -45 -35.5 -70t-69.5 -25z" />
    <glyph glyph-name="Odieresis" unicode="&#xd6;" 
d="M254 -10q-98 0 -146 56t-32 154l52 330q16 98 81.5 154t163.5 56t146 -55.5t33 -153.5l-52 -331q-16 -98 -82 -154t-164 -56zM267 71q59 0 96 33.5t47 95.5l52 330q10 62 -16.5 95.5t-85.5 33.5q-58 0 -95 -33.5t-47 -95.5l-52 -330q-10 -62 16.5 -95.5t84.5 -33.5z
M496 817q-29 0 -43.5 17t-10.5 46q5 30 25.5 47.5t49.5 17.5t43.5 -17.5t9.5 -47.5q-4 -29 -24.5 -46t-49.5 -17zM274 817q-29 0 -43.5 17t-10.5 46q5 30 25.5 47.5t49.5 17.5t43.5 -17.5t9.5 -47.5q-4 -29 -24.5 -46t-49.5 -17z" />
    <glyph glyph-name="multiply" unicode="&#xd7;" 
d="M135 135l-45 54l164 142l-117 141l57 49l118 -140l169 146l45 -54l-169 -146l119 -140l-58 -50l-118 141z" />
    <glyph glyph-name="Oslash" unicode="&#xd8;" 
d="M-15 -40l96 134q-15 46 -5 106l52 330q16 98 81.5 154t163.5 56q91 0 139 -48l42 58h86l-91 -126q11 -41 3 -93l-52 -331q-16 -98 -82 -154t-164 -56q-84 0 -132 41l-51 -71h-86zM218 530l-50 -316l286 397q-23 48 -94 48q-58 0 -95 -33.5t-47 -95.5zM267 71
q59 0 96 33.5t47 95.5l47 295l-278 -385q25 -39 88 -39z" />
    <glyph glyph-name="Ugrave" unicode="&#xd9;" 
d="M254 -10q-102 0 -147 56.5t-29 153.5l84 530h90l-84 -530q-10 -60 14 -95t85 -35q60 0 95.5 35t45.5 95l84 530h90l-84 -530q-16 -98 -78.5 -154t-165.5 -56zM354 810l-93 140h94l88 -140h-89z" />
    <glyph glyph-name="Uacute" unicode="&#xda;" 
d="M254 -10q-102 0 -147 56.5t-29 153.5l84 530h90l-84 -530q-10 -60 14 -95t85 -35q60 0 95.5 35t45.5 95l84 530h90l-84 -530q-16 -98 -78.5 -154t-165.5 -56zM323 810l128 140h102l-133 -140h-97z" />
    <glyph glyph-name="Ucircumflex" unicode="&#xdb;" 
d="M254 -10q-102 0 -147 56.5t-29 153.5l84 530h90l-84 -530q-10 -60 14 -95t85 -35q60 0 95.5 35t45.5 95l84 530h90l-84 -530q-16 -98 -78.5 -154t-165.5 -56zM203 810l161 140h83l118 -140h-97l-69 78l-93 -78h-103z" />
    <glyph glyph-name="Udieresis" unicode="&#xdc;" 
d="M254 -10q-102 0 -147 56.5t-29 153.5l84 530h90l-84 -530q-10 -60 14 -95t85 -35q60 0 95.5 35t45.5 95l84 530h90l-84 -530q-16 -98 -78.5 -154t-165.5 -56zM496 817q-29 0 -43.5 17t-10.5 46q5 30 25.5 47.5t49.5 17.5t43.5 -17.5t9.5 -47.5q-4 -29 -24.5 -46
t-49.5 -17zM274 817q-29 0 -43.5 17t-10.5 46q5 30 25.5 47.5t49.5 17.5t43.5 -17.5t9.5 -47.5q-4 -29 -24.5 -46t-49.5 -17z" />
    <glyph glyph-name="Yacute" unicode="&#xdd;" 
d="M211 0l43 273l-147 457h91l97 -300q8 -25 12.5 -42.5t5.5 -25.5q4 8 13.5 25.5t25.5 42.5l190 300h95l-293 -457l-43 -273h-90zM323 810l128 140h102l-133 -140h-97z" />
    <glyph glyph-name="Thorn" unicode="&#xde;" 
d="M46 0l116 730h90l-24 -150h153q98 0 148.5 -55t36.5 -145q-9 -61 -43 -106t-86.5 -69.5t-118.5 -24.5h-153l-29 -180h-90zM177 260h153q58 0 96 32.5t47 87.5q9 56 -19.5 88t-85.5 32h-153z" />
    <glyph glyph-name="germandbls" unicode="&#xdf;" 
d="M-132 -180l13 82h70q82 0 94 78l88 554q10 62 43.5 108.5t84.5 72t115 25.5q96 0 147 -48t37 -138q-10 -60 -47.5 -103.5t-93.5 -59.5q57 -16 84 -64t16 -119q-10 -61 -44 -108t-86.5 -73.5t-117.5 -26.5h-66l13 82h56q60 0 100.5 35.5t49.5 93.5q10 58 -19.5 91
t-90.5 33h-44l12 78h42q56 0 93.5 35t45.5 88q9 58 -18 90t-82 32t-93 -33t-47 -91l-88 -554q-12 -74 -64.5 -117t-133.5 -43h-69z" />
    <glyph glyph-name="agrave" unicode="&#xe0;" 
d="M223 -10q-82 0 -122 55t-25 149l25 161q15 95 72.5 150t140.5 55q62 0 97 -31t33 -84h3l15 105h90l-87 -550h-90l17 105h-2q-15 -54 -60 -84.5t-107 -30.5zM266 68q56 0 93.5 35t47.5 97l23 150q10 62 -16.5 97t-82.5 35q-57 0 -94 -34t-47 -98l-23 -150q-10 -64 16 -98
t83 -34zM333 645l-93 140h94l88 -140h-89z" />
    <glyph glyph-name="aacute" unicode="&#xe1;" 
d="M223 -10q-82 0 -122 55t-25 149l25 161q15 95 72.5 150t140.5 55q62 0 97 -31t33 -84h3l15 105h90l-87 -550h-90l17 105h-2q-15 -54 -60 -84.5t-107 -30.5zM266 68q56 0 93.5 35t47.5 97l23 150q10 62 -16.5 97t-82.5 35q-57 0 -94 -34t-47 -98l-23 -150q-10 -64 16 -98
t83 -34zM302 645l128 140h102l-133 -140h-97z" />
    <glyph glyph-name="acircumflex" unicode="&#xe2;" 
d="M223 -10q-82 0 -122 55t-25 149l25 161q15 95 72.5 150t140.5 55q62 0 97 -31t33 -84h3l15 105h90l-87 -550h-90l17 105h-2q-15 -54 -60 -84.5t-107 -30.5zM266 68q56 0 93.5 35t47.5 97l23 150q10 62 -16.5 97t-82.5 35q-57 0 -94 -34t-47 -98l-23 -150q-10 -64 16 -98
t83 -34zM182 645l161 140h83l118 -140h-97l-69 78l-93 -78h-103z" />
    <glyph glyph-name="atilde" unicode="&#xe3;" 
d="M223 -10q-82 0 -122 55t-25 149l25 161q15 95 72.5 150t140.5 55q62 0 97 -31t33 -84h3l15 105h90l-87 -550h-90l17 105h-2q-15 -54 -60 -84.5t-107 -30.5zM266 68q56 0 93.5 35t47.5 97l23 150q10 62 -16.5 97t-82.5 35q-57 0 -94 -34t-47 -98l-23 -150q-10 -64 16 -98
t83 -34zM434 650q-30 0 -47 10.5t-28 24.5t-21.5 24.5t-27.5 10.5q-30 0 -36 -35l-4 -30h-65l4 30q8 45 37 70t69 25q30 0 47 -10.5t27.5 -24.5t21 -24.5t27.5 -10.5q30 0 36 35l5 30h65l-5 -30q-7 -45 -35.5 -70t-69.5 -25z" />
    <glyph glyph-name="adieresis" unicode="&#xe4;" 
d="M223 -10q-82 0 -122 55t-25 149l25 161q15 95 72.5 150t140.5 55q62 0 97 -31t33 -84h3l15 105h90l-87 -550h-90l17 105h-2q-15 -54 -60 -84.5t-107 -30.5zM266 68q56 0 93.5 35t47.5 97l23 150q10 62 -16.5 97t-82.5 35q-57 0 -94 -34t-47 -98l-23 -150q-10 -64 16 -98
t83 -34zM475 649q-29 0 -43.5 17t-10.5 46q5 30 25 47.5t49 17.5t44 -17.5t10 -47.5q-4 -29 -24.5 -46t-49.5 -17zM253 649q-29 0 -43.5 17t-10.5 46q5 30 25 47.5t49 17.5t44 -17.5t10 -47.5q-4 -29 -24.5 -46t-49.5 -17z" />
    <glyph glyph-name="aring" unicode="&#xe5;" 
d="M223 -10q-82 0 -122 55t-25 149l25 161q15 95 72.5 150t140.5 55q62 0 97 -31t33 -84h3l15 105h90l-87 -550h-90l17 105h-2q-15 -54 -60 -84.5t-107 -30.5zM266 68q56 0 93.5 35t47.5 97l23 150q10 62 -16.5 97t-82.5 35q-57 0 -94 -34t-47 -98l-23 -150q-10 -64 16 -98
t83 -34zM357 608q-54 0 -81.5 31.5t-20.5 82.5q8 51 46 82.5t92 31.5t82 -31.5t20 -82.5q-7 -51 -45.5 -82.5t-92.5 -31.5zM366 661q27 0 46 16.5t23 44.5q5 28 -9 45t-41 17t-46 -17t-24 -45q-4 -28 10 -44.5t41 -16.5z" />
    <glyph glyph-name="ae" unicode="&#xe6;" 
d="M124 -10q-62 0 -92 38t-20 102l9 60q10 62 57 98.5t117 36.5h74l12 74q7 44 -6 64t-48 20q-28 0 -47.5 -17t-24.5 -46h-85q10 63 52.5 101.5t102.5 38.5q39 0 62.5 -13t34.5 -31.5t11 -35.5h4q6 17 22 35.5t42.5 31.5t63.5 13q68 0 99.5 -43t19.5 -117l-23 -145h-222
l-16 -105q-6 -37 9 -60t45 -23q32 0 53.5 17t26.5 46h85q-10 -63 -56.5 -101.5t-111.5 -38.5q-37 0 -59.5 13t-32.5 31.5t-10 35.5h-4q-5 -17 -23 -35.5t-48 -31.5t-73 -13zM350 325h137l12 75q6 38 -9 60.5t-48 22.5q-31 0 -52.5 -22.5t-27.5 -60.5zM157 67q32 0 55.5 23
t29.5 60l16 105h-72q-31 0 -50.5 -17.5t-24.5 -47.5l-9 -60q-5 -29 10 -46t45 -17z" />
    <glyph glyph-name="ccedilla" unicode="&#xe7;" 
d="M133 -203l9 55h70q22 0 37 11.5t17 24.5q3 17 -22.5 30t-75.5 13l34 64q-72 15 -105.5 68.5t-20.5 136.5l23 150q16 98 83 154t167 56q95 0 145 -51t39 -139h-90q5 53 -23 81.5t-84 28.5q-59 0 -97.5 -33.5t-48.5 -95.5l-24 -151q-10 -62 18 -96t87 -34q56 0 93 29t49 81
h90q-17 -88 -83.5 -139t-161.5 -51h-1l-13 -25q26 -3 52.5 -13t42.5 -28t12 -44q-5 -34 -42 -58.5t-91 -24.5h-85z" />
    <glyph glyph-name="egrave" unicode="&#xe8;" 
d="M254 -10q-97 0 -145 57.5t-33 152.5l23 150q11 64 44.5 111t85 73t116.5 26q98 0 146 -57.5t32 -152.5l-15 -97h-336l-8 -53q-10 -65 15.5 -99.5t86.5 -34.5q105 0 132 74h90q-19 -69 -83 -109.5t-151 -40.5zM183 321h248l4 29q11 65 -14.5 100t-87.5 35q-61 0 -98 -35
t-48 -100zM328 645l-93 140h94l88 -140h-89z" />
    <glyph glyph-name="eacute" unicode="&#xe9;" 
d="M254 -10q-97 0 -145 57.5t-33 152.5l23 150q11 64 44.5 111t85 73t116.5 26q98 0 146 -57.5t32 -152.5l-15 -97h-336l-8 -53q-10 -65 15.5 -99.5t86.5 -34.5q105 0 132 74h90q-19 -69 -83 -109.5t-151 -40.5zM183 321h248l4 29q11 65 -14.5 100t-87.5 35q-61 0 -98 -35
t-48 -100zM297 645l128 140h102l-133 -140h-97z" />
    <glyph glyph-name="ecircumflex" unicode="&#xea;" 
d="M254 -10q-97 0 -145 57.5t-33 152.5l23 150q11 64 44.5 111t85 73t116.5 26q98 0 146 -57.5t32 -152.5l-15 -97h-336l-8 -53q-10 -65 15.5 -99.5t86.5 -34.5q105 0 132 74h90q-19 -69 -83 -109.5t-151 -40.5zM183 321h248l4 29q11 65 -14.5 100t-87.5 35q-61 0 -98 -35
t-48 -100zM177 645l161 140h83l118 -140h-97l-69 78l-93 -78h-103z" />
    <glyph glyph-name="edieresis" unicode="&#xeb;" 
d="M254 -10q-97 0 -145 57.5t-33 152.5l23 150q11 64 44.5 111t85 73t116.5 26q98 0 146 -57.5t32 -152.5l-15 -97h-336l-8 -53q-10 -65 15.5 -99.5t86.5 -34.5q105 0 132 74h90q-19 -69 -83 -109.5t-151 -40.5zM183 321h248l4 29q11 65 -14.5 100t-87.5 35q-61 0 -98 -35
t-48 -100zM470 649q-29 0 -43.5 17t-10.5 46q5 30 25 47.5t49 17.5t44 -17.5t10 -47.5q-4 -29 -24.5 -46t-49.5 -17zM248 649q-29 0 -43.5 17t-10.5 46q5 30 25 47.5t49 17.5t44 -17.5t10 -47.5q-4 -29 -24.5 -46t-49.5 -17z" />
    <glyph glyph-name="igrave" unicode="&#xec;" 
d="M36 0l13 82h195l61 386h-170l13 82h260l-74 -468h185l-13 -82h-470zM343 645l-93 140h94l88 -140h-89z" />
    <glyph glyph-name="iacute" unicode="&#xed;" 
d="M36 0l13 82h195l61 386h-170l13 82h260l-74 -468h185l-13 -82h-470zM312 645l128 140h102l-133 -140h-97z" />
    <glyph glyph-name="icircumflex" unicode="&#xee;" 
d="M36 0l13 82h195l61 386h-170l13 82h260l-74 -468h185l-13 -82h-470zM192 645l161 140h83l118 -140h-97l-69 78l-93 -78h-103z" />
    <glyph glyph-name="idieresis" unicode="&#xef;" 
d="M36 0l13 82h195l61 386h-170l13 82h260l-74 -468h185l-13 -82h-470zM485 649q-29 0 -43.5 17t-10.5 46q5 30 25 47.5t49 17.5t44 -17.5t10 -47.5q-4 -29 -24.5 -46t-49.5 -17zM263 649q-29 0 -43.5 17t-10.5 46q5 30 25 47.5t49 17.5t44 -17.5t10 -47.5q-4 -29 -24.5 -46
t-49.5 -17z" />
    <glyph glyph-name="eth" unicode="&#xf0;" 
d="M253 -10q-68 0 -115 28t-67.5 79t-10.5 118q11 67 45 116.5t86 77t115 27.5q44 0 70.5 -19t34.5 -37h14q-3 10 -15 36.5t-33 63.5l-50 89l-176 -73l13 81l128 56l-55 97h95l34 -62l167 67l-12 -82l-120 -49l65 -111q37 -62 51.5 -134t3.5 -136q-11 -70 -48 -122.5
t-93.5 -81.5t-126.5 -29zM266 70q64 0 109 40t55 105q11 65 -21.5 105t-96.5 40q-62 0 -106.5 -40t-55.5 -105q-10 -65 22 -105t94 -40z" />
    <glyph glyph-name="ntilde" unicode="&#xf1;" 
d="M48 0l87 550h90l-17 -105h2q15 55 58 85t106 30q83 0 124 -51t27 -139l-59 -370h-90l57 360q9 59 -17 91.5t-80 32.5q-56 0 -94 -35t-49 -99l-55 -350h-90zM430 650q-30 0 -47 10.5t-28 24.5t-21.5 24.5t-27.5 10.5q-30 0 -36 -35l-4 -30h-65l4 30q8 45 37 70t69 25
q30 0 47 -10.5t27.5 -24.5t21 -24.5t27.5 -10.5q30 0 36 35l5 30h65l-5 -30q-7 -45 -35.5 -70t-69.5 -25z" />
    <glyph glyph-name="ograve" unicode="&#xf2;" 
d="M254 -10q-98 0 -146 56t-32 154l23 150q16 98 82 154t164 56t146 -55.5t33 -153.5l-24 -151q-16 -98 -82 -154t-164 -56zM267 70q59 0 96 33t47 97l23 150q11 64 -15.5 97t-85.5 33q-58 0 -95 -33t-48 -97l-23 -150q-10 -64 16.5 -97t84.5 -33zM328 645l-93 140h94
l88 -140h-89z" />
    <glyph glyph-name="oacute" unicode="&#xf3;" 
d="M254 -10q-98 0 -146 56t-32 154l23 150q16 98 82 154t164 56t146 -55.5t33 -153.5l-24 -151q-16 -98 -82 -154t-164 -56zM267 70q59 0 96 33t47 97l23 150q11 64 -15.5 97t-85.5 33q-58 0 -95 -33t-48 -97l-23 -150q-10 -64 16.5 -97t84.5 -33zM297 645l128 140h102
l-133 -140h-97z" />
    <glyph glyph-name="ocircumflex" unicode="&#xf4;" 
d="M254 -10q-98 0 -146 56t-32 154l23 150q16 98 82 154t164 56t146 -55.5t33 -153.5l-24 -151q-16 -98 -82 -154t-164 -56zM267 70q59 0 96 33t47 97l23 150q11 64 -15.5 97t-85.5 33q-58 0 -95 -33t-48 -97l-23 -150q-10 -64 16.5 -97t84.5 -33zM177 645l161 140h83
l118 -140h-97l-69 78l-93 -78h-103z" />
    <glyph glyph-name="otilde" unicode="&#xf5;" 
d="M254 -10q-98 0 -146 56t-32 154l23 150q16 98 82 154t164 56t146 -55.5t33 -153.5l-24 -151q-16 -98 -82 -154t-164 -56zM267 70q59 0 96 33t47 97l23 150q11 64 -15.5 97t-85.5 33q-58 0 -95 -33t-48 -97l-23 -150q-10 -64 16.5 -97t84.5 -33zM429 650q-30 0 -47 10.5
t-28 24.5t-21.5 24.5t-27.5 10.5q-30 0 -36 -35l-4 -30h-65l4 30q8 45 37 70t69 25q30 0 47 -10.5t27.5 -24.5t21 -24.5t27.5 -10.5q30 0 36 35l5 30h65l-5 -30q-7 -45 -35.5 -70t-69.5 -25z" />
    <glyph glyph-name="odieresis" unicode="&#xf6;" 
d="M254 -10q-98 0 -146 56t-32 154l23 150q16 98 82 154t164 56t146 -55.5t33 -153.5l-24 -151q-16 -98 -82 -154t-164 -56zM267 70q59 0 96 33t47 97l23 150q11 64 -15.5 97t-85.5 33q-58 0 -95 -33t-48 -97l-23 -150q-10 -64 16.5 -97t84.5 -33zM470 649q-29 0 -43.5 17
t-10.5 46q5 30 25 47.5t49 17.5t44 -17.5t10 -47.5q-4 -29 -24.5 -46t-49.5 -17zM248 649q-29 0 -43.5 17t-10.5 46q5 30 25 47.5t49 17.5t44 -17.5t10 -47.5q-4 -29 -24.5 -46t-49.5 -17z" />
    <glyph glyph-name="divide" unicode="&#xf7;" 
d="M329 460q-37 0 -56.5 20.5t-14.5 54.5t31.5 54.5t63.5 20.5q38 0 57 -20.5t14 -54.5t-31 -54.5t-64 -20.5zM103 295l12 75h400l-12 -75h-400zM265 55q-37 0 -56.5 20.5t-14.5 54.5t31.5 54.5t63.5 20.5q38 0 57 -20.5t14 -54.5t-31 -54.5t-64 -20.5z" />
    <glyph glyph-name="oslash" unicode="&#xf8;" 
d="M-14 -30l99 115q-19 48 -9 115l23 150q15 98 81.5 154t164.5 56q75 0 122 -33l54 63h93l-102 -118q23 -50 12 -121l-24 -151q-16 -98 -82 -154t-164 -56q-79 0 -126 37l-50 -57h-92zM161 200q-3 -17 -2 -30l248 288q-28 22 -75 22q-60 0 -99 -34t-49 -96zM267 70
q60 0 99 34.5t49 95.5l23 150q3 21 2 39l-253 -293q28 -26 80 -26z" />
    <glyph glyph-name="ugrave" unicode="&#xf9;" 
d="M253 -10q-95 0 -142.5 56.5t-32.5 153.5l55 350h90l-55 -350q-10 -62 16.5 -96.5t81.5 -34.5q56 0 94 34.5t48 96.5l55 350h90l-55 -350q-10 -64 -44 -111.5t-85.5 -73t-115.5 -25.5zM328 645l-93 140h94l88 -140h-89z" />
    <glyph glyph-name="uacute" unicode="&#xfa;" 
d="M253 -10q-95 0 -142.5 56.5t-32.5 153.5l55 350h90l-55 -350q-10 -62 16.5 -96.5t81.5 -34.5q56 0 94 34.5t48 96.5l55 350h90l-55 -350q-10 -64 -44 -111.5t-85.5 -73t-115.5 -25.5zM297 645l128 140h102l-133 -140h-97z" />
    <glyph glyph-name="ucircumflex" unicode="&#xfb;" 
d="M253 -10q-95 0 -142.5 56.5t-32.5 153.5l55 350h90l-55 -350q-10 -62 16.5 -96.5t81.5 -34.5q56 0 94 34.5t48 96.5l55 350h90l-55 -350q-10 -64 -44 -111.5t-85.5 -73t-115.5 -25.5zM177 645l161 140h83l118 -140h-97l-69 78l-93 -78h-103z" />
    <glyph glyph-name="udieresis" unicode="&#xfc;" 
d="M253 -10q-95 0 -142.5 56.5t-32.5 153.5l55 350h90l-55 -350q-10 -62 16.5 -96.5t81.5 -34.5q56 0 94 34.5t48 96.5l55 350h90l-55 -350q-10 -64 -44 -111.5t-85.5 -73t-115.5 -25.5zM470 649q-29 0 -43.5 17t-10.5 46q5 30 25 47.5t49 17.5t44 -17.5t10 -47.5
q-4 -29 -24.5 -46t-49.5 -17zM248 649q-29 0 -43.5 17t-10.5 46q5 30 25 47.5t49 17.5t44 -17.5t10 -47.5q-4 -29 -24.5 -46t-49.5 -17z" />
    <glyph glyph-name="yacute" unicode="&#xfd;" 
d="M90 -180l13 82h175q82 0 94 78l12 75l17 100h-2q-15 -55 -58 -85t-106 -30q-82 0 -123.5 51t-27.5 139l51 320h90l-49 -310q-10 -58 16.5 -91t80.5 -33q56 0 94.5 35t48.5 99l47 300h90l-91 -570q-11 -74 -64 -117t-134 -43h-174zM297 645l128 140h102l-133 -140h-97z
" />
    <glyph glyph-name="thorn" unicode="&#xfe;" 
d="M14 -180l38 239v0l107 671h90l-26 -160l-22 -125h4q15 53 60 84t107 31q83 0 122.5 -55t24.5 -150l-25 -161q-15 -94 -72.5 -149t-140.5 -55q-63 0 -97.5 31t-32.5 84h-1l-17 -105v0l-29 -180h-90zM264 68q57 0 94 34t47 98l23 150q11 64 -15.5 98t-83.5 34
q-55 0 -92.5 -35t-48.5 -97l-23 -150q-10 -62 17 -97t82 -35z" />
    <glyph glyph-name="ydieresis" unicode="&#xff;" 
d="M90 -180l13 82h175q82 0 94 78l12 75l17 100h-2q-15 -55 -58 -85t-106 -30q-82 0 -123.5 51t-27.5 139l51 320h90l-49 -310q-10 -58 16.5 -91t80.5 -33q56 0 94.5 35t48.5 99l47 300h90l-91 -570q-11 -74 -64 -117t-134 -43h-174zM470 649q-29 0 -43.5 17t-10.5 46
q5 30 25 47.5t49 17.5t44 -17.5t10 -47.5q-4 -29 -24.5 -46t-49.5 -17zM248 649q-29 0 -43.5 17t-10.5 46q5 30 25 47.5t49 17.5t44 -17.5t10 -47.5q-4 -29 -24.5 -46t-49.5 -17z" />
    <glyph glyph-name="Amacron" unicode="&#x100;" 
d="M6 0l306 730h121l73 -730h-88l-17 194h-221l-79 -194h-95zM210 270h184l-21 225q-6 64 -8 107t-2 56q-4 -13 -19.5 -56t-41.5 -106zM229 840l12 75h320l-12 -75h-320z" />
    <glyph glyph-name="amacron" unicode="&#x101;" 
d="M223 -10q-82 0 -122 55t-25 149l25 161q15 95 72.5 150t140.5 55q62 0 97 -31t33 -84h3l15 105h90l-87 -550h-90l17 105h-2q-15 -54 -60 -84.5t-107 -30.5zM266 68q56 0 93.5 35t47.5 97l23 150q10 62 -16.5 97t-82.5 35q-57 0 -94 -34t-47 -98l-23 -150q-10 -64 16 -98
t83 -34zM207 670l12 75h320l-12 -75h-320z" />
    <glyph glyph-name="Abreve" unicode="&#x102;" 
d="M6 0l306 730h121l73 -730h-88l-17 194h-221l-79 -194h-95zM210 270h184l-21 225q-6 64 -8 107t-2 56q-4 -13 -19.5 -56t-41.5 -106zM383 805q-72 0 -109.5 40t-27.5 105h70q-6 -39 14.5 -63t60.5 -24q41 0 69 24t34 63h72q-10 -65 -60.5 -105t-122.5 -40z" />
    <glyph glyph-name="abreve" unicode="&#x103;" 
d="M223 -10q-82 0 -122 55t-25 149l25 161q15 95 72.5 150t140.5 55q62 0 97 -31t33 -84h3l15 105h90l-87 -550h-90l17 105h-2q-15 -54 -60 -84.5t-107 -30.5zM266 68q56 0 93.5 35t47.5 97l23 150q10 62 -16.5 97t-82.5 35q-57 0 -94 -34t-47 -98l-23 -150q-10 -64 16 -98
t83 -34zM362 640q-72 0 -109.5 40t-27.5 105h70q-6 -39 14.5 -63t60.5 -24q41 0 69 24t34 63h72q-10 -65 -60.5 -105t-122.5 -40z" />
    <glyph glyph-name="Aogonek" unicode="&#x104;" 
d="M6 0l306 730h121l73 -730h-17q-38 -27 -56 -49.5t-22 -43.5q-3 -22 9.5 -36t37.5 -14h60l-9 -60h-78q-55 0 -84.5 26.5t-22.5 66.5q4 27 25.5 54.5t68.5 58.5l-17 191h-221l-79 -194h-95zM210 270h184l-21 225q-6 64 -8 107t-2 56q-4 -13 -19.5 -56t-41.5 -106z" />
    <glyph glyph-name="aogonek" unicode="&#x105;" 
d="M223 -10q-82 0 -122 55t-25 149l25 161q15 95 72.5 150t140.5 55q62 0 97 -31t33 -84h3l15 105h90l-87 -550h-1q-38 -28 -56.5 -50t-22.5 -43q-3 -22 9.5 -36t37.5 -14h60l-9 -60h-78q-55 0 -84.5 26.5t-22.5 66.5q4 26 24.5 53t64.5 57h-12l17 105h-2q-15 -54 -60 -84.5
t-107 -30.5zM266 68q56 0 93.5 35t47.5 97l23 150q10 62 -16.5 97t-82.5 35q-57 0 -94 -34t-47 -98l-23 -150q-10 -64 16 -98t83 -34z" />
    <glyph glyph-name="Cacute" unicode="&#x106;" 
d="M258 -10q-100 0 -149 56t-33 154l52 330q16 98 82.5 154t166.5 56q98 0 147 -56.5t34 -153.5h-90q10 62 -17.5 95.5t-86.5 33.5t-97.5 -33t-48.5 -95l-52 -331q-10 -62 18 -95.5t87 -33.5t97 33.5t48 95.5h90q-16 -97 -83 -153.5t-165 -56.5zM328 810l128 140h102
l-133 -140h-97z" />
    <glyph glyph-name="cacute" unicode="&#x107;" 
d="M258 -10q-100 0 -149 56t-33 154l23 150q16 98 83 154t167 56q95 0 145 -51t39 -139h-90q5 53 -23 81.5t-84 28.5q-59 0 -97.5 -33.5t-48.5 -95.5l-24 -151q-10 -62 18 -96t87 -34q56 0 93 29t49 81h90q-17 -88 -83.5 -139t-161.5 -51zM301 645l128 140h102l-133 -140
h-97z" />
    <glyph glyph-name="Ccircumflex" unicode="&#x108;" 
d="M258 -10q-100 0 -149 56t-33 154l52 330q16 98 82.5 154t166.5 56q98 0 147 -56.5t34 -153.5h-90q10 62 -17.5 95.5t-86.5 33.5t-97.5 -33t-48.5 -95l-52 -331q-10 -62 18 -95.5t87 -33.5t97 33.5t48 95.5h90q-16 -97 -83 -153.5t-165 -56.5zM208 810l161 140h83
l118 -140h-97l-69 78l-93 -78h-103z" />
    <glyph glyph-name="ccircumflex" unicode="&#x109;" 
d="M258 -10q-100 0 -149 56t-33 154l23 150q16 98 83 154t167 56q95 0 145 -51t39 -139h-90q5 53 -23 81.5t-84 28.5q-59 0 -97.5 -33.5t-48.5 -95.5l-24 -151q-10 -62 18 -96t87 -34q56 0 93 29t49 81h90q-17 -88 -83.5 -139t-161.5 -51zM181 645l161 140h83l118 -140h-97
l-69 78l-93 -78h-103z" />
    <glyph glyph-name="Cdotaccent" unicode="&#x10a;" 
d="M258 -10q-100 0 -149 56t-33 154l52 330q16 98 82.5 154t166.5 56q98 0 147 -56.5t34 -153.5h-90q10 62 -17.5 95.5t-86.5 33.5t-97.5 -33t-48.5 -95l-52 -331q-10 -62 18 -95.5t87 -33.5t97 33.5t48 95.5h90q-16 -97 -83 -153.5t-165 -56.5zM390 816q-33 0 -49 17.5
t-12 46.5q5 29 27 46.5t55 17.5t49 -17.5t11 -46.5q-4 -29 -26 -46.5t-55 -17.5z" />
    <glyph glyph-name="cdotaccent" unicode="&#x10b;" 
d="M258 -10q-100 0 -149 56t-33 154l23 150q16 98 83 154t167 56q95 0 145 -51t39 -139h-90q5 53 -23 81.5t-84 28.5q-59 0 -97.5 -33.5t-48.5 -95.5l-24 -151q-10 -62 18 -96t87 -34q56 0 93 29t49 81h90q-17 -88 -83.5 -139t-161.5 -51zM363 649q-33 0 -49 17t-12 46
q5 30 26.5 47.5t54.5 17.5t49.5 -17.5t11.5 -47.5q-4 -29 -26 -46t-55 -17z" />
    <glyph glyph-name="Ccaron" unicode="&#x10c;" 
d="M258 -10q-100 0 -149 56t-33 154l52 330q16 98 82.5 154t166.5 56q98 0 147 -56.5t34 -153.5h-90q10 62 -17.5 95.5t-86.5 33.5t-97.5 -33t-48.5 -95l-52 -331q-10 -62 18 -95.5t87 -33.5t97 33.5t48 95.5h90q-16 -97 -83 -153.5t-165 -56.5zM348 810l-118 140h97l70 -78
l92 78h103l-161 -140h-83z" />
    <glyph glyph-name="ccaron" unicode="&#x10d;" 
d="M258 -10q-100 0 -149 56t-33 154l23 150q16 98 83 154t167 56q95 0 145 -51t39 -139h-90q5 53 -23 81.5t-84 28.5q-59 0 -97.5 -33.5t-48.5 -95.5l-24 -151q-10 -62 18 -96t87 -34q56 0 93 29t49 81h90q-17 -88 -83.5 -139t-161.5 -51zM322 645l-118 140h97l70 -78l92 78
h103l-161 -140h-83z" />
    <glyph glyph-name="Dcaron" unicode="&#x10e;" 
d="M48 0l116 730h189q106 0 159 -59.5t37 -159.5l-46 -291q-10 -67 -46.5 -116.5t-92.5 -76.5t-127 -27h-189zM151 80h99q66 0 109.5 37t53.5 103l46 291q11 65 -21 102t-98 37h-99zM343 810l-118 140h97l70 -78l92 78h103l-161 -140h-83z" />
    <glyph glyph-name="dcaron" unicode="&#x10f;" 
d="M553 550l29 180h90l-39 -180h-80zM182 -10q-76 0 -111.5 54t-21.5 145l27 171q14 92 67.5 146t129.5 54q57 0 87.5 -31t27.5 -84h3l18 125l26 160h90l-116 -730h-90l17 105h-1q-15 -53 -55.5 -84t-97.5 -31zM225 68q50 0 82.5 33.5t42.5 93.5l25 160q10 60 -12.5 93.5
t-72.5 33.5q-49 0 -82 -33.5t-43 -93.5l-25 -160q-10 -60 13 -93.5t72 -33.5z" />
    <glyph glyph-name="Dcroat" unicode="&#x110;" 
d="M48 0l53 335h-91l12 75h91l51 320h189q106 0 159 -59.5t37 -159.5l-46 -291q-10 -67 -46.5 -116.5t-92.5 -76.5t-127 -27h-189zM151 80h99q66 0 109.5 37t53.5 103l46 291q11 65 -21 102t-98 37h-99l-38 -240h99l-12 -75h-99z" />
    <glyph glyph-name="dcroat" unicode="&#x111;" 
d="M77 194l16 101q15 95 71 150t139 55q62 0 96.5 -31t32.5 -84h3l18 125l9 60h-166l12 75h166l14 85h90l-14 -85h94l-12 -75h-94l-90 -570h-90l17 105h-2q-15 -54 -58.5 -84.5t-106.5 -30.5q-82 0 -121 55t-24 149zM168 200q-10 -64 15 -98t82 -34q56 0 92.5 35t46.5 97
l14 90q10 62 -15.5 97t-81.5 35q-57 0 -93 -34t-46 -98z" />
    <glyph glyph-name="Emacron" unicode="&#x112;" 
d="M56 0l116 730h420l-13 -82h-331l-36 -226h296l-13 -81h-296l-41 -259h331l-13 -82h-420zM249 840l12 75h320l-12 -75h-320z" />
    <glyph glyph-name="emacron" unicode="&#x113;" 
d="M254 -10q-97 0 -145 57.5t-33 152.5l23 150q11 64 44.5 111t85 73t116.5 26q98 0 146 -57.5t32 -152.5l-15 -97h-336l-8 -53q-10 -65 15.5 -99.5t86.5 -34.5q105 0 132 74h90q-19 -69 -83 -109.5t-151 -40.5zM183 321h248l4 29q11 65 -14.5 100t-87.5 35q-61 0 -98 -35
t-48 -100zM202 670l12 75h320l-12 -75h-320z" />
    <glyph glyph-name="Ebreve" unicode="&#x114;" 
d="M56 0l116 730h420l-13 -82h-331l-36 -226h296l-13 -81h-296l-41 -259h331l-13 -82h-420zM403 805q-72 0 -109.5 40t-27.5 105h70q-6 -39 14.5 -63t60.5 -24q41 0 69 24t34 63h72q-10 -65 -60.5 -105t-122.5 -40z" />
    <glyph glyph-name="ebreve" unicode="&#x115;" 
d="M254 -10q-97 0 -145 57.5t-33 152.5l23 150q11 64 44.5 111t85 73t116.5 26q98 0 146 -57.5t32 -152.5l-15 -97h-336l-8 -53q-10 -65 15.5 -99.5t86.5 -34.5q105 0 132 74h90q-19 -69 -83 -109.5t-151 -40.5zM183 321h248l4 29q11 65 -14.5 100t-87.5 35q-61 0 -98 -35
t-48 -100zM357 640q-72 0 -109.5 40t-27.5 105h70q-6 -39 14.5 -63t60.5 -24q41 0 69 24t34 63h72q-10 -65 -60.5 -105t-122.5 -40z" />
    <glyph glyph-name="Edotaccent" unicode="&#x116;" 
d="M56 0l116 730h420l-13 -82h-331l-36 -226h296l-13 -81h-296l-41 -259h331l-13 -82h-420zM405 816q-33 0 -49 17.5t-12 46.5q5 29 27 46.5t55 17.5t49 -17.5t11 -46.5q-4 -29 -26 -46.5t-55 -17.5z" />
    <glyph glyph-name="edotaccent" unicode="&#x117;" 
d="M254 -10q-97 0 -145 57.5t-33 152.5l23 150q11 64 44.5 111t85 73t116.5 26q98 0 146 -57.5t32 -152.5l-15 -97h-336l-8 -53q-10 -65 15.5 -99.5t86.5 -34.5q105 0 132 74h90q-19 -69 -83 -109.5t-151 -40.5zM183 321h248l4 29q11 65 -14.5 100t-87.5 35q-61 0 -98 -35
t-48 -100zM359 649q-33 0 -49 17t-12 46q5 30 26.5 47.5t54.5 17.5t49.5 -17.5t11.5 -47.5q-4 -29 -26 -46t-55 -17z" />
    <glyph glyph-name="Eogonek" unicode="&#x118;" 
d="M56 0l116 730h420l-13 -82h-331l-36 -226h296l-13 -81h-296l-41 -259h331l-13 -82h-47q-38 -27 -56 -49.5t-22 -43.5q-3 -22 9.5 -36t37.5 -14h60l-9 -60h-78q-55 0 -84.5 26.5t-22.5 66.5q4 26 24.5 53t64.5 57h-297z" />
    <glyph glyph-name="eogonek" unicode="&#x119;" 
d="M297 -203q-55 0 -84.5 26.5t-22.5 66.5q6 46 74 100h-10q-97 0 -145 57.5t-33 152.5l23 150q11 64 44.5 111t85 73t116.5 26q98 0 146 -57.5t32 -152.5l-15 -97h-336l-8 -53q-10 -65 15.5 -99.5t86.5 -34.5q105 0 132 74h90q-12 -43 -42 -75t-72 -51l-18 -13
q-38 -28 -56.5 -50.5t-22.5 -43.5q-3 -22 9.5 -36t37.5 -14h60l-9 -60h-78zM183 321h248l4 29q11 65 -14.5 100t-87.5 35q-61 0 -98 -35t-48 -100z" />
    <glyph glyph-name="Ecaron" unicode="&#x11a;" 
d="M56 0l116 730h420l-13 -82h-331l-36 -226h296l-13 -81h-296l-41 -259h331l-13 -82h-420zM363 810l-118 140h97l70 -78l92 78h103l-161 -140h-83z" />
    <glyph glyph-name="ecaron" unicode="&#x11b;" 
d="M254 -10q-97 0 -145 57.5t-33 152.5l23 150q11 64 44.5 111t85 73t116.5 26q98 0 146 -57.5t32 -152.5l-15 -97h-336l-8 -53q-10 -65 15.5 -99.5t86.5 -34.5q105 0 132 74h90q-19 -69 -83 -109.5t-151 -40.5zM183 321h248l4 29q11 65 -14.5 100t-87.5 35q-61 0 -98 -35
t-48 -100zM318 645l-118 140h97l70 -78l92 78h103l-161 -140h-83z" />
    <glyph glyph-name="Gcircumflex" unicode="&#x11c;" 
d="M258 -10q-100 0 -149 56t-33 154l52 330q16 98 82.5 154t166.5 56q98 0 147 -56.5t34 -153.5h-90q10 62 -17.5 95.5t-86.5 33.5t-97.5 -33t-48.5 -95l-52 -331q-10 -62 18 -96t87 -34t97 34t48 96l14 90h-148l13 82h238l-27 -172q-10 -64 -44 -111.5t-86 -73t-118 -25.5z
M203 810l161 140h83l118 -140h-97l-69 78l-93 -78h-103z" />
    <glyph glyph-name="gcircumflex" unicode="&#x11d;" 
d="M90 -180l13 82h175q81 0 94 78l11 70l18 100h-2q-14 -53 -58 -84t-106 -31q-85 0 -125.5 55.5t-25.5 149.5l18 116q15 94 73 149t143 55q63 0 97 -31t31 -84v0l17 105h89l-90 -570q-12 -74 -64.5 -117t-133.5 -43h-174zM274 113q56 0 93.5 35t47.5 97l16 105
q11 62 -16 97t-83 35q-57 0 -93.5 -34t-47.5 -98l-16 -105q-10 -64 16 -98t83 -34zM174 645l161 140h83l118 -140h-97l-69 78l-93 -78h-103z" />
    <glyph glyph-name="Gbreve" unicode="&#x11e;" 
d="M258 -10q-100 0 -149 56t-33 154l52 330q16 98 82.5 154t166.5 56q98 0 147 -56.5t34 -153.5h-90q10 62 -17.5 95.5t-86.5 33.5t-97.5 -33t-48.5 -95l-52 -331q-10 -62 18 -96t87 -34t97 34t48 96l14 90h-148l13 82h238l-27 -172q-10 -64 -44 -111.5t-86 -73t-118 -25.5z
M383 805q-72 0 -109.5 40t-27.5 105h70q-6 -39 14.5 -63t60.5 -24q41 0 69 24t34 63h72q-10 -65 -60.5 -105t-122.5 -40z" />
    <glyph glyph-name="gbreve" unicode="&#x11f;" 
d="M90 -180l13 82h175q81 0 94 78l11 70l18 100h-2q-14 -53 -58 -84t-106 -31q-85 0 -125.5 55.5t-25.5 149.5l18 116q15 94 73 149t143 55q63 0 97 -31t31 -84v0l17 105h89l-90 -570q-12 -74 -64.5 -117t-133.5 -43h-174zM274 113q56 0 93.5 35t47.5 97l16 105
q11 62 -16 97t-83 35q-57 0 -93.5 -34t-47.5 -98l-16 -105q-10 -64 16 -98t83 -34zM354 640q-72 0 -109.5 40t-27.5 105h70q-6 -39 14.5 -63t60.5 -24q41 0 69 24t34 63h72q-10 -65 -60.5 -105t-122.5 -40z" />
    <glyph glyph-name="Gdotaccent" unicode="&#x120;" 
d="M258 -10q-100 0 -149 56t-33 154l52 330q16 98 82.5 154t166.5 56q98 0 147 -56.5t34 -153.5h-90q10 62 -17.5 95.5t-86.5 33.5t-97.5 -33t-48.5 -95l-52 -331q-10 -62 18 -96t87 -34t97 34t48 96l14 90h-148l13 82h238l-27 -172q-10 -64 -44 -111.5t-86 -73t-118 -25.5z
M385 816q-33 0 -49 17.5t-12 46.5q5 29 27 46.5t55 17.5t49 -17.5t11 -46.5q-4 -29 -26 -46.5t-55 -17.5z" />
    <glyph glyph-name="gdotaccent" unicode="&#x121;" 
d="M90 -180l13 82h175q81 0 94 78l11 70l18 100h-2q-14 -53 -58 -84t-106 -31q-85 0 -125.5 55.5t-25.5 149.5l18 116q15 94 73 149t143 55q63 0 97 -31t31 -84v0l17 105h89l-90 -570q-12 -74 -64.5 -117t-133.5 -43h-174zM274 113q56 0 93.5 35t47.5 97l16 105
q11 62 -16 97t-83 35q-57 0 -93.5 -34t-47.5 -98l-16 -105q-10 -64 16 -98t83 -34zM356 649q-33 0 -49 17t-12 46q5 30 26.5 47.5t54.5 17.5t49.5 -17.5t11.5 -47.5q-4 -29 -26 -46t-55 -17z" />
    <glyph glyph-name="uni0122" unicode="&#x122;" 
d="M258 -10q-100 0 -149 56t-33 154l52 330q16 98 82.5 154t166.5 56q98 0 147 -56.5t34 -153.5h-90q10 62 -17.5 95.5t-86.5 33.5t-97.5 -33t-48.5 -95l-52 -331q-10 -62 18 -96t87 -34t97 34t48 96l14 90h-148l13 82h238l-27 -172q-10 -64 -44 -111.5t-86 -73t-118 -25.5z
M114 -240l118 145h101l-128 -145h-91z" />
    <glyph glyph-name="uni0123" unicode="&#x123;" 
d="M90 -180l13 82h175q81 0 94 78l11 70l18 100h-2q-14 -53 -58 -84t-106 -31q-85 0 -125.5 55.5t-25.5 149.5l18 116q15 94 73 149t143 55q63 0 97 -31t31 -84v0l17 105h89l-90 -570q-12 -74 -64.5 -117t-133.5 -43h-174zM274 113q56 0 93.5 35t47.5 97l16 105
q11 62 -16 97t-83 35q-57 0 -93.5 -34t-47.5 -98l-16 -105q-10 -64 16 -98t83 -34zM504 880l-117 -235h-119l167 235h69z" />
    <glyph glyph-name="Hcircumflex" unicode="&#x124;" 
d="M49 0l116 730h90l-50 -312h234l50 312h90l-116 -730h-90l53 336h-234l-53 -336h-90zM203 810l161 140h83l118 -140h-97l-69 78l-93 -78h-103z" />
    <glyph glyph-name="hcircumflex" unicode="&#x125;" 
d="M48 0l116 730h90l-29 -180l-17 -105h2q15 55 58 85t106 30q83 0 124 -51t27 -139l-59 -370h-90l57 360q9 59 -17 91.5t-80 32.5q-56 0 -94 -35t-49 -99l-55 -350h-90zM28 805l161 140h83l118 -140h-97l-69 78l-93 -78h-103z" />
    <glyph glyph-name="Hbar" unicode="&#x126;" 
d="M49 0l83 525h-82l12 75h82l21 130h90l-21 -130h234l21 130h90l-21 -130h83l-12 -75h-83l-83 -525h-90l53 336h-234l-53 -336h-90zM205 418h234l17 107h-234z" />
    <glyph glyph-name="hbar" unicode="&#x127;" 
d="M46 570l12 75h92l14 85h90l-14 -85h168l-12 -75h-168l-12 -80l-17 -105h1q16 55 58.5 85t105.5 30q83 0 124 -51t27 -139l-49 -310h-90l48 300q9 59 -17.5 91.5t-80.5 32.5q-56 0 -94 -35t-48 -99l-46 -290h-90l90 570h-92z" />
    <glyph glyph-name="Itilde" unicode="&#x128;" 
d="M61 0l13 82h149l90 566h-149l13 82h390l-13 -82h-149l-90 -566h149l-13 -82h-390zM455 815q-30 0 -47 10.5t-28 24.5t-21.5 24.5t-27.5 10.5q-13 0 -23 -8.5t-12 -26.5l-5 -30h-65l5 30q7 45 36 70t69 25q30 0 47 -10.5t28 -24.5t21.5 -24.5t27.5 -10.5q29 0 35 35l5 30
h65l-5 -30q-7 -45 -35.5 -70t-69.5 -25z" />
    <glyph glyph-name="itilde" unicode="&#x129;" 
d="M36 0l13 82h195l61 386h-170l13 82h260l-74 -468h185l-13 -82h-470zM444 650q-30 0 -47 10.5t-28 24.5t-21.5 24.5t-27.5 10.5q-30 0 -36 -35l-4 -30h-65l4 30q8 45 37 70t69 25q30 0 47 -10.5t27.5 -24.5t21 -24.5t27.5 -10.5q30 0 36 35l5 30h65l-5 -30
q-7 -45 -35.5 -70t-69.5 -25z" />
    <glyph glyph-name="Imacron" unicode="&#x12a;" 
d="M61 0l13 82h149l90 566h-149l13 82h390l-13 -82h-149l-90 -566h149l-13 -82h-390zM229 840l12 75h320l-12 -75h-320z" />
    <glyph glyph-name="imacron" unicode="&#x12b;" 
d="M36 0l13 82h195l61 386h-170l13 82h260l-74 -468h185l-13 -82h-470zM217 670l12 75h320l-12 -75h-320z" />
    <glyph glyph-name="Ibreve" unicode="&#x12c;" 
d="M61 0l13 82h149l90 566h-149l13 82h390l-13 -82h-149l-90 -566h149l-13 -82h-390zM383 805q-72 0 -109.5 40t-27.5 105h70q-6 -39 14.5 -63t60.5 -24q41 0 69 24t34 63h72q-10 -65 -60.5 -105t-122.5 -40z" />
    <glyph glyph-name="ibreve" unicode="&#x12d;" 
d="M36 0l13 82h195l61 386h-170l13 82h260l-74 -468h185l-13 -82h-470zM372 640q-72 0 -109.5 40t-27.5 105h70q-6 -39 14.5 -63t60.5 -24q41 0 69 24t34 63h72q-10 -65 -60.5 -105t-122.5 -40z" />
    <glyph glyph-name="Iogonek" unicode="&#x12e;" 
d="M61 0l13 82h149l90 566h-149l13 82h390l-13 -82h-149l-90 -566h149l-13 -82h-162q-38 -27 -56 -49.5t-22 -43.5q-3 -22 9.5 -36t37.5 -14h60l-9 -60h-78q-55 0 -84.5 26.5t-22.5 66.5q4 26 24.5 53t64.5 57h-152z" />
    <glyph glyph-name="iogonek" unicode="&#x12f;" 
d="M374 649q-33 0 -49 17t-12 46q5 30 26.5 47.5t54.5 17.5t49.5 -17.5t11.5 -47.5q-4 -29 -26 -46t-55 -17zM36 0l13 82h195l61 386h-170l13 82h260l-74 -468h185l-13 -82h-202q-38 -27 -56 -49.5t-22 -43.5q-3 -22 9.5 -36t37.5 -14h60l-9 -60h-78q-55 0 -84.5 26.5
t-22.5 66.5q4 26 24.5 53t64.5 57h-192z" />
    <glyph glyph-name="Idotaccent" unicode="&#x130;" 
d="M61 0l13 82h149l90 566h-149l13 82h390l-13 -82h-149l-90 -566h149l-13 -82h-390zM385 816q-33 0 -49 17.5t-12 46.5q5 29 27 46.5t55 17.5t49 -17.5t11 -46.5q-4 -29 -26 -46.5t-55 -17.5z" />
    <glyph glyph-name="dotlessi" unicode="&#x131;" 
d="M36 0l13 82h195l61 386h-170l13 82h260l-74 -468h185l-13 -82h-470z" />
    <glyph glyph-name="Jcircumflex" unicode="&#x134;" 
d="M224 -10q-105 0 -155.5 59t-34.5 161h90q-10 -67 19.5 -103.5t93.5 -36.5t105.5 36.5t51.5 103.5l70 438h-205l13 82h295l-83 -520q-16 -105 -84 -162.5t-176 -57.5zM263 810l161 140h83l118 -140h-97l-69 78l-93 -78h-103z" />
    <glyph glyph-name="jcircumflex" unicode="&#x135;" 
d="M12 -180l14 83h129q62 0 101.5 33.5t49.5 94.5l69 437h-230l13 82h320l-82 -519q-10 -64 -45 -111.5t-88.5 -73.5t-121.5 -26h-129zM262 645l161 140h83l118 -140h-97l-69 78l-93 -78h-103z" />
    <glyph glyph-name="uni0136" unicode="&#x136;" 
d="M48 0l116 730h90l-50 -313h106l212 313h100l-237 -354l131 -376h-100l-116 338h-108l-54 -338h-90zM110 -240l118 145h101l-128 -145h-91z" />
    <glyph glyph-name="uni0137" unicode="&#x137;" 
d="M51 0l116 730h90l-65 -407h94l196 227h105l-226 -265l142 -285h-103l-121 245h-99l-39 -245h-90zM108 -240l118 145h105l-128 -145h-95z" />
    <glyph glyph-name="kgreenlandic" unicode="&#x138;" 
d="M53 0l87 550h90l-36 -227h92l196 227h105l-226 -265l142 -285h-103l-121 245h-97l-39 -245h-90z" />
    <glyph glyph-name="Lacute" unicode="&#x139;" 
d="M91 0l116 730h90l-103 -648h330l-13 -82h-420zM204 810l128 140h102l-133 -140h-97z" />
    <glyph glyph-name="lacute" unicode="&#x13a;" 
d="M321 0q-73 0 -109.5 42.5t-25.5 112.5l78 493h-165l13 82h255l-91 -575q-5 -34 10.5 -53.5t47.5 -19.5h185l-13 -82h-185zM263 810l128 140h102l-133 -140h-97z" />
    <glyph glyph-name="uni013B" unicode="&#x13b;" 
d="M91 0l116 730h90l-103 -648h330l-13 -82h-420zM150 -240l118 145h101l-128 -145h-91z" />
    <glyph glyph-name="uni013C" unicode="&#x13c;" 
d="M321 0q-73 0 -109.5 42.5t-25.5 112.5l78 493h-165l13 82h255l-91 -575q-5 -34 10.5 -53.5t47.5 -19.5h185l-13 -82h-185zM92 -240l118 145h105l-128 -145h-95z" />
    <glyph glyph-name="Lcaron" unicode="&#x13d;" 
d="M91 0l116 730h90l-103 -648h330l-13 -82h-420zM672 730l39 180h85l-49 -180h-75z" />
    <glyph glyph-name="lcaron" unicode="&#x13e;" 
d="M321 0q-73 0 -109.5 42.5t-25.5 112.5l78 493h-165l13 82h255l-91 -575q-5 -34 10.5 -53.5t47.5 -19.5h185l-13 -82h-185zM672 730l39 180h85l-49 -180h-75z" />
    <glyph glyph-name="Ldot" unicode="&#x13f;" 
d="M91 0l116 730h90l-103 -648h330l-13 -82h-420zM399 265q-38 0 -57 22t-13 59q6 39 32.5 62t64.5 23t56.5 -23t12.5 -62q-6 -37 -32 -59t-64 -22z" />
    <glyph glyph-name="ldot" unicode="&#x140;" 
d="M301 0q-73 0 -109.5 42.5t-25.5 112.5l78 493h-165l13 82h255l-91 -575q-5 -34 10.5 -53.5t47.5 -19.5h185l-13 -82h-185zM529 265q-38 0 -57 22t-13 59q6 39 32.5 62t64.5 23t56.5 -23t12.5 -62q-6 -37 -32 -59t-64 -22z" />
    <glyph glyph-name="Lslash" unicode="&#x141;" 
d="M91 0l48 305l-127 -79l13 84l128 79l54 341h90l-44 -279l182 113l-13 -84l-183 -113l-45 -285h330l-13 -82h-420z" />
    <glyph glyph-name="lslash" unicode="&#x142;" 
d="M100 230v80l124 84l40 254h-165l13 82h255l-42 -268l145 98v-80l-160 -108l-34 -217q-5 -34 10.5 -53.5t47.5 -19.5h185l-13 -82h-185q-73 0 -109.5 42.5t-25.5 112.5l24 149z" />
    <glyph glyph-name="Nacute" unicode="&#x143;" 
d="M46 0l116 730h119l125 -625q2 25 5 61.5t8 77t11 76.5l65 410h87l-116 -730h-119l-124 625q-2 -24 -5.5 -60.5t-8.5 -77t-11 -77.5l-65 -410h-87zM323 810l128 140h102l-133 -140h-97z" />
    <glyph glyph-name="nacute" unicode="&#x144;" 
d="M48 0l87 550h90l-17 -105h2q15 55 58 85t106 30q83 0 124 -51t27 -139l-59 -370h-90l57 360q9 59 -17 91.5t-80 32.5q-56 0 -94 -35t-49 -99l-55 -350h-90zM298 645l128 140h102l-133 -140h-97z" />
    <glyph glyph-name="uni0145" unicode="&#x145;" 
d="M46 0l116 730h119l125 -625q2 25 5 61.5t8 77t11 76.5l65 410h87l-116 -730h-119l-124 625q-2 -24 -5.5 -60.5t-8.5 -77t-11 -77.5l-65 -410h-87zM108 -240l118 145h105l-128 -145h-95z" />
    <glyph glyph-name="uni0146" unicode="&#x146;" 
d="M48 0l87 550h90l-17 -105h2q15 55 58 85t106 30q83 0 124 -51t27 -139l-59 -370h-90l57 360q9 59 -17 91.5t-80 32.5q-56 0 -94 -35t-49 -99l-55 -350h-90zM108 -240l118 145h105l-128 -145h-95z" />
    <glyph glyph-name="Ncaron" unicode="&#x147;" 
d="M46 0l116 730h119l125 -625q2 25 5 61.5t8 77t11 76.5l65 410h87l-116 -730h-119l-124 625q-2 -24 -5.5 -60.5t-8.5 -77t-11 -77.5l-65 -410h-87zM343 810l-118 140h97l70 -78l92 78h103l-161 -140h-83z" />
    <glyph glyph-name="ncaron" unicode="&#x148;" 
d="M48 0l87 550h90l-17 -105h2q15 55 58 85t106 30q83 0 124 -51t27 -139l-59 -370h-90l57 360q9 59 -17 91.5t-80 32.5q-56 0 -94 -35t-49 -99l-55 -350h-90zM319 645l-118 140h97l70 -78l92 78h103l-161 -140h-83z" />
    <glyph glyph-name="napostrophe" unicode="&#x149;" 
d="M48 0l87 550h90l-17 -105h2q15 55 58 85t106 30q83 0 124 -51t27 -139l-59 -370h-90l57 360q9 59 -17 91.5t-80 32.5q-56 0 -94 -35t-49 -99l-55 -350h-90zM38 645l118 145h105l-128 -145h-95z" />
    <glyph glyph-name="Eng" unicode="&#x14a;" 
d="M167 -180l13 82h65q53 0 89 30.5t44 82.5l-155 610q-2 -24 -5.5 -60.5t-8.5 -77t-11 -77.5l-65 -410h-87l116 730h118l138 -551q2 25 5.5 62t8 78.5t10.5 77.5l53 333h87l-114 -715q-9 -59 -41.5 -103t-82.5 -68t-112 -24h-65z" />
    <glyph glyph-name="eng" unicode="&#x14b;" 
d="M167 -180l13 82h63q53 0 89 30.5t44 82.5l55 345q9 59 -16 91.5t-79 32.5q-56 0 -93 -35t-48 -99l-55 -350h-90l87 550h90l-17 -105h2q15 55 57 85t105 30q83 0 123 -51t26 -139l-57 -355q-9 -59 -41.5 -103t-82.5 -68t-112 -24h-63z" />
    <glyph glyph-name="Omacron" unicode="&#x14c;" 
d="M254 -10q-98 0 -146 56t-32 154l52 330q16 98 81.5 154t163.5 56t146 -55.5t33 -153.5l-52 -331q-16 -98 -82 -154t-164 -56zM267 71q59 0 96 33.5t47 95.5l52 330q10 62 -16.5 95.5t-85.5 33.5q-58 0 -95 -33.5t-47 -95.5l-52 -330q-10 -62 16.5 -95.5t84.5 -33.5z
M229 840l12 75h320l-12 -75h-320z" />
    <glyph glyph-name="omacron" unicode="&#x14d;" 
d="M254 -10q-98 0 -146 56t-32 154l23 150q16 98 82 154t164 56t146 -55.5t33 -153.5l-24 -151q-16 -98 -82 -154t-164 -56zM267 70q59 0 96 33t47 97l23 150q11 64 -15.5 97t-85.5 33q-58 0 -95 -33t-48 -97l-23 -150q-10 -64 16.5 -97t84.5 -33zM202 670l12 75h320
l-12 -75h-320z" />
    <glyph glyph-name="Obreve" unicode="&#x14e;" 
d="M254 -10q-98 0 -146 56t-32 154l52 330q16 98 81.5 154t163.5 56t146 -55.5t33 -153.5l-52 -331q-16 -98 -82 -154t-164 -56zM267 71q59 0 96 33.5t47 95.5l52 330q10 62 -16.5 95.5t-85.5 33.5q-58 0 -95 -33.5t-47 -95.5l-52 -330q-10 -62 16.5 -95.5t84.5 -33.5z
M383 805q-72 0 -109.5 40t-27.5 105h70q-6 -39 14.5 -63t60.5 -24q41 0 69 24t34 63h72q-10 -65 -60.5 -105t-122.5 -40z" />
    <glyph glyph-name="obreve" unicode="&#x14f;" 
d="M254 -10q-98 0 -146 56t-32 154l23 150q16 98 82 154t164 56t146 -55.5t33 -153.5l-24 -151q-16 -98 -82 -154t-164 -56zM267 70q59 0 96 33t47 97l23 150q11 64 -15.5 97t-85.5 33q-58 0 -95 -33t-48 -97l-23 -150q-10 -64 16.5 -97t84.5 -33zM357 640q-72 0 -109.5 40
t-27.5 105h70q-6 -39 14.5 -63t60.5 -24q41 0 69 24t34 63h72q-10 -65 -60.5 -105t-122.5 -40z" />
    <glyph glyph-name="Ohungarumlaut" unicode="&#x150;" 
d="M254 -10q-98 0 -146 56t-32 154l52 330q16 98 81.5 154t163.5 56t146 -55.5t33 -153.5l-52 -331q-16 -98 -82 -154t-164 -56zM267 71q59 0 96 33.5t47 95.5l52 330q10 62 -16.5 95.5t-85.5 33.5q-58 0 -95 -33.5t-47 -95.5l-52 -330q-10 -62 16.5 -95.5t84.5 -33.5z
M410 810l132 140h95l-137 -140h-90zM228 810l132 140h95l-137 -140h-90z" />
    <glyph glyph-name="ohungarumlaut" unicode="&#x151;" 
d="M254 -10q-98 0 -146 56t-32 154l23 150q16 98 82 154t164 56t146 -55.5t33 -153.5l-24 -151q-16 -98 -82 -154t-164 -56zM267 70q59 0 96 33t47 97l23 150q11 64 -15.5 97t-85.5 33q-58 0 -95 -33t-48 -97l-23 -150q-10 -64 16.5 -97t84.5 -33zM384 645l132 140h94
l-137 -140h-89zM203 645l132 140h94l-137 -140h-89z" />
    <glyph glyph-name="OE" unicode="&#x152;" 
d="M149 -10q-72 0 -105 51t-19 139l58 370q14 88 63.5 139t121.5 51q35 0 56 -14.5t30.5 -35t9.5 -40.5h5l13 80h265l-13 -82h-177l-37 -230h152l-13 -82h-152l-40 -254h177l-13 -82h-265l13 80h-5q-6 -19 -22.5 -40t-42 -35.5t-60.5 -14.5zM187 70q42 0 71 29.5t37 80.5
l58 370q8 51 -11 80.5t-61 29.5t-71 -29.5t-37 -80.5l-58 -370q-8 -51 11 -80.5t61 -29.5z" />
    <glyph glyph-name="oe" unicode="&#x153;" 
d="M134 -10q-67 0 -99 43.5t-20 116.5l39 250q12 74 58 117t113 43q40 0 63.5 -13t33 -31.5t8.5 -35.5h4q4 17 19.5 35.5t43.5 31.5t68 13q67 0 99 -43t20 -117l-23 -150h-222l-16 -100q-6 -38 8.5 -60.5t45.5 -22.5q26 0 46.5 16t29.5 42h85q-19 -62 -63.5 -98.5
t-100.5 -36.5q-40 0 -63.5 13t-33 31.5t-8.5 35.5h-4q-4 -17 -20 -35.5t-43.5 -31.5t-67.5 -13zM157 67q31 0 52.5 22.5t27.5 60.5l39 250q6 38 -8.5 60.5t-45.5 22.5q-32 0 -54.5 -22.5t-28.5 -60.5l-39 -250q-6 -38 9.5 -60.5t47.5 -22.5zM350 323h137l12 77
q6 38 -9.5 60.5t-47.5 22.5q-31 0 -52.5 -22.5t-27.5 -60.5z" />
    <glyph glyph-name="Racute" unicode="&#x154;" 
d="M48 0l116 730h226q65 0 109.5 -26.5t64 -73.5t9.5 -110q-11 -75 -59 -128t-118 -73l105 -319h-102l-95 310h-117l-49 -310h-90zM200 391h136q56 0 95.5 35.5t48.5 93.5q10 59 -18.5 94t-84.5 35h-136zM323 810l128 140h102l-133 -140h-97z" />
    <glyph glyph-name="racute" unicode="&#x155;" 
d="M67 0l87 550h88l-16 -100q44 110 163 110q87 0 129.5 -54.5t28.5 -147.5l-6 -33h-90l4 25q11 65 -15 99.5t-84 34.5q-57 0 -95 -35t-49 -99l-55 -350h-90zM317 645l128 140h102l-133 -140h-97z" />
    <glyph glyph-name="uni0156" unicode="&#x156;" 
d="M48 0l116 730h226q65 0 109.5 -26.5t64 -73.5t9.5 -110q-11 -75 -59 -128t-118 -73l105 -319h-102l-95 310h-117l-49 -310h-90zM200 391h136q56 0 95.5 35.5t48.5 93.5q10 59 -18.5 94t-84.5 35h-136zM108 -240l118 145h105l-128 -145h-95z" />
    <glyph glyph-name="uni0157" unicode="&#x157;" 
d="M67 0l87 550h88l-16 -100q44 110 163 110q87 0 129.5 -54.5t28.5 -147.5l-6 -33h-90l4 25q11 65 -15 99.5t-84 34.5q-57 0 -95 -35t-49 -99l-55 -350h-90zM-57 -240l118 145h105l-128 -145h-95z" />
    <glyph glyph-name="Rcaron" unicode="&#x158;" 
d="M48 0l116 730h226q65 0 109.5 -26.5t64 -73.5t9.5 -110q-11 -75 -59 -128t-118 -73l105 -319h-102l-95 310h-117l-49 -310h-90zM200 391h136q56 0 95.5 35.5t48.5 93.5q10 59 -18.5 94t-84.5 35h-136zM343 810l-118 140h97l70 -78l92 78h103l-161 -140h-83z" />
    <glyph glyph-name="rcaron" unicode="&#x159;" 
d="M67 0l87 550h88l-16 -100q44 110 163 110q87 0 129.5 -54.5t28.5 -147.5l-6 -33h-90l4 25q11 65 -15 99.5t-84 34.5q-57 0 -95 -35t-49 -99l-55 -350h-90zM338 645l-118 140h97l70 -78l92 78h103l-161 -140h-83z" />
    <glyph glyph-name="Sacute" unicode="&#x15a;" 
d="M258 -10q-107 0 -160 53.5t-40 146.5h90q-9 -55 23.5 -87t99.5 -32q63 0 103.5 31t49.5 86q7 47 -11.5 80t-58.5 46l-94 31q-70 23 -103 76t-23 125q10 59 43 102.5t85 68t117 24.5q96 0 145.5 -53.5t36.5 -142.5h-90q9 54 -18.5 84.5t-86.5 30.5q-58 0 -95 -28t-45 -78
q-7 -46 11.5 -80t59.5 -48l95 -32q69 -23 101 -77t21 -127q-9 -60 -44.5 -105t-90 -70t-121.5 -25zM323 810l128 140h102l-133 -140h-97z" />
    <glyph glyph-name="sacute" unicode="&#x15b;" 
d="M232 -10q-85 0 -129 39.5t-41 105.5h90q2 -29 25.5 -47t67.5 -18h42q53 0 82.5 22.5t35.5 58.5q10 70 -79 85l-72 12q-79 13 -113 49t-23 106q11 74 65 115.5t148 41.5h38q79 0 121 -38t42 -101h-90q-2 26 -23.5 42.5t-62.5 16.5h-38q-51 0 -77.5 -20t-32.5 -58
q-5 -34 11.5 -51t58.5 -24l72 -12q86 -14 121.5 -51t24.5 -109q-13 -76 -68.5 -120.5t-153.5 -44.5h-42zM298 645l128 140h102l-133 -140h-97z" />
    <glyph glyph-name="Scircumflex" unicode="&#x15c;" 
d="M258 -10q-107 0 -160 53.5t-40 146.5h90q-9 -55 23.5 -87t99.5 -32q63 0 103.5 31t49.5 86q7 47 -11.5 80t-58.5 46l-94 31q-70 23 -103 76t-23 125q10 59 43 102.5t85 68t117 24.5q96 0 145.5 -53.5t36.5 -142.5h-90q9 54 -18.5 84.5t-86.5 30.5q-58 0 -95 -28t-45 -78
q-7 -46 11.5 -80t59.5 -48l95 -32q69 -23 101 -77t21 -127q-9 -60 -44.5 -105t-90 -70t-121.5 -25zM203 810l161 140h83l118 -140h-97l-69 78l-93 -78h-103z" />
    <glyph glyph-name="scircumflex" unicode="&#x15d;" 
d="M232 -10q-85 0 -129 39.5t-41 105.5h90q2 -29 25.5 -47t67.5 -18h42q53 0 82.5 22.5t35.5 58.5q10 70 -79 85l-72 12q-79 13 -113 49t-23 106q11 74 65 115.5t148 41.5h38q79 0 121 -38t42 -101h-90q-2 26 -23.5 42.5t-62.5 16.5h-38q-51 0 -77.5 -20t-32.5 -58
q-5 -34 11.5 -51t58.5 -24l72 -12q86 -14 121.5 -51t24.5 -109q-13 -76 -68.5 -120.5t-153.5 -44.5h-42zM178 645l161 140h83l118 -140h-97l-69 78l-93 -78h-103z" />
    <glyph glyph-name="Scedilla" unicode="&#x15e;" 
d="M129 -203l9 55h70q22 0 37 11.5t17 24.5q3 17 -22.5 30t-75.5 13l34 64q-78 14 -114.5 65t-25.5 130h90q-9 -55 23.5 -87t99.5 -32q63 0 103.5 31t49.5 86q7 47 -11.5 80t-58.5 46l-94 31q-70 23 -103 76t-23 125q10 59 43 102.5t85 68t117 24.5q96 0 145.5 -53.5
t36.5 -142.5h-90q9 54 -18.5 84.5t-86.5 30.5q-58 0 -95 -28t-45 -78q-7 -46 11.5 -80t59.5 -48l95 -32q69 -23 101 -77t21 -127q-9 -60 -44.5 -105t-90 -70t-121.5 -25h-5l-13 -25q26 -3 52.5 -13t42.5 -28t12 -44q-5 -34 -42 -58.5t-91 -24.5h-85z" />
    <glyph glyph-name="scedilla" unicode="&#x15f;" 
d="M232 -10q-85 0 -129 39.5t-41 105.5h90q2 -29 25.5 -47t67.5 -18h42q53 0 82.5 22.5t35.5 58.5q10 70 -79 85l-72 12q-79 13 -113 49t-23 106q11 74 65 115.5t148 41.5h38q79 0 121 -38t42 -101h-90q-2 26 -23.5 42.5t-62.5 16.5h-38q-51 0 -77.5 -20t-32.5 -58
q-5 -34 11.5 -51t58.5 -24l72 -12q86 -14 121.5 -51t24.5 -109q-12 -69 -59 -112t-128 -51l-9 -27q26 -3 54 -13t47 -28t19 -44q0 -34 -33 -58.5t-87 -24.5h-85v55h70q22 0 35.5 11.5t13.5 24.5q0 17 -27.5 30t-77.5 13l22 59h-19z" />
    <glyph glyph-name="Scaron" unicode="&#x160;" 
d="M258 -10q-107 0 -160 53.5t-40 146.5h90q-9 -55 23.5 -87t99.5 -32q63 0 103.5 31t49.5 86q7 47 -11.5 80t-58.5 46l-94 31q-70 23 -103 76t-23 125q10 59 43 102.5t85 68t117 24.5q96 0 145.5 -53.5t36.5 -142.5h-90q9 54 -18.5 84.5t-86.5 30.5q-58 0 -95 -28t-45 -78
q-7 -46 11.5 -80t59.5 -48l95 -32q69 -23 101 -77t21 -127q-9 -60 -44.5 -105t-90 -70t-121.5 -25zM343 810l-118 140h97l70 -78l92 78h103l-161 -140h-83z" />
    <glyph glyph-name="scaron" unicode="&#x161;" 
d="M232 -10q-85 0 -129 39.5t-41 105.5h90q2 -29 25.5 -47t67.5 -18h42q53 0 82.5 22.5t35.5 58.5q10 70 -79 85l-72 12q-79 13 -113 49t-23 106q11 74 65 115.5t148 41.5h38q79 0 121 -38t42 -101h-90q-2 26 -23.5 42.5t-62.5 16.5h-38q-51 0 -77.5 -20t-32.5 -58
q-5 -34 11.5 -51t58.5 -24l72 -12q86 -14 121.5 -51t24.5 -109q-13 -76 -68.5 -120.5t-153.5 -44.5h-42zM319 645l-118 140h97l70 -78l92 78h103l-161 -140h-83z" />
    <glyph glyph-name="uni0162" unicode="&#x162;" 
d="M211 0l103 648h-200l13 82h490l-13 -82h-200l-103 -648l-18 -35q26 -3 52.5 -13t42.5 -28t12 -44q-5 -34 -42 -58.5t-91 -24.5h-85l9 55h70q22 0 37 11.5t17 24.5q3 17 -22.5 30t-75.5 13l36 69h-32z" />
    <glyph glyph-name="uni0163" unicode="&#x163;" 
d="M265 -203v55h70q22 0 35.5 11.5t13.5 24.5q0 17 -27.5 30t-77.5 13l26 69q-66 3 -96.5 41t-19.5 104l51 323h-155l13 82h155l24 150h90l-24 -150h220l-13 -82h-220l-51 -323q-10 -63 50 -63h150l-13 -82h-104l-12 -35q26 -3 54 -13t47 -28t19 -44q0 -34 -33 -58.5
t-87 -24.5h-85z" />
    <glyph glyph-name="Tcaron" unicode="&#x164;" 
d="M211 0l103 648h-200l13 82h490l-13 -82h-200l-103 -648h-90zM343 810l-118 140h97l70 -78l92 78h103l-161 -140h-83z" />
    <glyph glyph-name="tcaron" unicode="&#x165;" 
d="M423 620l115 156h96l-125 -156h-86zM316 0q-71 0 -104.5 38t-22.5 107l51 323h-155l13 82h155l24 150h90l-24 -150h220l-13 -82h-220l-51 -323q-10 -63 50 -63h150l-13 -82h-150z" />
    <glyph glyph-name="Tbar" unicode="&#x166;" 
d="M211 0l47 295h-145l12 75h145l44 278h-200l13 82h490l-13 -82h-200l-44 -278h145l-12 -75h-145l-47 -295h-90z" />
    <glyph glyph-name="tbar" unicode="&#x167;" 
d="M79 239l12 75h125l24 154h-155l13 82h155l24 150h90l-24 -150h220l-13 -82h-220l-24 -154h175l-12 -75h-175l-15 -94q-10 -63 50 -63h150l-13 -82h-150q-71 0 -104.5 38t-22.5 107l15 94h-125z" />
    <glyph glyph-name="Utilde" unicode="&#x168;" 
d="M254 -10q-102 0 -147 56.5t-29 153.5l84 530h90l-84 -530q-10 -60 14 -95t85 -35q60 0 95.5 35t45.5 95l84 530h90l-84 -530q-16 -98 -78.5 -154t-165.5 -56zM455 815q-30 0 -47 10.5t-28 24.5t-21.5 24.5t-27.5 10.5q-13 0 -23 -8.5t-12 -26.5l-5 -30h-65l5 30
q7 45 36 70t69 25q30 0 47 -10.5t28 -24.5t21.5 -24.5t27.5 -10.5q29 0 35 35l5 30h65l-5 -30q-7 -45 -35.5 -70t-69.5 -25z" />
    <glyph glyph-name="utilde" unicode="&#x169;" 
d="M253 -10q-95 0 -142.5 56.5t-32.5 153.5l55 350h90l-55 -350q-10 -62 16.5 -96.5t81.5 -34.5q56 0 94 34.5t48 96.5l55 350h90l-55 -350q-10 -64 -44 -111.5t-85.5 -73t-115.5 -25.5zM429 650q-30 0 -47 10.5t-28 24.5t-21.5 24.5t-27.5 10.5q-30 0 -36 -35l-4 -30h-65
l4 30q8 45 37 70t69 25q30 0 47 -10.5t27.5 -24.5t21 -24.5t27.5 -10.5q30 0 36 35l5 30h65l-5 -30q-7 -45 -35.5 -70t-69.5 -25z" />
    <glyph glyph-name="Umacron" unicode="&#x16a;" 
d="M254 -10q-102 0 -147 56.5t-29 153.5l84 530h90l-84 -530q-10 -60 14 -95t85 -35q60 0 95.5 35t45.5 95l84 530h90l-84 -530q-16 -98 -78.5 -154t-165.5 -56zM229 840l12 75h320l-12 -75h-320z" />
    <glyph glyph-name="umacron" unicode="&#x16b;" 
d="M253 -10q-95 0 -142.5 56.5t-32.5 153.5l55 350h90l-55 -350q-10 -62 16.5 -96.5t81.5 -34.5q56 0 94 34.5t48 96.5l55 350h90l-55 -350q-10 -64 -44 -111.5t-85.5 -73t-115.5 -25.5zM202 670l12 75h320l-12 -75h-320z" />
    <glyph glyph-name="Ubreve" unicode="&#x16c;" 
d="M254 -10q-102 0 -147 56.5t-29 153.5l84 530h90l-84 -530q-10 -60 14 -95t85 -35q60 0 95.5 35t45.5 95l84 530h90l-84 -530q-16 -98 -78.5 -154t-165.5 -56zM383 805q-72 0 -109.5 40t-27.5 105h70q-6 -39 14.5 -63t60.5 -24q41 0 69 24t34 63h72q-10 -65 -60.5 -105
t-122.5 -40z" />
    <glyph glyph-name="ubreve" unicode="&#x16d;" 
d="M253 -10q-95 0 -142.5 56.5t-32.5 153.5l55 350h90l-55 -350q-10 -62 16.5 -96.5t81.5 -34.5q56 0 94 34.5t48 96.5l55 350h90l-55 -350q-10 -64 -44 -111.5t-85.5 -73t-115.5 -25.5zM357 640q-72 0 -109.5 40t-27.5 105h70q-6 -39 14.5 -63t60.5 -24q41 0 69 24t34 63
h72q-10 -65 -60.5 -105t-122.5 -40z" />
    <glyph glyph-name="Uring" unicode="&#x16e;" 
d="M254 -10q-102 0 -147 56.5t-29 153.5l84 530h90l-84 -530q-10 -60 14 -95t85 -35q60 0 95.5 35t45.5 95l84 530h90l-84 -530q-16 -98 -78.5 -154t-165.5 -56zM377 766q-54 0 -81.5 31.5t-20.5 82.5q8 51 46 82.5t92 31.5t82 -31.5t20 -82.5q-7 -51 -45.5 -82.5
t-92.5 -31.5zM386 819q27 0 46 16.5t23 44.5q5 28 -9 45t-41 17t-46 -17t-24 -45q-4 -28 10 -44.5t41 -16.5z" />
    <glyph glyph-name="uring" unicode="&#x16f;" 
d="M253 -10q-95 0 -142.5 56.5t-32.5 153.5l55 350h90l-55 -350q-10 -62 16.5 -96.5t81.5 -34.5q56 0 94 34.5t48 96.5l55 350h90l-55 -350q-10 -64 -44 -111.5t-85.5 -73t-115.5 -25.5zM352 608q-54 0 -81.5 31.5t-20.5 82.5q8 51 46 82.5t92 31.5t82 -31.5t20 -82.5
q-7 -51 -45.5 -82.5t-92.5 -31.5zM361 661q27 0 46 16.5t23 44.5q5 28 -9 45t-41 17t-46 -17t-24 -45q-4 -28 10 -44.5t41 -16.5z" />
    <glyph glyph-name="Uhungarumlaut" unicode="&#x170;" 
d="M254 -10q-102 0 -147 56.5t-29 153.5l84 530h90l-84 -530q-10 -60 14 -95t85 -35q60 0 95.5 35t45.5 95l84 530h90l-84 -530q-16 -98 -78.5 -154t-165.5 -56zM410 810l132 140h95l-137 -140h-90zM228 810l132 140h95l-137 -140h-90z" />
    <glyph glyph-name="uhungarumlaut" unicode="&#x171;" 
d="M253 -10q-95 0 -142.5 56.5t-32.5 153.5l55 350h90l-55 -350q-10 -62 16.5 -96.5t81.5 -34.5q56 0 94 34.5t48 96.5l55 350h90l-55 -350q-10 -64 -44 -111.5t-85.5 -73t-115.5 -25.5zM384 645l132 140h94l-137 -140h-89zM203 645l132 140h94l-137 -140h-89z" />
    <glyph glyph-name="Uogonek" unicode="&#x172;" 
d="M303 -203q-55 0 -84.5 26.5t-22.5 66.5q6 45 71 100h-13q-98 0 -145 56t-31 154l84 530h90l-84 -530q-10 -62 15.5 -95.5t83.5 -33.5q59 0 95 33.5t46 95.5l84 530h90l-84 -530q-20 -122 -108 -175l-33 -24q-37 -28 -53.5 -50.5t-20.5 -43.5q-3 -22 9.5 -36t37.5 -14h60
l-9 -60h-78z" />
    <glyph glyph-name="uogonek" unicode="&#x173;" 
d="M296 -203q-55 0 -84.5 26.5t-22.5 66.5q3 22 19 45.5t55 54.5h-9q-98 0 -145 56t-31 154l55 350h90l-55 -350q-10 -64 15.5 -97t83.5 -33q120 0 141 130l55 350h90l-55 -350q-20 -127 -116 -179l-27 -20q-38 -28 -56.5 -50.5t-22.5 -43.5q-3 -22 9.5 -36t37.5 -14h60
l-9 -60h-78z" />
    <glyph glyph-name="Wcircumflex" unicode="&#x174;" 
d="M65 0l32 730h84l-31 -540q-2 -33 -5 -68.5t-6 -56.5q6 21 14.5 56.5t18.5 68.5l154 540h95l-24 -540q-1 -33 -2.5 -68.5t-3.5 -56.5q5 21 13.5 56.5t17.5 68.5l143 540h82l-202 -730h-113l25 550q2 34 4 66.5t3 50.5q-5 -18 -13.5 -50.5t-18.5 -66.5l-154 -550h-113z
M203 810l161 140h83l118 -140h-97l-69 78l-93 -78h-103z" />
    <glyph glyph-name="wcircumflex" unicode="&#x175;" 
d="M79 0l-1 550h77l-7 -390q-1 -22 -1 -47.5t-1 -42.5q5 17 13 42.5t15 47.5l124 390h88l-1 -390q0 -22 0.5 -47.5t-0.5 -42.5q5 17 13 42.5t15 47.5l119 390h76l-179 -550h-99l1 380v100q-4 -16 -13 -44l-18 -56l-122 -380h-99zM177 645l161 140h83l118 -140h-97l-69 78
l-93 -78h-103z" />
    <glyph glyph-name="Ycircumflex" unicode="&#x176;" 
d="M211 0l43 273l-147 457h91l97 -300q8 -25 12.5 -42.5t5.5 -25.5q4 8 13.5 25.5t25.5 42.5l190 300h95l-293 -457l-43 -273h-90zM203 810l161 140h83l118 -140h-97l-69 78l-93 -78h-103z" />
    <glyph glyph-name="ycircumflex" unicode="&#x177;" 
d="M90 -180l13 82h175q82 0 94 78l12 75l17 100h-2q-15 -55 -58 -85t-106 -30q-82 0 -123.5 51t-27.5 139l51 320h90l-49 -310q-10 -58 16.5 -91t80.5 -33q56 0 94.5 35t48.5 99l47 300h90l-91 -570q-11 -74 -64 -117t-134 -43h-174zM177 645l161 140h83l118 -140h-97
l-69 78l-93 -78h-103z" />
    <glyph glyph-name="Ydieresis" unicode="&#x178;" 
d="M211 0l43 273l-147 457h91l97 -300q8 -25 12.5 -42.5t5.5 -25.5q4 8 13.5 25.5t25.5 42.5l190 300h95l-293 -457l-43 -273h-90zM496 817q-29 0 -43.5 17t-10.5 46q5 30 25.5 47.5t49.5 17.5t43.5 -17.5t9.5 -47.5q-4 -29 -24.5 -46t-49.5 -17zM274 817q-29 0 -43.5 17
t-10.5 46q5 30 25.5 47.5t49.5 17.5t43.5 -17.5t9.5 -47.5q-4 -29 -24.5 -46t-49.5 -17z" />
    <glyph glyph-name="Zacute" unicode="&#x179;" 
d="M41 0l14 90l415 558h-321l13 82h415l-15 -90l-414 -558h336l-13 -82h-430zM323 810l128 140h102l-133 -140h-97z" />
    <glyph glyph-name="zacute" unicode="&#x17a;" 
d="M46 0l14 90l364 378h-296l13 82h401l-14 -90l-370 -378h321l-13 -82h-420zM297 645l128 140h102l-133 -140h-97z" />
    <glyph glyph-name="Zdotaccent" unicode="&#x17b;" 
d="M41 0l14 90l415 558h-321l13 82h415l-15 -90l-414 -558h336l-13 -82h-430zM385 816q-33 0 -49 17.5t-12 46.5q5 29 27 46.5t55 17.5t49 -17.5t11 -46.5q-4 -29 -26 -46.5t-55 -17.5z" />
    <glyph glyph-name="zdotaccent" unicode="&#x17c;" 
d="M46 0l14 90l364 378h-296l13 82h401l-14 -90l-370 -378h321l-13 -82h-420zM359 649q-33 0 -49 17t-12 46q5 30 26.5 47.5t54.5 17.5t49.5 -17.5t11.5 -47.5q-4 -29 -26 -46t-55 -17z" />
    <glyph glyph-name="Zcaron" unicode="&#x17d;" 
d="M41 0l14 90l415 558h-321l13 82h415l-15 -90l-414 -558h336l-13 -82h-430zM343 810l-118 140h97l70 -78l92 78h103l-161 -140h-83z" />
    <glyph glyph-name="zcaron" unicode="&#x17e;" 
d="M46 0l14 90l364 378h-296l13 82h401l-14 -90l-370 -378h321l-13 -82h-420zM318 645l-118 140h97l70 -78l92 78h103l-161 -140h-83z" />
    <glyph glyph-name="longs" unicode="&#x17f;" 
d="M-47 -180l13 82h113q82 0 94 78l93 590q11 74 64 117t134 43h174l-13 -82h-175q-82 0 -94 -78l-93 -590q-11 -74 -64 -117t-134 -43h-112z" />
    <glyph glyph-name="uni018F" unicode="&#x18f;" 
d="M254 -10q-97 0 -144 57.5t-32 152.5l31 200h330l21 131q10 62 -15 95.5t-84 33.5q-58 0 -94.5 -34t-46.5 -96h-90q15 97 80 153.5t163 56.5q100 0 146.5 -56t30.5 -154l-52 -330q-10 -63 -43 -110.5t-84.5 -73.5t-116.5 -26zM266 65q62 0 97 35t45 100l20 130h-239
l-21 -130q-10 -65 13.5 -100t84.5 -35z" />
    <glyph glyph-name="uni0190" unicode="&#x190;" 
d="M267 -10q-72 0 -122 27t-72.5 75.5t-12.5 112.5q12 73 56.5 121t111.5 61q-55 13 -81 54.5t-16 104.5q10 59 44.5 102.5t88 67.5t120.5 24q69 0 116.5 -25.5t69 -71.5t11.5 -108h-90q9 56 -22.5 90.5t-93.5 34.5q-61 0 -103.5 -33t-50.5 -87q-9 -54 23 -87t93 -33h90
l-13 -80h-91q-67 0 -114.5 -37t-57.5 -98q-9 -61 26.5 -98t102.5 -37q64 0 109 33.5t55 88.5h90q-10 -60 -47 -105.5t-93.5 -71t-126.5 -25.5z" />
    <glyph glyph-name="florin" unicode="&#x192;" 
d="M-73 -180l13 82h105q53 0 89 30.5t44 82.5l48 298h-160l13 82h160l31 196q11 66 57 102.5t119 36.5h161l-13 -80h-161q-63 0 -74 -60l-30 -195h225l-13 -82h-225l-48 -298q-9 -59 -41.5 -103t-82.5 -68t-112 -24h-105z" />
    <glyph glyph-name="uni019B" unicode="&#x19b;" 
d="M7 0l290 541l-2 10l-176 -81l13 80l147 68l-26 112h96l16 -72l177 82l-13 -80l-150 -69l128 -591h-93l-74 357q-7 35 -10.5 62t-6.5 42q-1 -15 -8.5 -42t-24.5 -62l-182 -357h-101z" />
    <glyph glyph-name="Ohorn" unicode="&#x1a0;" 
d="M254 -10q-98 0 -146 56t-32 154l52 330q16 98 81.5 154t163.5 56q80 0 128 -38q22 8 26 33l12 75h75l-12 -80q-10 -58 -60 -82q20 -49 10 -117l-52 -331q-16 -98 -82 -154t-164 -56zM267 71q59 0 96 33.5t47 95.5l52 330q10 62 -16.5 95.5t-85.5 33.5q-58 0 -95 -33.5
t-47 -95.5l-52 -330q-10 -62 16.5 -95.5t84.5 -33.5z" />
    <glyph glyph-name="ohorn" unicode="&#x1a1;" 
d="M254 -10q-98 0 -146 56t-32 154l23 150q16 98 82 154t164 56q71 0 117 -30h8q35 0 40 35l12 75h75l-12 -80q-5 -31 -24.5 -54t-49.5 -33q24 -50 13 -122l-24 -151q-16 -98 -82 -154t-164 -56zM267 70q59 0 96 33t47 97l23 150q11 64 -15.5 97t-85.5 33q-58 0 -95 -33
t-48 -97l-23 -150q-10 -64 16.5 -97t84.5 -33z" />
    <glyph glyph-name="Uhorn" unicode="&#x1af;" 
d="M254 -10q-102 0 -147 56.5t-29 153.5l84 530h90l-84 -530q-10 -60 14 -95t85 -35q60 0 95.5 35t45.5 95l84 530h65q16 0 27 9.5t13 25.5l12 75h75l-13 -80q-6 -39 -32.5 -63.5t-66.5 -30.5l-74 -466q-16 -98 -78.5 -154t-165.5 -56z" />
    <glyph glyph-name="uhorn" unicode="&#x1b0;" 
d="M78 200l55 350h90l-55 -350q-10 -62 16.5 -96.5t81.5 -34.5q56 0 94 34.5t48 96.5l55 350h70q35 0 41 35l12 75h75l-13 -80q-7 -43 -32.5 -69t-72.5 -26l-45 -285q-10 -64 -44 -111.5t-85.5 -73t-115.5 -25.5q-95 0 -143 56.5t-32 153.5z" />
    <glyph glyph-name="uni01CD" unicode="&#x1cd;" 
d="M6 0l306 730h121l73 -730h-88l-17 194h-221l-79 -194h-95zM210 270h184l-21 225q-6 64 -8 107t-2 56q-4 -13 -19.5 -56t-41.5 -106zM343 810l-118 140h97l70 -78l92 78h103l-161 -140h-83z" />
    <glyph glyph-name="uni01CE" unicode="&#x1ce;" 
d="M223 -10q-82 0 -122 55t-25 149l25 161q15 95 72.5 150t140.5 55q62 0 97 -31t33 -84h3l15 105h90l-87 -550h-90l17 105h-2q-15 -54 -60 -84.5t-107 -30.5zM266 68q56 0 93.5 35t47.5 97l23 150q10 62 -16.5 97t-82.5 35q-57 0 -94 -34t-47 -98l-23 -150q-10 -64 16 -98
t83 -34zM323 645l-118 140h97l70 -78l92 78h103l-161 -140h-83z" />
    <glyph glyph-name="uni01D0" unicode="&#x1d0;" 
d="M36 0l13 82h195l61 386h-170l13 82h260l-74 -468h185l-13 -82h-470zM333 645l-118 140h97l70 -78l92 78h103l-161 -140h-83z" />
    <glyph glyph-name="uni01D2" unicode="&#x1d2;" 
d="M254 -10q-98 0 -146 56t-32 154l23 150q16 98 82 154t164 56t146 -55.5t33 -153.5l-24 -151q-16 -98 -82 -154t-164 -56zM267 70q59 0 96 33t47 97l23 150q11 64 -15.5 97t-85.5 33q-58 0 -95 -33t-48 -97l-23 -150q-10 -64 16.5 -97t84.5 -33zM318 645l-118 140h97
l70 -78l92 78h103l-161 -140h-83z" />
    <glyph glyph-name="uni01D4" unicode="&#x1d4;" 
d="M253 -10q-95 0 -142.5 56.5t-32.5 153.5l55 350h90l-55 -350q-10 -62 16.5 -96.5t81.5 -34.5q56 0 94 34.5t48 96.5l55 350h90l-55 -350q-10 -64 -44 -111.5t-85.5 -73t-115.5 -25.5zM318 645l-118 140h97l70 -78l92 78h103l-161 -140h-83z" />
    <glyph glyph-name="uni01D6" unicode="&#x1d6;" 
d="M253 -10q-95 0 -142.5 56.5t-32.5 153.5l55 350h90l-55 -350q-10 -62 16.5 -96.5t81.5 -34.5q56 0 94 34.5t48 96.5l55 350h90l-55 -350q-10 -64 -44 -111.5t-85.5 -73t-115.5 -25.5zM470 649q-29 0 -43.5 17t-10.5 46q5 30 25 47.5t49 17.5t44 -17.5t10 -47.5
q-4 -29 -24.5 -46t-49.5 -17zM248 649q-29 0 -43.5 17t-10.5 46q5 30 25 47.5t49 17.5t44 -17.5t10 -47.5q-4 -29 -24.5 -46t-49.5 -17zM238 897l12 75h320l-12 -75h-320z" />
    <glyph glyph-name="uni01D8" unicode="&#x1d8;" 
d="M253 -10q-95 0 -142.5 56.5t-32.5 153.5l55 350h90l-55 -350q-10 -62 16.5 -96.5t81.5 -34.5q56 0 94 34.5t48 96.5l55 350h90l-55 -350q-10 -64 -44 -111.5t-85.5 -73t-115.5 -25.5zM470 649q-29 0 -43.5 17t-10.5 46q5 30 25 47.5t49 17.5t44 -17.5t10 -47.5
q-4 -29 -24.5 -46t-49.5 -17zM248 649q-29 0 -43.5 17t-10.5 46q5 30 25 47.5t49 17.5t44 -17.5t10 -47.5q-4 -29 -24.5 -46t-49.5 -17zM333 872l128 140h102l-133 -140h-97z" />
    <glyph glyph-name="uni01DA" unicode="&#x1da;" 
d="M253 -10q-95 0 -142.5 56.5t-32.5 153.5l55 350h90l-55 -350q-10 -62 16.5 -96.5t81.5 -34.5q56 0 94 34.5t48 96.5l55 350h90l-55 -350q-10 -64 -44 -111.5t-85.5 -73t-115.5 -25.5zM470 649q-29 0 -43.5 17t-10.5 46q5 30 25 47.5t49 17.5t44 -17.5t10 -47.5
q-4 -29 -24.5 -46t-49.5 -17zM248 649q-29 0 -43.5 17t-10.5 46q5 30 25 47.5t49 17.5t44 -17.5t10 -47.5q-4 -29 -24.5 -46t-49.5 -17zM354 872l-118 140h97l70 -78l92 78h103l-161 -140h-83z" />
    <glyph glyph-name="uni01DC" unicode="&#x1dc;" 
d="M253 -10q-95 0 -142.5 56.5t-32.5 153.5l55 350h90l-55 -350q-10 -62 16.5 -96.5t81.5 -34.5q56 0 94 34.5t48 96.5l55 350h90l-55 -350q-10 -64 -44 -111.5t-85.5 -73t-115.5 -25.5zM470 649q-29 0 -43.5 17t-10.5 46q5 30 25 47.5t49 17.5t44 -17.5t10 -47.5
q-4 -29 -24.5 -46t-49.5 -17zM248 649q-29 0 -43.5 17t-10.5 46q5 30 25 47.5t49 17.5t44 -17.5t10 -47.5q-4 -29 -24.5 -46t-49.5 -17zM364 872l-93 140h94l88 -140h-89z" />
    <glyph glyph-name="Gcaron" unicode="&#x1e6;" 
d="M258 -10q-100 0 -149 56t-33 154l52 330q16 98 82.5 154t166.5 56q98 0 147 -56.5t34 -153.5h-90q10 62 -17.5 95.5t-86.5 33.5t-97.5 -33t-48.5 -95l-52 -331q-10 -62 18 -96t87 -34t97 34t48 96l14 90h-148l13 82h238l-27 -172q-10 -64 -44 -111.5t-86 -73t-118 -25.5z
M343 810l-118 140h97l70 -78l92 78h103l-161 -140h-83z" />
    <glyph glyph-name="gcaron" unicode="&#x1e7;" 
d="M90 -180l13 82h175q81 0 94 78l11 70l18 100h-2q-14 -53 -58 -84t-106 -31q-85 0 -125.5 55.5t-25.5 149.5l18 116q15 94 73 149t143 55q63 0 97 -31t31 -84v0l17 105h89l-90 -570q-12 -74 -64.5 -117t-133.5 -43h-174zM274 113q56 0 93.5 35t47.5 97l16 105
q11 62 -16 97t-83 35q-57 0 -93.5 -34t-47.5 -98l-16 -105q-10 -64 16 -98t83 -34zM315 645l-118 140h97l70 -78l92 78h103l-161 -140h-83z" />
    <glyph glyph-name="uni01EA" unicode="&#x1ea;" 
d="M303 -203q-55 0 -84.5 26.5t-22.5 66.5q6 45 71 100h-13q-98 0 -146 56t-32 154l52 330q16 98 81.5 154t163.5 56t146.5 -55.5t32.5 -153.5l-52 -331q-20 -121 -110 -175l-33 -24q-37 -28 -53.5 -50.5t-20.5 -43.5q-3 -22 9.5 -36t37.5 -14h60l-9 -60h-78zM267 71
q59 0 96 33.5t47 95.5l52 330q10 62 -16.5 95.5t-85.5 33.5q-58 0 -95 -33.5t-47 -95.5l-52 -330q-10 -62 16.5 -95.5t84.5 -33.5z" />
    <glyph glyph-name="uni01EB" unicode="&#x1eb;" 
d="M296 -203q-55 0 -84.5 26.5t-22.5 66.5q3 22 19 45.5t55 54.5h-9q-98 0 -146 56t-32 154l23 150q16 98 82 154t164 56t146 -55.5t33 -153.5l-24 -151q-10 -62 -40.5 -107.5t-77.5 -71.5l-27 -20q-38 -28 -56.5 -50.5t-22.5 -43.5q-3 -22 9.5 -36t37.5 -14h60l-9 -60h-78z
M267 70q59 0 96 33t47 97l23 150q11 64 -15.5 97t-85.5 33q-58 0 -95 -33t-48 -97l-23 -150q-10 -64 16.5 -97t84.5 -33z" />
    <glyph glyph-name="uni01F4" unicode="&#x1f4;" 
d="M258 -10q-100 0 -149 56t-33 154l52 330q16 98 82.5 154t166.5 56q98 0 147 -56.5t34 -153.5h-90q10 62 -17.5 95.5t-86.5 33.5t-97.5 -33t-48.5 -95l-52 -331q-10 -62 18 -96t87 -34t97 34t48 96l14 90h-148l13 82h238l-27 -172q-10 -64 -44 -111.5t-86 -73t-118 -25.5z
M323 810l128 140h102l-133 -140h-97z" />
    <glyph glyph-name="uni01F5" unicode="&#x1f5;" 
d="M90 -180l13 82h175q81 0 94 78l11 70l18 100h-2q-14 -53 -58 -84t-106 -31q-85 0 -125.5 55.5t-25.5 149.5l18 116q15 94 73 149t143 55q63 0 97 -31t31 -84v0l17 105h89l-90 -570q-12 -74 -64.5 -117t-133.5 -43h-174zM274 113q56 0 93.5 35t47.5 97l16 105
q11 62 -16 97t-83 35q-57 0 -93.5 -34t-47.5 -98l-16 -105q-10 -64 16 -98t83 -34zM294 645l128 140h102l-133 -140h-97z" />
    <glyph glyph-name="AEacute" unicode="&#x1fc;" 
d="M-14 0l261 730h395l-13 -82h-182l-36 -228h157l-13 -82h-157l-41 -256h182l-13 -82h-268l32 203h-141l-72 -203h-91zM175 278h127l59 370h-56zM323 810l128 140h102l-133 -140h-97z" />
    <glyph glyph-name="aeacute" unicode="&#x1fd;" 
d="M124 -10q-62 0 -92 38t-20 102l9 60q10 62 57 98.5t117 36.5h74l12 74q7 44 -6 64t-48 20q-28 0 -47.5 -17t-24.5 -46h-85q10 63 52.5 101.5t102.5 38.5q39 0 62.5 -13t34.5 -31.5t11 -35.5h4q6 17 22 35.5t42.5 31.5t63.5 13q68 0 99.5 -43t19.5 -117l-23 -145h-222
l-16 -105q-6 -37 9 -60t45 -23q32 0 53.5 17t26.5 46h85q-10 -63 -56.5 -101.5t-111.5 -38.5q-37 0 -59.5 13t-32.5 31.5t-10 35.5h-4q-5 -17 -23 -35.5t-48 -31.5t-73 -13zM350 325h137l12 75q6 38 -9 60.5t-48 22.5q-31 0 -52.5 -22.5t-27.5 -60.5zM157 67q32 0 55.5 23
t29.5 60l16 105h-72q-31 0 -50.5 -17.5t-24.5 -47.5l-9 -60q-5 -29 10 -46t45 -17zM297 645l128 140h102l-133 -140h-97z" />
    <glyph glyph-name="Oslashacute" unicode="&#x1fe;" 
d="M-15 -40l96 134q-15 46 -5 106l52 330q16 98 81.5 154t163.5 56q91 0 139 -48l42 58h86l-91 -126q11 -41 3 -93l-52 -331q-16 -98 -82 -154t-164 -56q-84 0 -132 41l-51 -71h-86zM218 530l-50 -316l286 397q-23 48 -94 48q-58 0 -95 -33.5t-47 -95.5zM267 71
q59 0 96 33.5t47 95.5l47 295l-278 -385q25 -39 88 -39zM323 810l128 140h102l-133 -140h-97z" />
    <glyph glyph-name="oslashacute" unicode="&#x1ff;" 
d="M-14 -30l99 115q-19 48 -9 115l23 150q15 98 81.5 154t164.5 56q75 0 122 -33l54 63h93l-102 -118q23 -50 12 -121l-24 -151q-16 -98 -82 -154t-164 -56q-79 0 -126 37l-50 -57h-92zM161 200q-3 -17 -2 -30l248 288q-28 22 -75 22q-60 0 -99 -34t-49 -96zM267 70
q60 0 99 34.5t49 95.5l23 150q3 21 2 39l-253 -293q28 -26 80 -26zM297 645l128 140h102l-133 -140h-97z" />
    <glyph glyph-name="uni0218" unicode="&#x218;" 
d="M258 -10q-107 0 -160 53.5t-40 146.5h90q-9 -55 23.5 -87t99.5 -32q63 0 103.5 31t49.5 86q7 47 -11.5 80t-58.5 46l-94 31q-70 23 -103 76t-23 125q10 59 43 102.5t85 68t117 24.5q96 0 145.5 -53.5t36.5 -142.5h-90q9 54 -18.5 84.5t-86.5 30.5q-58 0 -95 -28t-45 -78
q-7 -46 11.5 -80t59.5 -48l95 -32q69 -23 101 -77t21 -127q-9 -60 -44.5 -105t-90 -70t-121.5 -25zM108 -240l118 145h105l-128 -145h-95z" />
    <glyph glyph-name="uni0219" unicode="&#x219;" 
d="M232 -10q-85 0 -129 39.5t-41 105.5h90q2 -29 25.5 -47t67.5 -18h42q53 0 82.5 22.5t35.5 58.5q10 70 -79 85l-72 12q-79 13 -113 49t-23 106q11 74 65 115.5t148 41.5h38q79 0 121 -38t42 -101h-90q-2 26 -23.5 42.5t-62.5 16.5h-38q-51 0 -77.5 -20t-32.5 -58
q-5 -34 11.5 -51t58.5 -24l72 -12q86 -14 121.5 -51t24.5 -109q-13 -76 -68.5 -120.5t-153.5 -44.5h-42zM109 -240l118 145h105l-128 -145h-95z" />
    <glyph glyph-name="uni021A" unicode="&#x21a;" 
d="M211 0l103 648h-200l13 82h490l-13 -82h-200l-103 -648h-90zM108 -240l118 145h105l-128 -145h-95z" />
    <glyph glyph-name="uni021B" unicode="&#x21b;" 
d="M316 0q-71 0 -104.5 38t-22.5 107l51 323h-155l13 82h155l24 150h90l-24 -150h220l-13 -82h-220l-51 -323q-10 -63 50 -63h150l-13 -82h-150zM168 -240l118 145h105l-128 -145h-95z" />
    <glyph glyph-name="uni0232" unicode="&#x232;" 
d="M211 0l43 273l-147 457h91l97 -300q8 -25 12.5 -42.5t5.5 -25.5q4 8 13.5 25.5t25.5 42.5l190 300h95l-293 -457l-43 -273h-90zM229 840l12 75h320l-12 -75h-320z" />
    <glyph glyph-name="uni0233" unicode="&#x233;" 
d="M90 -180l13 82h175q82 0 94 78l12 75l17 100h-2q-15 -55 -58 -85t-106 -30q-82 0 -123.5 51t-27.5 139l51 320h90l-49 -310q-10 -58 16.5 -91t80.5 -33q56 0 94.5 35t48.5 99l47 300h90l-91 -570q-11 -74 -64 -117t-134 -43h-174zM202 670l12 75h320l-12 -75h-320z" />
    <glyph glyph-name="uni0237" unicode="&#x237;" 
d="M12 -180l14 83h129q62 0 101.5 33.5t49.5 94.5l69 437h-230l13 82h320l-82 -519q-10 -64 -45 -111.5t-88.5 -73.5t-121.5 -26h-129z" />
    <glyph glyph-name="uni0259" unicode="&#x259;" 
d="M254 -10q-97 0 -144 57.5t-32 152.5l15 97h332l8 53q11 65 -13.5 99.5t-86.5 34.5q-103 0 -130 -74h-90q20 69 82.5 109.5t149.5 40.5q98 0 145 -57.5t31 -152.5l-23 -150q-10 -63 -43 -110.5t-84.5 -73.5t-116.5 -26zM266 65q62 0 98 35t46 100l4 29h-243l-5 -29
q-10 -65 14.5 -100t85.5 -35z" />
    <glyph glyph-name="uni02B9" unicode="&#x2b9;" 
d="M186 410l129 311h130l-179 -311h-80z" />
    <glyph glyph-name="uni02BA" unicode="&#x2ba;" 
d="M351 409l129 311h130l-179 -311h-80zM76 409l129 311h130l-179 -311h-80z" />
    <glyph glyph-name="uni02BC" unicode="&#x2bc;" 
d="M195 465l129 311h130l-179 -311h-80z" />
    <glyph glyph-name="circumflex" unicode="&#x2c6;" 
d="M178 645l161 140h83l118 -140h-97l-69 78l-93 -78h-103z" />
    <glyph glyph-name="caron" unicode="&#x2c7;" 
d="M318 645l-118 140h97l70 -78l92 78h103l-161 -140h-83z" />
    <glyph glyph-name="uni02C9" unicode="&#x2c9;" 
d="M202 670l12 75h320l-12 -75h-320z" />
    <glyph glyph-name="breve" unicode="&#x2d8;" 
d="M358 640q-72 0 -109.5 40t-27.5 105h70q-6 -39 14.5 -63t60.5 -24q41 0 69 24t34 63h72q-10 -65 -60.5 -105t-122.5 -40z" />
    <glyph glyph-name="dotaccent" unicode="&#x2d9;" 
d="M359 649q-33 0 -49 17t-12 46q5 30 26.5 47.5t54.5 17.5t49.5 -17.5t11.5 -47.5q-4 -29 -26 -46t-55 -17z" />
    <glyph glyph-name="ring" unicode="&#x2da;" 
d="M353 608q-54 0 -81.5 31.5t-20.5 82.5q8 51 46 82.5t92 31.5t82 -31.5t20 -82.5q-7 -51 -45.5 -82.5t-92.5 -31.5zM362 661q27 0 46 16.5t23 44.5q5 28 -9 45t-41 17t-46 -17t-24 -45q-4 -28 10 -44.5t41 -16.5z" />
    <glyph glyph-name="ogonek" unicode="&#x2db;" 
d="M231 -203q-55 0 -84.5 26.5t-22.5 66.5q5 29 28.5 58t75.5 62h75l-13 -9q-38 -28 -56.5 -50.5t-22.5 -43.5q-3 -22 9.5 -36t37.5 -14h60l-9 -60h-78z" />
    <glyph glyph-name="tilde" unicode="&#x2dc;" 
d="M429 650q-30 0 -47 10.5t-28 24.5t-21.5 24.5t-27.5 10.5q-30 0 -36 -35l-4 -30h-65l4 30q8 45 37 70t69 25q30 0 47 -10.5t27.5 -24.5t21 -24.5t27.5 -10.5q30 0 36 35l5 30h65l-5 -30q-7 -45 -35.5 -70t-69.5 -25z" />
    <glyph glyph-name="hungarumlaut" unicode="&#x2dd;" 
d="M384 645l132 140h94l-137 -140h-89zM203 645l132 140h94l-137 -140h-89z" />
    <glyph glyph-name="uni02F3" unicode="&#x2f3;" 
d="M217 -250q-54 0 -82.5 27.5t-21.5 72.5q8 45 45 72.5t91 27.5t83 -27.5t21 -72.5q-7 -45 -44.5 -72.5t-91.5 -27.5zM224 -199q28 0 47 13.5t22 35.5q5 26 -9.5 38t-43.5 12q-26 0 -44.5 -13.5t-22.5 -36.5q-3 -22 11 -35.5t40 -13.5z" />
    <glyph glyph-name="uni02F7" unicode="&#x2f7;" 
d="M370 -210q-30 0 -49 10.5t-32 24.5t-25 24.5t-29 10.5q-30 0 -30 -35v-30h-65v30q0 45 25 70t65 25q30 0 49 -10.5t32 -24.5t25 -24.5t29 -10.5q30 0 30 35v30h65v-30q0 -45 -24.5 -70t-65.5 -25z" />
    <glyph glyph-name="gravecomb" unicode="&#x300;" horiz-adv-x="0" 
d="M-258 645l-93 140h94l88 -140h-89z" />
    <glyph glyph-name="acutecomb" unicode="&#x301;" horiz-adv-x="0" 
d="M-314 645l128 140h102l-133 -140h-97z" />
    <glyph glyph-name="uni0302" unicode="&#x302;" horiz-adv-x="0" 
d="M-422 645l161 140h83l118 -140h-97l-69 78l-93 -78h-103z" />
    <glyph glyph-name="tildecomb" unicode="&#x303;" horiz-adv-x="0" 
d="M-171 650q-30 0 -47 10.5t-28 24.5t-21.5 24.5t-27.5 10.5q-30 0 -36 -35l-4 -30h-65l4 30q8 45 37 70t69 25q30 0 47 -10.5t27.5 -24.5t21 -24.5t27.5 -10.5q30 0 36 35l5 30h65l-5 -30q-7 -45 -35.5 -70t-69.5 -25z" />
    <glyph glyph-name="uni0304" unicode="&#x304;" horiz-adv-x="0" 
d="M-398 670l12 75h320l-12 -75h-320z" />
    <glyph glyph-name="uni0306" unicode="&#x306;" horiz-adv-x="0" 
d="M-242 640q-72 0 -109.5 40t-27.5 105h70q-6 -39 14.5 -63t60.5 -24q41 0 69 24t34 63h72q-10 -65 -60.5 -105t-122.5 -40z" />
    <glyph glyph-name="uni0307" unicode="&#x307;" horiz-adv-x="0" 
d="M-241 649q-33 0 -49 17t-12 46q5 30 26.5 47.5t54.5 17.5t49.5 -17.5t11.5 -47.5q-4 -29 -26 -46t-55 -17z" />
    <glyph glyph-name="uni0308" unicode="&#x308;" horiz-adv-x="0" 
d="M-130 649q-29 0 -43.5 17t-10.5 46q5 30 25 47.5t49 17.5t44 -17.5t10 -47.5q-4 -29 -24.5 -46t-49.5 -17zM-352 649q-29 0 -43.5 17t-10.5 46q5 30 25 47.5t49 17.5t44 -17.5t10 -47.5q-4 -29 -24.5 -46t-49.5 -17z" />
    <glyph glyph-name="hookabovecomb" unicode="&#x309;" horiz-adv-x="0" 
d="M-290 645l60 63q17 19 19 32q3 20 -25 20h-78l11 65h105q38 0 58 -19.5t15 -54.5q-2 -15 -9 -29t-17 -25l-48 -52h-91z" />
    <glyph glyph-name="uni030A" unicode="&#x30a;" horiz-adv-x="0" 
d="M-247 608q-54 0 -81.5 31.5t-20.5 82.5q8 51 46 82.5t92 31.5t82 -31.5t20 -82.5q-7 -51 -45.5 -82.5t-92.5 -31.5zM-238 661q27 0 46 16.5t23 44.5q5 28 -9 45t-41 17t-46 -17t-24 -45q-4 -28 10 -44.5t41 -16.5z" />
    <glyph glyph-name="uni030B" unicode="&#x30b;" horiz-adv-x="0" 
d="M-216 645l132 140h94l-137 -140h-89zM-397 645l132 140h94l-137 -140h-89z" />
    <glyph glyph-name="uni030C" unicode="&#x30c;" horiz-adv-x="0" 
d="M-282 645l-118 140h97l70 -78l92 78h103l-161 -140h-83z" />
    <glyph glyph-name="uni030F" unicode="&#x30f;" horiz-adv-x="0" 
d="M-268 645h-84l-93 140h89zM-92 645h-84l-93 140h89z" />
    <glyph glyph-name="uni0312" unicode="&#x312;" horiz-adv-x="0" 
d="M-93 880l-117 -235h-119l167 235h69z" />
    <glyph glyph-name="uni031B" unicode="&#x31b;" horiz-adv-x="0" 
d="M-199 485l10 65h26q35 0 41 35l12 75h75l-13 -80q-7 -43 -40 -69t-80 -26h-31z" />
    <glyph glyph-name="dotbelowcomb" unicode="&#x323;" horiz-adv-x="0" 
d="M-377 -213q-33 0 -49 17t-12 46q5 30 27 47.5t55 17.5t49 -17.5t11 -47.5q-4 -29 -26 -46t-55 -17z" />
    <glyph glyph-name="uni0325" unicode="&#x325;" horiz-adv-x="0" 
d="M-383 -250q-54 0 -82.5 27.5t-21.5 72.5q8 45 45 72.5t91 27.5t83 -27.5t21 -72.5q-7 -45 -44.5 -72.5t-91.5 -27.5zM-376 -199q28 0 47 13.5t22 35.5q5 26 -9.5 38t-43.5 12q-26 0 -44.5 -13.5t-22.5 -36.5q-3 -22 11 -35.5t40 -13.5z" />
    <glyph glyph-name="uni0326" unicode="&#x326;" horiz-adv-x="0" 
d="M-492 -240l118 145h105l-128 -145h-95z" />
    <glyph glyph-name="uni0327" unicode="&#x327;" horiz-adv-x="0" 
d="M-471 -203l9 55h70q22 0 37 11.5t17 24.5q3 17 -22.5 30t-75.5 13l50 95h57l-31 -61q26 -3 52.5 -13t42.5 -28t12 -44q-5 -34 -42 -58.5t-91 -24.5h-85z" />
    <glyph glyph-name="uni0328" unicode="&#x328;" horiz-adv-x="0" 
d="M-369 -203q-55 0 -84.5 26.5t-22.5 66.5q5 29 28.5 58t75.5 62h75l-13 -9q-38 -28 -56.5 -50.5t-22.5 -43.5q-3 -22 9.5 -36t37.5 -14h60l-9 -60h-78z" />
    <glyph glyph-name="uni0336" unicode="&#x336;" horiz-adv-x="0" 
d="M-628 290l11 70h660l-11 -70h-660z" />
    <glyph glyph-name="uni0337" unicode="&#x337;" horiz-adv-x="0" 
d="M-613 -30l534 620h94l-535 -620h-93z" />
    <glyph glyph-name="uni0338" unicode="&#x338;" horiz-adv-x="0" 
d="M-551 -110l436 770h66l-436 -770h-66z" />
    <glyph glyph-name="uni0374" unicode="&#x374;" 
d="M186 410l129 311h130l-179 -311h-80z" />
    <glyph glyph-name="uni0375" unicode="&#x375;" 
d="M94 -160l129 311h134l-179 -311h-84z" />
    <glyph glyph-name="uni037E" unicode="&#x37e;" 
d="M311 410q-33 0 -50.5 21t-12.5 54q5 32 30 53.5t57 21.5h20q32 0 50 -21.5t13 -53.5q-5 -33 -29.5 -54t-57.5 -21h-20zM101 -160l129 311h130l-179 -311h-80z" />
    <glyph glyph-name="tonos" unicode="&#x384;" 
d="M270 645l128 140h97l-133 -140h-92z" />
    <glyph glyph-name="dieresistonos" unicode="&#x385;" 
d="M337 769l99 131h80l-109 -131h-70zM470 649q-29 0 -43.5 17t-10.5 46q5 30 25 47.5t49 17.5t44 -17.5t10 -47.5q-4 -29 -24.5 -46t-49.5 -17zM248 649q-29 0 -43.5 17t-10.5 46q5 30 25 47.5t49 17.5t44 -17.5t10 -47.5q-4 -29 -24.5 -46t-49.5 -17z" />
    <glyph glyph-name="Alphatonos" unicode="&#x386;" 
d="M6 0l306 730h121l73 -730h-88l-17 194h-221l-79 -194h-95zM210 270h184l-21 225q-6 64 -8 107t-2 56q-4 -13 -19.5 -56t-41.5 -106zM56 570l82 160h94l-90 -160h-86z" />
    <glyph glyph-name="anoteleia" unicode="&#x387;" 
d="M298 265q-38 0 -57 22t-13 59q6 39 32.5 62t64.5 23t56.5 -23t12.5 -62q-6 -37 -32 -59t-64 -22z" />
    <glyph glyph-name="Epsilontonos" unicode="&#x388;" 
d="M56 0l116 730h420l-13 -82h-331l-36 -226h296l-13 -81h-296l-41 -259h331l-13 -82h-420zM-69 570l82 160h94l-90 -160h-86z" />
    <glyph glyph-name="Etatonos" unicode="&#x389;" 
d="M-69 570l82 160h94l-90 -160h-86zM49 0l116 730h90l-50 -312h234l50 312h90l-116 -730h-90l53 336h-234l-53 -336h-90z" />
    <glyph glyph-name="Iotatonos" unicode="&#x38a;" 
d="M-69 570l82 160h94l-90 -160h-86zM61 0l13 82h149l90 566h-149l13 82h390l-13 -82h-149l-90 -566h149l-13 -82h-390z" />
    <glyph glyph-name="Omicrontonos" unicode="&#x38c;" 
d="M-34 570l82 160h94l-90 -160h-86zM254 -10q-98 0 -146 56t-32 154l52 330q16 98 81.5 154t163.5 56t146 -55.5t33 -153.5l-52 -331q-16 -98 -82 -154t-164 -56zM267 71q59 0 96 33.5t47 95.5l52 330q10 62 -16.5 95.5t-85.5 33.5q-58 0 -95 -33.5t-47 -95.5l-52 -330
q-10 -62 16.5 -95.5t84.5 -33.5z" />
    <glyph glyph-name="Upsilontonos" unicode="&#x38e;" 
d="M-79 570l82 160h94l-90 -160h-86zM211 0l43 273l-147 457h91l97 -300q8 -25 12.5 -42.5t5.5 -25.5q4 8 13.5 25.5t25.5 42.5l190 300h95l-293 -457l-43 -273h-90z" />
    <glyph glyph-name="Omegatonos" unicode="&#x38f;" 
d="M6 0l13 80h145v5q-24 3 -48 20.5t-36.5 52t-4.5 87.5l44 280q11 66 45 114t88 74.5t121 26.5q101 0 151.5 -58.5t34.5 -156.5l-44 -280q-8 -53 -32 -87t-53.5 -51.5t-54.5 -20.5l-1 -6h146l-13 -80h-211l17 110q40 0 71 36.5t40 93.5l45 285q10 62 -19.5 98.5t-88.5 36.5
t-100.5 -36.5t-51.5 -98.5l-45 -285q-9 -57 10 -93.5t59 -36.5l-17 -110h-210zM-34 570l82 160h94l-90 -160h-86z" />
    <glyph glyph-name="iotadieresistonos" unicode="&#x390;" 
d="M371 0q-73 0 -109.5 42.5t-25.5 112.5l49 313h-200l13 82h290l-62 -395q-6 -34 10 -53.5t48 -19.5h135l-13 -82h-135zM337 769l99 131h80l-109 -131h-70zM470 649q-29 0 -43.5 17t-10.5 46q5 30 25 47.5t49 17.5t44 -17.5t10 -47.5q-4 -29 -24.5 -46t-49.5 -17zM248 649
q-29 0 -43.5 17t-10.5 46q5 30 25 47.5t49 17.5t44 -17.5t10 -47.5q-4 -29 -24.5 -46t-49.5 -17z" />
    <glyph glyph-name="Alpha" unicode="&#x391;" 
d="M6 0l306 730h121l73 -730h-88l-17 194h-221l-79 -194h-95zM210 270h184l-21 225q-6 64 -8 107t-2 56q-4 -13 -19.5 -56t-41.5 -106z" />
    <glyph glyph-name="Beta" unicode="&#x392;" 
d="M49 0l116 730h207q100 0 148.5 -50t34.5 -139q-9 -60 -44.5 -100.5t-90.5 -55.5q57 -16 83 -64t15 -118q-15 -94 -81 -148.5t-166 -54.5h-222zM203 419h118q58 0 96.5 31t47.5 84q8 53 -20 84t-86 31h-119zM150 81h124q63 0 104.5 33.5t51.5 91.5q9 60 -21.5 97.5
t-93.5 37.5h-124z" />
    <glyph glyph-name="Gamma" unicode="&#x393;" 
d="M86 0l116 730h425l-13 -82h-335l-103 -648h-90z" />
    <glyph glyph-name="uni0394" unicode="&#x394;" 
d="M6 0l306 730h121l73 -730h-500zM132 80h278l-38 415q-4 52 -6.5 97.5t-3.5 67.5q-8 -22 -24 -67t-37 -97z" />
    <glyph glyph-name="Epsilon" unicode="&#x395;" 
d="M56 0l116 730h420l-13 -82h-331l-36 -226h296l-13 -81h-296l-41 -259h331l-13 -82h-420z" />
    <glyph glyph-name="Zeta" unicode="&#x396;" 
d="M41 0l14 90l415 558h-321l13 82h415l-15 -90l-414 -558h336l-13 -82h-430z" />
    <glyph glyph-name="Eta" unicode="&#x397;" 
d="M49 0l116 730h90l-50 -312h234l50 312h90l-116 -730h-90l53 336h-234l-53 -336h-90z" />
    <glyph glyph-name="Theta" unicode="&#x398;" 
d="M254 -10q-98 0 -146 56t-32 154l52 330q16 98 81.5 154t163.5 56t146.5 -55.5t32.5 -153.5l-52 -331q-16 -98 -82 -154t-164 -56zM267 71q59 0 96 33.5t47 95.5l52 330q10 62 -16.5 95.5t-85.5 33.5q-58 0 -95 -33.5t-47 -95.5l-52 -330q-10 -62 16.5 -95.5t84.5 -33.5z
M217 325l13 82h180l-13 -82h-180z" />
    <glyph glyph-name="Iota" unicode="&#x399;" 
d="M61 0l13 82h149l90 566h-149l13 82h390l-13 -82h-149l-90 -566h149l-13 -82h-390z" />
    <glyph glyph-name="Kappa" unicode="&#x39a;" 
d="M48 0l116 730h90l-50 -313h106l212 313h100l-237 -354l131 -376h-100l-116 338h-108l-54 -338h-90z" />
    <glyph glyph-name="Lambda" unicode="&#x39b;" 
d="M6 0l306 730h121l73 -730h-88l-45 495q-7 71 -9 118l-2 47l-15.5 -46.5t-44.5 -117.5l-201 -496h-95z" />
    <glyph glyph-name="Mu" unicode="&#x39c;" 
d="M32 0l116 730h116l38 -236q5 -32 9.5 -63.5t6.5 -48.5q7 17 20 48.5t28 64.5l110 235h120l-116 -730h-88l42 265q8 47 19.5 103t25.5 113.5t27.5 110.5t24.5 93l-175 -365h-95l-62 365q-1 -39 -4.5 -90.5t-8 -109t-10.5 -114.5t-14 -106l-42 -265h-88z" />
    <glyph glyph-name="Nu" unicode="&#x39d;" 
d="M46 0l116 730h119l125 -625q2 25 5 61.5t8 77t11 76.5l65 410h87l-116 -730h-119l-124 625q-2 -24 -5.5 -60.5t-8.5 -77t-11 -77.5l-65 -410h-87z" />
    <glyph glyph-name="Xi" unicode="&#x39e;" 
d="M139 648l13 82h440l-13 -82h-440zM118 329l13 82h380l-13 -82h-380zM36 0l13 82h440l-13 -82h-440z" />
    <glyph glyph-name="Omicron" unicode="&#x39f;" 
d="M254 -10q-98 0 -146 56t-32 154l52 330q16 98 81.5 154t163.5 56t146 -55.5t33 -153.5l-52 -331q-16 -98 -82 -154t-164 -56zM267 71q59 0 96 33.5t47 95.5l52 330q10 62 -16.5 95.5t-85.5 33.5q-58 0 -95 -33.5t-47 -95.5l-52 -330q-10 -62 16.5 -95.5t84.5 -33.5z" />
    <glyph glyph-name="Pi" unicode="&#x3a0;" 
d="M50 0l116 730h412l-116 -730h-90l103 648h-232l-103 -648h-90z" />
    <glyph glyph-name="Rho" unicode="&#x3a1;" 
d="M48 0l116 730h235q102 0 153 -58.5t36 -156.5q-10 -65 -45.5 -113.5t-89.5 -75t-122 -26.5h-145l-48 -300h-90zM198 381h145q59 0 100.5 36.5t51.5 97.5q10 62 -20 98t-89 36h-145z" />
    <glyph glyph-name="Sigma" unicode="&#x3a3;" 
d="M31 0l13 80l277 300l-187 270l13 80h475l-13 -80h-372l194 -275l-277 -295h365l-13 -80h-475z" />
    <glyph glyph-name="Tau" unicode="&#x3a4;" 
d="M211 0l103 648h-200l13 82h490l-13 -82h-200l-103 -648h-90z" />
    <glyph glyph-name="Upsilon" unicode="&#x3a5;" 
d="M211 0l43 273l-147 457h91l97 -300q8 -25 12.5 -42.5t5.5 -25.5q4 8 13.5 25.5t25.5 42.5l190 300h95l-293 -457l-43 -273h-90z" />
    <glyph glyph-name="Phi" unicode="&#x3a6;" 
d="M210 -25l11 70q-92 0 -139 57t-32 151l37 234q11 65 43.5 112.5t82.5 74t112 26.5l11 70h84l-11 -70q93 0 139.5 -58t30.5 -155l-37 -234q-10 -63 -43 -109.5t-82.5 -72.5t-111.5 -26l-11 -70h-84zM233 121l80 503q-56 0 -93.5 -36.5t-48.5 -100.5l-37 -234
q-10 -61 16.5 -96.5t82.5 -35.5zM317 121q56 0 93.5 35.5t47.5 96.5l37 234q11 64 -15.5 100.5t-82.5 36.5z" />
    <glyph glyph-name="Chi" unicode="&#x3a7;" 
d="M-4 0l268 372l-141 358h100l79 -216q6 -17 13.5 -36.5t11.5 -30.5q7 11 18.5 30.5t23.5 36.5l149 216h103l-254 -356l149 -374h-99l-89 232q-7 17 -13.5 36.5t-9.5 31.5q-7 -12 -19.5 -31t-23.5 -36l-162 -233h-104z" />
    <glyph glyph-name="Psi" unicode="&#x3a8;" 
d="M214 0l27 170q-92 0 -139 57t-32 151l56 352h84l-56 -352q-10 -61 16.5 -96.5t82.5 -35.5l77 484h84l-77 -484q56 0 93.5 35.5t47.5 96.5l56 352h84l-56 -352q-10 -63 -43 -109.5t-82.5 -72.5t-111.5 -26l-27 -170h-84z" />
    <glyph glyph-name="uni03A9" unicode="&#x3a9;" 
d="M6 0l13 80h145v5q-24 3 -48 20.5t-36.5 52t-4.5 87.5l44 280q11 66 45 114t88 74.5t121 26.5q101 0 151.5 -58.5t34.5 -156.5l-44 -280q-8 -53 -32 -87t-53.5 -51.5t-54.5 -20.5l-1 -6h146l-13 -80h-211l17 110q40 0 71 36.5t40 93.5l45 285q10 62 -19.5 98.5t-88.5 36.5
t-100.5 -36.5t-51.5 -98.5l-45 -285q-9 -57 10 -93.5t59 -36.5l-17 -110h-210z" />
    <glyph glyph-name="Iotadieresis" unicode="&#x3aa;" 
d="M61 0l13 82h149l90 566h-149l13 82h390l-13 -82h-149l-90 -566h149l-13 -82h-390zM496 817q-29 0 -43.5 17t-10.5 46q5 30 25.5 47.5t49.5 17.5t43.5 -17.5t9.5 -47.5q-4 -29 -24.5 -46t-49.5 -17zM274 817q-29 0 -43.5 17t-10.5 46q5 30 25.5 47.5t49.5 17.5t43.5 -17.5
t9.5 -47.5q-4 -29 -24.5 -46t-49.5 -17z" />
    <glyph glyph-name="Upsilondieresis" unicode="&#x3ab;" 
d="M211 0l43 273l-147 457h91l97 -300q8 -25 12.5 -42.5t5.5 -25.5q4 8 13.5 25.5t25.5 42.5l190 300h95l-293 -457l-43 -273h-90zM496 817q-29 0 -43.5 17t-10.5 46q5 30 25.5 47.5t49.5 17.5t43.5 -17.5t9.5 -47.5q-4 -29 -24.5 -46t-49.5 -17zM274 817q-29 0 -43.5 17
t-10.5 46q5 30 25.5 47.5t49.5 17.5t43.5 -17.5t9.5 -47.5q-4 -29 -24.5 -46t-49.5 -17z" />
    <glyph glyph-name="alphatonos" unicode="&#x3ac;" 
d="M294 645l128 140h97l-133 -140h-92zM223 -10q-82 0 -122 55t-25 149l25 161q15 95 72.5 150t140.5 55q62 0 97 -31t33 -84h3l15 105h90l-87 -550h-90l17 105h-2q-15 -54 -60 -84.5t-107 -30.5zM266 68q56 0 93.5 35t47.5 97l23 150q10 62 -16.5 97t-82.5 35
q-57 0 -94 -34t-47 -98l-23 -150q-10 -64 16 -98t83 -34z" />
    <glyph glyph-name="epsilontonos" unicode="&#x3ad;" 
d="M282 -7h-47q-92 0 -138.5 43t-35.5 116q10 59 51.5 96t105.5 41v4q-58 4 -87 35.5t-21 84.5q11 65 68.5 104.5t145.5 39.5h50q82 0 127.5 -38t44.5 -104h-95q-1 29 -24 45.5t-65 16.5h-50q-44 0 -73.5 -20.5t-34.5 -55.5q-6 -35 16 -56t65 -21h113l-12 -78h-111
q-48 0 -79.5 -23.5t-38.5 -63.5q-6 -40 18.5 -63t72.5 -23h47q47 0 79.5 16t43.5 41h95q-21 -63 -82.5 -100t-148.5 -37zM284 645l128 140h97l-133 -140h-92z" />
    <glyph glyph-name="etatonos" unicode="&#x3ae;" 
d="M48 0l87 550h90l-17 -105h2q15 55 58 85t106 30q83 0 124 -51t27 -139l-88 -550h-90l86 540q9 59 -17 91.5t-80 32.5q-56 0 -94 -35t-49 -99l-55 -350h-90zM305 645l128 140h97l-133 -140h-92z" />
    <glyph glyph-name="iotatonos" unicode="&#x3af;" 
d="M371 0q-73 0 -109.5 42.5t-25.5 112.5l49 313h-200l13 82h290l-62 -395q-6 -34 10 -53.5t48 -19.5h135l-13 -82h-135zM301 645l128 140h97l-133 -140h-92z" />
    <glyph glyph-name="upsilondieresistonos" unicode="&#x3b0;" 
d="M253 -10q-95 0 -142.5 56.5t-32.5 153.5l55 350h90l-55 -350q-10 -62 16.5 -96.5t81.5 -34.5q56 0 94 34.5t48 96.5l55 350h90l-55 -350q-10 -64 -44 -111.5t-85.5 -73t-115.5 -25.5zM337 769l99 131h80l-109 -131h-70zM470 649q-29 0 -43.5 17t-10.5 46q5 30 25 47.5
t49 17.5t44 -17.5t10 -47.5q-4 -29 -24.5 -46t-49.5 -17zM248 649q-29 0 -43.5 17t-10.5 46q5 30 25 47.5t49 17.5t44 -17.5t10 -47.5q-4 -29 -24.5 -46t-49.5 -17z" />
    <glyph glyph-name="alpha" unicode="&#x3b1;" 
d="M223 -10q-82 0 -122 55t-25 149l25 161q15 95 72.5 150t140.5 55q62 0 97 -31t33 -84h3l15 105h90l-87 -550h-90l17 105h-2q-15 -54 -60 -84.5t-107 -30.5zM266 68q56 0 93.5 35t47.5 97l23 150q10 62 -16.5 97t-82.5 35q-57 0 -94 -34t-47 -98l-23 -150q-10 -64 16 -98
t83 -34z" />
    <glyph glyph-name="beta" unicode="&#x3b2;" 
d="M19 -180l114 714q10 62 43 108.5t84.5 72t115.5 25.5q96 0 147 -48t37 -138q-10 -61 -48 -104t-95 -59q59 -16 86 -63.5t16 -119.5q-10 -61 -44 -108t-86.5 -73.5t-117.5 -26.5h-133l-29 -180h-90zM151 82h123q60 0 100.5 35.5t49.5 93.5q10 58 -19.5 91t-90.5 33h-44
l12 78h42q56 0 93.5 35t45.5 88q9 58 -18 90t-82 32t-93 -33t-47 -91z" />
    <glyph glyph-name="gamma" unicode="&#x3b3;" 
d="M183 -180l29 180l-108 550h92l66 -365q7 -34 9 -60.5t3 -43.5q5 17 12.5 43.5t23.5 60.5l179 365h95l-282 -550l-29 -180h-90z" />
    <glyph glyph-name="delta" unicode="&#x3b4;" 
d="M255 -10q-97 0 -144.5 57.5t-31.5 157.5l14 83q14 89 62 143.5t113 54.5q34 0 55 -12t29 -20l5 4l-188 197l12 75h372l-12 -75h-261l169 -174q41 -40 57 -87t7 -103l-14 -86q-16 -100 -81 -157.5t-163 -57.5zM268 70q57 0 94 35.5t47 99.5l14 86q11 67 -15 103.5
t-84 36.5q-57 0 -93.5 -36.5t-47.5 -103.5l-14 -86q-10 -64 16 -99.5t83 -35.5z" />
    <glyph glyph-name="epsilon" unicode="&#x3b5;" 
d="M282 -7h-47q-92 0 -138.5 43t-35.5 116q10 59 51.5 96t105.5 41v4q-58 4 -87 35.5t-21 84.5q11 65 68.5 104.5t145.5 39.5h50q82 0 127.5 -38t44.5 -104h-95q-1 29 -24 45.5t-65 16.5h-50q-44 0 -73.5 -20.5t-34.5 -55.5q-6 -35 16 -56t65 -21h113l-12 -78h-111
q-48 0 -79.5 -23.5t-38.5 -63.5q-6 -40 18.5 -63t72.5 -23h47q47 0 79.5 16t43.5 41h95q-21 -63 -82.5 -100t-148.5 -37z" />
    <glyph glyph-name="zeta" unicode="&#x3b6;" 
d="M373 -180l21 132q8 48 -40 48h-128q-96 0 -141 46.5t-33 121.5q11 74 71.5 160.5t166.5 174.5l172 145h-312l13 82h415l-15 -90l-214 -188q-88 -76 -143 -149t-63 -129q-7 -43 18.5 -68.5t78.5 -25.5h127q74 0 101 -29t16 -99l-21 -132h-90z" />
    <glyph glyph-name="eta" unicode="&#x3b7;" 
d="M48 0l87 550h90l-17 -105h2q15 55 58 85t106 30q83 0 124 -51t27 -139l-88 -550h-90l86 540q9 59 -17 91.5t-80 32.5q-56 0 -94 -35t-49 -99l-55 -350h-90z" />
    <glyph glyph-name="theta" unicode="&#x3b8;" 
d="M254 -10q-98 0 -146 56t-32 154l50 320q16 98 82 154t164 56t146 -55.5t33 -153.5l-51 -321q-16 -98 -82 -154t-164 -56zM198 403h244l18 117q11 64 -15.5 97t-85.5 33q-58 0 -95 -33t-48 -97zM267 70q59 0 96 33t47 97l19 125h-244l-19 -125q-10 -64 16.5 -97t84.5 -33z
" />
    <glyph glyph-name="iota" unicode="&#x3b9;" 
d="M371 0q-73 0 -109.5 42.5t-25.5 112.5l49 313h-200l13 82h290l-62 -395q-6 -34 10 -53.5t48 -19.5h135l-13 -82h-135z" />
    <glyph glyph-name="kappa" unicode="&#x3ba;" 
d="M53 0l87 550h90l-36 -227h92l196 227h105l-226 -265l142 -285h-103l-121 245h-97l-39 -245h-90z" />
    <glyph glyph-name="lambda" unicode="&#x3bb;" 
d="M7 0l290 541l-44 189h96l158 -730h-93l-74 357q-7 35 -10.5 62t-6.5 42q-1 -15 -8.5 -42t-24.5 -62l-182 -357h-101z" />
    <glyph glyph-name="uni03BC" unicode="&#x3bc;" 
d="M21 -180l116 730h90l-55 -350q-10 -62 14.5 -97t79.5 -35q56 0 93 35t47 97l55 350h90l-87 -550h-88l17 105h-3q-12 -53 -44 -84t-94 -31t-81 31t-14 84h-2l-18 -125l-26 -160h-90z" />
    <glyph glyph-name="nu" unicode="&#x3bd;" 
d="M195 0l-92 550h89l59 -370q5 -33 9 -63.5t6 -47.5q7 17 21 47.5t30 63.5l172 370h94l-266 -550h-122z" />
    <glyph glyph-name="xi" unicode="&#x3be;" 
d="M403 -178l20 130q4 22 -7 35t-33 13h-96q-113 0 -170.5 58t-41.5 156q11 73 56.5 120.5t113.5 60.5q-57 12 -83.5 52.5t-16.5 101.5q14 83 80 132t166 49h185l-13 -82h-185q-57 0 -95 -29.5t-46 -80.5t20.5 -81t85.5 -30h153l-13 -80h-149q-66 0 -110 -35.5t-54 -97.5
q-10 -61 25 -96.5t105 -35.5h96q64 0 95.5 -35t21.5 -95l-20 -130h-90z" />
    <glyph glyph-name="omicron" unicode="&#x3bf;" 
d="M254 -10q-98 0 -146 56t-32 154l23 150q16 98 82 154t164 56t146 -55.5t33 -153.5l-24 -151q-16 -98 -82 -154t-164 -56zM267 70q59 0 96 33t47 97l23 150q11 64 -15.5 97t-85.5 33q-58 0 -95 -33t-48 -97l-23 -150q-10 -64 16.5 -97t84.5 -33z" />
    <glyph glyph-name="pi" unicode="&#x3c0;" 
d="M492 -5q-76 0 -114 48t-25 127l47 300h-173l-74 -470h-87l75 470h-84l12 80h529l-12 -80h-100l-48 -306q-7 -41 10.5 -63t52.5 -22h24l-14 -84h-19z" />
    <glyph glyph-name="rho" unicode="&#x3c1;" 
d="M19 -180l85 536q15 95 80 149.5t162 54.5t143 -54.5t31 -149.5l-25 -161q-15 -95 -71.5 -150t-139.5 -55q-62 0 -96 31t-32 84h-3l-18 -125l-26 -160h-90zM267 68q57 0 93 34t46 98l23 150q11 64 -14.5 98t-82.5 34t-92.5 -34t-46.5 -98l-23 -150q-10 -62 16 -97t81 -35z
" />
    <glyph glyph-name="uni03C2" unicode="&#x3c2;" 
d="M378 -180l21 132q8 48 -40 48h-98q-100 0 -151.5 51t-35.5 149l23 150q16 98 84.5 154t168.5 56q95 0 145 -51t39 -139h-90q5 53 -23 81.5t-84 28.5q-59 0 -99 -33.5t-50 -95.5l-24 -151q-10 -62 20.5 -91t89.5 -29h98q66 0 96.5 -33.5t20.5 -94.5l-21 -132h-90z" />
    <glyph glyph-name="sigma" unicode="&#x3c3;" 
d="M251 -10q-96 0 -144.5 58t-33.5 152l22 140q10 63 44 110.5t85.5 73.5t115.5 26h273l-13 -82h-169v-3q49 -4 72.5 -37.5t15.5 -87.5l-22 -140q-10 -63 -44 -110t-86 -73.5t-116 -26.5zM264 70q57 0 95 35t48 95l22 140q10 60 -17.5 95t-84.5 35t-94.5 -35t-47.5 -95
l-22 -140q-10 -60 17 -95t84 -35z" />
    <glyph glyph-name="tau" unicode="&#x3c4;" 
d="M341 0q-71 0 -104.5 38t-22.5 107l51 323h-180l13 82h465l-13 -82h-195l-51 -323q-10 -63 50 -63h125l-13 -82h-125z" />
    <glyph glyph-name="upsilon" unicode="&#x3c5;" 
d="M253 -10q-95 0 -142.5 56.5t-32.5 153.5l55 350h90l-55 -350q-10 -62 16.5 -96.5t81.5 -34.5q56 0 94 34.5t48 96.5l55 350h90l-55 -350q-10 -64 -44 -111.5t-85.5 -73t-115.5 -25.5z" />
    <glyph glyph-name="phi" unicode="&#x3c6;" 
d="M186 -180l29 180q-96 0 -141.5 54.5t-30.5 147.5l55 348h83l-55 -348q-10 -61 17.5 -96t87.5 -35l76 479h108q80 0 119.5 -43t28.5 -117l-30 -188q-15 -93 -77.5 -147.5t-158.5 -54.5l-29 -180h-82zM303 71q59 0 98 35t49 96l30 188q7 42 -13.5 66t-62.5 24h-36z" />
    <glyph glyph-name="chi" unicode="&#x3c7;" 
d="M-4 -180l268 372l-141 358h100l79 -216q6 -17 13.5 -36.5t11.5 -30.5q7 11 18.5 30.5t23.5 36.5l149 216h103l-254 -356l149 -374h-99l-89 232q-7 17 -13.5 36.5t-9.5 31.5q-7 -12 -19.5 -31t-23.5 -36l-162 -233h-104z" />
    <glyph glyph-name="psi" unicode="&#x3c8;" 
d="M186 -180l29 180q-97 0 -142.5 54.5t-30.5 147.5l55 348h83l-55 -348q-10 -61 18.5 -96t87.5 -35l76 479h72l-76 -479q59 0 98.5 35t49.5 96l55 348h83l-55 -348q-15 -93 -77.5 -147.5t-159.5 -54.5l-29 -180h-82z" />
    <glyph glyph-name="omega" unicode="&#x3c9;" 
d="M136 -10q-58 0 -85 43t-15 118l33 207q13 83 59 137.5t113 64.5l-15 -95q-27 -5 -46 -34t-26 -73l-33 -208q-7 -40 5.5 -62t41.5 -22t49 22t27 62l31 195h74l-31 -195q-7 -40 6 -62t42 -22q61 0 75 84l33 208q6 41 -5 68.5t-39 33.5l15 95q66 -10 96.5 -63t17.5 -134
l-33 -207q-12 -75 -52.5 -118t-99.5 -43q-50 0 -76.5 28.5t-25.5 78.5q-15 -50 -51 -78.5t-85 -28.5z" />
    <glyph glyph-name="iotadieresis" unicode="&#x3ca;" 
d="M371 0q-73 0 -109.5 42.5t-25.5 112.5l49 313h-200l13 82h290l-62 -395q-6 -34 10 -53.5t48 -19.5h135l-13 -82h-135zM471 649q-29 0 -43.5 17t-10.5 46q5 30 25 47.5t49 17.5t44 -17.5t10 -47.5q-4 -29 -24.5 -46t-49.5 -17zM249 649q-29 0 -43.5 17t-10.5 46
q5 30 25 47.5t49 17.5t44 -17.5t10 -47.5q-4 -29 -24.5 -46t-49.5 -17z" />
    <glyph glyph-name="upsilondieresis" unicode="&#x3cb;" 
d="M253 -10q-95 0 -142.5 56.5t-32.5 153.5l55 350h90l-55 -350q-10 -62 16.5 -96.5t81.5 -34.5q56 0 94 34.5t48 96.5l55 350h90l-55 -350q-10 -64 -44 -111.5t-85.5 -73t-115.5 -25.5zM470 649q-29 0 -43.5 17t-10.5 46q5 30 25 47.5t49 17.5t44 -17.5t10 -47.5
q-4 -29 -24.5 -46t-49.5 -17zM248 649q-29 0 -43.5 17t-10.5 46q5 30 25 47.5t49 17.5t44 -17.5t10 -47.5q-4 -29 -24.5 -46t-49.5 -17z" />
    <glyph glyph-name="omicrontonos" unicode="&#x3cc;" 
d="M254 -10q-98 0 -146 56t-32 154l23 150q16 98 82 154t164 56t146 -55.5t33 -153.5l-24 -151q-16 -98 -82 -154t-164 -56zM267 70q59 0 96 33t47 97l23 150q11 64 -15.5 97t-85.5 33q-58 0 -95 -33t-48 -97l-23 -150q-10 -64 16.5 -97t84.5 -33zM300 645l128 140h97
l-133 -140h-92z" />
    <glyph glyph-name="upsilontonos" unicode="&#x3cd;" 
d="M253 -10q-95 0 -142.5 56.5t-32.5 153.5l55 350h90l-55 -350q-10 -62 16.5 -96.5t81.5 -34.5q56 0 94 34.5t48 96.5l55 350h90l-55 -350q-10 -64 -44 -111.5t-85.5 -73t-115.5 -25.5zM300 645l128 140h97l-133 -140h-92z" />
    <glyph glyph-name="omegatonos" unicode="&#x3ce;" 
d="M136 -10q-58 0 -85 43t-15 118l33 207q13 83 59 137.5t113 64.5l-15 -95q-27 -5 -46 -34t-26 -73l-33 -208q-7 -40 5.5 -62t41.5 -22t49 22t27 62l31 195h74l-31 -195q-7 -40 6 -62t42 -22q61 0 75 84l33 208q6 41 -5 68.5t-39 33.5l15 95q66 -10 96.5 -63t17.5 -134
l-33 -207q-12 -75 -52.5 -118t-99.5 -43q-50 0 -76.5 28.5t-25.5 78.5q-15 -50 -51 -78.5t-85 -28.5zM290 645l128 140h97l-133 -140h-92z" />
    <glyph glyph-name="uni03CF" unicode="&#x3cf;" 
d="M48 0l116 730h90l-50 -313h106l212 313h100l-237 -354l106 -305h56l-11 -71q-14 -88 -69 -134t-147 -46h-29l13 79h29q45 0 77.5 27.5t39.5 73.5h-34l-116 338h-108l-54 -338h-90z" />
    <glyph glyph-name="uni03D5" unicode="&#x3d5;" 
d="M213 -20l3 20q-96 0 -142.5 54t-31.5 148l23 148q15 93 79 146.5t159 53.5l3 20q11 74 59 117t129 43h114l-13 -79h-115q-82 0 -94 -81l-3 -20q96 0 142.5 -53.5t31.5 -146.5l-23 -148q-15 -94 -78.5 -148t-159.5 -54l-3 -20q-7 -74 -57 -117t-131 -43h-114l13 79h115
q85 0 94 81zM229 71l65 408q-58 0 -96.5 -34t-48.5 -95l-23 -148q-10 -61 17.5 -96t85.5 -35zM305 71q59 0 97 35t48 96l23 148q10 61 -17 95t-86 34z" />
    <glyph glyph-name="uni03D6" unicode="&#x3d6;" 
d="M136 -10q-58 0 -85 43t-15 118l30 188q7 46 32 79t64 50h-116l13 82h570l-13 -82h-115q33 -17 47.5 -50t7.5 -79l-30 -188q-12 -75 -52.5 -118t-99.5 -43q-49 0 -75.5 28.5t-26.5 78.5q-15 -50 -50.5 -78.5t-85.5 -28.5zM168 66q29 0 49 22t27 62l31 195h74l-31 -195
q-7 -40 6 -62t42 -22q61 0 75 84l37 234q12 84 -48 84h-198q-62 0 -74 -84l-37 -234q-7 -40 5.5 -62t41.5 -22z" />
    <glyph glyph-name="uni03D7" unicode="&#x3d7;" 
d="M261 -180l13 79h29q45 0 77.5 27t39.5 72v2h-44l48 300q7 44 18 93t20 78l-297 -471h-115l87 550h86l-47 -300q-7 -43 -18.5 -92t-19.5 -78l296 470h115l-76 -479h44l-11 -71q-14 -88 -69 -134t-147 -46h-29z" />
    <glyph glyph-name="uni0401" unicode="&#x401;" 
d="M56 0l116 730h420l-13 -82h-331l-36 -226h296l-13 -81h-296l-41 -259h331l-13 -82h-420zM516 817q-29 0 -43.5 17t-10.5 46q5 30 25.5 47.5t49.5 17.5t43.5 -17.5t9.5 -47.5q-4 -29 -24.5 -46t-49.5 -17zM294 817q-29 0 -43.5 17t-10.5 46q5 30 25.5 47.5t49.5 17.5
t43.5 -17.5t9.5 -47.5q-4 -29 -24.5 -46t-49.5 -17z" />
    <glyph glyph-name="uni0402" unicode="&#x402;" 
d="M187 -180l13 82h70q53 0 89 30.5t44 82.5l45 281q10 61 -8 92t-60 31q-57 0 -123 -62l-52 -47l-49 -310h-90l103 651h-110l13 79h320l-13 -79h-120l-40 -255l18 17q89 82 176 82q71 0 106 -48.5t22 -130.5l-48 -301q-9 -59 -41.5 -103t-82.5 -68t-112 -24h-70z" />
    <glyph glyph-name="uni0403" unicode="&#x403;" 
d="M86 0l116 730h425l-13 -82h-335l-103 -648h-90zM343 810l128 140h102l-133 -140h-97z" />
    <glyph glyph-name="uni0404" unicode="&#x404;" 
d="M258 -10q-100 0 -148 56t-32 154l52 330q16 98 81.5 154t165.5 56q98 0 146 -56.5t33 -153.5h-90q10 62 -16 96t-85 34t-97 -33.5t-48 -95.5l-19 -122h225l-13 -82h-225l-20 -127q-10 -62 17 -96t86 -34t96 34t47 96h90q-16 -97 -82 -153.5t-164 -56.5z" />
    </font>
</defs>
</svg>
