<?xml version="1.0" standalone="no"?>
<!DOCTYPE svg PUBLIC "-//W3C//DTD SVG 1.1//EN" "http://www.w3.org/Graphics/SVG/1.1/DTD/svg11.dtd" >
<svg xmlns="http://www.w3.org/2000/svg" xmlns:xlink="http://www.w3.org/1999/xlink" version="1.1">
<metadata>
Created by FontForge 20170731 at Fri Jul 30 17:29:30 2021
 By Aleksey,,,
Copyright 2020 The JetBrains Mono Project Authors (https://github.com/JetBrains/JetBrainsMono)
</metadata>
<defs>
<font id="JetBrainsMono-ThinItalic" horiz-adv-x="600" >
  <font-face 
    font-family="JetBrains Mono Thin"
    font-weight="100"
    font-style="italic"
    font-stretch="normal"
    units-per-em="1000"
    panose-1="2 0 0 9 0 0 0 0 0 0"
    ascent="800"
    descent="-200"
    x-height="550"
    cap-height="730"
    bbox="-1743 -400 761 1120"
    underline-thickness="50"
    underline-position="-230"
    slope="-9"
    unicode-range="U+000D-1D54A"
  />
<missing-glyph 
d="M90 0v730h420v-730h-420zM140 109l300 571h-300v-571zM160 50h300v571z" />
    <glyph glyph-name=".notdef" 
d="M90 0v730h420v-730h-420zM140 109l300 571h-300v-571zM160 50h300v571z" />
    <glyph glyph-name=".null" horiz-adv-x="0" 
 />
    <glyph glyph-name="nonmarkingreturn" horiz-adv-x="333" 
 />
    <glyph glyph-name="nullcontrol" unicode="&#x2400;" 
d="M17.7812 245l38.2822 240.912h22.1104l53.4629 -222.761q0.660156 6.59961 1.65039 14.5205q0.990234 7.91992 1.81543 14.5205t1.1543 8.91016l29.3721 184.81h15.8408l-38.2822 -240.912h-22.4414l-52.4727 222.762q-0.330078 -4.62012 -1.81445 -15.0156
q-1.48535 -10.3955 -3.46582 -22.9365l-29.3711 -184.81h-15.8408zM279.154 241.7q-29.041 0 -43.3975 17.9854q-14.3555 17.9863 -9.73535 48.0176l28.3818 178.209h16.501l-28.3818 -178.209q-3.62988 -24.0908 6.76562 -37.6221q10.3955 -13.5303 32.5068 -13.5303
q22.1104 0 36.4668 13.5303q14.3555 13.5312 17.9854 37.6221l28.3818 178.209h16.501l-28.3818 -178.209q-2.96973 -19.8008 -13.2002 -34.6514t-25.7412 -23.1016q-15.5117 -8.25 -34.6523 -8.25zM437.682 245l38.2822 240.912h16.501l-35.9727 -225.731h117.156
l-2.30957 -15.1807h-133.657z" />
    <glyph glyph-name="nullcontrol" 
d="M17.7812 245l38.2822 240.912h22.1104l53.4629 -222.761q0.660156 6.59961 1.65039 14.5205q0.990234 7.91992 1.81543 14.5205t1.1543 8.91016l29.3721 184.81h15.8408l-38.2822 -240.912h-22.4414l-52.4727 222.762q-0.330078 -4.62012 -1.81445 -15.0156
q-1.48535 -10.3955 -3.46582 -22.9365l-29.3711 -184.81h-15.8408zM279.154 241.7q-29.041 0 -43.3975 17.9854q-14.3555 17.9863 -9.73535 48.0176l28.3818 178.209h16.501l-28.3818 -178.209q-3.62988 -24.0908 6.76562 -37.6221q10.3955 -13.5303 32.5068 -13.5303
q22.1104 0 36.4668 13.5303q14.3555 13.5312 17.9854 37.6221l28.3818 178.209h16.501l-28.3818 -178.209q-2.96973 -19.8008 -13.2002 -34.6514t-25.7412 -23.1016q-15.5117 -8.25 -34.6523 -8.25zM437.682 245l38.2822 240.912h16.501l-35.9727 -225.731h117.156
l-2.30957 -15.1807h-133.657z" />
    <glyph glyph-name="startOfHeadingcontrol" unicode="&#x2401;" 
d="M81.4746 241.7q-33.332 0 -50.1631 17.4902q-16.8311 17.4912 -12.21 46.8623h16.5q-3.2998 -22.4404 9.90137 -35.9717q13.2002 -13.5303 38.6113 -13.5303q24.752 0 40.7578 12.375q16.0059 12.376 19.3057 34.4873q2.96973 20.1309 -5.28027 33.9912
q-8.25098 13.8613 -26.7314 19.4717l-26.7314 8.25q-22.4414 6.93066 -33.002 24.0918q-10.5605 17.1602 -6.92969 40.2617q4.29004 27.3916 24.751 43.5625t50.8223 16.1709q30.3623 0 45.3779 -16.9961t10.3955 -46.3672h-16.501q3.62988 22.1113 -7.9209 35.3115
q-11.5498 13.2012 -33.9912 13.2012q-23.1016 0 -38.2822 -11.5508t-18.1504 -32.0117q-2.64062 -18.4814 5.2793 -32.0117q7.9209 -13.5312 24.4219 -18.8115l26.7314 -8.25q23.4307 -7.26074 34.8164 -25.7412q11.3857 -18.4814 7.75586 -41.582
q-4.62012 -28.7119 -26.0713 -45.708q-21.4512 -16.9951 -53.4629 -16.9951zM278.824 241.7q-29.041 0 -43.7275 17.9854q-14.6855 17.9863 -10.0654 48.0176l18.4814 115.506q3.2998 20.1309 13.5303 34.8174q10.2305 14.6855 25.9062 22.9355
q15.6758 8.25098 35.1475 8.25098q29.3711 0 44.0566 -17.9863q14.6865 -17.9854 10.0654 -48.0176l-18.4805 -115.506q-4.62012 -30.0312 -25.0811 -48.0176q-20.4609 -17.9854 -49.833 -17.9854zM281.135 256.221q22.7705 0 37.457 13.5303
q14.6855 13.5312 18.6455 37.9521l18.4814 115.506q3.62988 24.4219 -6.93066 37.9521t-33.002 13.5303t-37.292 -13.5303t-18.4805 -37.9521l-18.4814 -115.506q-3.95996 -24.4209 6.43555 -37.9521q10.3955 -13.5303 33.167 -13.5303zM427.781 245l38.2822 240.912h16.501
l-17.1611 -108.245h92.4043l17.1611 108.245h16.501l-38.2822 -240.912h-16.501l18.4814 117.486h-92.4053l-18.4805 -117.486h-16.501z" />
    <glyph glyph-name="startOfHeadingcontrol" 
d="M81.4746 241.7q-33.332 0 -50.1631 17.4902q-16.8311 17.4912 -12.21 46.8623h16.5q-3.2998 -22.4404 9.90137 -35.9717q13.2002 -13.5303 38.6113 -13.5303q24.752 0 40.7578 12.375q16.0059 12.376 19.3057 34.4873q2.96973 20.1309 -5.28027 33.9912
q-8.25098 13.8613 -26.7314 19.4717l-26.7314 8.25q-22.4414 6.93066 -33.002 24.0918q-10.5605 17.1602 -6.92969 40.2617q4.29004 27.3916 24.751 43.5625t50.8223 16.1709q30.3623 0 45.3779 -16.9961t10.3955 -46.3672h-16.501q3.62988 22.1113 -7.9209 35.3115
q-11.5498 13.2012 -33.9912 13.2012q-23.1016 0 -38.2822 -11.5508t-18.1504 -32.0117q-2.64062 -18.4814 5.2793 -32.0117q7.9209 -13.5312 24.4219 -18.8115l26.7314 -8.25q23.4307 -7.26074 34.8164 -25.7412q11.3857 -18.4814 7.75586 -41.582
q-4.62012 -28.7119 -26.0713 -45.708q-21.4512 -16.9951 -53.4629 -16.9951zM278.824 241.7q-29.041 0 -43.7275 17.9854q-14.6855 17.9863 -10.0654 48.0176l18.4814 115.506q3.2998 20.1309 13.5303 34.8174q10.2305 14.6855 25.9062 22.9355
q15.6758 8.25098 35.1475 8.25098q29.3711 0 44.0566 -17.9863q14.6865 -17.9854 10.0654 -48.0176l-18.4805 -115.506q-4.62012 -30.0312 -25.0811 -48.0176q-20.4609 -17.9854 -49.833 -17.9854zM281.135 256.221q22.7705 0 37.457 13.5303
q14.6855 13.5312 18.6455 37.9521l18.4814 115.506q3.62988 24.4219 -6.93066 37.9521t-33.002 13.5303t-37.292 -13.5303t-18.4805 -37.9521l-18.4814 -115.506q-3.95996 -24.4209 6.43555 -37.9521q10.3955 -13.5303 33.167 -13.5303zM427.781 245l38.2822 240.912h16.501
l-17.1611 -108.245h92.4043l17.1611 108.245h16.501l-38.2822 -240.912h-16.501l18.4814 117.486h-92.4053l-18.4805 -117.486h-16.501z" />
    <glyph glyph-name="startOfTextcontrol" unicode="&#x2402;" 
d="M81.4746 241.7q-33.332 0 -50.1631 17.4902q-16.8311 17.4912 -12.21 46.8623h16.5q-3.2998 -22.4404 9.90137 -35.9717q13.2002 -13.5303 38.6113 -13.5303q24.752 0 40.7578 12.375q16.0059 12.376 19.3057 34.4873q2.96973 20.1309 -5.28027 33.9912
q-8.25098 13.8613 -26.7314 19.4717l-26.7314 8.25q-22.4414 6.93066 -33.002 24.0918q-10.5605 17.1602 -6.92969 40.2617q4.29004 27.3916 24.751 43.5625t50.8223 16.1709q30.3623 0 45.3779 -16.9961t10.3955 -46.3672h-16.501q3.62988 22.1113 -7.9209 35.3115
q-11.5498 13.2012 -33.9912 13.2012q-23.1016 0 -38.2822 -11.5508t-18.1504 -32.0117q-2.64062 -18.4814 5.2793 -32.0117q7.9209 -13.5312 24.4219 -18.8115l26.7314 -8.25q23.4307 -7.26074 34.8164 -25.7412q11.3857 -18.4814 7.75586 -41.582
q-4.62012 -28.7119 -26.0713 -45.708q-21.4512 -16.9951 -53.4629 -16.9951zM271.564 245l35.6416 225.731h-71.2842l2.64062 15.1807h158.408l-2.64062 -15.1807h-70.623l-35.6426 -225.731h-16.5zM408.97 245l91.7451 125.736l-48.5127 115.176h17.8213l28.3809 -73.2637
q2.31055 -5.61035 6.43555 -14.6855t7.0957 -15.6758q4.62012 6.60059 11.3857 15.6758q6.76465 9.0752 10.7256 14.6855l52.8027 73.2637h18.4805l-85.1445 -115.176l51.8135 -125.736h-17.8213l-31.6816 83.1641q-1.98047 5.28027 -6.27051 14.3564
q-4.29004 9.0752 -6.93066 16.0049q-5.28027 -6.92969 -11.8799 -16.0049q-6.60059 -9.07617 -10.2305 -14.3564l-59.4033 -83.1641h-18.8115z" />
    <glyph glyph-name="startOfTextcontrol" 
d="M81.4746 241.7q-33.332 0 -50.1631 17.4902q-16.8311 17.4912 -12.21 46.8623h16.5q-3.2998 -22.4404 9.90137 -35.9717q13.2002 -13.5303 38.6113 -13.5303q24.752 0 40.7578 12.375q16.0059 12.376 19.3057 34.4873q2.96973 20.1309 -5.28027 33.9912
q-8.25098 13.8613 -26.7314 19.4717l-26.7314 8.25q-22.4414 6.93066 -33.002 24.0918q-10.5605 17.1602 -6.92969 40.2617q4.29004 27.3916 24.751 43.5625t50.8223 16.1709q30.3623 0 45.3779 -16.9961t10.3955 -46.3672h-16.501q3.62988 22.1113 -7.9209 35.3115
q-11.5498 13.2012 -33.9912 13.2012q-23.1016 0 -38.2822 -11.5508t-18.1504 -32.0117q-2.64062 -18.4814 5.2793 -32.0117q7.9209 -13.5312 24.4219 -18.8115l26.7314 -8.25q23.4307 -7.26074 34.8164 -25.7412q11.3857 -18.4814 7.75586 -41.582
q-4.62012 -28.7119 -26.0713 -45.708q-21.4512 -16.9951 -53.4629 -16.9951zM271.564 245l35.6416 225.731h-71.2842l2.64062 15.1807h158.408l-2.64062 -15.1807h-70.623l-35.6426 -225.731h-16.5zM408.97 245l91.7451 125.736l-48.5127 115.176h17.8213l28.3809 -73.2637
q2.31055 -5.61035 6.43555 -14.6855t7.0957 -15.6758q4.62012 6.60059 11.3857 15.6758q6.76465 9.0752 10.7256 14.6855l52.8027 73.2637h18.4805l-85.1445 -115.176l51.8135 -125.736h-17.8213l-31.6816 83.1641q-1.98047 5.28027 -6.27051 14.3564
q-4.29004 9.0752 -6.93066 16.0049q-5.28027 -6.92969 -11.8799 -16.0049q-6.60059 -9.07617 -10.2305 -14.3564l-59.4033 -83.1641h-18.8115z" />
    <glyph glyph-name="endOfTextcontrol" unicode="&#x2403;" 
d="M21.0811 245l38.2822 240.912h128.707l-2.64062 -15.1807h-112.206l-14.5205 -92.7344h100.655l-2.30957 -14.8506h-100.655l-16.501 -102.966h112.205l-2.30957 -15.1807h-128.707zM271.564 245l35.6416 225.731h-71.2842l2.64062 15.1807h158.408l-2.64062 -15.1807
h-70.623l-35.6426 -225.731h-16.5zM408.97 245l91.7451 125.736l-48.5127 115.176h17.8213l28.3809 -73.2637q2.31055 -5.61035 6.43555 -14.6855t7.0957 -15.6758q4.62012 6.60059 11.3857 15.6758q6.76465 9.0752 10.7256 14.6855l52.8027 73.2637h18.4805
l-85.1445 -115.176l51.8135 -125.736h-17.8213l-31.6816 83.1641q-1.98047 5.28027 -6.27051 14.3564q-4.29004 9.0752 -6.93066 16.0049q-5.28027 -6.92969 -11.8799 -16.0049q-6.60059 -9.07617 -10.2305 -14.3564l-59.4033 -83.1641h-18.8115z" />
    <glyph glyph-name="endOfTextcontrol" 
d="M21.0811 245l38.2822 240.912h128.707l-2.64062 -15.1807h-112.206l-14.5205 -92.7344h100.655l-2.30957 -14.8506h-100.655l-16.501 -102.966h112.205l-2.30957 -15.1807h-128.707zM271.564 245l35.6416 225.731h-71.2842l2.64062 15.1807h158.408l-2.64062 -15.1807
h-70.623l-35.6426 -225.731h-16.5zM408.97 245l91.7451 125.736l-48.5127 115.176h17.8213l28.3809 -73.2637q2.31055 -5.61035 6.43555 -14.6855t7.0957 -15.6758q4.62012 6.60059 11.3857 15.6758q6.76465 9.0752 10.7256 14.6855l52.8027 73.2637h18.4805
l-85.1445 -115.176l51.8135 -125.736h-17.8213l-31.6816 83.1641q-1.98047 5.28027 -6.27051 14.3564q-4.29004 9.0752 -6.93066 16.0049q-5.28027 -6.92969 -11.8799 -16.0049q-6.60059 -9.07617 -10.2305 -14.3564l-59.4033 -83.1641h-18.8115z" />
    <glyph glyph-name="endOfTransmissioncontrol" unicode="&#x2404;" 
d="M21.0811 245l38.2822 240.912h128.707l-2.64062 -15.1807h-112.206l-14.5205 -92.7344h100.655l-2.30957 -14.8506h-100.655l-16.501 -102.966h112.205l-2.30957 -15.1807h-128.707zM278.824 241.7q-29.041 0 -43.7275 17.9854q-14.6855 17.9863 -10.0654 48.0176
l18.4814 115.506q3.2998 20.1309 13.5303 34.8174q10.2305 14.6855 25.9062 22.9355q15.6758 8.25098 35.1475 8.25098q29.3711 0 44.0566 -17.9863q14.6865 -17.9854 10.0654 -48.0176l-18.4805 -115.506q-4.62012 -30.0312 -25.0811 -48.0176
q-20.4609 -17.9854 -49.833 -17.9854zM281.135 256.221q22.7705 0 37.457 13.5303q14.6855 13.5312 18.6455 37.9521l18.4814 115.506q3.62988 24.4219 -6.93066 37.9521t-33.002 13.5303t-37.292 -13.5303t-18.4805 -37.9521l-18.4814 -115.506
q-3.95996 -24.4209 6.43555 -37.9521q10.3955 -13.5303 33.167 -13.5303zM482.564 245l35.6416 225.731h-71.2842l2.64062 15.1807h158.408l-2.64062 -15.1807h-70.623l-35.6426 -225.731h-16.5z" />
    <glyph glyph-name="endOfTransmissioncontrol" 
d="M21.0811 245l38.2822 240.912h128.707l-2.64062 -15.1807h-112.206l-14.5205 -92.7344h100.655l-2.30957 -14.8506h-100.655l-16.501 -102.966h112.205l-2.30957 -15.1807h-128.707zM278.824 241.7q-29.041 0 -43.7275 17.9854q-14.6855 17.9863 -10.0654 48.0176
l18.4814 115.506q3.2998 20.1309 13.5303 34.8174q10.2305 14.6855 25.9062 22.9355q15.6758 8.25098 35.1475 8.25098q29.3711 0 44.0566 -17.9863q14.6865 -17.9854 10.0654 -48.0176l-18.4805 -115.506q-4.62012 -30.0312 -25.0811 -48.0176
q-20.4609 -17.9854 -49.833 -17.9854zM281.135 256.221q22.7705 0 37.457 13.5303q14.6855 13.5312 18.6455 37.9521l18.4814 115.506q3.62988 24.4219 -6.93066 37.9521t-33.002 13.5303t-37.292 -13.5303t-18.4805 -37.9521l-18.4814 -115.506
q-3.95996 -24.4209 6.43555 -37.9521q10.3955 -13.5303 33.167 -13.5303zM482.564 245l35.6416 225.731h-71.2842l2.64062 15.1807h158.408l-2.64062 -15.1807h-70.623l-35.6426 -225.731h-16.5z" />
    <glyph glyph-name="enquirycontrol" unicode="&#x2405;" 
d="M21.0811 245l38.2822 240.912h128.707l-2.64062 -15.1807h-112.206l-14.5205 -92.7344h100.655l-2.30957 -14.8506h-100.655l-16.501 -102.966h112.205l-2.30957 -15.1807h-128.707zM216.781 245l38.2822 240.912h22.1104l53.4629 -222.761
q0.660156 6.59961 1.65039 14.5205q0.990234 7.91992 1.81543 14.5205t1.1543 8.91016l29.3721 184.81h15.8408l-38.2822 -240.912h-22.4414l-52.4727 222.762q-0.330078 -4.62012 -1.81445 -15.0156q-1.48535 -10.3955 -3.46582 -22.9365l-29.3711 -184.81h-15.8408z
M532.066 185.597l-25.7412 57.4229q-2.96973 -0.330078 -7.42578 -0.824219q-4.45508 -0.495117 -8.74512 -0.495117q-29.3711 0 -44.0576 17.9854q-14.6855 17.9863 -10.0654 48.0176l18.4814 115.506q4.9502 30.3613 25.0811 48.1826t49.833 17.8213
q19.8008 0 32.8359 -8.58105q13.0361 -8.58008 18.6465 -23.4307t2.30957 -33.9922l-18.4805 -115.506q-3.2998 -21.1211 -14.6855 -36.7969t-28.5469 -22.9365l27.3916 -62.373h-16.8311zM492.795 256.551q22.4404 0 36.9619 13.5303q14.5205 13.5312 18.4805 37.6221
l18.4814 115.506q3.95996 24.0918 -6.60059 37.6221q-10.5605 13.5312 -33.002 13.5312q-22.7715 0 -37.457 -13.3662q-14.6855 -13.3652 -18.6455 -37.7871l-18.4814 -115.506q-3.95996 -24.0908 6.76562 -37.6221q10.7256 -13.5303 33.4971 -13.5303z" />
    <glyph glyph-name="enquirycontrol" 
d="M21.0811 245l38.2822 240.912h128.707l-2.64062 -15.1807h-112.206l-14.5205 -92.7344h100.655l-2.30957 -14.8506h-100.655l-16.501 -102.966h112.205l-2.30957 -15.1807h-128.707zM216.781 245l38.2822 240.912h22.1104l53.4629 -222.761
q0.660156 6.59961 1.65039 14.5205q0.990234 7.91992 1.81543 14.5205t1.1543 8.91016l29.3721 184.81h15.8408l-38.2822 -240.912h-22.4414l-52.4727 222.762q-0.330078 -4.62012 -1.81445 -15.0156q-1.48535 -10.3955 -3.46582 -22.9365l-29.3711 -184.81h-15.8408z
M532.066 185.597l-25.7412 57.4229q-2.96973 -0.330078 -7.42578 -0.824219q-4.45508 -0.495117 -8.74512 -0.495117q-29.3711 0 -44.0576 17.9854q-14.6855 17.9863 -10.0654 48.0176l18.4814 115.506q4.9502 30.3613 25.0811 48.1826t49.833 17.8213
q19.8008 0 32.8359 -8.58105q13.0361 -8.58008 18.6465 -23.4307t2.30957 -33.9922l-18.4805 -115.506q-3.2998 -21.1211 -14.6855 -36.7969t-28.5469 -22.9365l27.3916 -62.373h-16.8311zM492.795 256.551q22.4404 0 36.9619 13.5303q14.5205 13.5312 18.4805 37.6221
l18.4814 115.506q3.95996 24.0918 -6.60059 37.6221q-10.5605 13.5312 -33.002 13.5312q-22.7715 0 -37.457 -13.3662q-14.6855 -13.3652 -18.6455 -37.7871l-18.4814 -115.506q-3.95996 -24.0908 6.76562 -37.6221q10.7256 -13.5303 33.4971 -13.5303z" />
    <glyph glyph-name="acknowledgecontrol" unicode="&#x2406;" 
d="M3.91992 245l104.616 240.912h20.4609l28.0518 -240.912h-16.501l-7.59082 69.3037h-82.5039l-29.3721 -69.3037h-17.1611zM56.7227 329.154h74.584l-10.5605 97.3555q-1.97949 17.8203 -2.63965 29.8662t-0.990234 15.6758q-1.32031 -3.62988 -6.10547 -15.6758
t-12.375 -29.8662zM280.805 241.7q-30.0322 0 -45.2129 17.9854q-15.1807 17.9863 -10.5605 48.0176l18.4814 115.506q4.62012 30.3613 25.5762 48.1826t50.9873 17.8213q30.6914 0 46.0381 -18.8115q15.3457 -18.8105 10.3955 -50.4922h-16.501
q3.95996 25.4111 -7.42578 39.9316q-11.3857 14.5215 -34.8164 14.5215q-23.1016 0 -38.6123 -13.6963q-15.5107 -13.6953 -19.1406 -37.457l-18.4814 -115.506q-3.62988 -23.7607 7.59082 -37.457q11.2207 -13.6953 34.3213 -13.6953q23.7617 0 39.6025 14.6855
t19.8008 39.7676h16.501q-3.2998 -21.1211 -14.1904 -36.6328q-10.8906 -15.5107 -27.3916 -24.0908t-36.9619 -8.58008zM427.781 245l38.2822 240.912h16.501l-17.1611 -108.575h50.1621l69.9639 108.575h19.1406l-74.9131 -116.496l39.9316 -124.416h-18.4814
l-37.291 117.486h-51.1533l-18.4805 -117.486h-16.501z" />
    <glyph glyph-name="acknowledgecontrol" 
d="M3.91992 245l104.616 240.912h20.4609l28.0518 -240.912h-16.501l-7.59082 69.3037h-82.5039l-29.3721 -69.3037h-17.1611zM56.7227 329.154h74.584l-10.5605 97.3555q-1.97949 17.8203 -2.63965 29.8662t-0.990234 15.6758q-1.32031 -3.62988 -6.10547 -15.6758
t-12.375 -29.8662zM280.805 241.7q-30.0322 0 -45.2129 17.9854q-15.1807 17.9863 -10.5605 48.0176l18.4814 115.506q4.62012 30.3613 25.5762 48.1826t50.9873 17.8213q30.6914 0 46.0381 -18.8115q15.3457 -18.8105 10.3955 -50.4922h-16.501
q3.95996 25.4111 -7.42578 39.9316q-11.3857 14.5215 -34.8164 14.5215q-23.1016 0 -38.6123 -13.6963q-15.5107 -13.6953 -19.1406 -37.457l-18.4814 -115.506q-3.62988 -23.7607 7.59082 -37.457q11.2207 -13.6953 34.3213 -13.6953q23.7617 0 39.6025 14.6855
t19.8008 39.7676h16.501q-3.2998 -21.1211 -14.1904 -36.6328q-10.8906 -15.5107 -27.3916 -24.0908t-36.9619 -8.58008zM427.781 245l38.2822 240.912h16.501l-17.1611 -108.575h50.1621l69.9639 108.575h19.1406l-74.9131 -116.496l39.9316 -124.416h-18.4814
l-37.291 117.486h-51.1533l-18.4805 -117.486h-16.501z" />
    <glyph glyph-name="bellcontrol" unicode="&#x2407;" 
d="M17.7812 245l38.2822 240.912h62.043q30.0312 0 45.377 -16.8301q15.3457 -16.8311 10.7256 -45.2129q-3.2998 -21.4512 -15.5107 -35.9717q-12.21 -14.5205 -30.3613 -19.1406q19.4707 -3.96094 28.5469 -19.3066q9.0752 -15.3457 5.44434 -38.4463
q-4.9502 -30.0322 -26.8955 -48.0176q-21.9463 -17.9863 -54.6182 -17.9863h-63.0332zM55.0732 376.347h45.542q23.4316 0 38.6123 12.541q15.1807 12.54 18.4805 34.6514q3.63086 22.1113 -7.75488 34.6523q-11.3857 12.54 -34.4873 12.54h-45.542zM36.5918 260.181
h46.5332q25.4111 0 42.0771 13.5312q16.665 13.5303 20.626 36.9619q3.62988 23.4307 -8.74609 37.127q-12.375 13.6953 -37.7871 13.6953h-46.5322zM226.081 245l38.2822 240.912h128.707l-2.64062 -15.1807h-112.206l-14.5205 -92.7344h100.655l-2.30957 -14.8506
h-100.655l-16.501 -102.966h112.205l-2.30957 -15.1807h-128.707zM437.682 245l38.2822 240.912h16.501l-35.9727 -225.731h117.156l-2.30957 -15.1807h-133.657z" />
    <glyph glyph-name="bellcontrol" 
d="M17.7812 245l38.2822 240.912h62.043q30.0312 0 45.377 -16.8301q15.3457 -16.8311 10.7256 -45.2129q-3.2998 -21.4512 -15.5107 -35.9717q-12.21 -14.5205 -30.3613 -19.1406q19.4707 -3.96094 28.5469 -19.3066q9.0752 -15.3457 5.44434 -38.4463
q-4.9502 -30.0322 -26.8955 -48.0176q-21.9463 -17.9863 -54.6182 -17.9863h-63.0332zM55.0732 376.347h45.542q23.4316 0 38.6123 12.541q15.1807 12.54 18.4805 34.6514q3.63086 22.1113 -7.75488 34.6523q-11.3857 12.54 -34.4873 12.54h-45.542zM36.5918 260.181
h46.5332q25.4111 0 42.0771 13.5312q16.665 13.5303 20.626 36.9619q3.62988 23.4307 -8.74609 37.127q-12.375 13.6953 -37.7871 13.6953h-46.5322zM226.081 245l38.2822 240.912h128.707l-2.64062 -15.1807h-112.206l-14.5205 -92.7344h100.655l-2.30957 -14.8506
h-100.655l-16.501 -102.966h112.205l-2.30957 -15.1807h-128.707zM437.682 245l38.2822 240.912h16.501l-35.9727 -225.731h117.156l-2.30957 -15.1807h-133.657z" />
    <glyph glyph-name="backspacecontrol" unicode="&#x2408;" 
d="M120.781 245l38.2822 240.912h62.043q30.0312 0 45.377 -16.8301q15.3457 -16.8311 10.7256 -45.2129q-3.2998 -21.4512 -15.5107 -35.9717q-12.21 -14.5205 -30.3613 -19.1406q19.4707 -3.96094 28.5469 -19.3066q9.0752 -15.3457 5.44434 -38.4463
q-4.9502 -30.0322 -26.8955 -48.0176q-21.9463 -17.9863 -54.6182 -17.9863h-63.0332zM158.073 376.347h45.542q23.4316 0 38.6123 12.541q15.1807 12.54 18.4805 34.6514q3.63086 22.1113 -7.75488 34.6523q-11.3857 12.54 -34.4873 12.54h-45.542zM139.592 260.181
h46.5332q25.4111 0 42.0771 13.5312q16.665 13.5303 20.626 36.9619q3.62988 23.4307 -8.74609 37.127q-12.375 13.6953 -37.7871 13.6953h-46.5322zM387.475 241.7q-33.332 0 -50.1631 17.4902q-16.8311 17.4912 -12.21 46.8623h16.5q-3.2998 -22.4404 9.90137 -35.9717
q13.2002 -13.5303 38.6113 -13.5303q24.752 0 40.7578 12.375q16.0059 12.376 19.3057 34.4873q2.96973 20.1309 -5.28027 33.9912q-8.25098 13.8613 -26.7314 19.4717l-26.7314 8.25q-22.4414 6.93066 -33.002 24.0918q-10.5605 17.1602 -6.92969 40.2617
q4.29004 27.3916 24.751 43.5625t50.8223 16.1709q30.3623 0 45.3779 -16.9961t10.3955 -46.3672h-16.501q3.62988 22.1113 -7.9209 35.3115q-11.5498 13.2012 -33.9912 13.2012q-23.1016 0 -38.2822 -11.5508t-18.1504 -32.0117q-2.64062 -18.4814 5.2793 -32.0117
q7.9209 -13.5312 24.4219 -18.8115l26.7314 -8.25q23.4307 -7.26074 34.8164 -25.7412q11.3857 -18.4814 7.75586 -41.582q-4.62012 -28.7119 -26.0713 -45.708q-21.4512 -16.9951 -53.4629 -16.9951z" />
    <glyph glyph-name="backspacecontrol" 
d="M120.781 245l38.2822 240.912h62.043q30.0312 0 45.377 -16.8301q15.3457 -16.8311 10.7256 -45.2129q-3.2998 -21.4512 -15.5107 -35.9717q-12.21 -14.5205 -30.3613 -19.1406q19.4707 -3.96094 28.5469 -19.3066q9.0752 -15.3457 5.44434 -38.4463
q-4.9502 -30.0322 -26.8955 -48.0176q-21.9463 -17.9863 -54.6182 -17.9863h-63.0332zM158.073 376.347h45.542q23.4316 0 38.6123 12.541q15.1807 12.54 18.4805 34.6514q3.63086 22.1113 -7.75488 34.6523q-11.3857 12.54 -34.4873 12.54h-45.542zM139.592 260.181
h46.5332q25.4111 0 42.0771 13.5312q16.665 13.5303 20.626 36.9619q3.62988 23.4307 -8.74609 37.127q-12.375 13.6953 -37.7871 13.6953h-46.5322zM387.475 241.7q-33.332 0 -50.1631 17.4902q-16.8311 17.4912 -12.21 46.8623h16.5q-3.2998 -22.4404 9.90137 -35.9717
q13.2002 -13.5303 38.6113 -13.5303q24.752 0 40.7578 12.375q16.0059 12.376 19.3057 34.4873q2.96973 20.1309 -5.28027 33.9912q-8.25098 13.8613 -26.7314 19.4717l-26.7314 8.25q-22.4414 6.93066 -33.002 24.0918q-10.5605 17.1602 -6.92969 40.2617
q4.29004 27.3916 24.751 43.5625t50.8223 16.1709q30.3623 0 45.3779 -16.9961t10.3955 -46.3672h-16.501q3.62988 22.1113 -7.9209 35.3115q-11.5498 13.2012 -33.9912 13.2012q-23.1016 0 -38.2822 -11.5508t-18.1504 -32.0117q-2.64062 -18.4814 5.2793 -32.0117
q7.9209 -13.5312 24.4219 -18.8115l26.7314 -8.25q23.4307 -7.26074 34.8164 -25.7412q11.3857 -18.4814 7.75586 -41.582q-4.62012 -28.7119 -26.0713 -45.708q-21.4512 -16.9951 -53.4629 -16.9951z" />
    <glyph glyph-name="verticalTabulationcontrol" unicode="&#x240b;" 
d="M172.924 245l-27.7217 240.912h16.501l20.4609 -181.509q1.65039 -14.1914 2.31055 -26.8965q0.660156 -12.7061 0.990234 -19.3057q2.30957 6.59961 6.92969 19.3057q4.62012 12.7051 10.8906 26.8965l77.8848 181.509h17.1602l-104.285 -240.912h-21.1211zM378.564 245
l35.6416 225.731h-71.2842l2.64062 15.1807h158.408l-2.64062 -15.1807h-70.623l-35.6426 -225.731h-16.5z" />
    <glyph glyph-name="verticalTabulationcontrol" 
d="M172.924 245l-27.7217 240.912h16.501l20.4609 -181.509q1.65039 -14.1914 2.31055 -26.8965q0.660156 -12.7061 0.990234 -19.3057q2.30957 6.59961 6.92969 19.3057q4.62012 12.7051 10.8906 26.8965l77.8848 181.509h17.1602l-104.285 -240.912h-21.1211zM378.564 245
l35.6416 225.731h-71.2842l2.64062 15.1807h158.408l-2.64062 -15.1807h-70.623l-35.6426 -225.731h-16.5z" />
    <glyph glyph-name="formFeedcontrol" unicode="&#x240c;" 
d="M122.432 245l38.2812 240.912h135.308l-2.64062 -15.1807h-118.806l-15.1807 -96.3643h107.255l-2.30957 -15.1816h-107.256l-18.1514 -114.186h-16.5zM325.432 245l38.2812 240.912h135.308l-2.64062 -15.1807h-118.806l-15.1807 -96.3643h107.255l-2.30957 -15.1816
h-107.256l-18.1514 -114.186h-16.5z" />
    <glyph glyph-name="formFeedcontrol" 
d="M122.432 245l38.2812 240.912h135.308l-2.64062 -15.1807h-118.806l-15.1807 -96.3643h107.255l-2.30957 -15.1816h-107.256l-18.1514 -114.186h-16.5zM325.432 245l38.2812 240.912h135.308l-2.64062 -15.1807h-118.806l-15.1807 -96.3643h107.255l-2.30957 -15.1816
h-107.256l-18.1514 -114.186h-16.5z" />
    <glyph glyph-name="CR" unicode="&#xd;" 
 />
    <glyph glyph-name="shiftOutcontrol" unicode="&#x240e;" 
d="M184.475 241.7q-33.332 0 -50.1631 17.4902q-16.8311 17.4912 -12.21 46.8623h16.5q-3.2998 -22.4404 9.90137 -35.9717q13.2002 -13.5303 38.6113 -13.5303q24.752 0 40.7578 12.375q16.0059 12.376 19.3057 34.4873q2.96973 20.1309 -5.28027 33.9912
q-8.25098 13.8613 -26.7314 19.4717l-26.7314 8.25q-22.4414 6.93066 -33.002 24.0918q-10.5605 17.1602 -6.92969 40.2617q4.29004 27.3916 24.751 43.5625t50.8223 16.1709q30.3623 0 45.3779 -16.9961t10.3955 -46.3672h-16.501q3.62988 22.1113 -7.9209 35.3115
q-11.5498 13.2012 -33.9912 13.2012q-23.1016 0 -38.2822 -11.5508t-18.1504 -32.0117q-2.64062 -18.4814 5.2793 -32.0117q7.9209 -13.5312 24.4219 -18.8115l26.7314 -8.25q23.4307 -7.26074 34.8164 -25.7412q11.3857 -18.4814 7.75586 -41.582
q-4.62012 -28.7119 -26.0713 -45.708q-21.4512 -16.9951 -53.4629 -16.9951zM385.824 241.7q-29.041 0 -43.7275 17.9854q-14.6855 17.9863 -10.0654 48.0176l18.4814 115.506q3.2998 20.1309 13.5303 34.8174q10.2305 14.6855 25.9062 22.9355
q15.6758 8.25098 35.1475 8.25098q29.3711 0 44.0566 -17.9863q14.6865 -17.9854 10.0654 -48.0176l-18.4805 -115.506q-4.62012 -30.0312 -25.0811 -48.0176q-20.4609 -17.9854 -49.833 -17.9854zM388.135 256.221q22.7705 0 37.457 13.5303
q14.6855 13.5312 18.6455 37.9521l18.4814 115.506q3.62988 24.4219 -6.93066 37.9521t-33.002 13.5303t-37.292 -13.5303t-18.4805 -37.9521l-18.4814 -115.506q-3.95996 -24.4209 6.43555 -37.9521q10.3955 -13.5303 33.167 -13.5303z" />
    <glyph glyph-name="shiftOutcontrol" 
d="M184.475 241.7q-33.332 0 -50.1631 17.4902q-16.8311 17.4912 -12.21 46.8623h16.5q-3.2998 -22.4404 9.90137 -35.9717q13.2002 -13.5303 38.6113 -13.5303q24.752 0 40.7578 12.375q16.0059 12.376 19.3057 34.4873q2.96973 20.1309 -5.28027 33.9912
q-8.25098 13.8613 -26.7314 19.4717l-26.7314 8.25q-22.4414 6.93066 -33.002 24.0918q-10.5605 17.1602 -6.92969 40.2617q4.29004 27.3916 24.751 43.5625t50.8223 16.1709q30.3623 0 45.3779 -16.9961t10.3955 -46.3672h-16.501q3.62988 22.1113 -7.9209 35.3115
q-11.5498 13.2012 -33.9912 13.2012q-23.1016 0 -38.2822 -11.5508t-18.1504 -32.0117q-2.64062 -18.4814 5.2793 -32.0117q7.9209 -13.5312 24.4219 -18.8115l26.7314 -8.25q23.4307 -7.26074 34.8164 -25.7412q11.3857 -18.4814 7.75586 -41.582
q-4.62012 -28.7119 -26.0713 -45.708q-21.4512 -16.9951 -53.4629 -16.9951zM385.824 241.7q-29.041 0 -43.7275 17.9854q-14.6855 17.9863 -10.0654 48.0176l18.4814 115.506q3.2998 20.1309 13.5303 34.8174q10.2305 14.6855 25.9062 22.9355
q15.6758 8.25098 35.1475 8.25098q29.3711 0 44.0566 -17.9863q14.6865 -17.9854 10.0654 -48.0176l-18.4805 -115.506q-4.62012 -30.0312 -25.0811 -48.0176q-20.4609 -17.9854 -49.833 -17.9854zM388.135 256.221q22.7705 0 37.457 13.5303
q14.6855 13.5312 18.6455 37.9521l18.4814 115.506q3.62988 24.4219 -6.93066 37.9521t-33.002 13.5303t-37.292 -13.5303t-18.4805 -37.9521l-18.4814 -115.506q-3.95996 -24.4209 6.43555 -37.9521q10.3955 -13.5303 33.167 -13.5303z" />
    <glyph glyph-name="shiftIncontrol" unicode="&#x240f;" 
d="M184.475 241.7q-33.332 0 -50.1631 17.4902q-16.8311 17.4912 -12.21 46.8623h16.5q-3.2998 -22.4404 9.90137 -35.9717q13.2002 -13.5303 38.6113 -13.5303q24.752 0 40.7578 12.375q16.0059 12.376 19.3057 34.4873q2.96973 20.1309 -5.28027 33.9912
q-8.25098 13.8613 -26.7314 19.4717l-26.7314 8.25q-22.4414 6.93066 -33.002 24.0918q-10.5605 17.1602 -6.92969 40.2617q4.29004 27.3916 24.751 43.5625t50.8223 16.1709q30.3623 0 45.3779 -16.9961t10.3955 -46.3672h-16.501q3.62988 22.1113 -7.9209 35.3115
q-11.5498 13.2012 -33.9912 13.2012q-23.1016 0 -38.2822 -11.5508t-18.1504 -32.0117q-2.64062 -18.4814 5.2793 -32.0117q7.9209 -13.5312 24.4219 -18.8115l26.7314 -8.25q23.4307 -7.26074 34.8164 -25.7412q11.3857 -18.4814 7.75586 -41.582
q-4.62012 -28.7119 -26.0713 -45.708q-21.4512 -16.9951 -53.4629 -16.9951zM327.081 245l2.31055 15.1807h51.4824l33.332 210.551h-51.4834l2.64062 15.1807h118.807l-2.64062 -15.1807h-50.8223l-33.332 -210.551h50.8223l-2.30957 -15.1807h-118.807z" />
    <glyph glyph-name="shiftIncontrol" 
d="M184.475 241.7q-33.332 0 -50.1631 17.4902q-16.8311 17.4912 -12.21 46.8623h16.5q-3.2998 -22.4404 9.90137 -35.9717q13.2002 -13.5303 38.6113 -13.5303q24.752 0 40.7578 12.375q16.0059 12.376 19.3057 34.4873q2.96973 20.1309 -5.28027 33.9912
q-8.25098 13.8613 -26.7314 19.4717l-26.7314 8.25q-22.4414 6.93066 -33.002 24.0918q-10.5605 17.1602 -6.92969 40.2617q4.29004 27.3916 24.751 43.5625t50.8223 16.1709q30.3623 0 45.3779 -16.9961t10.3955 -46.3672h-16.501q3.62988 22.1113 -7.9209 35.3115
q-11.5498 13.2012 -33.9912 13.2012q-23.1016 0 -38.2822 -11.5508t-18.1504 -32.0117q-2.64062 -18.4814 5.2793 -32.0117q7.9209 -13.5312 24.4219 -18.8115l26.7314 -8.25q23.4307 -7.26074 34.8164 -25.7412q11.3857 -18.4814 7.75586 -41.582
q-4.62012 -28.7119 -26.0713 -45.708q-21.4512 -16.9951 -53.4629 -16.9951zM327.081 245l2.31055 15.1807h51.4824l33.332 210.551h-51.4834l2.64062 15.1807h118.807l-2.64062 -15.1807h-50.8223l-33.332 -210.551h50.8223l-2.30957 -15.1807h-118.807z" />
    <glyph glyph-name="dataLinkEscapecontrol" unicode="&#x2410;" 
d="M17.7812 245l38.2822 240.912h52.8027q22.4404 0 37.6221 -9.0752q15.1807 -9.0752 21.9453 -25.4111q6.76562 -16.3359 3.13574 -38.1172l-15.1807 -95.7051q-3.30078 -21.7812 -15.3457 -38.1172q-12.0459 -16.335 -30.0322 -25.4111
q-17.9854 -9.0752 -40.4268 -9.0752h-52.8027zM36.5918 260.181h36.3018q26.0713 0 44.3877 15.6758t22.6064 41.7471l15.1807 95.7051q3.95996 25.7412 -9.57031 41.582q-13.5312 15.8408 -39.2725 15.8408h-36.3018zM226.682 245l38.2822 240.912h16.501
l-35.9727 -225.731h117.156l-2.30957 -15.1807h-133.657zM431.081 245l38.2822 240.912h128.707l-2.64062 -15.1807h-112.206l-14.5205 -92.7344h100.655l-2.30957 -14.8506h-100.655l-16.501 -102.966h112.205l-2.30957 -15.1807h-128.707z" />
    <glyph glyph-name="dataLinkEscapecontrol" 
d="M17.7812 245l38.2822 240.912h52.8027q22.4404 0 37.6221 -9.0752q15.1807 -9.0752 21.9453 -25.4111q6.76562 -16.3359 3.13574 -38.1172l-15.1807 -95.7051q-3.30078 -21.7812 -15.3457 -38.1172q-12.0459 -16.335 -30.0322 -25.4111
q-17.9854 -9.0752 -40.4268 -9.0752h-52.8027zM36.5918 260.181h36.3018q26.0713 0 44.3877 15.6758t22.6064 41.7471l15.1807 95.7051q3.95996 25.7412 -9.57031 41.582q-13.5312 15.8408 -39.2725 15.8408h-36.3018zM226.682 245l38.2822 240.912h16.501
l-35.9727 -225.731h117.156l-2.30957 -15.1807h-133.657zM431.081 245l38.2822 240.912h128.707l-2.64062 -15.1807h-112.206l-14.5205 -92.7344h100.655l-2.30957 -14.8506h-100.655l-16.501 -102.966h112.205l-2.30957 -15.1807h-128.707z" />
    <glyph glyph-name="deviceControlOnecontrol" unicode="&#x2411;" 
d="M17.7812 245l38.2822 240.912h52.8027q22.4404 0 37.6221 -9.0752q15.1807 -9.0752 21.9453 -25.4111q6.76562 -16.3359 3.13574 -38.1172l-15.1807 -95.7051q-3.30078 -21.7812 -15.3457 -38.1172q-12.0459 -16.335 -30.0322 -25.4111
q-17.9854 -9.0752 -40.4268 -9.0752h-52.8027zM36.5918 260.181h36.3018q26.0713 0 44.3877 15.6758t22.6064 41.7471l15.1807 95.7051q3.95996 25.7412 -9.57031 41.582q-13.5312 15.8408 -39.2725 15.8408h-36.3018zM280.805 241.7q-30.0322 0 -45.2129 17.9854
q-15.1807 17.9863 -10.5605 48.0176l18.4814 115.506q4.62012 30.3613 25.5762 48.1826t50.9873 17.8213q30.6914 0 46.0381 -18.8115q15.3457 -18.8105 10.3955 -50.4922h-16.501q3.95996 25.4111 -7.42578 39.9316q-11.3857 14.5215 -34.8164 14.5215
q-23.1016 0 -38.6123 -13.6963q-15.5107 -13.6953 -19.1406 -37.457l-18.4814 -115.506q-3.62988 -23.7607 7.59082 -37.457q11.2207 -13.6953 34.3213 -13.6953q23.7617 0 39.6025 14.6855t19.8008 39.7676h16.501q-3.2998 -21.1211 -14.1904 -36.6328
q-10.8906 -15.5107 -27.3916 -24.0908t-36.9619 -8.58008zM424.48 245l2.31055 14.8506h68.3135l33.332 211.211l-73.2637 -48.1826l2.96973 18.4814l67.6533 44.5518h21.7812l-35.9717 -226.062h57.0928l-2.30957 -14.8506h-141.908z" />
    <glyph glyph-name="deviceControlOnecontrol" 
d="M17.7812 245l38.2822 240.912h52.8027q22.4404 0 37.6221 -9.0752q15.1807 -9.0752 21.9453 -25.4111q6.76562 -16.3359 3.13574 -38.1172l-15.1807 -95.7051q-3.30078 -21.7812 -15.3457 -38.1172q-12.0459 -16.335 -30.0322 -25.4111
q-17.9854 -9.0752 -40.4268 -9.0752h-52.8027zM36.5918 260.181h36.3018q26.0713 0 44.3877 15.6758t22.6064 41.7471l15.1807 95.7051q3.95996 25.7412 -9.57031 41.582q-13.5312 15.8408 -39.2725 15.8408h-36.3018zM280.805 241.7q-30.0322 0 -45.2129 17.9854
q-15.1807 17.9863 -10.5605 48.0176l18.4814 115.506q4.62012 30.3613 25.5762 48.1826t50.9873 17.8213q30.6914 0 46.0381 -18.8115q15.3457 -18.8105 10.3955 -50.4922h-16.501q3.95996 25.4111 -7.42578 39.9316q-11.3857 14.5215 -34.8164 14.5215
q-23.1016 0 -38.6123 -13.6963q-15.5107 -13.6953 -19.1406 -37.457l-18.4814 -115.506q-3.62988 -23.7607 7.59082 -37.457q11.2207 -13.6953 34.3213 -13.6953q23.7617 0 39.6025 14.6855t19.8008 39.7676h16.501q-3.2998 -21.1211 -14.1904 -36.6328
q-10.8906 -15.5107 -27.3916 -24.0908t-36.9619 -8.58008zM424.48 245l2.31055 14.8506h68.3135l33.332 211.211l-73.2637 -48.1826l2.96973 18.4814l67.6533 44.5518h21.7812l-35.9717 -226.062h57.0928l-2.30957 -14.8506h-141.908z" />
    <glyph glyph-name="deviceControlTwocontrol" unicode="&#x2412;" 
d="M17.7812 245l38.2822 240.912h52.8027q22.4404 0 37.6221 -9.0752q15.1807 -9.0752 21.9453 -25.4111q6.76562 -16.3359 3.13574 -38.1172l-15.1807 -95.7051q-3.30078 -21.7812 -15.3457 -38.1172q-12.0459 -16.335 -30.0322 -25.4111
q-17.9854 -9.0752 -40.4268 -9.0752h-52.8027zM36.5918 260.181h36.3018q26.0713 0 44.3877 15.6758t22.6064 41.7471l15.1807 95.7051q3.95996 25.7412 -9.57031 41.582q-13.5312 15.8408 -39.2725 15.8408h-36.3018zM280.805 241.7q-30.0322 0 -45.2129 17.9854
q-15.1807 17.9863 -10.5605 48.0176l18.4814 115.506q4.62012 30.3613 25.5762 48.1826t50.9873 17.8213q30.6914 0 46.0381 -18.8115q15.3457 -18.8105 10.3955 -50.4922h-16.501q3.95996 25.4111 -7.42578 39.9316q-11.3857 14.5215 -34.8164 14.5215
q-23.1016 0 -38.6123 -13.6963q-15.5107 -13.6953 -19.1406 -37.457l-18.4814 -115.506q-3.62988 -23.7607 7.59082 -37.457q11.2207 -13.6953 34.3213 -13.6953q23.7617 0 39.6025 14.6855t19.8008 39.7676h16.501q-3.2998 -21.1211 -14.1904 -36.6328
q-10.8906 -15.5107 -27.3916 -24.0908t-36.9619 -8.58008zM423.161 245l2.63965 16.501l89.1045 78.874q26.0713 23.1016 39.6025 42.5723q13.5303 19.4707 16.8311 38.9414q3.62988 24.4219 -8.58105 38.6123q-12.21 14.1904 -36.9619 14.1904q-24.751 0 -41.582 -14.3555
t-20.4609 -38.7764h-16.501q3.30078 20.791 14.3555 35.9717q11.0557 15.1807 28.2168 23.4307q17.1611 8.25098 38.2822 8.25098q32.3418 0 48.5127 -17.9863q16.1709 -17.9854 11.2207 -48.3477q-3.30078 -22.1113 -18.6465 -44.7168q-15.3457 -22.6064 -44.0576 -48.0176
l-79.8633 -70.2939h123.426l-2.30957 -14.8506h-143.228z" />
    <glyph glyph-name="deviceControlTwocontrol" 
d="M17.7812 245l38.2822 240.912h52.8027q22.4404 0 37.6221 -9.0752q15.1807 -9.0752 21.9453 -25.4111q6.76562 -16.3359 3.13574 -38.1172l-15.1807 -95.7051q-3.30078 -21.7812 -15.3457 -38.1172q-12.0459 -16.335 -30.0322 -25.4111
q-17.9854 -9.0752 -40.4268 -9.0752h-52.8027zM36.5918 260.181h36.3018q26.0713 0 44.3877 15.6758t22.6064 41.7471l15.1807 95.7051q3.95996 25.7412 -9.57031 41.582q-13.5312 15.8408 -39.2725 15.8408h-36.3018zM280.805 241.7q-30.0322 0 -45.2129 17.9854
q-15.1807 17.9863 -10.5605 48.0176l18.4814 115.506q4.62012 30.3613 25.5762 48.1826t50.9873 17.8213q30.6914 0 46.0381 -18.8115q15.3457 -18.8105 10.3955 -50.4922h-16.501q3.95996 25.4111 -7.42578 39.9316q-11.3857 14.5215 -34.8164 14.5215
q-23.1016 0 -38.6123 -13.6963q-15.5107 -13.6953 -19.1406 -37.457l-18.4814 -115.506q-3.62988 -23.7607 7.59082 -37.457q11.2207 -13.6953 34.3213 -13.6953q23.7617 0 39.6025 14.6855t19.8008 39.7676h16.501q-3.2998 -21.1211 -14.1904 -36.6328
q-10.8906 -15.5107 -27.3916 -24.0908t-36.9619 -8.58008zM423.161 245l2.63965 16.501l89.1045 78.874q26.0713 23.1016 39.6025 42.5723q13.5303 19.4707 16.8311 38.9414q3.62988 24.4219 -8.58105 38.6123q-12.21 14.1904 -36.9619 14.1904q-24.751 0 -41.582 -14.3555
t-20.4609 -38.7764h-16.501q3.30078 20.791 14.3555 35.9717q11.0557 15.1807 28.2168 23.4307q17.1611 8.25098 38.2822 8.25098q32.3418 0 48.5127 -17.9863q16.1709 -17.9854 11.2207 -48.3477q-3.30078 -22.1113 -18.6465 -44.7168q-15.3457 -22.6064 -44.0576 -48.0176
l-79.8633 -70.2939h123.426l-2.30957 -14.8506h-143.228z" />
    <glyph glyph-name="deviceControlThreecontrol" unicode="&#x2413;" 
d="M17.7812 245l38.2822 240.912h52.8027q22.4404 0 37.6221 -9.0752q15.1807 -9.0752 21.9453 -25.4111q6.76562 -16.3359 3.13574 -38.1172l-15.1807 -95.7051q-3.30078 -21.7812 -15.3457 -38.1172q-12.0459 -16.335 -30.0322 -25.4111
q-17.9854 -9.0752 -40.4268 -9.0752h-52.8027zM36.5918 260.181h36.3018q26.0713 0 44.3877 15.6758t22.6064 41.7471l15.1807 95.7051q3.95996 25.7412 -9.57031 41.582q-13.5312 15.8408 -39.2725 15.8408h-36.3018zM280.805 241.7q-30.0322 0 -45.2129 17.9854
q-15.1807 17.9863 -10.5605 48.0176l18.4814 115.506q4.62012 30.3613 25.5762 48.1826t50.9873 17.8213q30.6914 0 46.0381 -18.8115q15.3457 -18.8105 10.3955 -50.4922h-16.501q3.95996 25.4111 -7.42578 39.9316q-11.3857 14.5215 -34.8164 14.5215
q-23.1016 0 -38.6123 -13.6963q-15.5107 -13.6953 -19.1406 -37.457l-18.4814 -115.506q-3.62988 -23.7607 7.59082 -37.457q11.2207 -13.6953 34.3213 -13.6953q23.7617 0 39.6025 14.6855t19.8008 39.7676h16.501q-3.2998 -21.1211 -14.1904 -36.6328
q-10.8906 -15.5107 -27.3916 -24.0908t-36.9619 -8.58008zM486.854 241.7q-30.0322 0 -45.0479 17.9854q-15.0156 17.9863 -10.3955 48.0176h16.501q-3.62988 -24.0908 7.42578 -37.6221q11.0557 -13.5303 34.1562 -13.5303q23.1016 0 38.4473 13.6953
q15.3457 13.6963 18.9756 37.457l3.63086 23.4316q3.62988 23.4307 -7.26074 36.4668q-10.8906 13.0352 -34.3223 13.0352h-16.8301l2.30957 14.1914l73.2637 76.2334h-102.305l2.63965 14.8506h120.127l-2.64062 -15.8408l-72.2734 -74.583
q29.3711 -0.990234 43.8916 -18.1514q14.5215 -17.1611 9.90137 -46.2021l-3.63086 -23.4316q-4.62012 -30.0312 -25.4111 -48.0176q-20.791 -17.9854 -51.1523 -17.9854z" />
    <glyph glyph-name="deviceControlThreecontrol" 
d="M17.7812 245l38.2822 240.912h52.8027q22.4404 0 37.6221 -9.0752q15.1807 -9.0752 21.9453 -25.4111q6.76562 -16.3359 3.13574 -38.1172l-15.1807 -95.7051q-3.30078 -21.7812 -15.3457 -38.1172q-12.0459 -16.335 -30.0322 -25.4111
q-17.9854 -9.0752 -40.4268 -9.0752h-52.8027zM36.5918 260.181h36.3018q26.0713 0 44.3877 15.6758t22.6064 41.7471l15.1807 95.7051q3.95996 25.7412 -9.57031 41.582q-13.5312 15.8408 -39.2725 15.8408h-36.3018zM280.805 241.7q-30.0322 0 -45.2129 17.9854
q-15.1807 17.9863 -10.5605 48.0176l18.4814 115.506q4.62012 30.3613 25.5762 48.1826t50.9873 17.8213q30.6914 0 46.0381 -18.8115q15.3457 -18.8105 10.3955 -50.4922h-16.501q3.95996 25.4111 -7.42578 39.9316q-11.3857 14.5215 -34.8164 14.5215
q-23.1016 0 -38.6123 -13.6963q-15.5107 -13.6953 -19.1406 -37.457l-18.4814 -115.506q-3.62988 -23.7607 7.59082 -37.457q11.2207 -13.6953 34.3213 -13.6953q23.7617 0 39.6025 14.6855t19.8008 39.7676h16.501q-3.2998 -21.1211 -14.1904 -36.6328
q-10.8906 -15.5107 -27.3916 -24.0908t-36.9619 -8.58008zM486.854 241.7q-30.0322 0 -45.0479 17.9854q-15.0156 17.9863 -10.3955 48.0176h16.501q-3.62988 -24.0908 7.42578 -37.6221q11.0557 -13.5303 34.1562 -13.5303q23.1016 0 38.4473 13.6953
q15.3457 13.6963 18.9756 37.457l3.63086 23.4316q3.62988 23.4307 -7.26074 36.4668q-10.8906 13.0352 -34.3223 13.0352h-16.8301l2.30957 14.1914l73.2637 76.2334h-102.305l2.63965 14.8506h120.127l-2.64062 -15.8408l-72.2734 -74.583
q29.3711 -0.990234 43.8916 -18.1514q14.5215 -17.1611 9.90137 -46.2021l-3.63086 -23.4316q-4.62012 -30.0312 -25.4111 -48.0176q-20.791 -17.9854 -51.1523 -17.9854z" />
    <glyph glyph-name="deviceControlFourcontrol" unicode="&#x2414;" 
d="M17.7812 245l38.2822 240.912h52.8027q22.4404 0 37.6221 -9.0752q15.1807 -9.0752 21.9453 -25.4111q6.76562 -16.3359 3.13574 -38.1172l-15.1807 -95.7051q-3.30078 -21.7812 -15.3457 -38.1172q-12.0459 -16.335 -30.0322 -25.4111
q-17.9854 -9.0752 -40.4268 -9.0752h-52.8027zM36.5918 260.181h36.3018q26.0713 0 44.3877 15.6758t22.6064 41.7471l15.1807 95.7051q3.95996 25.7412 -9.57031 41.582q-13.5312 15.8408 -39.2725 15.8408h-36.3018zM280.805 241.7q-30.0322 0 -45.2129 17.9854
q-15.1807 17.9863 -10.5605 48.0176l18.4814 115.506q4.62012 30.3613 25.5762 48.1826t50.9873 17.8213q30.6914 0 46.0381 -18.8115q15.3457 -18.8105 10.3955 -50.4922h-16.501q3.95996 25.4111 -7.42578 39.9316q-11.3857 14.5215 -34.8164 14.5215
q-23.1016 0 -38.6123 -13.6963q-15.5107 -13.6953 -19.1406 -37.457l-18.4814 -115.506q-3.62988 -23.7607 7.59082 -37.457q11.2207 -13.6953 34.3213 -13.6953q23.7617 0 39.6025 14.6855t19.8008 39.7676h16.501q-3.2998 -21.1211 -14.1904 -36.6328
q-10.8906 -15.5107 -27.3916 -24.0908t-36.9619 -8.58008zM530.086 245l8.91113 56.1025h-110.556l5.28027 33.002l118.476 151.478h18.4814l-121.116 -156.428l-2.31055 -13.2002h94.0547l10.8906 67.6533h16.501l-22.1113 -138.607h-16.501z" />
    <glyph glyph-name="deviceControlFourcontrol" 
d="M17.7812 245l38.2822 240.912h52.8027q22.4404 0 37.6221 -9.0752q15.1807 -9.0752 21.9453 -25.4111q6.76562 -16.3359 3.13574 -38.1172l-15.1807 -95.7051q-3.30078 -21.7812 -15.3457 -38.1172q-12.0459 -16.335 -30.0322 -25.4111
q-17.9854 -9.0752 -40.4268 -9.0752h-52.8027zM36.5918 260.181h36.3018q26.0713 0 44.3877 15.6758t22.6064 41.7471l15.1807 95.7051q3.95996 25.7412 -9.57031 41.582q-13.5312 15.8408 -39.2725 15.8408h-36.3018zM280.805 241.7q-30.0322 0 -45.2129 17.9854
q-15.1807 17.9863 -10.5605 48.0176l18.4814 115.506q4.62012 30.3613 25.5762 48.1826t50.9873 17.8213q30.6914 0 46.0381 -18.8115q15.3457 -18.8105 10.3955 -50.4922h-16.501q3.95996 25.4111 -7.42578 39.9316q-11.3857 14.5215 -34.8164 14.5215
q-23.1016 0 -38.6123 -13.6963q-15.5107 -13.6953 -19.1406 -37.457l-18.4814 -115.506q-3.62988 -23.7607 7.59082 -37.457q11.2207 -13.6953 34.3213 -13.6953q23.7617 0 39.6025 14.6855t19.8008 39.7676h16.501q-3.2998 -21.1211 -14.1904 -36.6328
q-10.8906 -15.5107 -27.3916 -24.0908t-36.9619 -8.58008zM530.086 245l8.91113 56.1025h-110.556l5.28027 33.002l118.476 151.478h18.4814l-121.116 -156.428l-2.31055 -13.2002h94.0547l10.8906 67.6533h16.501l-22.1113 -138.607h-16.501z" />
    <glyph glyph-name="negativeAcknowledgecontrol" unicode="&#x2415;" 
d="M17.7812 245l38.2822 240.912h22.1104l53.4629 -222.761q0.660156 6.59961 1.65039 14.5205q0.990234 7.91992 1.81543 14.5205t1.1543 8.91016l29.3721 184.81h15.8408l-38.2822 -240.912h-22.4414l-52.4727 222.762q-0.330078 -4.62012 -1.81445 -15.0156
q-1.48535 -10.3955 -3.46582 -22.9365l-29.3711 -184.81h-15.8408zM202.92 245l104.616 240.912h20.4609l28.0518 -240.912h-16.501l-7.59082 69.3037h-82.5039l-29.3721 -69.3037h-17.1611zM255.723 329.154h74.584l-10.5605 97.3555q-1.97949 17.8203 -2.63965 29.8662
t-0.990234 15.6758q-1.32031 -3.62988 -6.10547 -15.6758t-12.375 -29.8662zM427.781 245l38.2822 240.912h16.501l-17.1611 -108.575h50.1621l69.9639 108.575h19.1406l-74.9131 -116.496l39.9316 -124.416h-18.4814l-37.291 117.486h-51.1533l-18.4805 -117.486h-16.501z
" />
    <glyph glyph-name="negativeAcknowledgecontrol" 
d="M17.7812 245l38.2822 240.912h22.1104l53.4629 -222.761q0.660156 6.59961 1.65039 14.5205q0.990234 7.91992 1.81543 14.5205t1.1543 8.91016l29.3721 184.81h15.8408l-38.2822 -240.912h-22.4414l-52.4727 222.762q-0.330078 -4.62012 -1.81445 -15.0156
q-1.48535 -10.3955 -3.46582 -22.9365l-29.3711 -184.81h-15.8408zM202.92 245l104.616 240.912h20.4609l28.0518 -240.912h-16.501l-7.59082 69.3037h-82.5039l-29.3721 -69.3037h-17.1611zM255.723 329.154h74.584l-10.5605 97.3555q-1.97949 17.8203 -2.63965 29.8662
t-0.990234 15.6758q-1.32031 -3.62988 -6.10547 -15.6758t-12.375 -29.8662zM427.781 245l38.2822 240.912h16.501l-17.1611 -108.575h50.1621l69.9639 108.575h19.1406l-74.9131 -116.496l39.9316 -124.416h-18.4814l-37.291 117.486h-51.1533l-18.4805 -117.486h-16.501z
" />
    <glyph glyph-name="synchronousIdlecontrol" unicode="&#x2416;" 
d="M81.4746 241.7q-33.332 0 -50.1631 17.4902q-16.8311 17.4912 -12.21 46.8623h16.5q-3.2998 -22.4404 9.90137 -35.9717q13.2002 -13.5303 38.6113 -13.5303q24.752 0 40.7578 12.375q16.0059 12.376 19.3057 34.4873q2.96973 20.1309 -5.28027 33.9912
q-8.25098 13.8613 -26.7314 19.4717l-26.7314 8.25q-22.4414 6.93066 -33.002 24.0918q-10.5605 17.1602 -6.92969 40.2617q4.29004 27.3916 24.751 43.5625t50.8223 16.1709q30.3623 0 45.3779 -16.9961t10.3955 -46.3672h-16.501q3.62988 22.1113 -7.9209 35.3115
q-11.5498 13.2012 -33.9912 13.2012q-23.1016 0 -38.2822 -11.5508t-18.1504 -32.0117q-2.64062 -18.4814 5.2793 -32.0117q7.9209 -13.5312 24.4219 -18.8115l26.7314 -8.25q23.4307 -7.26074 34.8164 -25.7412q11.3857 -18.4814 7.75586 -41.582
q-4.62012 -28.7119 -26.0713 -45.708q-21.4512 -16.9951 -53.4629 -16.9951zM271.234 245l14.5205 92.4043l-50.4932 148.508h16.501l36.9619 -108.905q2.64062 -7.26074 4.62012 -13.5303q1.98047 -6.27051 2.9707 -9.57129q1.97949 2.9707 5.77539 9.40625
q3.79492 6.43457 8.74512 13.6953l71.6133 108.905h17.8213l-98.0146 -148.508l-14.5215 -92.4043h-16.5zM427.781 245l38.2822 240.912h22.1104l53.4629 -222.761q0.660156 6.59961 1.65039 14.5205q0.990234 7.91992 1.81543 14.5205t1.1543 8.91016l29.3721 184.81
h15.8408l-38.2822 -240.912h-22.4414l-52.4727 222.762q-0.330078 -4.62012 -1.81445 -15.0156q-1.48535 -10.3955 -3.46582 -22.9365l-29.3711 -184.81h-15.8408z" />
    <glyph glyph-name="synchronousIdlecontrol" 
d="M81.4746 241.7q-33.332 0 -50.1631 17.4902q-16.8311 17.4912 -12.21 46.8623h16.5q-3.2998 -22.4404 9.90137 -35.9717q13.2002 -13.5303 38.6113 -13.5303q24.752 0 40.7578 12.375q16.0059 12.376 19.3057 34.4873q2.96973 20.1309 -5.28027 33.9912
q-8.25098 13.8613 -26.7314 19.4717l-26.7314 8.25q-22.4414 6.93066 -33.002 24.0918q-10.5605 17.1602 -6.92969 40.2617q4.29004 27.3916 24.751 43.5625t50.8223 16.1709q30.3623 0 45.3779 -16.9961t10.3955 -46.3672h-16.501q3.62988 22.1113 -7.9209 35.3115
q-11.5498 13.2012 -33.9912 13.2012q-23.1016 0 -38.2822 -11.5508t-18.1504 -32.0117q-2.64062 -18.4814 5.2793 -32.0117q7.9209 -13.5312 24.4219 -18.8115l26.7314 -8.25q23.4307 -7.26074 34.8164 -25.7412q11.3857 -18.4814 7.75586 -41.582
q-4.62012 -28.7119 -26.0713 -45.708q-21.4512 -16.9951 -53.4629 -16.9951zM271.234 245l14.5205 92.4043l-50.4932 148.508h16.501l36.9619 -108.905q2.64062 -7.26074 4.62012 -13.5303q1.98047 -6.27051 2.9707 -9.57129q1.97949 2.9707 5.77539 9.40625
q3.79492 6.43457 8.74512 13.6953l71.6133 108.905h17.8213l-98.0146 -148.508l-14.5215 -92.4043h-16.5zM427.781 245l38.2822 240.912h22.1104l53.4629 -222.761q0.660156 6.59961 1.65039 14.5205q0.990234 7.91992 1.81543 14.5205t1.1543 8.91016l29.3721 184.81
h15.8408l-38.2822 -240.912h-22.4414l-52.4727 222.762q-0.330078 -4.62012 -1.81445 -15.0156q-1.48535 -10.3955 -3.46582 -22.9365l-29.3711 -184.81h-15.8408z" />
    <glyph glyph-name="endOfTransmissionBlockcontrol" unicode="&#x2417;" 
d="M21.0811 245l38.2822 240.912h128.707l-2.64062 -15.1807h-112.206l-14.5205 -92.7344h100.655l-2.30957 -14.8506h-100.655l-16.501 -102.966h112.205l-2.30957 -15.1807h-128.707zM271.564 245l35.6416 225.731h-71.2842l2.64062 15.1807h158.408l-2.64062 -15.1807
h-70.623l-35.6426 -225.731h-16.5zM427.781 245l38.2822 240.912h62.043q30.0312 0 45.377 -16.8301q15.3457 -16.8311 10.7256 -45.2129q-3.2998 -21.4512 -15.5107 -35.9717q-12.21 -14.5205 -30.3613 -19.1406q19.4707 -3.96094 28.5469 -19.3066
q9.0752 -15.3457 5.44434 -38.4463q-4.9502 -30.0322 -26.8955 -48.0176q-21.9463 -17.9863 -54.6182 -17.9863h-63.0332zM465.073 376.347h45.542q23.4316 0 38.6123 12.541q15.1807 12.54 18.4805 34.6514q3.63086 22.1113 -7.75488 34.6523
q-11.3857 12.54 -34.4873 12.54h-45.542zM446.592 260.181h46.5332q25.4111 0 42.0771 13.5312q16.665 13.5303 20.626 36.9619q3.62988 23.4307 -8.74609 37.127q-12.375 13.6953 -37.7871 13.6953h-46.5322z" />
    <glyph glyph-name="endOfTransmissionBlockcontrol" 
d="M21.0811 245l38.2822 240.912h128.707l-2.64062 -15.1807h-112.206l-14.5205 -92.7344h100.655l-2.30957 -14.8506h-100.655l-16.501 -102.966h112.205l-2.30957 -15.1807h-128.707zM271.564 245l35.6416 225.731h-71.2842l2.64062 15.1807h158.408l-2.64062 -15.1807
h-70.623l-35.6426 -225.731h-16.5zM427.781 245l38.2822 240.912h62.043q30.0312 0 45.377 -16.8301q15.3457 -16.8311 10.7256 -45.2129q-3.2998 -21.4512 -15.5107 -35.9717q-12.21 -14.5205 -30.3613 -19.1406q19.4707 -3.96094 28.5469 -19.3066
q9.0752 -15.3457 5.44434 -38.4463q-4.9502 -30.0322 -26.8955 -48.0176q-21.9463 -17.9863 -54.6182 -17.9863h-63.0332zM465.073 376.347h45.542q23.4316 0 38.6123 12.541q15.1807 12.54 18.4805 34.6514q3.63086 22.1113 -7.75488 34.6523
q-11.3857 12.54 -34.4873 12.54h-45.542zM446.592 260.181h46.5332q25.4111 0 42.0771 13.5312q16.665 13.5303 20.626 36.9619q3.62988 23.4307 -8.74609 37.127q-12.375 13.6953 -37.7871 13.6953h-46.5322z" />
    <glyph glyph-name="cancelcontrol" unicode="&#x2418;" 
d="M81.8047 241.7q-30.0322 0 -45.2129 17.9854q-15.1807 17.9863 -10.5605 48.0176l18.4814 115.506q4.62012 30.3613 25.5762 48.1826t50.9873 17.8213q30.6914 0 46.0381 -18.8115q15.3457 -18.8105 10.3955 -50.4922h-16.501q3.95996 25.4111 -7.42578 39.9316
q-11.3857 14.5215 -34.8164 14.5215q-23.1016 0 -38.6123 -13.6963q-15.5107 -13.6953 -19.1406 -37.457l-18.4814 -115.506q-3.62988 -23.7607 7.59082 -37.457q11.2207 -13.6953 34.3213 -13.6953q23.7617 0 39.6025 14.6855t19.8008 39.7676h16.501
q-3.2998 -21.1211 -14.1904 -36.6328q-10.8906 -15.5107 -27.3916 -24.0908t-36.9619 -8.58008zM208.92 245l104.616 240.912h20.4609l28.0518 -240.912h-16.501l-7.59082 69.3037h-82.5039l-29.3721 -69.3037h-17.1611zM261.723 329.154h74.584l-10.5605 97.3555
q-1.97949 17.8203 -2.63965 29.8662t-0.990234 15.6758q-1.32031 -3.62988 -6.10547 -15.6758t-12.375 -29.8662zM427.781 245l38.2822 240.912h22.1104l53.4629 -222.761q0.660156 6.59961 1.65039 14.5205q0.990234 7.91992 1.81543 14.5205t1.1543 8.91016
l29.3721 184.81h15.8408l-38.2822 -240.912h-22.4414l-52.4727 222.762q-0.330078 -4.62012 -1.81445 -15.0156q-1.48535 -10.3955 -3.46582 -22.9365l-29.3711 -184.81h-15.8408z" />
    <glyph glyph-name="cancelcontrol" 
d="M81.8047 241.7q-30.0322 0 -45.2129 17.9854q-15.1807 17.9863 -10.5605 48.0176l18.4814 115.506q4.62012 30.3613 25.5762 48.1826t50.9873 17.8213q30.6914 0 46.0381 -18.8115q15.3457 -18.8105 10.3955 -50.4922h-16.501q3.95996 25.4111 -7.42578 39.9316
q-11.3857 14.5215 -34.8164 14.5215q-23.1016 0 -38.6123 -13.6963q-15.5107 -13.6953 -19.1406 -37.457l-18.4814 -115.506q-3.62988 -23.7607 7.59082 -37.457q11.2207 -13.6953 34.3213 -13.6953q23.7617 0 39.6025 14.6855t19.8008 39.7676h16.501
q-3.2998 -21.1211 -14.1904 -36.6328q-10.8906 -15.5107 -27.3916 -24.0908t-36.9619 -8.58008zM208.92 245l104.616 240.912h20.4609l28.0518 -240.912h-16.501l-7.59082 69.3037h-82.5039l-29.3721 -69.3037h-17.1611zM261.723 329.154h74.584l-10.5605 97.3555
q-1.97949 17.8203 -2.63965 29.8662t-0.990234 15.6758q-1.32031 -3.62988 -6.10547 -15.6758t-12.375 -29.8662zM427.781 245l38.2822 240.912h22.1104l53.4629 -222.761q0.660156 6.59961 1.65039 14.5205q0.990234 7.91992 1.81543 14.5205t1.1543 8.91016
l29.3721 184.81h15.8408l-38.2822 -240.912h-22.4414l-52.4727 222.762q-0.330078 -4.62012 -1.81445 -15.0156q-1.48535 -10.3955 -3.46582 -22.9365l-29.3711 -184.81h-15.8408z" />
    <glyph glyph-name="endOfMediumcontrol" unicode="&#x2419;" 
d="M124.081 245l38.2822 240.912h128.707l-2.64062 -15.1807h-112.206l-14.5205 -92.7344h100.655l-2.30957 -14.8506h-100.655l-16.501 -102.966h112.205l-2.30957 -15.1807h-128.707zM317.841 245l38.2822 240.912h24.0908l18.8115 -92.4043
q1.64941 -7.26074 3.2998 -15.8408q1.65039 -8.58105 2.63965 -14.1904q2.64062 5.60938 7.0957 14.1904q4.45508 8.58008 8.08594 15.8408l48.1816 92.4043h25.082l-38.2822 -240.912h-16.1709l23.1016 145.207q2.63965 16.8311 5.61035 33.4971
q2.96973 16.666 5.61035 30.8564q2.63965 14.1914 4.29004 23.1016l-65.3438 -125.406h-17.4912l-25.7412 125.406q-0.989258 -8.91016 -2.80469 -23.1016q-1.81543 -14.1904 -4.125 -30.8564q-2.31055 -16.666 -4.9502 -33.4971l-23.1016 -145.207h-16.1709z" />
    <glyph glyph-name="endOfMediumcontrol" 
d="M124.081 245l38.2822 240.912h128.707l-2.64062 -15.1807h-112.206l-14.5205 -92.7344h100.655l-2.30957 -14.8506h-100.655l-16.501 -102.966h112.205l-2.30957 -15.1807h-128.707zM317.841 245l38.2822 240.912h24.0908l18.8115 -92.4043
q1.64941 -7.26074 3.2998 -15.8408q1.65039 -8.58105 2.63965 -14.1904q2.64062 5.60938 7.0957 14.1904q4.45508 8.58008 8.08594 15.8408l48.1816 92.4043h25.082l-38.2822 -240.912h-16.1709l23.1016 145.207q2.63965 16.8311 5.61035 33.4971
q2.96973 16.666 5.61035 30.8564q2.63965 14.1914 4.29004 23.1016l-65.3438 -125.406h-17.4912l-25.7412 125.406q-0.989258 -8.91016 -2.80469 -23.1016q-1.81543 -14.1904 -4.125 -30.8564q-2.31055 -16.666 -4.9502 -33.4971l-23.1016 -145.207h-16.1709z" />
    <glyph glyph-name="substitutecontrol" unicode="&#x241a;" 
d="M81.4746 241.7q-33.332 0 -50.1631 17.4902q-16.8311 17.4912 -12.21 46.8623h16.5q-3.2998 -22.4404 9.90137 -35.9717q13.2002 -13.5303 38.6113 -13.5303q24.752 0 40.7578 12.375q16.0059 12.376 19.3057 34.4873q2.96973 20.1309 -5.28027 33.9912
q-8.25098 13.8613 -26.7314 19.4717l-26.7314 8.25q-22.4414 6.93066 -33.002 24.0918q-10.5605 17.1602 -6.92969 40.2617q4.29004 27.3916 24.751 43.5625t50.8223 16.1709q30.3623 0 45.3779 -16.9961t10.3955 -46.3672h-16.501q3.62988 22.1113 -7.9209 35.3115
q-11.5498 13.2012 -33.9912 13.2012q-23.1016 0 -38.2822 -11.5508t-18.1504 -32.0117q-2.64062 -18.4814 5.2793 -32.0117q7.9209 -13.5312 24.4219 -18.8115l26.7314 -8.25q23.4307 -7.26074 34.8164 -25.7412q11.3857 -18.4814 7.75586 -41.582
q-4.62012 -28.7119 -26.0713 -45.708q-21.4512 -16.9951 -53.4629 -16.9951zM279.154 241.7q-29.041 0 -43.3975 17.9854q-14.3555 17.9863 -9.73535 48.0176l28.3818 178.209h16.501l-28.3818 -178.209q-3.62988 -24.0908 6.76562 -37.6221
q10.3955 -13.5303 32.5068 -13.5303q22.1104 0 36.4668 13.5303q14.3555 13.5312 17.9854 37.6221l28.3818 178.209h16.501l-28.3818 -178.209q-2.96973 -19.8008 -13.2002 -34.6514t-25.7412 -23.1016q-15.5117 -8.25 -34.6523 -8.25zM427.781 245l38.2822 240.912h62.043
q30.0312 0 45.377 -16.8301q15.3457 -16.8311 10.7256 -45.2129q-3.2998 -21.4512 -15.5107 -35.9717q-12.21 -14.5205 -30.3613 -19.1406q19.4707 -3.96094 28.5469 -19.3066q9.0752 -15.3457 5.44434 -38.4463q-4.9502 -30.0322 -26.8955 -48.0176
q-21.9463 -17.9863 -54.6182 -17.9863h-63.0332zM465.073 376.347h45.542q23.4316 0 38.6123 12.541q15.1807 12.54 18.4805 34.6514q3.63086 22.1113 -7.75488 34.6523q-11.3857 12.54 -34.4873 12.54h-45.542zM446.592 260.181h46.5332q25.4111 0 42.0771 13.5312
q16.665 13.5303 20.626 36.9619q3.62988 23.4307 -8.74609 37.127q-12.375 13.6953 -37.7871 13.6953h-46.5322z" />
    <glyph glyph-name="substitutecontrol" 
d="M81.4746 241.7q-33.332 0 -50.1631 17.4902q-16.8311 17.4912 -12.21 46.8623h16.5q-3.2998 -22.4404 9.90137 -35.9717q13.2002 -13.5303 38.6113 -13.5303q24.752 0 40.7578 12.375q16.0059 12.376 19.3057 34.4873q2.96973 20.1309 -5.28027 33.9912
q-8.25098 13.8613 -26.7314 19.4717l-26.7314 8.25q-22.4414 6.93066 -33.002 24.0918q-10.5605 17.1602 -6.92969 40.2617q4.29004 27.3916 24.751 43.5625t50.8223 16.1709q30.3623 0 45.3779 -16.9961t10.3955 -46.3672h-16.501q3.62988 22.1113 -7.9209 35.3115
q-11.5498 13.2012 -33.9912 13.2012q-23.1016 0 -38.2822 -11.5508t-18.1504 -32.0117q-2.64062 -18.4814 5.2793 -32.0117q7.9209 -13.5312 24.4219 -18.8115l26.7314 -8.25q23.4307 -7.26074 34.8164 -25.7412q11.3857 -18.4814 7.75586 -41.582
q-4.62012 -28.7119 -26.0713 -45.708q-21.4512 -16.9951 -53.4629 -16.9951zM279.154 241.7q-29.041 0 -43.3975 17.9854q-14.3555 17.9863 -9.73535 48.0176l28.3818 178.209h16.501l-28.3818 -178.209q-3.62988 -24.0908 6.76562 -37.6221
q10.3955 -13.5303 32.5068 -13.5303q22.1104 0 36.4668 13.5303q14.3555 13.5312 17.9854 37.6221l28.3818 178.209h16.501l-28.3818 -178.209q-2.96973 -19.8008 -13.2002 -34.6514t-25.7412 -23.1016q-15.5117 -8.25 -34.6523 -8.25zM427.781 245l38.2822 240.912h62.043
q30.0312 0 45.377 -16.8301q15.3457 -16.8311 10.7256 -45.2129q-3.2998 -21.4512 -15.5107 -35.9717q-12.21 -14.5205 -30.3613 -19.1406q19.4707 -3.96094 28.5469 -19.3066q9.0752 -15.3457 5.44434 -38.4463q-4.9502 -30.0322 -26.8955 -48.0176
q-21.9463 -17.9863 -54.6182 -17.9863h-63.0332zM465.073 376.347h45.542q23.4316 0 38.6123 12.541q15.1807 12.54 18.4805 34.6514q3.63086 22.1113 -7.75488 34.6523q-11.3857 12.54 -34.4873 12.54h-45.542zM446.592 260.181h46.5332q25.4111 0 42.0771 13.5312
q16.665 13.5303 20.626 36.9619q3.62988 23.4307 -8.74609 37.127q-12.375 13.6953 -37.7871 13.6953h-46.5322z" />
    <glyph glyph-name="escapecontrol" unicode="&#x241b;" 
d="M21.0811 245l38.2822 240.912h128.707l-2.64062 -15.1807h-112.206l-14.5205 -92.7344h100.655l-2.30957 -14.8506h-100.655l-16.501 -102.966h112.205l-2.30957 -15.1807h-128.707zM280.475 241.7q-33.332 0 -50.1631 17.4902q-16.8311 17.4912 -12.21 46.8623h16.5
q-3.2998 -22.4404 9.90137 -35.9717q13.2002 -13.5303 38.6113 -13.5303q24.752 0 40.7578 12.375q16.0059 12.376 19.3057 34.4873q2.96973 20.1309 -5.28027 33.9912q-8.25098 13.8613 -26.7314 19.4717l-26.7314 8.25q-22.4414 6.93066 -33.002 24.0918
q-10.5605 17.1602 -6.92969 40.2617q4.29004 27.3916 24.751 43.5625t50.8223 16.1709q30.3623 0 45.3779 -16.9961t10.3955 -46.3672h-16.501q3.62988 22.1113 -7.9209 35.3115q-11.5498 13.2012 -33.9912 13.2012q-23.1016 0 -38.2822 -11.5508t-18.1504 -32.0117
q-2.64062 -18.4814 5.2793 -32.0117q7.9209 -13.5312 24.4219 -18.8115l26.7314 -8.25q23.4307 -7.26074 34.8164 -25.7412q11.3857 -18.4814 7.75586 -41.582q-4.62012 -28.7119 -26.0713 -45.708q-21.4512 -16.9951 -53.4629 -16.9951zM491.805 241.7
q-30.0322 0 -45.2129 17.9854q-15.1807 17.9863 -10.5605 48.0176l18.4814 115.506q4.62012 30.3613 25.5762 48.1826t50.9873 17.8213q30.6914 0 46.0381 -18.8115q15.3457 -18.8105 10.3955 -50.4922h-16.501q3.95996 25.4111 -7.42578 39.9316
q-11.3857 14.5215 -34.8164 14.5215q-23.1016 0 -38.6123 -13.6963q-15.5107 -13.6953 -19.1406 -37.457l-18.4814 -115.506q-3.62988 -23.7607 7.59082 -37.457q11.2207 -13.6953 34.3213 -13.6953q23.7617 0 39.6025 14.6855t19.8008 39.7676h16.501
q-3.2998 -21.1211 -14.1904 -36.6328q-10.8906 -15.5107 -27.3916 -24.0908t-36.9619 -8.58008z" />
    <glyph glyph-name="escapecontrol" 
d="M21.0811 245l38.2822 240.912h128.707l-2.64062 -15.1807h-112.206l-14.5205 -92.7344h100.655l-2.30957 -14.8506h-100.655l-16.501 -102.966h112.205l-2.30957 -15.1807h-128.707zM280.475 241.7q-33.332 0 -50.1631 17.4902q-16.8311 17.4912 -12.21 46.8623h16.5
q-3.2998 -22.4404 9.90137 -35.9717q13.2002 -13.5303 38.6113 -13.5303q24.752 0 40.7578 12.375q16.0059 12.376 19.3057 34.4873q2.96973 20.1309 -5.28027 33.9912q-8.25098 13.8613 -26.7314 19.4717l-26.7314 8.25q-22.4414 6.93066 -33.002 24.0918
q-10.5605 17.1602 -6.92969 40.2617q4.29004 27.3916 24.751 43.5625t50.8223 16.1709q30.3623 0 45.3779 -16.9961t10.3955 -46.3672h-16.501q3.62988 22.1113 -7.9209 35.3115q-11.5498 13.2012 -33.9912 13.2012q-23.1016 0 -38.2822 -11.5508t-18.1504 -32.0117
q-2.64062 -18.4814 5.2793 -32.0117q7.9209 -13.5312 24.4219 -18.8115l26.7314 -8.25q23.4307 -7.26074 34.8164 -25.7412q11.3857 -18.4814 7.75586 -41.582q-4.62012 -28.7119 -26.0713 -45.708q-21.4512 -16.9951 -53.4629 -16.9951zM491.805 241.7
q-30.0322 0 -45.2129 17.9854q-15.1807 17.9863 -10.5605 48.0176l18.4814 115.506q4.62012 30.3613 25.5762 48.1826t50.9873 17.8213q30.6914 0 46.0381 -18.8115q15.3457 -18.8105 10.3955 -50.4922h-16.501q3.95996 25.4111 -7.42578 39.9316
q-11.3857 14.5215 -34.8164 14.5215q-23.1016 0 -38.6123 -13.6963q-15.5107 -13.6953 -19.1406 -37.457l-18.4814 -115.506q-3.62988 -23.7607 7.59082 -37.457q11.2207 -13.6953 34.3213 -13.6953q23.7617 0 39.6025 14.6855t19.8008 39.7676h16.501
q-3.2998 -21.1211 -14.1904 -36.6328q-10.8906 -15.5107 -27.3916 -24.0908t-36.9619 -8.58008z" />
    <glyph glyph-name="fileSeparatorcontrol" unicode="&#x241c;" 
d="M122.432 245l38.2812 240.912h135.308l-2.64062 -15.1807h-118.806l-15.1807 -96.3643h107.255l-2.30957 -15.1816h-107.256l-18.1514 -114.186h-16.5zM387.475 241.7q-33.332 0 -50.1631 17.4902q-16.8311 17.4912 -12.21 46.8623h16.5
q-3.2998 -22.4404 9.90137 -35.9717q13.2002 -13.5303 38.6113 -13.5303q24.752 0 40.7578 12.375q16.0059 12.376 19.3057 34.4873q2.96973 20.1309 -5.28027 33.9912q-8.25098 13.8613 -26.7314 19.4717l-26.7314 8.25q-22.4414 6.93066 -33.002 24.0918
q-10.5605 17.1602 -6.92969 40.2617q4.29004 27.3916 24.751 43.5625t50.8223 16.1709q30.3623 0 45.3779 -16.9961t10.3955 -46.3672h-16.501q3.62988 22.1113 -7.9209 35.3115q-11.5498 13.2012 -33.9912 13.2012q-23.1016 0 -38.2822 -11.5508t-18.1504 -32.0117
q-2.64062 -18.4814 5.2793 -32.0117q7.9209 -13.5312 24.4219 -18.8115l26.7314 -8.25q23.4307 -7.26074 34.8164 -25.7412q11.3857 -18.4814 7.75586 -41.582q-4.62012 -28.7119 -26.0713 -45.708q-21.4512 -16.9951 -53.4629 -16.9951z" />
    <glyph glyph-name="fileSeparatorcontrol" 
d="M122.432 245l38.2812 240.912h135.308l-2.64062 -15.1807h-118.806l-15.1807 -96.3643h107.255l-2.30957 -15.1816h-107.256l-18.1514 -114.186h-16.5zM387.475 241.7q-33.332 0 -50.1631 17.4902q-16.8311 17.4912 -12.21 46.8623h16.5
q-3.2998 -22.4404 9.90137 -35.9717q13.2002 -13.5303 38.6113 -13.5303q24.752 0 40.7578 12.375q16.0059 12.376 19.3057 34.4873q2.96973 20.1309 -5.28027 33.9912q-8.25098 13.8613 -26.7314 19.4717l-26.7314 8.25q-22.4414 6.93066 -33.002 24.0918
q-10.5605 17.1602 -6.92969 40.2617q4.29004 27.3916 24.751 43.5625t50.8223 16.1709q30.3623 0 45.3779 -16.9961t10.3955 -46.3672h-16.501q3.62988 22.1113 -7.9209 35.3115q-11.5498 13.2012 -33.9912 13.2012q-23.1016 0 -38.2822 -11.5508t-18.1504 -32.0117
q-2.64062 -18.4814 5.2793 -32.0117q7.9209 -13.5312 24.4219 -18.8115l26.7314 -8.25q23.4307 -7.26074 34.8164 -25.7412q11.3857 -18.4814 7.75586 -41.582q-4.62012 -28.7119 -26.0713 -45.708q-21.4512 -16.9951 -53.4629 -16.9951z" />
    <glyph glyph-name="groupSeparatorcontrol" unicode="&#x241d;" 
d="M184.805 241.7q-30.0322 0 -45.2129 17.9854q-15.1807 17.9863 -10.5605 48.0176l18.4814 115.506q4.62012 30.3613 25.5762 48.1826t50.9873 17.8213q30.6914 0 46.0381 -18.8115q15.3457 -18.8105 10.3955 -50.4922h-16.501q3.95996 25.4111 -7.42578 39.9316
q-11.3857 14.5215 -34.8164 14.5215q-23.1016 0 -38.6123 -13.6963q-15.5107 -13.6953 -19.1406 -37.457l-18.4814 -115.506q-3.62988 -23.7607 7.59082 -37.457q11.2207 -13.6953 34.3213 -13.6953q23.7617 0 39.6025 14.6855t19.8008 39.7676l5.61035 36.3018h-57.0928
l2.30957 15.1807h73.5938l-7.91992 -51.4824q-3.2998 -21.1211 -14.1904 -36.6328q-10.8906 -15.5107 -27.3916 -24.0908t-36.9619 -8.58008zM387.475 241.7q-33.332 0 -50.1631 17.4902q-16.8311 17.4912 -12.21 46.8623h16.5q-3.2998 -22.4404 9.90137 -35.9717
q13.2002 -13.5303 38.6113 -13.5303q24.752 0 40.7578 12.375q16.0059 12.376 19.3057 34.4873q2.96973 20.1309 -5.28027 33.9912q-8.25098 13.8613 -26.7314 19.4717l-26.7314 8.25q-22.4414 6.93066 -33.002 24.0918q-10.5605 17.1602 -6.92969 40.2617
q4.29004 27.3916 24.751 43.5625t50.8223 16.1709q30.3623 0 45.3779 -16.9961t10.3955 -46.3672h-16.501q3.62988 22.1113 -7.9209 35.3115q-11.5498 13.2012 -33.9912 13.2012q-23.1016 0 -38.2822 -11.5508t-18.1504 -32.0117q-2.64062 -18.4814 5.2793 -32.0117
q7.9209 -13.5312 24.4219 -18.8115l26.7314 -8.25q23.4307 -7.26074 34.8164 -25.7412q11.3857 -18.4814 7.75586 -41.582q-4.62012 -28.7119 -26.0713 -45.708q-21.4512 -16.9951 -53.4629 -16.9951z" />
    <glyph glyph-name="groupSeparatorcontrol" 
d="M184.805 241.7q-30.0322 0 -45.2129 17.9854q-15.1807 17.9863 -10.5605 48.0176l18.4814 115.506q4.62012 30.3613 25.5762 48.1826t50.9873 17.8213q30.6914 0 46.0381 -18.8115q15.3457 -18.8105 10.3955 -50.4922h-16.501q3.95996 25.4111 -7.42578 39.9316
q-11.3857 14.5215 -34.8164 14.5215q-23.1016 0 -38.6123 -13.6963q-15.5107 -13.6953 -19.1406 -37.457l-18.4814 -115.506q-3.62988 -23.7607 7.59082 -37.457q11.2207 -13.6953 34.3213 -13.6953q23.7617 0 39.6025 14.6855t19.8008 39.7676l5.61035 36.3018h-57.0928
l2.30957 15.1807h73.5938l-7.91992 -51.4824q-3.2998 -21.1211 -14.1904 -36.6328q-10.8906 -15.5107 -27.3916 -24.0908t-36.9619 -8.58008zM387.475 241.7q-33.332 0 -50.1631 17.4902q-16.8311 17.4912 -12.21 46.8623h16.5q-3.2998 -22.4404 9.90137 -35.9717
q13.2002 -13.5303 38.6113 -13.5303q24.752 0 40.7578 12.375q16.0059 12.376 19.3057 34.4873q2.96973 20.1309 -5.28027 33.9912q-8.25098 13.8613 -26.7314 19.4717l-26.7314 8.25q-22.4414 6.93066 -33.002 24.0918q-10.5605 17.1602 -6.92969 40.2617
q4.29004 27.3916 24.751 43.5625t50.8223 16.1709q30.3623 0 45.3779 -16.9961t10.3955 -46.3672h-16.501q3.62988 22.1113 -7.9209 35.3115q-11.5498 13.2012 -33.9912 13.2012q-23.1016 0 -38.2822 -11.5508t-18.1504 -32.0117q-2.64062 -18.4814 5.2793 -32.0117
q7.9209 -13.5312 24.4219 -18.8115l26.7314 -8.25q23.4307 -7.26074 34.8164 -25.7412q11.3857 -18.4814 7.75586 -41.582q-4.62012 -28.7119 -26.0713 -45.708q-21.4512 -16.9951 -53.4629 -16.9951z" />
    <glyph glyph-name="recordSeparatorcontrol" unicode="&#x241e;" 
d="M120.781 245l38.2822 240.912h67.6533q32.0117 0 47.6875 -17.9854q15.6758 -17.9863 11.0557 -48.6777q-4.29004 -26.4014 -22.2764 -43.8926q-17.9863 -17.4902 -44.0576 -21.1211l38.9424 -109.235h-17.8213l-37.6221 108.905h-48.1816l-17.1611 -108.905h-16.501z
M156.753 368.757h51.1523q24.0918 0 40.7578 14.0254q16.665 14.0254 20.2959 37.127q3.62988 23.4307 -8.58105 37.127q-12.21 13.6953 -36.3018 13.6953h-51.1523zM387.475 241.7q-33.332 0 -50.1631 17.4902q-16.8311 17.4912 -12.21 46.8623h16.5
q-3.2998 -22.4404 9.90137 -35.9717q13.2002 -13.5303 38.6113 -13.5303q24.752 0 40.7578 12.375q16.0059 12.376 19.3057 34.4873q2.96973 20.1309 -5.28027 33.9912q-8.25098 13.8613 -26.7314 19.4717l-26.7314 8.25q-22.4414 6.93066 -33.002 24.0918
q-10.5605 17.1602 -6.92969 40.2617q4.29004 27.3916 24.751 43.5625t50.8223 16.1709q30.3623 0 45.3779 -16.9961t10.3955 -46.3672h-16.501q3.62988 22.1113 -7.9209 35.3115q-11.5498 13.2012 -33.9912 13.2012q-23.1016 0 -38.2822 -11.5508t-18.1504 -32.0117
q-2.64062 -18.4814 5.2793 -32.0117q7.9209 -13.5312 24.4219 -18.8115l26.7314 -8.25q23.4307 -7.26074 34.8164 -25.7412q11.3857 -18.4814 7.75586 -41.582q-4.62012 -28.7119 -26.0713 -45.708q-21.4512 -16.9951 -53.4629 -16.9951z" />
    <glyph glyph-name="recordSeparatorcontrol" 
d="M120.781 245l38.2822 240.912h67.6533q32.0117 0 47.6875 -17.9854q15.6758 -17.9863 11.0557 -48.6777q-4.29004 -26.4014 -22.2764 -43.8926q-17.9863 -17.4902 -44.0576 -21.1211l38.9424 -109.235h-17.8213l-37.6221 108.905h-48.1816l-17.1611 -108.905h-16.501z
M156.753 368.757h51.1523q24.0918 0 40.7578 14.0254q16.665 14.0254 20.2959 37.127q3.62988 23.4307 -8.58105 37.127q-12.21 13.6953 -36.3018 13.6953h-51.1523zM387.475 241.7q-33.332 0 -50.1631 17.4902q-16.8311 17.4912 -12.21 46.8623h16.5
q-3.2998 -22.4404 9.90137 -35.9717q13.2002 -13.5303 38.6113 -13.5303q24.752 0 40.7578 12.375q16.0059 12.376 19.3057 34.4873q2.96973 20.1309 -5.28027 33.9912q-8.25098 13.8613 -26.7314 19.4717l-26.7314 8.25q-22.4414 6.93066 -33.002 24.0918
q-10.5605 17.1602 -6.92969 40.2617q4.29004 27.3916 24.751 43.5625t50.8223 16.1709q30.3623 0 45.3779 -16.9961t10.3955 -46.3672h-16.501q3.62988 22.1113 -7.9209 35.3115q-11.5498 13.2012 -33.9912 13.2012q-23.1016 0 -38.2822 -11.5508t-18.1504 -32.0117
q-2.64062 -18.4814 5.2793 -32.0117q7.9209 -13.5312 24.4219 -18.8115l26.7314 -8.25q23.4307 -7.26074 34.8164 -25.7412q11.3857 -18.4814 7.75586 -41.582q-4.62012 -28.7119 -26.0713 -45.708q-21.4512 -16.9951 -53.4629 -16.9951z" />
    <glyph glyph-name="unitSeparatorcontrol" unicode="&#x241f;" 
d="M183.154 241.7q-29.041 0 -43.3975 17.9854q-14.3555 17.9863 -9.73535 48.0176l28.3818 178.209h16.501l-28.3818 -178.209q-3.62988 -24.0908 6.76562 -37.6221q10.3955 -13.5303 32.5068 -13.5303q22.1104 0 36.4668 13.5303q14.3555 13.5312 17.9854 37.6221
l28.3818 178.209h16.501l-28.3818 -178.209q-2.96973 -19.8008 -13.2002 -34.6514t-25.7412 -23.1016q-15.5117 -8.25 -34.6523 -8.25zM387.475 241.7q-33.332 0 -50.1631 17.4902q-16.8311 17.4912 -12.21 46.8623h16.5q-3.2998 -22.4404 9.90137 -35.9717
q13.2002 -13.5303 38.6113 -13.5303q24.752 0 40.7578 12.375q16.0059 12.376 19.3057 34.4873q2.96973 20.1309 -5.28027 33.9912q-8.25098 13.8613 -26.7314 19.4717l-26.7314 8.25q-22.4414 6.93066 -33.002 24.0918q-10.5605 17.1602 -6.92969 40.2617
q4.29004 27.3916 24.751 43.5625t50.8223 16.1709q30.3623 0 45.3779 -16.9961t10.3955 -46.3672h-16.501q3.62988 22.1113 -7.9209 35.3115q-11.5498 13.2012 -33.9912 13.2012q-23.1016 0 -38.2822 -11.5508t-18.1504 -32.0117q-2.64062 -18.4814 5.2793 -32.0117
q7.9209 -13.5312 24.4219 -18.8115l26.7314 -8.25q23.4307 -7.26074 34.8164 -25.7412q11.3857 -18.4814 7.75586 -41.582q-4.62012 -28.7119 -26.0713 -45.708q-21.4512 -16.9951 -53.4629 -16.9951z" />
    <glyph glyph-name="unitSeparatorcontrol" 
d="M183.154 241.7q-29.041 0 -43.3975 17.9854q-14.3555 17.9863 -9.73535 48.0176l28.3818 178.209h16.501l-28.3818 -178.209q-3.62988 -24.0908 6.76562 -37.6221q10.3955 -13.5303 32.5068 -13.5303q22.1104 0 36.4668 13.5303q14.3555 13.5312 17.9854 37.6221
l28.3818 178.209h16.501l-28.3818 -178.209q-2.96973 -19.8008 -13.2002 -34.6514t-25.7412 -23.1016q-15.5117 -8.25 -34.6523 -8.25zM387.475 241.7q-33.332 0 -50.1631 17.4902q-16.8311 17.4912 -12.21 46.8623h16.5q-3.2998 -22.4404 9.90137 -35.9717
q13.2002 -13.5303 38.6113 -13.5303q24.752 0 40.7578 12.375q16.0059 12.376 19.3057 34.4873q2.96973 20.1309 -5.28027 33.9912q-8.25098 13.8613 -26.7314 19.4717l-26.7314 8.25q-22.4414 6.93066 -33.002 24.0918q-10.5605 17.1602 -6.92969 40.2617
q4.29004 27.3916 24.751 43.5625t50.8223 16.1709q30.3623 0 45.3779 -16.9961t10.3955 -46.3672h-16.501q3.62988 22.1113 -7.9209 35.3115q-11.5498 13.2012 -33.9912 13.2012q-23.1016 0 -38.2822 -11.5508t-18.1504 -32.0117q-2.64062 -18.4814 5.2793 -32.0117
q7.9209 -13.5312 24.4219 -18.8115l26.7314 -8.25q23.4307 -7.26074 34.8164 -25.7412q11.3857 -18.4814 7.75586 -41.582q-4.62012 -28.7119 -26.0713 -45.708q-21.4512 -16.9951 -53.4629 -16.9951z" />
    <glyph glyph-name="space" unicode=" " 
 />
    <glyph glyph-name="exclam" unicode="!" 
d="M273 205l42 365l26 160h62l-26 -160l-74 -365h-30zM256 -5q-25 0 -37.5 15t-8.5 40t21.5 40t42.5 15h5q25 0 37.5 -15t8.5 -40t-21.5 -40t-42.5 -15h-5z" />
    <glyph glyph-name="quotedbl" unicode="&#x22;" 
d="M401 430l23 210l15 90h66l-15 -90l-42 -210h-47zM201 430l23 210l15 90h66l-15 -90l-42 -210h-47z" />
    <glyph glyph-name="numbersign" unicode="#" 
d="M45 0l73 210h-94l7 44h103l77 222h-110l7 44h119l74 210h51l-74 -210h180l74 210h54l-77 -210h94l-7 -44h-103l-77 -222h110l-7 -44h-119l-73 -210h-51l73 210h-180l-73 -210h-51zM185 254h180l77 222h-180z" />
    <glyph glyph-name="dollar" unicode="$" 
d="M219 -140l21 131q-91 5 -137 57t-33 137h50q-10 -64 24.5 -104t102.5 -45l50 319l-26 8q-68 22 -100.5 73.5t-20.5 122.5q12 79 68 127t140 53l21 131h40l-21 -131q83 -5 123.5 -56t26.5 -135h-50q10 62 -19 101t-88 45l-48 -300l28 -9q71 -23 105.5 -78.5t22.5 -129.5
q-13 -81 -72 -131t-147 -55l-21 -131h-40zM305 406l46 288q-61 -5 -101.5 -40t-49.5 -91q-8 -54 16.5 -94.5t74.5 -57.5zM287 36q67 5 109.5 42t52.5 99q9 58 -17 101t-80 60l-17 5z" />
    <glyph glyph-name="percent" unicode="%" 
d="M179 400q-58 0 -86.5 35t-18.5 95l12 75q10 60 49 95t97 35q59 0 87.5 -35t18.5 -95l-12 -75q-10 -60 -49 -95t-98 -35zM-24 0l627 730h49l-627 -730h-49zM186 442q82 0 96 88l12 75q14 88 -68 88q-39 0 -64 -22.5t-32 -65.5l-12 -75q-7 -43 11 -65.5t57 -22.5zM395 -5
q-58 0 -86.5 35t-18.5 95l12 75q10 60 49 95t97 35q59 0 87.5 -35t18.5 -95l-12 -75q-10 -60 -49 -95t-98 -35zM402 37q82 0 96 88l12 75q14 88 -68 88t-96 -88l-12 -75q-14 -88 68 -88z" />
    <glyph glyph-name="ampersand" unicode="&#x26;" 
d="M174 -10q-72 0 -106.5 44t-21.5 121l17 111q11 66 48 108t94 53q-26 44 -34.5 81.5t-2.5 71.5q7 45 33.5 81.5t67 57.5t89.5 21q52 0 86.5 -22.5t49.5 -60.5t7 -87h-50q6 34 -5 62t-35.5 45.5t-59.5 17.5q-33 0 -61.5 -16t-47.5 -42t-24 -57t6 -65t33 -72l142 -242
l111 159h50l-138 -199l95 -161h-53l-72 118q-96 -128 -218 -128zM187 35q94 0 181 123l-138 228q-45 -3 -77 -35t-40 -85l-17 -111q-9 -53 16.5 -86.5t74.5 -33.5z" />
    <glyph glyph-name="quotesingle" unicode="'" 
d="M301 430l11 130l27 170h66l-27 -170l-30 -130h-47z" />
    <glyph glyph-name="parenleft" unicode="(" 
d="M422 -120q-126 33 -182.5 132.5t-32.5 247.5l32 200q24 149 111.5 248.5t223.5 131.5l-7 -48q-112 -27 -184.5 -113.5t-93.5 -218.5l-32 -200q-21 -132 24 -220.5t148 -115.5z" />
    <glyph glyph-name="parenright" unicode=")" 
d="M53 -120l7 48q112 27 184.5 113.5t93.5 218.5l32 200q21 132 -24 220.5t-148 115.5l7 44q126 -32 182.5 -131.5t32.5 -248.5l-32 -200q-24 -148 -111 -247.5t-224 -132.5z" />
    <glyph glyph-name="asterisk" unicode="*" 
d="M139 104l-41 32l90 103q34 39 54.5 55.5t36.5 29.5l-2 15q-17 2 -40.5 5.5t-61.5 18.5l-113 44l27 50l113 -43q38 -14 57 -26.5t32 -22.5l10 6q0 18 -1.5 41.5t5.5 67.5l21 130h54l-21 -130q-7 -44 -15 -67.5t-15 -41.5l8 -7q17 10 38.5 23t62.5 26l129 43l11 -52
l-128 -44q-43 -15 -67 -17.5t-42 -5.5l-7 -14q11 -13 27 -30t37 -55l56 -104l-49 -31l-56 104q-21 40 -27 62.5t-12 40.5h-11q-12 -17 -24.5 -40t-46.5 -63z" />
    <glyph glyph-name="plus" unicode="+" 
d="M247 100l33 210h-200l7 45h200l33 210h50l-33 -210h200l-7 -45h-200l-33 -210h-50z" />
    <glyph glyph-name="comma" unicode="," 
d="M121 -160l124 311h93l-174 -311h-43z" />
    <glyph glyph-name="hyphen" unicode="-" 
d="M145 308l7 45h320l-7 -45h-320z" />
    <glyph glyph-name="period" unicode="." 
d="M254 -10q-34 0 -50 20.5t-11 54.5t28 53.5t57 19.5t50 -19.5t11 -53.5t-28 -54.5t-57 -20.5z" />
    <glyph glyph-name="slash" unicode="/" 
d="M34 -110l502 940h56l-502 -940h-56z" />
    <glyph glyph-name="zero" unicode="0" 
d="M255 -10q-97 0 -143.5 57.5t-30.5 157.5l51 320q16 100 80.5 157.5t161.5 57.5q96 0 142 -57t30 -158l-51 -320q-16 -100 -80 -157.5t-160 -57.5zM263 40q71 0 118 44t59 121l51 320q12 77 -21 121t-104 44t-119 -44t-60 -121l-51 -320q-12 -76 22 -120.5t105 -44.5z
M317 318q-22 0 -36 14t-14 36q0 23 14 36.5t36 13.5q23 0 36.5 -13.5t13.5 -36.5q0 -22 -13.5 -36t-36.5 -14z" />
    <glyph glyph-name="one" unicode="1" 
d="M56 0l7 45h207l101 640l-222 -146l9 56l205 135h66l-109 -685h173l-7 -45h-430z" />
    <glyph glyph-name="two" unicode="2" 
d="M52 0l8 50l270 239q79 70 120 129t51 118q11 74 -26 117t-112 43t-126 -43.5t-62 -117.5h-50q10 63 43.5 109t85.5 71t116 25q98 0 147 -54.5t34 -146.5q-10 -67 -56.5 -135.5t-133.5 -145.5l-242 -213h374l-7 -45h-434z" />
    <glyph glyph-name="three" unicode="3" 
d="M245 -10q-91 0 -136.5 54.5t-31.5 145.5h50q-11 -73 22.5 -114t103.5 -41t116.5 41.5t57.5 113.5l11 71q11 71 -22 110.5t-104 39.5h-51l7 43l222 231h-310l8 45h364l-8 -48l-219 -226q89 -3 133 -55t30 -140l-11 -71q-14 -91 -77 -145.5t-155 -54.5z" />
    <glyph glyph-name="four" unicode="4" 
d="M376 0l27 170h-335l16 100l359 459h56l-367 -474l-7 -40h285l33 205h50l-67 -420h-50z" />
    <glyph glyph-name="five" unicode="5" 
d="M254 -10q-88 0 -133.5 47t-38.5 129h50q-6 -61 28 -96t102 -35q71 0 117 44.5t59 124.5l11 66q12 78 -20 121.5t-104 43.5q-52 0 -91.5 -28.5t-60.5 -80.5h-50l69 404h360l-8 -45h-312l-51 -305v0q19 46 64 73t107 27q87 0 125 -54.5t22 -155.5l-11 -66
q-15 -98 -78.5 -156t-155.5 -58z" />
    <glyph glyph-name="six" unicode="6" 
d="M254 -10q-66 0 -111 29t-64.5 80.5t-9.5 120.5q8 47 32.5 93.5t58.5 92.5l237 324h56l-259 -343l3 -3q18 18 58 35.5t90 17.5q60 0 101 -28t58.5 -77.5t6.5 -116.5t-47 -117.5t-90 -78.5t-120 -29zM261 35q77 0 132 48.5t68 131.5q12 79 -27 129.5t-116 50.5
q-50 0 -92 -23t-70 -63.5t-37 -93.5q-16 -83 23.5 -131.5t118.5 -48.5z" />
    <glyph glyph-name="seven" unicode="7" 
d="M172 0l374 679h-337l-24 -149h-55l32 200h445l-9 -55l-367 -675h-59z" />
    <glyph glyph-name="eight" unicode="8" 
d="M255 -10q-97 0 -148 50t-38 136q11 64 57 111t137 87l10 5l-10 5q-63 34 -93 79.5t-21 102.5q8 50 40.5 89.5t81 62t103.5 22.5q57 0 100 -23t65 -62.5t14 -88.5q-8 -55 -55 -101.5t-126 -81.5l-11 -5l8 -4q78 -43 109.5 -88.5t20.5 -109.5q-9 -58 -42.5 -99.5t-85 -64
t-116.5 -22.5zM287 419l34 -19l40 18q66 30 100.5 65.5t41.5 79.5q9 59 -29.5 95.5t-106.5 36.5q-65 0 -111.5 -35.5t-56.5 -96.5q-7 -46 15 -81t73 -63zM262 35q74 0 125.5 37t61.5 101q8 52 -19 94t-85 73l-32 17l-38 -17q-67 -30 -107.5 -71.5t-48.5 -94.5
q-10 -64 30 -101.5t113 -37.5z" />
    <glyph glyph-name="nine" unicode="9" 
d="M170 0l263 343l-3 3q-18 -18 -58 -35t-90 -17q-54 0 -94 27.5t-58 76t-8 112.5q11 69 46 120.5t88 80.5t117 29q65 0 108.5 -29t62.5 -80.5t8 -120.5q-15 -93 -84 -186l-242 -324h-56zM309 334q74 0 127 48.5t67 128.5q15 83 -22.5 133.5t-114.5 50.5q-74 0 -127 -50.5
t-67 -134.5q-13 -79 25 -127.5t112 -48.5z" />
    <glyph glyph-name="colon" unicode=":" 
d="M322 416q-33 0 -50 20t-12 52t28.5 52t56.5 20t49.5 -20t11.5 -52t-28 -52t-56 -20zM254 -10q-33 0 -49.5 20t-11.5 52t28 52t56 20t50 -20t12 -52t-28.5 -52t-56.5 -20z" />
    <glyph glyph-name="semicolon" unicode=";" 
d="M318 420q-32 0 -48.5 19.5t-11.5 50.5q5 32 27.5 51t54.5 19h10q32 0 48 -19t11 -51q-5 -31 -27 -50.5t-54 -19.5h-10zM121 -160l124 311h93l-174 -311h-43z" />
    <glyph glyph-name="less" unicode="&#x3c;" 
d="M479 80l-384 227l7 46l456 227l-9 -55l-315 -154q-22 -11 -47.5 -23t-41.5 -19q14 -7 35.5 -19t40.5 -23l266 -156z" />
    <glyph glyph-name="equal" unicode="=" 
d="M118 421l7 45h410l-7 -45h-410zM82 195l7 45h410l-7 -45h-410z" />
    <glyph glyph-name="greater" unicode="&#x3e;" 
d="M59 80l8 55l315 154q23 11 48.5 23t40.5 19q-13 7 -34.5 19t-40.5 23l-267 156l9 51l384 -227l-7 -46z" />
    <glyph glyph-name="question" unicode="?" 
d="M229 205l27 170h50q73 0 123 42.5t61 112.5q11 71 -26 113t-110 42h-120l8 45h120q95 0 143.5 -54.5t34.5 -145.5t-79.5 -145.5t-161.5 -54.5l-20 -125h-50zM216 -5q-25 0 -37.5 15t-8.5 40t21.5 40t42.5 15h5q25 0 37.5 -15t8.5 -40t-21.5 -40t-42.5 -15h-5z" />
    <glyph glyph-name="at" unicode="@" 
d="M253 -179q-81 0 -133.5 36.5t-73.5 102.5t-7 156l52 329q22 137 100.5 216t196.5 79q106 0 157.5 -69t32.5 -186l-67 -420h-45l11 65h-7q-13 -34 -47 -54.5t-80 -20.5q-64 0 -92.5 40t-16.5 115l21 130q11 71 51.5 108t104.5 37q100 0 103 -75h7l6 70l1 5
q16 98 -23.5 154.5t-123.5 56.5q-97 0 -158.5 -66t-81.5 -185l-52 -329q-18 -115 27 -182.5t144 -67.5h75l-7 -45h-75zM367 100q48 0 78.5 29t38.5 81l21 130q8 48 -14 74t-70 26q-101 0 -116 -100l-21 -130q-17 -110 83 -110z" />
    <glyph glyph-name="A" unicode="A" 
d="M24 0l317 730h62l85 -730h-50l-23 210h-250l-89 -210h-52zM184 255h226l-32 295q-6 54 -8 90.5t-3 47.5q-4 -11 -18.5 -47.5t-37.5 -90.5z" />
    <glyph glyph-name="B" unicode="B" 
d="M66 0l116 730h188q91 0 137.5 -51t32.5 -137q-10 -65 -47 -109t-92 -58q59 -12 86.5 -58.5t16.5 -116.5q-15 -91 -81.5 -145.5t-165.5 -54.5h-191zM179 398h138q71 0 117 38t56 105q11 67 -23.5 105t-104.5 38h-138zM123 46h141q77 0 127.5 41t62.5 112
q11 71 -26.5 112.5t-114.5 41.5h-141z" />
    <glyph glyph-name="C" unicode="C" 
d="M260 -10q-91 0 -137 54.5t-32 145.5l56 350q14 92 77.5 146t154.5 54q93 0 139.5 -57t31.5 -153h-50q12 77 -22.5 121t-105.5 44q-70 0 -117 -41.5t-58 -113.5l-56 -350q-11 -72 23 -113.5t104 -41.5q72 0 120 44.5t60 120.5h50q-10 -64 -43 -111t-83 -73t-112 -26z" />
    <glyph glyph-name="D" unicode="D" 
d="M66 0l116 730h160q68 0 114 -27.5t66.5 -77t9.5 -115.5l-46 -290q-10 -66 -46.5 -115.5t-91 -77t-122.5 -27.5h-160zM123 46h110q79 0 134.5 47.5t68.5 126.5l46 290q12 78 -29 126t-119 48h-110z" />
    <glyph glyph-name="E" unicode="E" 
d="M76 0l116 730h390l-8 -46h-340l-44 -281h305l-7 -45h-305l-50 -312h340l-7 -46h-390z" />
    <glyph glyph-name="F" unicode="F" 
d="M71 0l116 730h410l-8 -46h-360l-46 -292h325l-7 -46h-325l-55 -346h-50z" />
    <glyph glyph-name="G" unicode="G" 
d="M260 -10q-91 0 -137 54.5t-32 145.5l56 350q14 92 77.5 146t154.5 54q93 0 139.5 -57t31.5 -153h-50q12 77 -22.5 121t-105.5 44q-70 0 -117 -41.5t-58 -113.5l-56 -350q-11 -72 23 -113.5t104 -41.5q72 0 120 44.5t60 120.5l17 110h-173l7 46h223l-24 -156
q-10 -64 -43 -111t-83 -73t-112 -26z" />
    <glyph glyph-name="H" unicode="H" 
d="M66 0l116 730h50l-52 -328h280l52 328h50l-116 -730h-50l56 356h-280l-56 -356h-50z" />
    <glyph glyph-name="I" unicode="I" 
d="M76 0l7 46h156l101 638h-156l8 46h360l-8 -46h-154l-101 -638h154l-7 -46h-360z" />
    <glyph glyph-name="J" unicode="J" 
d="M229 -10q-96 0 -141.5 56t-29.5 154h50q-13 -77 22 -121t107 -44t120.5 44t60.5 120l76 484h-227l8 47h277l-84 -531q-16 -100 -78.5 -154.5t-160.5 -54.5z" />
    <glyph glyph-name="K" unicode="K" 
d="M66 0l116 730h50l-52 -329h152l212 329h58l-227 -353l121 -377h-56l-113 356h-155l-56 -356h-50z" />
    <glyph glyph-name="L" unicode="L" 
d="M96 0l116 730h50l-109 -684h355l-7 -46h-405z" />
    <glyph glyph-name="M" unicode="M" 
d="M48 0l116 730h73l57 -280q5 -22 10 -48t8 -43q8 17 21.5 43t24.5 48l146 280h76l-116 -730h-49l70 440q8 51 17 101.5t17 93.5t13 70l-198 -380h-53l-78 380q-3 -27 -8.5 -70t-12.5 -93.5t-15 -101.5l-70 -440h-49z" />
    <glyph glyph-name="N" unicode="N" 
d="M66 0l116 730h67l162 -675q2 20 5 44l5.5 44t3.5 27l89 560h48l-116 -730h-68l-159 675q-1 -14 -5.5 -45.5t-10.5 -69.5l-89 -560h-48z" />
    <glyph glyph-name="O" unicode="O" 
d="M254 -10q-88 0 -132.5 54.5t-30.5 145.5l56 350q10 61 41 105.5t78.5 69.5t106.5 25q89 0 133.5 -54.5t30.5 -145.5l-56 -350q-14 -91 -76 -145.5t-151 -54.5zM261 34q69 0 113.5 41t56.5 115l56 350q11 74 -21 115t-100 41t-113 -41t-56 -115l-56 -350
q-12 -74 19.5 -115t100.5 -41z" />
    <glyph glyph-name="P" unicode="P" 
d="M66 0l116 730h215q96 0 144 -55.5t33 -147.5q-9 -61 -42.5 -107t-84.5 -71t-115 -25h-165l-51 -324h-50zM175 370h165q73 0 123 42.5t61 114.5q12 73 -24.5 115t-110.5 42h-165z" />
    <glyph glyph-name="Q" unicode="Q" 
d="M382 -180l-78 174l-22.5 -2.5t-26.5 -1.5q-89 0 -133.5 54.5t-30.5 145.5l56 350q15 92 76 146t151 54q60 0 99.5 -26t56.5 -71t7 -103l-56 -350q-10 -64 -44.5 -111.5t-86.5 -69.5l83 -189h-51zM263 35q68 0 112 41t56 114l56 350q12 73 -20 114t-100 41
q-69 0 -113.5 -40.5t-56.5 -114.5l-56 -350q-12 -73 20.5 -114t101.5 -41z" />
    <glyph glyph-name="R" unicode="R" 
d="M66 0l116 730h205q97 0 144.5 -54.5t33.5 -147.5q-13 -80 -67.5 -133t-133.5 -64l118 -331h-54l-114 330h-146l-52 -330h-50zM175 375h155q73 0 123.5 42.5t61.5 112.5q11 71 -26 112.5t-110 41.5h-155z" />
    <glyph glyph-name="S" unicode="S" 
d="M259 -10q-101 0 -152 53t-37 142h50q-10 -68 30 -109t117 -41q75 0 123.5 37.5t58.5 104.5q9 61 -16 103t-81 59l-81 25q-68 21 -100 73t-21 122q13 83 75 132t154 49t137.5 -51.5t31.5 -140.5h-50q11 67 -24 107t-103 40q-70 0 -116 -35t-55 -97q-8 -56 16 -97t74 -57
l81 -25q71 -22 105.5 -78t23.5 -126q-14 -87 -79 -138.5t-162 -51.5z" />
    <glyph glyph-name="T" unicode="T" 
d="M232 0l108 684h-216l8 46h480l-8 -46h-214l-108 -684h-50z" />
    <glyph glyph-name="U" unicode="U" 
d="M255 -10q-88 0 -131.5 54.5t-29.5 145.5l86 540h50l-86 -540q-11 -73 20.5 -114t98.5 -41t110.5 41t54.5 114l86 540h50l-86 -540q-9 -60 -40 -105t-78 -70t-105 -25z" />
    <glyph glyph-name="V" unicode="V" 
d="M224 0l-84 730h50l62 -550q5 -43 7 -81.5t3 -58.5q7 20 21 58.5t33 81.5l236 550h52l-316 -730h-64z" />
    <glyph glyph-name="W" unicode="W" 
d="M86 0l26 730h44l-18 -540q0 -18 -1.5 -46t-2.5 -57t-2 -52q7 23 15.5 52t17 57t13.5 46l163 540h64l-12 -540q0 -18 -0.5 -46t-1 -57t-1.5 -52q7 23 15.5 52t16.5 57t13 46l148 540h49l-207 -730h-72l11 530q1 38 2 84.5t2 75.5q-9 -28 -22.5 -74.5t-25.5 -85.5
l-164 -530h-70z" />
    <glyph glyph-name="X" unicode="X" 
d="M9 0l278 381l-147 349h54l86 -222q7 -17 19.5 -44.5t21.5 -47.5q14 20 34.5 47.5t32.5 44.5l160 222h56l-258 -349l157 -381h-54l-96 252q-6 16 -19 43.5t-21 48.5q-16 -21 -36 -48.5t-31 -43.5l-180 -252h-57z" />
    <glyph glyph-name="Y" unicode="Y" 
d="M231 0l44 280l-153 450h50l112 -330q8 -22 14 -41t9 -29q6 9 17.5 28.5t26.5 41.5l217 330h54l-297 -450l-44 -280h-50z" />
    <glyph glyph-name="Z" unicode="Z" 
d="M47 0l8 50l453 634h-349l8 46h400l-9 -57l-450 -627h363l-7 -46h-417z" />
    <glyph glyph-name="bracketleft" unicode="[" 
d="M159 -110l148 940h225l-7 -45h-175l-134 -850h175l-7 -45h-225z" />
    <glyph glyph-name="backslash" unicode="\" 
d="M392 -110l-210 940h52l210 -940h-52z" />
    <glyph glyph-name="bracketright" unicode="]" 
d="M94 -110l7 45h175l134 850h-175l7 45h225l-148 -940h-225z" />
    <glyph glyph-name="asciicircum" unicode="^" 
d="M110 340l238 390h53l109 -390h-55l-70 260q-5 20 -10 42.5t-8 35.5q-6 -13 -18.5 -35.5t-23.5 -42.5l-155 -260h-60z" />
    <glyph glyph-name="underscore" unicode="_" 
d="M5 -70l7 45h480l-7 -45h-480z" />
    <glyph glyph-name="grave" unicode="`" 
d="M355 645l-90 140h58l84 -140h-52z" />
    <glyph glyph-name="a" unicode="a" 
d="M241 -10q-82 0 -123 54.5t-27 144.5l27 171q10 60 39.5 105t74.5 70t100 25q53 0 88.5 -22.5t47.5 -62.5h3l12 75h50l-87 -550h-50l12 75h-4q-24 -40 -67 -62.5t-96 -22.5zM258 33q68 0 112.5 41.5t55.5 114.5l27 171q11 74 -19.5 115.5t-98.5 41.5q-67 0 -111.5 -41.5
t-55.5 -115.5l-27 -171q-11 -73 19.5 -114.5t97.5 -41.5z" />
    <glyph glyph-name="b" unicode="b" 
d="M267 -10q-53 0 -88.5 22.5t-47.5 62.5h-3l-12 -75h-50l116 730h50l-24 -150l-17 -105h4q24 40 67 62.5t96 22.5q83 0 123.5 -55t26.5 -145l-27 -171q-9 -60 -39 -104.5t-75 -69.5t-100 -25zM264 33q67 0 111 41.5t56 114.5l27 171q12 74 -19 115.5t-98 41.5
q-68 0 -112 -41.5t-56 -115.5l-27 -171q-12 -73 19.5 -114.5t98.5 -41.5z" />
    <glyph glyph-name="c" unicode="c" 
d="M256 -10q-91 0 -135 54.5t-30 145.5l27 170q10 61 41 105.5t79.5 69.5t108.5 25q91 0 136.5 -51.5t31.5 -138.5h-50q11 68 -23 106t-103 38q-68 0 -114 -40.5t-57 -113.5l-27 -170q-11 -72 22 -113t101 -41q69 0 114.5 38.5t56.5 105.5h50q-14 -87 -76 -138.5t-153 -51.5
z" />
    <glyph glyph-name="d" unicode="d" 
d="M241 -10q-82 0 -123 54.5t-27 144.5l27 171q10 60 39.5 105t74.5 70t100 25q53 0 88.5 -22.5t47.5 -62.5h3l17 105l24 150h50l-116 -730h-50l12 75h-4q-24 -40 -67 -62.5t-96 -22.5zM258 33q68 0 112 41.5t56 114.5l27 171q12 74 -19 115.5t-99 41.5q-67 0 -111 -41.5
t-56 -115.5l-27 -171q-12 -73 19 -114.5t98 -41.5z" />
    <glyph glyph-name="e" unicode="e" 
d="M255 -10q-92 0 -135 54.5t-29 145.5l27 170q14 91 75.5 145.5t152.5 54.5t133.5 -54.5t28.5 -145.5l-15 -95h-340l-12 -75q-11 -72 20 -114t101 -42q56 0 96.5 27t62.5 74h50q-25 -67 -82 -106t-134 -39zM160 308h289l9 52q12 72 -19 114t-100 42q-70 0 -115 -41.5
t-56 -114.5z" />
    <glyph glyph-name="f" unicode="f" 
d="M0 -180l8 45h98q38 0 62 21t30 59l83 504h-184l7 45h184l18 111q10 59 49.5 92t100.5 33h139l-8 -45h-139q-38 0 -62 -21t-30 -59l-18 -111h219l-7 -45h-219l-83 -504q-10 -58 -49.5 -91.5t-100.5 -33.5h-98z" />
    <glyph glyph-name="g" unicode="g" 
d="M101 -180l8 45h145q122 0 140 120l7 45l17 111q-21 -47 -66 -74t-103 -27q-82 0 -123 54.5t-27 144.5l19 121q10 60 39.5 105t74.5 70t100 25q58 0 94 -27t43 -74l14 91h50l-89 -565q-13 -82 -63.5 -123.5t-134.5 -41.5h-145zM266 83q68 0 112.5 41.5t55.5 114.5l19 121
q11 74 -19.5 115.5t-98.5 41.5q-67 0 -111.5 -41.5t-55.5 -115.5l-19 -121q-11 -73 19.5 -114.5t97.5 -41.5z" />
    <glyph glyph-name="h" unicode="h" 
d="M66 0l116 730h50l-24 -150l-18 -110h4q23 42 66 66t98 24q81 0 121.5 -52t26.5 -141l-58 -367h-50l57 360q12 74 -18.5 115.5t-95.5 41.5q-66 0 -111.5 -42t-56.5 -115l-57 -360h-50z" />
    <glyph glyph-name="i" unicode="i" 
d="M51 0l7 45h201l73 460h-176l7 45h226l-80 -505h189l-7 -45h-440zM374 655q-26 0 -39.5 15t-9.5 40t22.5 40t44.5 15t39.5 -15t9.5 -40t-22.5 -40t-44.5 -15z" />
    <glyph glyph-name="j" unicode="j" 
d="M22 -180l8 45h135q71 0 113.5 37.5t53.5 107.5l78 495h-250l7 45h300l-85 -540q-14 -89 -73.5 -139.5t-151.5 -50.5h-135zM453 655q-26 0 -39.5 15t-9.5 40t22.5 40t44.5 15t39.5 -15t9.5 -40t-22.5 -40t-44.5 -15z" />
    <glyph glyph-name="k" unicode="k" 
d="M69 0l116 730h50l-67 -421h131l210 241h61l-231 -267l148 -283h-58l-135 264h-133l-42 -264h-50z" />
    <glyph glyph-name="l" unicode="l" 
d="M321 0q-67 0 -98 35t-21 100l87 550h-175l8 45h225l-95 -595q-14 -90 76 -90h175l-7 -45h-175z" />
    <glyph glyph-name="m" unicode="m" 
d="M35 0l87 550h44l-12 -75h5q9 39 37 62t69 23q39 0 61.5 -22t24.5 -63h5q9 39 36.5 62t68.5 23q50 0 72 -34.5t12 -94.5l-68 -431h-49l67 425q7 43 -8 68t-48 25q-35 0 -60 -25.5t-32 -67.5l-67 -425h-48l67 425q7 43 -8 68t-48 25t-58 -25t-34 -68l-67 -425h-49z" />
    <glyph glyph-name="n" unicode="n" 
d="M66 0l87 550h50l-15 -94q22 48 66.5 76t103.5 28q81 0 121.5 -52t26.5 -141l-58 -367h-50l57 360q12 74 -18.5 115.5t-95.5 41.5q-66 0 -111.5 -42t-56.5 -115l-57 -360h-50z" />
    <glyph glyph-name="o" unicode="o" 
d="M254 -10q-88 0 -132.5 54.5t-30.5 145.5l27 170q10 61 41 105.5t79 69.5t107 25q89 0 133 -54.5t30 -145.5l-27 -170q-14 -91 -76 -145.5t-151 -54.5zM261 34q69 0 113.5 41t56.5 115l27 170q12 74 -20 115t-100 41t-113 -41t-57 -115l-27 -170q-12 -74 19.5 -115
t100.5 -41z" />
    <glyph glyph-name="p" unicode="p" 
d="M37 -180l116 730h50l-12 -75h3q25 40 67.5 62.5t96.5 22.5q83 0 123.5 -54.5t26.5 -144.5l-27 -171q-9 -60 -39 -105t-75 -70t-100 -25q-53 0 -88.5 22.5t-47.5 62.5h-3l-12 -75l-29 -180h-50zM264 33q67 0 111 41.5t56 115.5l27 171q12 74 -19 115t-98 41t-111.5 -41
t-56.5 -115l-27 -171q-12 -74 19.5 -115.5t98.5 -41.5z" />
    <glyph glyph-name="q" unicode="q" 
d="M367 -180l24 150l17 105h-4q-24 -40 -67 -62.5t-96 -22.5q-82 0 -123 55t-27 145l27 171q10 60 39.5 105t74.5 69.5t100 24.5q53 0 88.5 -22.5t47.5 -62.5h3l12 75h50l-116 -730h-50zM258 33q68 0 112.5 42t55.5 115l27 171q12 74 -19 115t-99 41q-67 0 -111 -41
t-56 -115l-27 -171q-11 -73 19.5 -115t97.5 -42z" />
    <glyph glyph-name="r" unicode="r" 
d="M83 0l87 550h50l-12 -75h5q23 41 64 63t96 22q88 0 130 -54t28 -146l-5 -30h-55l5 30q12 74 -19 115.5t-99 41.5q-67 0 -111.5 -41.5t-56.5 -115.5l-57 -360h-50z" />
    <glyph glyph-name="s" unicode="s" 
d="M226 -10q-75 0 -117 40.5t-39 104.5h50q1 -43 31.5 -71.5t82.5 -28.5h67q55 0 91.5 28.5t43.5 76.5q7 43 -14 73.5t-64 36.5l-104 15q-68 10 -101.5 47.5t-23.5 98.5q11 68 65 108.5t133 40.5h42q75 0 116 -37t39 -98h-50q1 39 -29 64.5t-83 25.5h-42q-56 0 -94.5 -28
t-45.5 -75q-12 -85 90 -100l102 -15q63 -9 94 -51.5t21 -105.5q-11 -69 -63.5 -109.5t-130.5 -40.5h-67z" />
    <glyph glyph-name="t" unicode="t" 
d="M316 0q-63 0 -91.5 32t-18.5 93l60 380h-160l7 45h160l24 150h50l-24 -150h225l-7 -45h-225l-60 -380q-12 -80 67 -80h135l-7 -45h-135z" />
    <glyph glyph-name="u" unicode="u" 
d="M253 -10q-89 0 -131 54.5t-27 149.5l56 356h50l-56 -356q-12 -75 19 -117t97 -42q67 0 111.5 42t56.5 117l56 356h50l-56 -356q-15 -94 -75.5 -149t-150.5 -55z" />
    <glyph glyph-name="v" unicode="v" 
d="M225 0l-106 550h49l75 -410q5 -27 10 -56.5t7 -46.5q8 17 21.5 46.5t27.5 56.5l204 410h54l-280 -550h-62z" />
    <glyph glyph-name="w" unicode="w" 
d="M99 0l-6 550h46l3 -409q0 -22 -0.5 -53.5t-1.5 -52.5q5 21 15 52t17 53l145 410h51l15 -410q1 -22 1 -53t-1 -52q5 21 13.5 52.5t15.5 53.5l133 409h48l-181 -550h-66l-7 391q-1 27 -1 60.5t-1 55.5q-7 -22 -18 -55.5t-20 -60.5l-134 -391h-66z" />
    <glyph glyph-name="x" unicode="x" 
d="M31 0l242 283l-143 267h56l102 -200q5 -8 9.5 -18t8.5 -17q5 7 13 17.5t14 17.5l163 200h61l-227 -269l151 -281h-55l-109 210q-4 9 -10.5 20t-10.5 18q-5 -7 -14 -18t-17 -20l-174 -210h-60z" />
    <glyph glyph-name="y" unicode="y" 
d="M94 -180l8 45h145q120 0 140 120l10 65l15 94q-22 -48 -66.5 -76t-103.5 -28q-81 0 -121.5 52.5t-26.5 140.5l50 317h50l-49 -310q-12 -74 19 -115.5t95 -41.5q66 0 111.5 42t56.5 115l49 310h50l-89 -565q-27 -165 -198 -165h-145z" />
    <glyph glyph-name="z" unicode="z" 
d="M59 0l7 46l395 459h-313l7 45h372l-7 -47l-396 -458h336l-7 -45h-394z" />
    <glyph glyph-name="braceleft" unicode="{" 
d="M384 -110q-72 0 -107.5 39.5t-19.5 110.5l47 197q12 53 -4 76t-81 23h-110l8 46h110q62 0 86.5 22.5t28.5 77.5l17 198q6 71 53.5 110.5t119.5 39.5h55l-7 -45h-55q-46 0 -79 -28t-37 -77l-17 -198q-4 -48 -29.5 -80t-64.5 -42q36 -9 51.5 -42t4.5 -81l-47 -197
q-11 -49 13.5 -77t70.5 -28h55l-7 -45h-55z" />
    <glyph glyph-name="bar" unicode="|" 
d="M214 -110l148 940h50l-148 -940h-50z" />
    <glyph glyph-name="braceright" unicode="}" 
d="M39 -110l7 45h54q47 0 79.5 28t36.5 77l18 197q4 48 30 81t65 42q-36 10 -52 42t-5 80l46 198q11 49 -13 77t-71 28h-54l7 45h54q72 0 108 -39.5t19 -110.5l-46 -198q-12 -55 6 -77.5t79 -22.5h110l-8 -46h-110q-64 0 -87 -23t-28 -76l-18 -197q-6 -71 -53.5 -110.5
t-119.5 -39.5h-54z" />
    <glyph glyph-name="asciitilde" unicode="~" 
d="M87 260l12 75q8 51 40.5 80.5t81.5 29.5q34 0 56 -14.5t36.5 -35.5t27.5 -42.5t29.5 -36t43.5 -14.5q26 0 43.5 18t22.5 50l11 75h45l-11 -75q-8 -52 -39.5 -81t-78.5 -29q-36 0 -58 14.5t-37 36t-27.5 42.5t-28 35.5t-41.5 14.5q-28 0 -47 -18t-24 -50l-12 -75h-45z" />
    <glyph glyph-name="deletecontrol" unicode="&#x2421;" 
d="M17.7812 245l38.2822 240.912h52.8027q22.4404 0 37.6221 -9.0752q15.1807 -9.0752 21.9453 -25.4111q6.76562 -16.3359 3.13574 -38.1172l-15.1807 -95.7051q-3.30078 -21.7812 -15.3457 -38.1172q-12.0459 -16.335 -30.0322 -25.4111
q-17.9854 -9.0752 -40.4268 -9.0752h-52.8027zM36.5918 260.181h36.3018q26.0713 0 44.3877 15.6758t22.6064 41.7471l15.1807 95.7051q3.95996 25.7412 -9.57031 41.582q-13.5312 15.8408 -39.2725 15.8408h-36.3018zM220.081 245l38.2822 240.912h128.707
l-2.64062 -15.1807h-112.206l-14.5205 -92.7344h100.655l-2.30957 -14.8506h-100.655l-16.501 -102.966h112.205l-2.30957 -15.1807h-128.707zM437.682 245l38.2822 240.912h16.501l-35.9727 -225.731h117.156l-2.30957 -15.1807h-133.657z" />
    <glyph glyph-name="deletecontrol" 
d="M17.7812 245l38.2822 240.912h52.8027q22.4404 0 37.6221 -9.0752q15.1807 -9.0752 21.9453 -25.4111q6.76562 -16.3359 3.13574 -38.1172l-15.1807 -95.7051q-3.30078 -21.7812 -15.3457 -38.1172q-12.0459 -16.335 -30.0322 -25.4111
q-17.9854 -9.0752 -40.4268 -9.0752h-52.8027zM36.5918 260.181h36.3018q26.0713 0 44.3877 15.6758t22.6064 41.7471l15.1807 95.7051q3.95996 25.7412 -9.57031 41.582q-13.5312 15.8408 -39.2725 15.8408h-36.3018zM220.081 245l38.2822 240.912h128.707
l-2.64062 -15.1807h-112.206l-14.5205 -92.7344h100.655l-2.30957 -14.8506h-100.655l-16.501 -102.966h112.205l-2.30957 -15.1807h-128.707zM437.682 245l38.2822 240.912h16.501l-35.9727 -225.731h117.156l-2.30957 -15.1807h-133.657z" />
    <glyph glyph-name="uni00A0" unicode="&#xa0;" 
 />
    <glyph glyph-name="exclamdown" unicode="&#xa1;" 
d="M323 445q-25 0 -37.5 15t-8.5 40t21.5 40t42.5 15h5q25 0 37.5 -15t8.5 -40t-21.5 -40t-42.5 -15h-5zM199 -180l26 160l74 365h30l-42 -365l-26 -160h-62z" />
    <glyph glyph-name="cent" unicode="&#xa2;" 
d="M220 -140l21 130q-84 5 -124 58.5t-26 141.5l27 170q14 87 71.5 140.5t140.5 58.5l21 131h40l-21 -131q80 -7 119 -57.5t26 -131.5h-50q10 61 -17.5 98.5t-84.5 44.5l-75 -476q59 7 98 44.5t49 98.5h50q-13 -81 -68 -131.5t-136 -57.5l-21 -131h-40zM141 190
q-11 -68 18 -108t89 -45l75 476q-62 -4 -103 -44.5t-52 -108.5z" />
    <glyph glyph-name="sterling" unicode="&#xa3;" 
d="M31 0l8 50q30 16 64.5 44.5t61 64.5t32.5 76q4 25 3.5 46t-4.5 39h-114l7 45h95q-10 28 -20.5 54.5t-16 57t0.5 69.5q14 90 74.5 142t150.5 52q98 0 148.5 -51t37.5 -139h-50q11 68 -28 106.5t-116 38.5q-66 0 -111 -40t-56 -110q-6 -37 -0.5 -67t16 -57.5t19.5 -55.5
h216l-7 -45h-196q3 -19 4 -40t-3 -45q-6 -41 -32 -78t-59.5 -66t-62.5 -46h405l-7 -45h-460z" />
    <glyph glyph-name="currency" unicode="&#xa4;" 
d="M485 130l-72 84q-28 -18 -60.5 -28t-67.5 -10t-65 10.5t-52 29.5l-98 -85l-30 35l97 84q-14 25 -20.5 56t-0.5 67q12 71 60 122l-71 86l40 35l72 -87q59 41 130 41q35 0 64.5 -10t52.5 -29l98 85l29 -35l-98 -85q16 -24 22.5 -55.5t0.5 -67.5t-22 -67.5t-41 -57.5l71 -83
zM292 224q42 0 79 19.5t62 53.5t31 76q7 43 -7 76.5t-44.5 53t-72.5 19.5t-78.5 -19.5t-61.5 -53t-32 -76.5q-6 -42 8 -76t44 -53.5t72 -19.5z" />
    <glyph glyph-name="yen" unicode="&#xa5;" 
d="M39 145l8 50h215l11 75h-214l8 50h194l-139 410h50l112 -330q8 -22 14 -41t9 -29q6 9 17.5 28.5t26.5 41.5l217 330h54l-271 -410h196l-8 -50h-216l-11 -75h215l-8 -50h-215l-23 -145h-50l23 145h-215z" />
    <glyph glyph-name="brokenbar" unicode="&#xa6;" 
d="M302 450l60 380h50l-60 -380h-50zM214 -110l60 380h50l-60 -380h-50z" />
    <glyph glyph-name="section" unicode="&#xa7;" 
d="M203 -155q-75 0 -117 40.5t-39 104.5h50q1 -43 31.5 -71.5t82.5 -28.5h67q55 0 91.5 28.5t43.5 75.5q7 44 -14 77t-62 43l-103 25q-67 17 -99.5 59.5t-22.5 103.5q8 53 45 93t89 54l1 4q-23 5 -46.5 22t-36.5 46t-6 70q11 68 64.5 108.5t132.5 40.5h42q75 0 116.5 -37
t39.5 -98h-50q0 39 -30 64.5t-83 25.5h-42q-56 0 -93.5 -28t-45.5 -75q-7 -41 16 -69t71 -40l102 -25q59 -15 90.5 -57.5t21.5 -103.5q-8 -54 -44 -94.5t-85 -51.5l-1 -4q22 -6 44 -24t34 -48t5 -73q-11 -71 -63.5 -114t-129.5 -43h-67zM318 171q30 -7 60.5 7.5t53 44
t28.5 66.5q7 44 -14 77t-62 43l-71 17q-30 8 -62.5 -8t-57 -46.5t-30.5 -68.5q-7 -41 15.5 -72t71.5 -43z" />
    <glyph glyph-name="dieresis" unicode="&#xa8;" 
d="M469 655q-24 0 -36.5 15t-8.5 40q5 25 21.5 40t40.5 15q23 0 35 -15t7 -40q-4 -25 -20 -40t-39 -15zM254 655q-23 0 -35.5 15t-8.5 40q5 25 21.5 40t39.5 15t35.5 -15t7.5 -40q-4 -25 -20.5 -40t-39.5 -15z" />
    <glyph glyph-name="copyright" unicode="&#xa9;" 
d="M273 110q-74 0 -125.5 30t-73.5 84t-11 126l24 150q12 73 51.5 126.5t100 83.5t134.5 30q75 0 126 -30t73.5 -83.5t10.5 -126.5l-24 -150q-11 -72 -51 -126t-100 -84t-135 -30zM279 148q61 0 111 25.5t83.5 71t42.5 105.5l24 150q10 61 -9 106t-61 70.5t-103 25.5
t-111 -25.5t-83 -70.5t-43 -106l-24 -150q-9 -60 9.5 -105.5t60.5 -71t103 -25.5zM300 245q-52 0 -78.5 31.5t-18.5 83.5l21 130q8 52 44.5 83.5t88.5 31.5q51 0 77.5 -31.5t18.5 -83.5h-45q5 34 -11 54.5t-47 20.5t-53.5 -20.5t-27.5 -54.5l-21 -130q-5 -34 11 -54.5
t47 -20.5t53.5 20.5t27.5 54.5h45q-8 -52 -44.5 -83.5t-87.5 -31.5z" />
    <glyph glyph-name="ordfeminine" unicode="&#xaa;" 
d="M301 450q-43 0 -65 23t-15 62q6 38 35.5 61.5t72.5 23.5h105l5 30q5 27 -13.5 43.5t-52.5 16.5q-29 0 -51.5 -13.5t-30.5 -36.5h-35q12 36 45.5 58t76.5 22q50 0 76.5 -24.5t19.5 -65.5l-31 -195h-32l9 55h-3q-14 -27 -46 -43.5t-70 -16.5zM319 478q42 0 70.5 21t34.5 56
v0l6 35h-106q-27 0 -45.5 -15t-22.5 -40q-4 -26 13 -41.5t50 -15.5z" />
    <glyph glyph-name="guillemotleft" unicode="&#xab;" 
d="M453 40l-173 240l246 240h62l-247 -241l171 -239h-59zM223 40l-173 240l246 240h62l-247 -241l171 -239h-59z" />
    <glyph glyph-name="logicalnot" unicode="&#xac;" 
d="M470 215l22 140h-410l7 45h460l-29 -185h-50z" />
    <glyph glyph-name="uni00AD" unicode="&#xad;" 
d="M145 308l7 45h320l-7 -45h-320z" />
    <glyph glyph-name="registered" unicode="&#xae;" 
d="M273 110q-74 0 -125.5 30t-73.5 84t-11 126l24 150q12 73 51.5 126.5t100 83.5t134.5 30q75 0 126 -30t73.5 -83.5t10.5 -126.5l-24 -150q-11 -72 -51 -126t-100 -84t-135 -30zM279 148q61 0 111 25.5t83.5 71t42.5 105.5l24 150q10 61 -9 106t-61 70.5t-103 25.5
t-111 -25.5t-83 -70.5t-43 -106l-24 -150q-9 -60 9.5 -105.5t60.5 -71t103 -25.5zM196 250l55 350h105q48 0 73.5 -27.5t17.5 -74.5q-6 -35 -27.5 -60.5t-53.5 -35.5l45 -152h-47l-41 145h-59l-23 -145h-45zM270 435h60q30 0 51.5 17t25.5 45q5 28 -11 45.5t-46 17.5h-60z
" />
    <glyph glyph-name="macron" unicode="&#xaf;" 
d="M225 684l7 43h280l-7 -43h-280z" />
    <glyph glyph-name="degree" unicode="&#xb0;" 
d="M327 450q-65 0 -98.5 40t-23.5 105q11 66 57 105.5t111 39.5t99 -40t23 -105q-10 -65 -56.5 -105t-111.5 -40zM334 490q45 0 77 29t39 76q8 48 -15 77t-68 29t-77 -29t-40 -77q-7 -47 16 -76t68 -29z" />
    <glyph glyph-name="plusminus" unicode="&#xb1;" 
d="M26 0l7 45h203l43 270h-203l7 45h203l33 210h49l-33 -210h208l-7 -45h-208l-43 -270h208l-7 -45h-460z" />
    <glyph glyph-name="uni00B2" unicode="&#xb2;" 
d="M190 405l8 51l168 119q38 27 63 61t29 65q8 46 -13 72.5t-64 26.5t-72 -27.5t-37 -74.5h-45q10 65 53 103.5t107 38.5t95.5 -36.5t21.5 -99.5q-7 -42 -38.5 -86t-79.5 -77l-139 -96h229l-6 -40h-280z" />
    <glyph glyph-name="uni00B3" unicode="&#xb3;" 
d="M303 395q-64 0 -96.5 37t-22.5 98h45q-7 -43 15 -69t65 -26q42 0 71.5 26t36.5 69q7 44 -14.5 70.5t-63.5 26.5h-29l8 46l114 117h-176l6 40h221l-7 -44l-119 -121q57 -4 85.5 -40.5t19.5 -94.5q-10 -61 -53 -98t-106 -37z" />
    <glyph glyph-name="acute" unicode="&#xb4;" 
d="M309 645l128 140h63l-134 -140h-57z" />
    <glyph glyph-name="uni00B5" unicode="&#xb5;" 
d="M38 -180l116 730h50l-57 -360q-12 -74 19 -115.5t98 -41.5q68 0 112 41.5t56 115.5l57 360h50l-87 -550h-50l12 75h-3q-23 -40 -63 -62.5t-91 -22.5q-50 0 -82.5 22.5t-43.5 62.5h-2l-12 -75l-29 -180h-50z" />
    <glyph glyph-name="paragraph" unicode="&#xb6;" 
d="M197 -180l78 490q-76 0 -116 41.5t-30 108.5l19 120q11 68 64.5 109t129.5 41h50l-145 -910h-50zM367 -180l145 910h50l-145 -910h-50z" />
    <glyph glyph-name="periodcentered" unicode="&#xb7;" 
d="M254 265q-34 0 -50 20.5t-11 54.5t28 53.5t57 19.5t50 -19.5t11 -53.5t-28 -54.5t-57 -20.5z" />
    <glyph glyph-name="cedilla" unicode="&#xb8;" 
d="M135 -195l6 35h80q24 0 41 13t19 29q4 24 -26 39t-83 15l49 90h42l-32 -60q23 -1 47 -10t39 -27t10 -47q-4 -32 -35.5 -54.5t-76.5 -22.5h-80z" />
    <glyph glyph-name="uni00B9" unicode="&#xb9;" 
d="M190 405l6 40h129l56 350l-136 -95l8 51l111 79h67l-61 -385h106l-6 -40h-280z" />
    <glyph glyph-name="ordmasculine" unicode="&#xba;" 
d="M326 445q-49 0 -74.5 26t-18.5 69l16 105q7 43 41 69t83 26t75 -26t19 -69l-16 -105q-7 -43 -41.5 -69t-83.5 -26zM331 475q34 0 57.5 18t28.5 47l16 105q5 29 -13 47t-52 18t-57 -18t-28 -47l-16 -105q-5 -29 12.5 -47t51.5 -18z" />
    <glyph glyph-name="guillemotright" unicode="&#xbb;" 
d="M242 40l246 244l-170 236h59l173 -240l-246 -240h-62zM12 40l246 244l-170 236h59l173 -240l-246 -240h-62z" />
    <glyph glyph-name="onequarter" unicode="&#xbc;" 
d="M50 405l6 40h119l41 255q-5 -4 -15 -13t-23 -19l-72 -54l9 55l81 61h70l-46 -285h111l-6 -40h-275zM12 0l583 730h49l-583 -730h-49zM446 0l11 70h-180l11 70l161 185h50l-168 -199l-3 -16h135l17 106h45l-34 -216h-45z" />
    <glyph glyph-name="onehalf" unicode="&#xbd;" 
d="M12 0l323 405h-277l6 40h119l41 255q-5 -4 -15 -13t-23 -19l-72 -54l9 55l81 61h70l-46 -285h121l-4 -28l250 313h49l-583 -730h-49zM286 0l8 51l127 75q78 46 85 98q5 30 -10 48t-46 18q-33 0 -56.5 -20.5t-28.5 -53.5h-45q8 51 45.5 82.5t90.5 31.5q50 0 76.5 -29
t19.5 -74q-12 -75 -116 -135l-84 -48l-1 -4h181l-6 -40h-240z" />
    <glyph glyph-name="threequarters" unicode="&#xbe;" 
d="M173 400q-53 0 -80.5 29t-20.5 76h45q-4 -29 13 -47t50 -18q32 0 54.5 19.5t27.5 50.5q5 29 -11.5 47t-48.5 18h-30l7 43l99 72h-156l7 40h200l-8 -45l-102 -76q45 -4 69.5 -30.5t18.5 -68.5q-8 -49 -44.5 -79.5t-89.5 -30.5zM12 0l583 730h49l-583 -730h-49zM446 0
l11 70h-180l11 70l161 185h50l-168 -199l-3 -16h135l17 106h45l-34 -216h-45z" />
    <glyph glyph-name="questiondown" unicode="&#xbf;" 
d="M361 446q-25 0 -38 15t-9 40q5 25 22 40t42 15h5q25 0 38 -15t8 -40q-4 -25 -21 -40t-42 -15h-5zM239 -169q-95 0 -144 52t-35 143q14 92 79 143.5t161 51.5l20 124h50l-27 -169h-50q-73 0 -122.5 -39.5t-60.5 -110.5q-11 -70 26 -110t110 -40h120l-7 -45h-120z" />
    <glyph glyph-name="Agrave" unicode="&#xc0;" 
d="M24 0l317 730h62l85 -730h-50l-23 210h-250l-89 -210h-52zM184 255h226l-32 295q-6 54 -8 90.5t-3 47.5q-4 -11 -18.5 -47.5t-37.5 -90.5zM368 810l-90 140h58l84 -140h-52z" />
    <glyph glyph-name="Aacute" unicode="&#xc1;" 
d="M24 0l317 730h62l85 -730h-50l-23 210h-250l-89 -210h-52zM184 255h226l-32 295q-6 54 -8 90.5t-3 47.5q-4 -11 -18.5 -47.5t-37.5 -90.5zM346 810l128 140h63l-134 -140h-57z" />
    <glyph glyph-name="Acircumflex" unicode="&#xc2;" 
d="M24 0l317 730h62l85 -730h-50l-23 210h-250l-89 -210h-52zM184 255h226l-32 295q-6 54 -8 90.5t-3 47.5q-4 -11 -18.5 -47.5t-37.5 -90.5zM234 810l142 140h60l98 -140h-47l-83 109l-117 -109h-53z" />
    <glyph glyph-name="Atilde" unicode="&#xc3;" 
d="M24 0l317 730h62l85 -730h-50l-23 210h-250l-89 -210h-52zM184 255h226l-32 295q-6 54 -8 90.5t-3 47.5q-4 -11 -18.5 -47.5t-37.5 -90.5zM460 815q-28 0 -45.5 13.5t-30 32t-25 32t-30.5 13.5q-23 0 -38.5 -14t-19.5 -37l-5 -35h-40l5 35q7 42 35 66t70 24
q28 0 45.5 -13.5t29.5 -32t24.5 -32t30.5 -13.5q21 0 35 14t18 37l6 35h40l-6 -35q-7 -42 -33 -66t-66 -24z" />
    <glyph glyph-name="Adieresis" unicode="&#xc4;" 
d="M24 0l317 730h62l85 -730h-50l-23 210h-250l-89 -210h-52zM184 255h226l-32 295q-6 54 -8 90.5t-3 47.5q-4 -11 -18.5 -47.5t-37.5 -90.5zM497 825q-24 0 -36.5 15t-8.5 40q5 25 21.5 40t40.5 15q23 0 35 -15t7 -40q-4 -25 -20 -40t-39 -15zM282 825q-23 0 -35.5 15
t-8.5 40q5 25 21.5 40t39.5 15t35.5 -15t7.5 -40q-4 -25 -20.5 -40t-39.5 -15z" />
    <glyph glyph-name="Aring" unicode="&#xc5;" 
d="M24 0l317 730h62l85 -730h-50l-23 210h-250l-89 -210h-52zM184 255h226l-32 295q-6 54 -8 90.5t-3 47.5q-4 -11 -18.5 -47.5t-37.5 -90.5zM381 780q-47 0 -72.5 27.5t-18.5 72.5q8 45 41.5 72.5t80.5 27.5t71.5 -27.5t16.5 -72.5q-7 -45 -39.5 -72.5t-79.5 -27.5z
M385 815q29 0 50 18t25 47q5 29 -10 47t-44 18t-50 -18t-26 -47q-4 -29 11 -47t44 -18z" />
    <glyph glyph-name="AE" unicode="&#xc6;" 
d="M-10 0l304 730h347l-8 -45h-209l-44 -283h173l-7 -45h-173l-50 -312h209l-7 -45h-259l34 215h-170l-90 -215h-50zM150 260h157l67 425h-51z" />
    <glyph glyph-name="Ccedilla" unicode="&#xc7;" 
d="M165 -195l6 35h80q24 0 41 13t19 29q4 24 -26 39t-83 15l30 55q-78 9 -116 62t-25 137l56 350q14 92 77.5 146t154.5 54q93 0 139.5 -57t31.5 -153h-50q12 77 -22.5 121t-105.5 44q-70 0 -117 -41.5t-58 -113.5l-56 -350q-11 -72 23 -113.5t104 -41.5q72 0 120 44.5
t60 120.5h50q-15 -93 -76 -149t-149 -61l-13 -24q24 -1 48 -10t39 -27t10 -47q-5 -32 -36 -54.5t-76 -22.5h-80z" />
    <glyph glyph-name="Egrave" unicode="&#xc8;" 
d="M76 0l116 730h390l-8 -46h-340l-44 -281h305l-7 -45h-305l-50 -312h340l-7 -46h-390zM388 810l-90 140h58l84 -140h-52z" />
    <glyph glyph-name="Eacute" unicode="&#xc9;" 
d="M76 0l116 730h390l-8 -46h-340l-44 -281h305l-7 -45h-305l-50 -312h340l-7 -46h-390zM366 810l128 140h63l-134 -140h-57z" />
    <glyph glyph-name="Ecircumflex" unicode="&#xca;" 
d="M76 0l116 730h390l-8 -46h-340l-44 -281h305l-7 -45h-305l-50 -312h340l-7 -46h-390zM254 810l142 140h60l98 -140h-47l-83 109l-117 -109h-53z" />
    <glyph glyph-name="Edieresis" unicode="&#xcb;" 
d="M76 0l116 730h390l-8 -46h-340l-44 -281h305l-7 -45h-305l-50 -312h340l-7 -46h-390zM517 825q-24 0 -36.5 15t-8.5 40q5 25 21.5 40t40.5 15q23 0 35 -15t7 -40q-4 -25 -20 -40t-39 -15zM302 825q-23 0 -35.5 15t-8.5 40q5 25 21.5 40t39.5 15t35.5 -15t7.5 -40
q-4 -25 -20.5 -40t-39.5 -15z" />
    <glyph glyph-name="Igrave" unicode="&#xcc;" 
d="M76 0l7 46h156l101 638h-156l8 46h360l-8 -46h-154l-101 -638h154l-7 -46h-360zM368 810l-90 140h58l84 -140h-52z" />
    <glyph glyph-name="Iacute" unicode="&#xcd;" 
d="M76 0l7 46h156l101 638h-156l8 46h360l-8 -46h-154l-101 -638h154l-7 -46h-360zM346 810l128 140h63l-134 -140h-57z" />
    <glyph glyph-name="Icircumflex" unicode="&#xce;" 
d="M76 0l7 46h156l101 638h-156l8 46h360l-8 -46h-154l-101 -638h154l-7 -46h-360zM234 810l142 140h60l98 -140h-47l-83 109l-117 -109h-53z" />
    <glyph glyph-name="Idieresis" unicode="&#xcf;" 
d="M76 0l7 46h156l101 638h-156l8 46h360l-8 -46h-154l-101 -638h154l-7 -46h-360zM497 825q-24 0 -36.5 15t-8.5 40q5 25 21.5 40t40.5 15q23 0 35 -15t7 -40q-4 -25 -20 -40t-39 -15zM282 825q-23 0 -35.5 15t-8.5 40q5 25 21.5 40t39.5 15t35.5 -15t7.5 -40
q-4 -25 -20.5 -40t-39.5 -15z" />
    <glyph glyph-name="Eth" unicode="&#xd0;" 
d="M66 0l56 351h-112v44h119l53 335h160q68 0 114 -27.5t66.5 -77t9.5 -115.5l-46 -290q-10 -66 -46.5 -115.5t-91 -77t-122.5 -27.5h-160zM123 46h110q79 0 134.5 47.5t68.5 126.5l46 290q12 78 -29 126t-119 48h-110l-46 -289h112v-44h-119z" />
    <glyph glyph-name="Ntilde" unicode="&#xd1;" 
d="M66 0l116 730h67l162 -675q2 20 5 44l5.5 44t3.5 27l89 560h48l-116 -730h-68l-159 675q-1 -14 -5.5 -45.5t-10.5 -69.5l-89 -560h-48zM460 815q-28 0 -45.5 13.5t-30 32t-25 32t-30.5 13.5q-23 0 -38.5 -14t-19.5 -37l-5 -35h-40l5 35q7 42 35 66t70 24q28 0 45.5 -13.5
t29.5 -32t24.5 -32t30.5 -13.5q21 0 35 14t18 37l6 35h40l-6 -35q-7 -42 -33 -66t-66 -24z" />
    <glyph glyph-name="Ograve" unicode="&#xd2;" 
d="M254 -10q-88 0 -132.5 54.5t-30.5 145.5l56 350q10 61 41 105.5t78.5 69.5t106.5 25q89 0 133.5 -54.5t30.5 -145.5l-56 -350q-14 -91 -76 -145.5t-151 -54.5zM261 34q69 0 113.5 41t56.5 115l56 350q11 74 -21 115t-100 41t-113 -41t-56 -115l-56 -350
q-12 -74 19.5 -115t100.5 -41zM368 810l-90 140h58l84 -140h-52z" />
    <glyph glyph-name="Oacute" unicode="&#xd3;" 
d="M254 -10q-88 0 -132.5 54.5t-30.5 145.5l56 350q10 61 41 105.5t78.5 69.5t106.5 25q89 0 133.5 -54.5t30.5 -145.5l-56 -350q-14 -91 -76 -145.5t-151 -54.5zM261 34q69 0 113.5 41t56.5 115l56 350q11 74 -21 115t-100 41t-113 -41t-56 -115l-56 -350
q-12 -74 19.5 -115t100.5 -41zM346 810l128 140h63l-134 -140h-57z" />
    <glyph glyph-name="Ocircumflex" unicode="&#xd4;" 
d="M254 -10q-88 0 -132.5 54.5t-30.5 145.5l56 350q10 61 41 105.5t78.5 69.5t106.5 25q89 0 133.5 -54.5t30.5 -145.5l-56 -350q-14 -91 -76 -145.5t-151 -54.5zM261 34q69 0 113.5 41t56.5 115l56 350q11 74 -21 115t-100 41t-113 -41t-56 -115l-56 -350
q-12 -74 19.5 -115t100.5 -41zM234 810l142 140h60l98 -140h-47l-83 109l-117 -109h-53z" />
    <glyph glyph-name="Otilde" unicode="&#xd5;" 
d="M254 -10q-88 0 -132.5 54.5t-30.5 145.5l56 350q10 61 41 105.5t78.5 69.5t106.5 25q89 0 133.5 -54.5t30.5 -145.5l-56 -350q-14 -91 -76 -145.5t-151 -54.5zM261 34q69 0 113.5 41t56.5 115l56 350q11 74 -21 115t-100 41t-113 -41t-56 -115l-56 -350
q-12 -74 19.5 -115t100.5 -41zM460 815q-28 0 -45.5 13.5t-30 32t-25 32t-30.5 13.5q-23 0 -38.5 -14t-19.5 -37l-5 -35h-40l5 35q7 42 35 66t70 24q28 0 45.5 -13.5t29.5 -32t24.5 -32t30.5 -13.5q21 0 35 14t18 37l6 35h40l-6 -35q-7 -42 -33 -66t-66 -24z" />
    <glyph glyph-name="Odieresis" unicode="&#xd6;" 
d="M254 -10q-88 0 -132.5 54.5t-30.5 145.5l56 350q10 61 41 105.5t78.5 69.5t106.5 25q89 0 133.5 -54.5t30.5 -145.5l-56 -350q-14 -91 -76 -145.5t-151 -54.5zM261 34q69 0 113.5 41t56.5 115l56 350q11 74 -21 115t-100 41t-113 -41t-56 -115l-56 -350
q-12 -74 19.5 -115t100.5 -41zM497 825q-24 0 -36.5 15t-8.5 40q5 25 21.5 40t40.5 15q23 0 35 -15t7 -40q-4 -25 -20 -40t-39 -15zM282 825q-23 0 -35.5 15t-8.5 40q5 25 21.5 40t39.5 15t35.5 -15t7.5 -40q-4 -25 -20.5 -40t-39.5 -15z" />
    <glyph glyph-name="multiply" unicode="&#xd7;" 
d="M127 142l-32 37l177 152l-127 151l40 34l127 -151l176 153l32 -37l-176 -153l127 -151l-40 -34l-127 151z" />
    <glyph glyph-name="Oslash" unicode="&#xd8;" 
d="M0 -40l96 131q-14 44 -5 99l56 350q10 61 41 105.5t78.5 69.5t106.5 25q50 0 87 -18t57 -52l58 80h50l-90 -124q9 -39 2 -86l-56 -350q-15 -91 -76.5 -145.5t-150.5 -54.5q-94 0 -138 61l-66 -91h-50zM141 190q-4 -22 -3 -41l345 475q-24 72 -117 72q-68 0 -112.5 -41
t-56.5 -115zM261 34q69 0 113.5 41t56.5 115l56 350q2 12 3 24l-342 -469q27 -61 113 -61z" />
    <glyph glyph-name="Ugrave" unicode="&#xd9;" 
d="M255 -10q-88 0 -131.5 54.5t-29.5 145.5l86 540h50l-86 -540q-11 -73 20.5 -114t98.5 -41t110.5 41t54.5 114l86 540h50l-86 -540q-9 -60 -40 -105t-78 -70t-105 -25zM368 810l-90 140h58l84 -140h-52z" />
    <glyph glyph-name="Uacute" unicode="&#xda;" 
d="M255 -10q-88 0 -131.5 54.5t-29.5 145.5l86 540h50l-86 -540q-11 -73 20.5 -114t98.5 -41t110.5 41t54.5 114l86 540h50l-86 -540q-9 -60 -40 -105t-78 -70t-105 -25zM346 810l128 140h63l-134 -140h-57z" />
    <glyph glyph-name="Ucircumflex" unicode="&#xdb;" 
d="M255 -10q-88 0 -131.5 54.5t-29.5 145.5l86 540h50l-86 -540q-11 -73 20.5 -114t98.5 -41t110.5 41t54.5 114l86 540h50l-86 -540q-9 -60 -40 -105t-78 -70t-105 -25zM234 810l142 140h60l98 -140h-47l-83 109l-117 -109h-53z" />
    <glyph glyph-name="Udieresis" unicode="&#xdc;" 
d="M255 -10q-88 0 -131.5 54.5t-29.5 145.5l86 540h50l-86 -540q-11 -73 20.5 -114t98.5 -41t110.5 41t54.5 114l86 540h50l-86 -540q-9 -60 -40 -105t-78 -70t-105 -25zM497 825q-24 0 -36.5 15t-8.5 40q5 25 21.5 40t40.5 15q23 0 35 -15t7 -40q-4 -25 -20 -40t-39 -15z
M282 825q-23 0 -35.5 15t-8.5 40q5 25 21.5 40t39.5 15t35.5 -15t7.5 -40q-4 -25 -20.5 -40t-39.5 -15z" />
    <glyph glyph-name="Yacute" unicode="&#xdd;" 
d="M231 0l44 280l-153 450h50l112 -330q8 -22 14 -41t9 -29q6 9 17.5 28.5t26.5 41.5l217 330h54l-297 -450l-44 -280h-50zM346 810l128 140h63l-134 -140h-57z" />
    <glyph glyph-name="Thorn" unicode="&#xde;" 
d="M61 0l116 730h50l-27 -165h178q91 0 136.5 -49.5t31.5 -135.5q-13 -85 -74 -135t-152 -50h-178l-31 -195h-50zM149 241h178q68 0 113.5 37.5t55.5 101.5q11 65 -23 102.5t-102 37.5h-178z" />
    <glyph glyph-name="germandbls" unicode="&#xdf;" 
d="M-132 -180l8 45h89q38 0 62 21t30 59l95 598q10 59 41 103.5t79 69t106 24.5q92 0 135.5 -51.5t29.5 -138.5q-11 -66 -49.5 -113t-93.5 -61q59 -12 87 -56t17 -112q-15 -96 -79.5 -152t-163.5 -56h-62l7 45h62q79 0 126 41t59 114q11 73 -23 112.5t-113 39.5h-40l7 45h40
q67 0 112.5 41t55.5 107q11 69 -20.5 109.5t-100.5 40.5q-66 0 -112 -41.5t-57 -110.5l-95 -598q-9 -58 -49 -91.5t-101 -33.5h-89z" />
    <glyph glyph-name="agrave" unicode="&#xe0;" 
d="M241 -10q-82 0 -123 54.5t-27 144.5l27 171q10 60 39.5 105t74.5 70t100 25q53 0 88.5 -22.5t47.5 -62.5h3l12 75h50l-87 -550h-50l12 75h-4q-24 -40 -67 -62.5t-96 -22.5zM258 33q68 0 112.5 41.5t55.5 114.5l27 171q11 74 -19.5 115.5t-98.5 41.5q-67 0 -111.5 -41.5
t-55.5 -115.5l-27 -171q-11 -73 19.5 -114.5t97.5 -41.5zM348 645l-90 140h58l84 -140h-52z" />
    <glyph glyph-name="aacute" unicode="&#xe1;" 
d="M241 -10q-82 0 -123 54.5t-27 144.5l27 171q10 60 39.5 105t74.5 70t100 25q53 0 88.5 -22.5t47.5 -62.5h3l12 75h50l-87 -550h-50l12 75h-4q-24 -40 -67 -62.5t-96 -22.5zM258 33q68 0 112.5 41.5t55.5 114.5l27 171q11 74 -19.5 115.5t-98.5 41.5q-67 0 -111.5 -41.5
t-55.5 -115.5l-27 -171q-11 -73 19.5 -114.5t97.5 -41.5zM335 645l128 140h63l-134 -140h-57z" />
    <glyph glyph-name="acircumflex" unicode="&#xe2;" 
d="M241 -10q-82 0 -123 54.5t-27 144.5l27 171q10 60 39.5 105t74.5 70t100 25q53 0 88.5 -22.5t47.5 -62.5h3l12 75h50l-87 -550h-50l12 75h-4q-24 -40 -67 -62.5t-96 -22.5zM258 33q68 0 112.5 41.5t55.5 114.5l27 171q11 74 -19.5 115.5t-98.5 41.5q-67 0 -111.5 -41.5
t-55.5 -115.5l-27 -171q-11 -73 19.5 -114.5t97.5 -41.5zM213 645l142 140h60l98 -140h-47l-84 109l-116 -109h-53z" />
    <glyph glyph-name="atilde" unicode="&#xe3;" 
d="M241 -10q-82 0 -123 54.5t-27 144.5l27 171q10 60 39.5 105t74.5 70t100 25q53 0 88.5 -22.5t47.5 -62.5h3l12 75h50l-87 -550h-50l12 75h-4q-24 -40 -67 -62.5t-96 -22.5zM258 33q68 0 112.5 41.5t55.5 114.5l27 171q11 74 -19.5 115.5t-98.5 41.5q-67 0 -111.5 -41.5
t-55.5 -115.5l-27 -171q-11 -73 19.5 -114.5t97.5 -41.5zM439 650q-28 0 -45.5 13.5t-30 32t-25 32t-30.5 13.5q-23 0 -38.5 -14t-19.5 -37l-5 -35h-40l5 35q7 42 35 66t70 24q28 0 45.5 -13.5t29.5 -32t24.5 -32t30.5 -13.5q21 0 35 14t18 37l6 35h40l-6 -35
q-7 -42 -33 -66t-66 -24z" />
    <glyph glyph-name="adieresis" unicode="&#xe4;" 
d="M241 -10q-82 0 -123 54.5t-27 144.5l27 171q10 60 39.5 105t74.5 70t100 25q53 0 88.5 -22.5t47.5 -62.5h3l12 75h50l-87 -550h-50l12 75h-4q-24 -40 -67 -62.5t-96 -22.5zM258 33q68 0 112.5 41.5t55.5 114.5l27 171q11 74 -19.5 115.5t-98.5 41.5q-67 0 -111.5 -41.5
t-55.5 -115.5l-27 -171q-11 -73 19.5 -114.5t97.5 -41.5zM473 655q-24 0 -36.5 15t-8.5 40q5 25 21.5 40t40.5 15q23 0 35 -15t7 -40q-4 -25 -20 -40t-39 -15zM258 655q-23 0 -35.5 15t-8.5 40q5 25 21.5 40t39.5 15t35.5 -15t7.5 -40q-4 -25 -20.5 -40t-39.5 -15z" />
    <glyph glyph-name="aring" unicode="&#xe5;" 
d="M241 -10q-82 0 -123 54.5t-27 144.5l27 171q10 60 39.5 105t74.5 70t100 25q53 0 88.5 -22.5t47.5 -62.5h3l12 75h50l-87 -550h-50l12 75h-4q-24 -40 -67 -62.5t-96 -22.5zM258 33q68 0 112.5 41.5t55.5 114.5l27 171q11 74 -19.5 115.5t-98.5 41.5q-67 0 -111.5 -41.5
t-55.5 -115.5l-27 -171q-11 -73 19.5 -114.5t97.5 -41.5zM359 615q-47 0 -72 27.5t-18 72.5q8 45 41.5 72.5t80.5 27.5t71.5 -27.5t16.5 -72.5q-7 -45 -40 -72.5t-80 -27.5zM364 650q29 0 50 18t25 47q5 29 -10 47t-44 18t-50 -18t-26 -47q-4 -29 11 -47t44 -18z" />
    <glyph glyph-name="ae" unicode="&#xe6;" 
d="M128 -10q-62 0 -91 41t-19 108l7 46q10 59 50 93.5t101 34.5h108l15 97q8 46 -14 76t-64 30q-39 0 -68 -25.5t-40 -65.5h-50q15 62 58 98.5t104 36.5q39 0 62.5 -14t34.5 -33.5t11 -38.5h2q8 19 25.5 38.5t45 33.5t62.5 14q63 0 93.5 -41t19.5 -109l-23 -142h-232
l-20 -128q-7 -46 14.5 -75.5t64.5 -29.5q39 0 65.5 25t36.5 65h50q-15 -61 -55.5 -98t-101.5 -37q-38 0 -62 13.5t-34.5 33.5t-11.5 38h-3q-6 -18 -24 -38t-47 -33.5t-70 -13.5zM334 313h182l15 97q7 45 -12.5 75.5t-60.5 30.5q-40 0 -71 -30.5t-38 -75.5zM144 32
q41 0 73 31t39 77l20 128h-108q-35 0 -61 -23t-32 -60l-7 -46q-7 -46 13.5 -76.5t62.5 -30.5z" />
    <glyph glyph-name="ccedilla" unicode="&#xe7;" 
d="M137 -195l6 35h80q24 0 41 13t19 29q4 24 -26 39t-83 15l32 59q-66 14 -96.5 65.5t-18.5 129.5l27 170q10 61 41 105.5t79.5 69.5t108.5 25q91 0 136.5 -51.5t31.5 -138.5h-50q11 68 -23 106t-103 38q-68 0 -114 -40.5t-57 -113.5l-27 -170q-11 -72 22 -113t101 -41
q69 0 114.5 38.5t56.5 105.5h50q-14 -87 -76 -138.5t-153 -51.5h-10l-13 -24q23 -1 47 -10t39 -27t10 -47q-4 -32 -35.5 -54.5t-76.5 -22.5h-80z" />
    <glyph glyph-name="egrave" unicode="&#xe8;" 
d="M255 -10q-92 0 -135 54.5t-29 145.5l27 170q14 91 75.5 145.5t152.5 54.5t133.5 -54.5t28.5 -145.5l-15 -95h-340l-12 -75q-11 -72 20 -114t101 -42q56 0 96.5 27t62.5 74h50q-25 -67 -82 -106t-134 -39zM160 308h289l9 52q12 72 -19 114t-100 42q-70 0 -115 -41.5
t-56 -114.5zM343 645l-90 140h58l84 -140h-52z" />
    <glyph glyph-name="eacute" unicode="&#xe9;" 
d="M255 -10q-92 0 -135 54.5t-29 145.5l27 170q14 91 75.5 145.5t152.5 54.5t133.5 -54.5t28.5 -145.5l-15 -95h-340l-12 -75q-11 -72 20 -114t101 -42q56 0 96.5 27t62.5 74h50q-25 -67 -82 -106t-134 -39zM160 308h289l9 52q12 72 -19 114t-100 42q-70 0 -115 -41.5
t-56 -114.5zM330 645l128 140h63l-134 -140h-57z" />
    <glyph glyph-name="ecircumflex" unicode="&#xea;" 
d="M255 -10q-92 0 -135 54.5t-29 145.5l27 170q14 91 75.5 145.5t152.5 54.5t133.5 -54.5t28.5 -145.5l-15 -95h-340l-12 -75q-11 -72 20 -114t101 -42q56 0 96.5 27t62.5 74h50q-25 -67 -82 -106t-134 -39zM160 308h289l9 52q12 72 -19 114t-100 42q-70 0 -115 -41.5
t-56 -114.5zM208 645l142 140h60l98 -140h-47l-84 109l-116 -109h-53z" />
    <glyph glyph-name="edieresis" unicode="&#xeb;" 
d="M255 -10q-92 0 -135 54.5t-29 145.5l27 170q14 91 75.5 145.5t152.5 54.5t133.5 -54.5t28.5 -145.5l-15 -95h-340l-12 -75q-11 -72 20 -114t101 -42q56 0 96.5 27t62.5 74h50q-25 -67 -82 -106t-134 -39zM160 308h289l9 52q12 72 -19 114t-100 42q-70 0 -115 -41.5
t-56 -114.5zM468 655q-24 0 -36.5 15t-8.5 40q5 25 21.5 40t40.5 15q23 0 35 -15t7 -40q-4 -25 -20 -40t-39 -15zM253 655q-23 0 -35.5 15t-8.5 40q5 25 21.5 40t39.5 15t35.5 -15t7.5 -40q-4 -25 -20.5 -40t-39.5 -15z" />
    <glyph glyph-name="igrave" unicode="&#xec;" 
d="M51 0l7 45h201l73 460h-176l7 45h226l-80 -505h189l-7 -45h-440zM358 645l-90 140h58l84 -140h-52z" />
    <glyph glyph-name="iacute" unicode="&#xed;" 
d="M51 0l7 45h201l73 460h-176l7 45h226l-80 -505h189l-7 -45h-440zM345 645l128 140h63l-134 -140h-57z" />
    <glyph glyph-name="icircumflex" unicode="&#xee;" 
d="M51 0l7 45h201l73 460h-176l7 45h226l-80 -505h189l-7 -45h-440zM223 645l142 140h60l98 -140h-47l-84 109l-116 -109h-53z" />
    <glyph glyph-name="idieresis" unicode="&#xef;" 
d="M51 0l7 45h201l73 460h-176l7 45h226l-80 -505h189l-7 -45h-440zM483 655q-24 0 -36.5 15t-8.5 40q5 25 21.5 40t40.5 15q23 0 35 -15t7 -40q-4 -25 -20 -40t-39 -15zM268 655q-23 0 -35.5 15t-8.5 40q5 25 21.5 40t39.5 15t35.5 -15t7.5 -40q-4 -25 -20.5 -40t-39.5 -15
z" />
    <glyph glyph-name="eth" unicode="&#xf0;" 
d="M254 -10q-100 0 -150 61.5t-34 163.5q11 68 44.5 117.5t85 76.5t115.5 27q37 0 65 -14.5t46.5 -35t26.5 -39.5h3q-2 14 -15.5 52t-42.5 92l-56 103l-187 -81l6 44l162 71l-59 102h50l46 -86l170 73l-6 -44l-145 -63l54 -93q98 -170 77 -304q-11 -67 -46 -117.5t-89 -78
t-121 -27.5zM262 40q75 0 127.5 48t65.5 128q8 51 -7 90.5t-48.5 61.5t-81.5 22q-76 0 -128 -47.5t-65 -127.5t24 -127.5t113 -47.5z" />
    <glyph glyph-name="ntilde" unicode="&#xf1;" 
d="M66 0l87 550h50l-15 -94q22 48 66.5 76t103.5 28q81 0 121.5 -52t26.5 -141l-58 -367h-50l57 360q12 74 -18.5 115.5t-95.5 41.5q-66 0 -111.5 -42t-56.5 -115l-57 -360h-50zM435 650q-28 0 -45.5 13.5t-30 32t-25 32t-30.5 13.5q-23 0 -38.5 -14t-19.5 -37l-5 -35h-40
l5 35q7 42 35 66t70 24q28 0 45.5 -13.5t29.5 -32t24.5 -32t30.5 -13.5q21 0 35 14t18 37l6 35h40l-6 -35q-7 -42 -33 -66t-66 -24z" />
    <glyph glyph-name="ograve" unicode="&#xf2;" 
d="M254 -10q-88 0 -132.5 54.5t-30.5 145.5l27 170q10 61 41 105.5t79 69.5t107 25q89 0 133 -54.5t30 -145.5l-27 -170q-14 -91 -76 -145.5t-151 -54.5zM261 34q69 0 113.5 41t56.5 115l27 170q12 74 -20 115t-100 41t-113 -41t-57 -115l-27 -170q-12 -74 19.5 -115
t100.5 -41zM343 645l-90 140h58l84 -140h-52z" />
    <glyph glyph-name="oacute" unicode="&#xf3;" 
d="M254 -10q-88 0 -132.5 54.5t-30.5 145.5l27 170q10 61 41 105.5t79 69.5t107 25q89 0 133 -54.5t30 -145.5l-27 -170q-14 -91 -76 -145.5t-151 -54.5zM261 34q69 0 113.5 41t56.5 115l27 170q12 74 -20 115t-100 41t-113 -41t-57 -115l-27 -170q-12 -74 19.5 -115
t100.5 -41zM330 645l128 140h63l-134 -140h-57z" />
    <glyph glyph-name="ocircumflex" unicode="&#xf4;" 
d="M254 -10q-88 0 -132.5 54.5t-30.5 145.5l27 170q10 61 41 105.5t79 69.5t107 25q89 0 133 -54.5t30 -145.5l-27 -170q-14 -91 -76 -145.5t-151 -54.5zM261 34q69 0 113.5 41t56.5 115l27 170q12 74 -20 115t-100 41t-113 -41t-57 -115l-27 -170q-12 -74 19.5 -115
t100.5 -41zM208 645l142 140h60l98 -140h-47l-84 109l-116 -109h-53z" />
    <glyph glyph-name="otilde" unicode="&#xf5;" 
d="M254 -10q-88 0 -132.5 54.5t-30.5 145.5l27 170q10 61 41 105.5t79 69.5t107 25q89 0 133 -54.5t30 -145.5l-27 -170q-14 -91 -76 -145.5t-151 -54.5zM261 34q69 0 113.5 41t56.5 115l27 170q12 74 -20 115t-100 41t-113 -41t-57 -115l-27 -170q-12 -74 19.5 -115
t100.5 -41zM434 650q-28 0 -45.5 13.5t-30 32t-25 32t-30.5 13.5q-23 0 -38.5 -14t-19.5 -37l-5 -35h-40l5 35q7 42 35 66t70 24q28 0 45.5 -13.5t29.5 -32t24.5 -32t30.5 -13.5q21 0 35 14t18 37l6 35h40l-6 -35q-7 -42 -33 -66t-66 -24z" />
    <glyph glyph-name="odieresis" unicode="&#xf6;" 
d="M254 -10q-88 0 -132.5 54.5t-30.5 145.5l27 170q10 61 41 105.5t79 69.5t107 25q89 0 133 -54.5t30 -145.5l-27 -170q-14 -91 -76 -145.5t-151 -54.5zM261 34q69 0 113.5 41t56.5 115l27 170q12 74 -20 115t-100 41t-113 -41t-57 -115l-27 -170q-12 -74 19.5 -115
t100.5 -41zM468 655q-24 0 -36.5 15t-8.5 40q5 25 21.5 40t40.5 15q23 0 35 -15t7 -40q-4 -25 -20 -40t-39 -15zM253 655q-23 0 -35.5 15t-8.5 40q5 25 21.5 40t39.5 15t35.5 -15t7.5 -40q-4 -25 -20.5 -40t-39.5 -15z" />
    <glyph glyph-name="divide" unicode="&#xf7;" 
d="M328 456q-33 0 -49.5 20t-11.5 52t28 52t56 20t50 -20t12 -52t-28.5 -52t-56.5 -20zM105 309l8 50h400l-8 -50h-400zM267 66q-33 0 -50 20t-12 52t28.5 52t56.5 20t49.5 -20t11.5 -52t-28 -52t-56 -20z" />
    <glyph glyph-name="oslash" unicode="&#xf8;" 
d="M10 -30l91 107q-20 48 -10 113l27 170q10 61 41 105.5t79 69.5t107 25q83 0 127 -48l67 78h51l-95 -111q24 -50 13 -119l-27 -170q-14 -91 -76 -145.5t-151 -54.5q-87 0 -131 52l-62 -72h-51zM141 190q-6 -38 -1 -67l299 350q-31 43 -101 43q-68 0 -113 -41t-57 -115z
M261 34q69 0 113.5 41t56.5 115l27 170q7 42 -1 74l-301 -353q30 -47 105 -47z" />
    <glyph glyph-name="ugrave" unicode="&#xf9;" 
d="M253 -10q-89 0 -131 54.5t-27 149.5l56 356h50l-56 -356q-12 -75 19 -117t97 -42q67 0 111.5 42t56.5 117l56 356h50l-56 -356q-15 -94 -75.5 -149t-150.5 -55zM343 645l-90 140h58l84 -140h-52z" />
    <glyph glyph-name="uacute" unicode="&#xfa;" 
d="M253 -10q-89 0 -131 54.5t-27 149.5l56 356h50l-56 -356q-12 -75 19 -117t97 -42q67 0 111.5 42t56.5 117l56 356h50l-56 -356q-15 -94 -75.5 -149t-150.5 -55zM330 645l128 140h63l-134 -140h-57z" />
    <glyph glyph-name="ucircumflex" unicode="&#xfb;" 
d="M253 -10q-89 0 -131 54.5t-27 149.5l56 356h50l-56 -356q-12 -75 19 -117t97 -42q67 0 111.5 42t56.5 117l56 356h50l-56 -356q-15 -94 -75.5 -149t-150.5 -55zM208 645l142 140h60l98 -140h-47l-84 109l-116 -109h-53z" />
    <glyph glyph-name="udieresis" unicode="&#xfc;" 
d="M253 -10q-89 0 -131 54.5t-27 149.5l56 356h50l-56 -356q-12 -75 19 -117t97 -42q67 0 111.5 42t56.5 117l56 356h50l-56 -356q-15 -94 -75.5 -149t-150.5 -55zM468 655q-24 0 -36.5 15t-8.5 40q5 25 21.5 40t40.5 15q23 0 35 -15t7 -40q-4 -25 -20 -40t-39 -15zM253 655
q-23 0 -35.5 15t-8.5 40q5 25 21.5 40t39.5 15t35.5 -15t7.5 -40q-4 -25 -20.5 -40t-39.5 -15z" />
    <glyph glyph-name="yacute" unicode="&#xfd;" 
d="M94 -180l8 45h145q120 0 140 120l10 65l15 94q-22 -48 -66.5 -76t-103.5 -28q-81 0 -121.5 52.5t-26.5 140.5l50 317h50l-49 -310q-12 -74 19 -115.5t95 -41.5q66 0 111.5 42t56.5 115l49 310h50l-89 -565q-27 -165 -198 -165h-145zM330 645l128 140h63l-134 -140h-57z
" />
    <glyph glyph-name="thorn" unicode="&#xfe;" 
d="M38 -180l29 180h-1l116 730h50l-24 -150l-17 -105h4q24 40 67 62.5t96 22.5q83 0 123.5 -55t26.5 -145l-27 -171q-9 -60 -39 -104.5t-75 -69.5t-100 -25q-53 0 -88.5 22.5t-47.5 62.5h-3l-3 -16h1l-38 -239h-50zM264 33q67 0 111 41.5t56 114.5l27 171q12 74 -19 115.5
t-98 41.5q-68 0 -112 -41.5t-56 -115.5l-27 -171q-12 -73 19.5 -114.5t98.5 -41.5z" />
    <glyph glyph-name="ydieresis" unicode="&#xff;" 
d="M94 -180l8 45h145q120 0 140 120l10 65l15 94q-22 -48 -66.5 -76t-103.5 -28q-81 0 -121.5 52.5t-26.5 140.5l50 317h50l-49 -310q-12 -74 19 -115.5t95 -41.5q66 0 111.5 42t56.5 115l49 310h50l-89 -565q-27 -165 -198 -165h-145zM468 655q-24 0 -36.5 15t-8.5 40
q5 25 21.5 40t40.5 15q23 0 35 -15t7 -40q-4 -25 -20 -40t-39 -15zM253 655q-23 0 -35.5 15t-8.5 40q5 25 21.5 40t39.5 15t35.5 -15t7.5 -40q-4 -25 -20.5 -40t-39.5 -15z" />
    <glyph glyph-name="Amacron" unicode="&#x100;" 
d="M24 0l317 730h62l85 -730h-50l-23 210h-250l-89 -210h-52zM184 255h226l-32 295q-6 54 -8 90.5t-3 47.5q-4 -11 -18.5 -47.5t-37.5 -90.5zM251 854l7 43h280l-7 -43h-280z" />
    <glyph glyph-name="amacron" unicode="&#x101;" 
d="M241 -10q-82 0 -123 54.5t-27 144.5l27 171q10 60 39.5 105t74.5 70t100 25q53 0 88.5 -22.5t47.5 -62.5h3l12 75h50l-87 -550h-50l12 75h-4q-24 -40 -67 -62.5t-96 -22.5zM258 33q68 0 112.5 41.5t55.5 114.5l27 171q11 74 -19.5 115.5t-98.5 41.5q-67 0 -111.5 -41.5
t-55.5 -115.5l-27 -171q-11 -73 19.5 -114.5t97.5 -41.5zM229 684l7 43h280l-7 -43h-280z" />
    <glyph glyph-name="Abreve" unicode="&#x102;" 
d="M24 0l317 730h62l85 -730h-50l-23 210h-250l-89 -210h-52zM184 255h226l-32 295q-6 54 -8 90.5t-3 47.5q-4 -11 -18.5 -47.5t-37.5 -90.5zM384 808q-67 0 -100 38.5t-23 103.5h45q-7 -47 15 -74.5t68 -27.5q47 0 78.5 27.5t38.5 74.5h45q-10 -65 -55 -103.5t-112 -38.5z
" />
    <glyph glyph-name="abreve" unicode="&#x103;" 
d="M241 -10q-82 0 -123 54.5t-27 144.5l27 171q10 60 39.5 105t74.5 70t100 25q53 0 88.5 -22.5t47.5 -62.5h3l12 75h50l-87 -550h-50l12 75h-4q-24 -40 -67 -62.5t-96 -22.5zM258 33q68 0 112.5 41.5t55.5 114.5l27 171q11 74 -19.5 115.5t-98.5 41.5q-67 0 -111.5 -41.5
t-55.5 -115.5l-27 -171q-11 -73 19.5 -114.5t97.5 -41.5zM363 643q-67 0 -100 38.5t-23 103.5h45q-7 -47 15 -74.5t68 -27.5q47 0 78.5 27.5t38.5 74.5h45q-10 -65 -55 -103.5t-112 -38.5z" />
    <glyph glyph-name="Aogonek" unicode="&#x104;" 
d="M24 0l317 730h62l84 -720v0v0l1 -10h-14q-33 -27 -53.5 -54.5t-23.5 -48.5q-4 -23 7.5 -36.5t35.5 -13.5h64l-7 -42h-73q-41 0 -61.5 21.5t-14.5 58.5q4 29 28 59.5t62 57.5l-23 208h-250l-89 -210h-52zM184 255h226l-32 295q-6 54 -8 90.5t-3 47.5q-4 -11 -18.5 -47.5
t-37.5 -90.5z" />
    <glyph glyph-name="aogonek" unicode="&#x105;" 
d="M241 -10q-82 0 -123 54.5t-27 144.5l27 171q10 60 39.5 105t74.5 70t100 25q53 0 88.5 -22.5t47.5 -62.5h3l12 75h50l-87 -550q-33 -27 -53.5 -54.5t-23.5 -48.5q-4 -23 7.5 -36.5t35.5 -13.5h64l-7 -42h-73q-41 0 -61.5 21.5t-14.5 58.5q4 28 27 58.5t60 56.5h-11l12 75
h-4q-24 -40 -67 -62.5t-96 -22.5zM258 33q68 0 112.5 41.5t55.5 114.5l27 171q11 74 -19.5 115.5t-98.5 41.5q-67 0 -111.5 -41.5t-55.5 -115.5l-27 -171q-11 -73 19.5 -114.5t97.5 -41.5z" />
    <glyph glyph-name="Cacute" unicode="&#x106;" 
d="M260 -10q-91 0 -137 54.5t-32 145.5l56 350q14 92 77.5 146t154.5 54q93 0 139.5 -57t31.5 -153h-50q12 77 -22.5 121t-105.5 44q-70 0 -117 -41.5t-58 -113.5l-56 -350q-11 -72 23 -113.5t104 -41.5q72 0 120 44.5t60 120.5h50q-10 -64 -43 -111t-83 -73t-112 -26z
M351 810l128 140h63l-134 -140h-57z" />
    <glyph glyph-name="cacute" unicode="&#x107;" 
d="M256 -10q-91 0 -135 54.5t-30 145.5l27 170q10 61 41 105.5t79.5 69.5t108.5 25q91 0 136.5 -51.5t31.5 -138.5h-50q11 68 -23 106t-103 38q-68 0 -114 -40.5t-57 -113.5l-27 -170q-11 -72 22 -113t101 -41q69 0 114.5 38.5t56.5 105.5h50q-14 -87 -76 -138.5t-153 -51.5
zM332 645l128 140h63l-134 -140h-57z" />
    <glyph glyph-name="Ccircumflex" unicode="&#x108;" 
d="M260 -10q-91 0 -137 54.5t-32 145.5l56 350q14 92 77.5 146t154.5 54q93 0 139.5 -57t31.5 -153h-50q12 77 -22.5 121t-105.5 44q-70 0 -117 -41.5t-58 -113.5l-56 -350q-11 -72 23 -113.5t104 -41.5q72 0 120 44.5t60 120.5h50q-10 -64 -43 -111t-83 -73t-112 -26z
M239 810l142 140h60l98 -140h-47l-83 109l-117 -109h-53z" />
    <glyph glyph-name="ccircumflex" unicode="&#x109;" 
d="M256 -10q-91 0 -135 54.5t-30 145.5l27 170q10 61 41 105.5t79.5 69.5t108.5 25q91 0 136.5 -51.5t31.5 -138.5h-50q11 68 -23 106t-103 38q-68 0 -114 -40.5t-57 -113.5l-27 -170q-11 -72 22 -113t101 -41q69 0 114.5 38.5t56.5 105.5h50q-14 -87 -76 -138.5t-153 -51.5
zM210 645l142 140h60l98 -140h-47l-84 109l-116 -109h-53z" />
    <glyph glyph-name="Cdotaccent" unicode="&#x10a;" 
d="M260 -10q-91 0 -137 54.5t-32 145.5l56 350q14 92 77.5 146t154.5 54q93 0 139.5 -57t31.5 -153h-50q12 77 -22.5 121t-105.5 44q-70 0 -117 -41.5t-58 -113.5l-56 -350q-11 -72 23 -113.5t104 -41.5q72 0 120 44.5t60 120.5h50q-10 -64 -43 -111t-83 -73t-112 -26z
M392 825q-26 0 -40 15t-10 40q5 25 23 40t44 15t40 -15t9 -40q-4 -25 -22 -40t-44 -15z" />
    <glyph glyph-name="cdotaccent" unicode="&#x10b;" 
d="M256 -10q-91 0 -135 54.5t-30 145.5l27 170q10 61 41 105.5t79.5 69.5t108.5 25q91 0 136.5 -51.5t31.5 -138.5h-50q11 68 -23 106t-103 38q-68 0 -114 -40.5t-57 -113.5l-27 -170q-11 -72 22 -113t101 -41q69 0 114.5 38.5t56.5 105.5h50q-14 -87 -76 -138.5t-153 -51.5
zM361 655q-26 0 -39.5 15t-9.5 40t22.5 40t44.5 15t39.5 -15t9.5 -40t-22.5 -40t-44.5 -15z" />
    <glyph glyph-name="Ccaron" unicode="&#x10c;" 
d="M260 -10q-91 0 -137 54.5t-32 145.5l56 350q14 92 77.5 146t154.5 54q93 0 139.5 -57t31.5 -153h-50q12 77 -22.5 121t-105.5 44q-70 0 -117 -41.5t-58 -113.5l-56 -350q-11 -72 23 -113.5t104 -41.5q72 0 120 44.5t60 120.5h50q-10 -64 -43 -111t-83 -73t-112 -26z
M359 810l-98 140h49l84 -109l117 109h50l-142 -140h-60z" />
    <glyph glyph-name="ccaron" unicode="&#x10d;" 
d="M256 -10q-91 0 -135 54.5t-30 145.5l27 170q10 61 41 105.5t79.5 69.5t108.5 25q91 0 136.5 -51.5t31.5 -138.5h-50q11 68 -23 106t-103 38q-68 0 -114 -40.5t-57 -113.5l-27 -170q-11 -72 22 -113t101 -41q69 0 114.5 38.5t56.5 105.5h50q-14 -87 -76 -138.5t-153 -51.5
zM331 645l-98 140h49l84 -109l117 109h50l-142 -140h-60z" />
    <glyph glyph-name="Dcaron" unicode="&#x10e;" 
d="M66 0l116 730h160q68 0 114 -27.5t66.5 -77t9.5 -115.5l-46 -290q-10 -66 -46.5 -115.5t-91 -77t-122.5 -27.5h-160zM123 46h110q79 0 134.5 47.5t68.5 126.5l46 290q12 78 -29 126t-119 48h-110zM354 810l-98 140h49l84 -109l117 109h50l-142 -140h-60z" />
    <glyph glyph-name="dcaron" unicode="&#x10f;" 
d="M553 550l39 180h50l-44 -180h-45zM216 -10q-79 0 -116.5 54t-23.5 145l27 171q14 92 69.5 146t134.5 54q52 0 85 -22.5t43 -62.5h1l17 105l24 150h50l-116 -730h-50l12 75h-2q-22 -40 -62.5 -62.5t-92.5 -22.5zM233 33q62 0 104.5 42t53.5 114l27 171q11 72 -17.5 114.5
t-90.5 42.5q-61 0 -103.5 -42.5t-53.5 -114.5l-27 -171q-11 -72 17.5 -114t89.5 -42z" />
    <glyph glyph-name="Dcroat" unicode="&#x110;" 
d="M66 0l56 351h-112l7 44h112l53 335h160q68 0 114 -27.5t66.5 -77t9.5 -115.5l-46 -290q-10 -66 -46.5 -115.5t-91 -77t-122.5 -27.5h-160zM123 46h110q79 0 134.5 47.5t68.5 126.5l46 290q12 78 -29 126t-119 48h-110l-46 -289h119l-7 -44h-119z" />
    <glyph glyph-name="dcroat" unicode="&#x111;" 
d="M91 189l18 111q10 60 39.5 105t74 70t99.5 25q53 0 89 -22.5t47 -62.5h4l16 105l11 66h-180l7 45h180l16 99h50l-16 -99h100l-7 -45h-100l-93 -586h-50l12 75h-4q-24 -40 -67 -62.5t-96 -22.5q-82 0 -123 54.5t-27 144.5zM141 189q-12 -73 19 -114.5t98 -41.5
q68 0 112 41.5t56 114.5l18 111q11 74 -20 115.5t-99 41.5q-67 0 -111 -41.5t-55 -115.5z" />
    <glyph glyph-name="Emacron" unicode="&#x112;" 
d="M76 0l116 730h390l-8 -46h-340l-44 -281h305l-7 -45h-305l-50 -312h340l-7 -46h-390zM271 854l7 43h280l-7 -43h-280z" />
    <glyph glyph-name="emacron" unicode="&#x113;" 
d="M255 -10q-92 0 -135 54.5t-29 145.5l27 170q14 91 75.5 145.5t152.5 54.5t133.5 -54.5t28.5 -145.5l-15 -95h-340l-12 -75q-11 -72 20 -114t101 -42q56 0 96.5 27t62.5 74h50q-25 -67 -82 -106t-134 -39zM160 308h289l9 52q12 72 -19 114t-100 42q-70 0 -115 -41.5
t-56 -114.5zM224 684l7 43h280l-7 -43h-280z" />
    <glyph glyph-name="Ebreve" unicode="&#x114;" 
d="M76 0l116 730h390l-8 -46h-340l-44 -281h305l-7 -45h-305l-50 -312h340l-7 -46h-390zM404 808q-67 0 -100 38.5t-23 103.5h45q-7 -47 15 -74.5t68 -27.5q47 0 78.5 27.5t38.5 74.5h45q-10 -65 -55 -103.5t-112 -38.5z" />
    <glyph glyph-name="ebreve" unicode="&#x115;" 
d="M255 -10q-92 0 -135 54.5t-29 145.5l27 170q14 91 75.5 145.5t152.5 54.5t133.5 -54.5t28.5 -145.5l-15 -95h-340l-12 -75q-11 -72 20 -114t101 -42q56 0 96.5 27t62.5 74h50q-25 -67 -82 -106t-134 -39zM160 308h289l9 52q12 72 -19 114t-100 42q-70 0 -115 -41.5
t-56 -114.5zM358 643q-67 0 -100 38.5t-23 103.5h45q-7 -47 15 -74.5t68 -27.5q47 0 78.5 27.5t38.5 74.5h45q-10 -65 -55 -103.5t-112 -38.5z" />
    <glyph glyph-name="Edotaccent" unicode="&#x116;" 
d="M76 0l116 730h390l-8 -46h-340l-44 -281h305l-7 -45h-305l-50 -312h340l-7 -46h-390zM407 825q-26 0 -40 15t-10 40q5 25 23 40t44 15t40 -15t9 -40q-4 -25 -22 -40t-44 -15z" />
    <glyph glyph-name="edotaccent" unicode="&#x117;" 
d="M255 -10q-92 0 -135 54.5t-29 145.5l27 170q14 91 75.5 145.5t152.5 54.5t133.5 -54.5t28.5 -145.5l-15 -95h-340l-12 -75q-11 -72 20 -114t101 -42q56 0 96.5 27t62.5 74h50q-25 -67 -82 -106t-134 -39zM160 308h289l9 52q12 72 -19 114t-100 42q-70 0 -115 -41.5
t-56 -114.5zM359 655q-26 0 -39.5 15t-9.5 40t22.5 40t44.5 15t39.5 -15t9.5 -40t-22.5 -40t-44.5 -15z" />
    <glyph glyph-name="Eogonek" unicode="&#x118;" 
d="M76 0l116 730h390l-8 -46h-340l-44 -281h305l-7 -45h-305l-50 -312h340l-7 -46h-49q-33 -27 -53.5 -54.5t-23.5 -48.5q-4 -23 7.5 -36.5t35.5 -13.5h64l-7 -42h-73q-41 0 -61.5 21.5t-14.5 58.5q4 28 27.5 58.5t59.5 56.5h-302z" />
    <glyph glyph-name="eogonek" unicode="&#x119;" 
d="M301 -195q-41 0 -61.5 21.5t-14.5 58.5q4 23 22.5 50.5t57.5 59.5q-25 -5 -50 -5q-92 0 -135 54.5t-29 145.5l27 170q14 91 75.5 145.5t152.5 54.5t133.5 -54.5t28.5 -145.5l-15 -95h-340l-12 -75q-11 -72 20 -114t101 -42q56 0 96.5 27t62.5 74h50q-28 -72 -89 -111
l-31 -24q-33 -27 -53.5 -54.5t-23.5 -48.5q-4 -23 7.5 -36.5t35.5 -13.5h64l-7 -42h-73zM160 308h290l8 52q11 72 -19.5 114t-99.5 42q-70 0 -115 -41.5t-56 -114.5z" />
    <glyph glyph-name="Ecaron" unicode="&#x11a;" 
d="M76 0l116 730h390l-8 -46h-340l-44 -281h305l-7 -45h-305l-50 -312h340l-7 -46h-390zM374 810l-98 140h49l84 -109l117 109h50l-142 -140h-60z" />
    <glyph glyph-name="ecaron" unicode="&#x11b;" 
d="M255 -10q-92 0 -135 54.5t-29 145.5l27 170q14 91 75.5 145.5t152.5 54.5t133.5 -54.5t28.5 -145.5l-15 -95h-340l-12 -75q-11 -72 20 -114t101 -42q56 0 96.5 27t62.5 74h50q-25 -67 -82 -106t-134 -39zM160 308h289l9 52q12 72 -19 114t-100 42q-70 0 -115 -41.5
t-56 -114.5zM329 645l-98 140h49l84 -109l117 109h50l-142 -140h-60z" />
    <glyph glyph-name="Gcircumflex" unicode="&#x11c;" 
d="M260 -10q-91 0 -137 54.5t-32 145.5l56 350q14 92 77.5 146t154.5 54q93 0 139.5 -57t31.5 -153h-50q12 77 -22.5 121t-105.5 44q-70 0 -117 -41.5t-58 -113.5l-56 -350q-11 -72 23 -113.5t104 -41.5q72 0 120 44.5t60 120.5l17 110h-173l7 46h223l-24 -156
q-10 -64 -43 -111t-83 -73t-112 -26zM240 810l142 140h60l98 -140h-47l-83 109l-117 -109h-53z" />
    <glyph glyph-name="gcircumflex" unicode="&#x11d;" 
d="M101 -180l8 45h145q122 0 140 120l7 45l17 111q-21 -47 -66 -74t-103 -27q-82 0 -123 54.5t-27 144.5l19 121q10 60 39.5 105t74.5 70t100 25q58 0 94 -27t43 -74l14 91h50l-89 -565q-13 -82 -63.5 -123.5t-134.5 -41.5h-145zM266 83q68 0 112.5 41.5t55.5 114.5l19 121
q11 74 -19.5 115.5t-98.5 41.5q-67 0 -111.5 -41.5t-55.5 -115.5l-19 -121q-11 -73 19.5 -114.5t97.5 -41.5zM205 645l142 140h60l98 -140h-47l-84 109l-116 -109h-53z" />
    <glyph glyph-name="Gbreve" unicode="&#x11e;" 
d="M260 -10q-91 0 -137 54.5t-32 145.5l56 350q14 92 77.5 146t154.5 54q93 0 139.5 -57t31.5 -153h-50q12 77 -22.5 121t-105.5 44q-70 0 -117 -41.5t-58 -113.5l-56 -350q-11 -72 23 -113.5t104 -41.5q72 0 120 44.5t60 120.5l17 110h-173l7 46h223l-24 -156
q-10 -64 -43 -111t-83 -73t-112 -26zM390 808q-67 0 -100 38.5t-23 103.5h45q-7 -47 15 -74.5t68 -27.5q47 0 78.5 27.5t38.5 74.5h45q-10 -65 -55 -103.5t-112 -38.5z" />
    <glyph glyph-name="gbreve" unicode="&#x11f;" 
d="M101 -180l8 45h145q122 0 140 120l7 45l17 111q-21 -47 -66 -74t-103 -27q-82 0 -123 54.5t-27 144.5l19 121q10 60 39.5 105t74.5 70t100 25q58 0 94 -27t43 -74l14 91h50l-89 -565q-13 -82 -63.5 -123.5t-134.5 -41.5h-145zM266 83q68 0 112.5 41.5t55.5 114.5l19 121
q11 74 -19.5 115.5t-98.5 41.5q-67 0 -111.5 -41.5t-55.5 -115.5l-19 -121q-11 -73 19.5 -114.5t97.5 -41.5zM355 643q-67 0 -100 38.5t-23 103.5h45q-7 -47 15 -74.5t68 -27.5q47 0 78.5 27.5t38.5 74.5h45q-10 -65 -55 -103.5t-112 -38.5z" />
    <glyph glyph-name="Gdotaccent" unicode="&#x120;" 
d="M260 -10q-91 0 -137 54.5t-32 145.5l56 350q14 92 77.5 146t154.5 54q93 0 139.5 -57t31.5 -153h-50q12 77 -22.5 121t-105.5 44q-70 0 -117 -41.5t-58 -113.5l-56 -350q-11 -72 23 -113.5t104 -41.5q72 0 120 44.5t60 120.5l17 110h-173l7 46h223l-24 -156
q-10 -64 -43 -111t-83 -73t-112 -26zM393 825q-26 0 -40 15t-10 40q5 25 23 40t44 15t40 -15t9 -40q-4 -25 -22 -40t-44 -15z" />
    <glyph glyph-name="gdotaccent" unicode="&#x121;" 
d="M101 -180l8 45h145q122 0 140 120l7 45l17 111q-21 -47 -66 -74t-103 -27q-82 0 -123 54.5t-27 144.5l19 121q10 60 39.5 105t74.5 70t100 25q58 0 94 -27t43 -74l14 91h50l-89 -565q-13 -82 -63.5 -123.5t-134.5 -41.5h-145zM266 83q68 0 112.5 41.5t55.5 114.5l19 121
q11 74 -19.5 115.5t-98.5 41.5q-67 0 -111.5 -41.5t-55.5 -115.5l-19 -121q-11 -73 19.5 -114.5t97.5 -41.5zM356 655q-26 0 -39.5 15t-9.5 40t22.5 40t44.5 15t39.5 -15t9.5 -40t-22.5 -40t-44.5 -15z" />
    <glyph glyph-name="uni0122" unicode="&#x122;" 
d="M260 -10q-91 0 -137 54.5t-32 145.5l56 350q14 92 77.5 146t154.5 54q93 0 139.5 -57t31.5 -153h-50q12 77 -22.5 121t-105.5 44q-70 0 -117 -41.5t-58 -113.5l-56 -350q-11 -72 23 -113.5t104 -41.5q72 0 120 44.5t60 120.5l17 110h-173l7 46h223l-24 -156
q-10 -64 -43 -111t-83 -73t-112 -26zM139 -240l113 145h65l-128 -145h-50z" />
    <glyph glyph-name="uni0123" unicode="&#x123;" 
d="M101 -180l8 45h145q122 0 140 120l7 45l17 111q-21 -47 -66 -74t-103 -27q-82 0 -123 54.5t-27 144.5l19 121q10 60 39.5 105t74.5 70t100 25q58 0 94 -27t43 -74l14 91h50l-89 -565q-13 -82 -63.5 -123.5t-134.5 -41.5h-145zM266 83q68 0 112.5 41.5t55.5 114.5l19 121
q11 74 -19.5 115.5t-98.5 41.5q-67 0 -111.5 -41.5t-55.5 -115.5l-19 -121q-11 -73 19.5 -114.5t97.5 -41.5zM494 880l-132 -235h-69l152 235h49z" />
    <glyph glyph-name="Hcircumflex" unicode="&#x124;" 
d="M66 0l116 730h50l-52 -328h280l52 328h50l-116 -730h-50l56 356h-280l-56 -356h-50zM234 810l142 140h60l98 -140h-47l-83 109l-117 -109h-53z" />
    <glyph glyph-name="hcircumflex" unicode="&#x125;" 
d="M66 0l116 730h50l-24 -150l-18 -110h4q23 42 66 66t98 24q81 0 121.5 -52t26.5 -141l-58 -367h-50l57 360q12 74 -18.5 115.5t-95.5 41.5q-66 0 -111.5 -42t-56.5 -115l-57 -360h-50zM59 805l142 140h60l98 -140h-47l-84 109l-116 -109h-53z" />
    <glyph glyph-name="Hbar" unicode="&#x126;" 
d="M66 0l86 540h-100l7 44h100l23 146h50l-23 -146h280l23 146h50l-23 -146h100l-7 -44h-100l-86 -540h-50l56 356h-280l-56 -356h-50zM180 402h280l22 138h-280z" />
    <glyph glyph-name="hbar" unicode="&#x127;" 
d="M58 586l7 45h101l16 99h50l-16 -99h179l-7 -45h-179l-15 -96l-13 -80h4q23 42 65.5 66t97.5 24q81 0 122 -52t27 -141l-49 -307h-50l48 300q11 74 -19.5 115.5t-95.5 41.5q-66 0 -111 -42t-56 -115l-48 -300h-50l93 586h-101z" />
    <glyph glyph-name="Itilde" unicode="&#x128;" 
d="M76 0l7 46h156l101 638h-156l8 46h360l-8 -46h-154l-101 -638h154l-7 -46h-360zM460 815q-28 0 -45.5 13.5t-30 32t-25 32t-30.5 13.5q-23 0 -38.5 -14t-19.5 -37l-5 -35h-40l5 35q7 42 35 66t70 24q28 0 45.5 -13.5t29.5 -32t24.5 -32t30.5 -13.5q21 0 35 14t18 37l6 35
h40l-6 -35q-7 -42 -33 -66t-66 -24z" />
    <glyph glyph-name="itilde" unicode="&#x129;" 
d="M51 0l7 45h201l73 460h-176l7 45h226l-80 -505h189l-7 -45h-440zM449 650q-28 0 -45.5 13.5t-30 32t-25 32t-30.5 13.5q-23 0 -38.5 -14t-19.5 -37l-5 -35h-40l5 35q7 42 35 66t70 24q28 0 45.5 -13.5t29.5 -32t24.5 -32t30.5 -13.5q21 0 35 14t18 37l6 35h40l-6 -35
q-7 -42 -33 -66t-66 -24z" />
    <glyph glyph-name="Imacron" unicode="&#x12a;" 
d="M76 0l7 46h156l101 638h-156l8 46h360l-8 -46h-154l-101 -638h154l-7 -46h-360zM251 854l7 43h280l-7 -43h-280z" />
    <glyph glyph-name="imacron" unicode="&#x12b;" 
d="M51 0l7 45h201l73 460h-176l7 45h226l-80 -505h189l-7 -45h-440zM239 684l7 43h280l-7 -43h-280z" />
    <glyph glyph-name="Ibreve" unicode="&#x12c;" 
d="M76 0l7 46h156l101 638h-156l8 46h360l-8 -46h-154l-101 -638h154l-7 -46h-360zM384 808q-67 0 -100 38.5t-23 103.5h45q-7 -47 15 -74.5t68 -27.5q47 0 78.5 27.5t38.5 74.5h45q-10 -65 -55 -103.5t-112 -38.5z" />
    <glyph glyph-name="ibreve" unicode="&#x12d;" 
d="M51 0l7 45h201l73 460h-176l7 45h226l-80 -505h189l-7 -45h-440zM373 643q-67 0 -100 38.5t-23 103.5h45q-7 -47 15 -74.5t68 -27.5q47 0 78.5 27.5t38.5 74.5h45q-10 -65 -55 -103.5t-112 -38.5z" />
    <glyph glyph-name="Iogonek" unicode="&#x12e;" 
d="M76 0l7 46h156l101 638h-156l8 46h360l-8 -46h-154l-101 -638h154l-7 -46h-161q-32 -27 -52.5 -54.5t-24.5 -48.5q-4 -23 7.5 -36.5t35.5 -13.5h64l-6 -42h-73q-41 0 -62 21.5t-15 58.5q5 28 28 58.5t59 56.5h-160z" />
    <glyph glyph-name="iogonek" unicode="&#x12f;" 
d="M374 655q-26 0 -39.5 15t-9.5 40t22.5 40t44.5 15t39.5 -15t9.5 -40t-22.5 -40t-44.5 -15zM51 0l7 45h201l73 460h-176l7 45h226l-80 -505h189l-7 -45h-199q-33 -27 -53.5 -54.5t-23.5 -48.5q-4 -23 7.5 -36.5t35.5 -13.5h64l-7 -42h-73q-41 0 -61.5 21.5t-14.5 58.5
q4 28 27.5 58.5t59.5 56.5h-202z" />
    <glyph glyph-name="Idotaccent" unicode="&#x130;" 
d="M76 0l7 46h156l101 638h-156l8 46h360l-8 -46h-154l-101 -638h154l-7 -46h-360zM387 825q-26 0 -40 15t-10 40q5 25 23 40t44 15t40 -15t9 -40q-4 -25 -22 -40t-44 -15z" />
    <glyph glyph-name="dotlessi" unicode="&#x131;" 
d="M51 0l7 45h201l73 460h-176l7 45h226l-80 -505h189l-7 -45h-440z" />
    <glyph glyph-name="Jcircumflex" unicode="&#x134;" 
d="M229 -10q-96 0 -141.5 56t-29.5 154h50q-13 -77 22 -121t107 -44t120.5 44t60.5 120l76 484h-227l8 47h277l-84 -531q-16 -100 -78.5 -154.5t-160.5 -54.5zM366 810l142 140h60l98 -140h-47l-83 109l-117 -109h-53z" />
    <glyph glyph-name="jcircumflex" unicode="&#x135;" 
d="M22 -180l8 45h135q71 0 113.5 37.5t53.5 107.5l78 495h-250l7 45h300l-85 -540q-14 -89 -73.5 -139.5t-151.5 -50.5h-135zM302 645l142 140h60l98 -140h-47l-84 109l-116 -109h-53z" />
    <glyph glyph-name="uni0136" unicode="&#x136;" 
d="M66 0l116 730h50l-52 -329h152l212 329h58l-227 -353l121 -377h-56l-113 356h-155l-56 -356h-50zM133 -240l113 145h65l-128 -145h-50z" />
    <glyph glyph-name="uni0137" unicode="&#x137;" 
d="M69 0l116 730h50l-67 -421h131l210 241h61l-231 -267l148 -283h-58l-135 264h-133l-42 -264h-50zM133 -240l113 145h65l-128 -145h-50z" />
    <glyph glyph-name="kgreenlandic" unicode="&#x138;" 
d="M69 0l87 550h50l-38 -241h130l210 241h62l-227 -266l144 -284h-58l-134 264h-134l-42 -264h-50z" />
    <glyph glyph-name="Lacute" unicode="&#x139;" 
d="M96 0l116 730h50l-109 -684h355l-7 -46h-405zM212 810l128 140h63l-134 -140h-57z" />
    <glyph glyph-name="lacute" unicode="&#x13a;" 
d="M321 0q-67 0 -98 35t-21 100l87 550h-175l8 45h225l-95 -595q-14 -90 76 -90h175l-7 -45h-175zM286 810l128 140h63l-134 -140h-57z" />
    <glyph glyph-name="uni013B" unicode="&#x13b;" 
d="M96 0l116 730h50l-109 -684h355l-7 -46h-405zM173 -240l113 145h65l-128 -145h-50z" />
    <glyph glyph-name="uni013C" unicode="&#x13c;" 
d="M321 0q-67 0 -98 35t-21 100l87 550h-175l8 45h225l-95 -595q-14 -90 76 -90h175l-7 -45h-175zM117 -240l113 145h65l-128 -145h-50z" />
    <glyph glyph-name="Lcaron" unicode="&#x13d;" 
d="M96 0l116 730h50l-109 -684h355l-7 -46h-405zM672 730l39 180h50l-49 -180h-40z" />
    <glyph glyph-name="lcaron" unicode="&#x13e;" 
d="M321 0q-67 0 -98 35t-21 100l87 550h-175l8 45h225l-95 -595q-14 -90 76 -90h175l-7 -45h-175zM672 730l39 180h50l-49 -180h-40z" />
    <glyph glyph-name="Ldot" unicode="&#x13f;" 
d="M96 0l116 730h50l-109 -684h355l-7 -46h-405zM394 265q-34 0 -50 20.5t-11 54.5t28 53.5t57 19.5t50 -19.5t11 -53.5t-28 -54.5t-57 -20.5z" />
    <glyph glyph-name="ldot" unicode="&#x140;" 
d="M301 0q-67 0 -98 35t-21 100l87 550h-175l8 45h225l-95 -595q-14 -90 76 -90h175l-7 -45h-175zM534 265q-34 0 -50 20.5t-11 54.5t28 53.5t57 19.5t50 -19.5t11 -53.5t-28 -54.5t-57 -20.5z" />
    <glyph glyph-name="Lslash" unicode="&#x141;" 
d="M106 0l52 328l-144 -90l9 57l144 90l55 345h50l-49 -310l210 132l-9 -57l-210 -132l-51 -317h355l-7 -46h-405z" />
    <glyph glyph-name="lslash" unicode="&#x142;" 
d="M100 240v55l143 98l46 292h-175l8 45h225l-48 -298l171 118v-55l-180 -124l-38 -236q-14 -90 76 -90h175l-7 -45h-175q-67 0 -98 35t-21 100l31 197z" />
    <glyph glyph-name="Nacute" unicode="&#x143;" 
d="M66 0l116 730h67l162 -675q2 20 5 44l5.5 44t3.5 27l89 560h48l-116 -730h-68l-159 675q-1 -14 -5.5 -45.5t-10.5 -69.5l-89 -560h-48zM346 810l128 140h63l-134 -140h-57z" />
    <glyph glyph-name="nacute" unicode="&#x144;" 
d="M66 0l87 550h50l-15 -94q22 48 66.5 76t103.5 28q81 0 121.5 -52t26.5 -141l-58 -367h-50l57 360q12 74 -18.5 115.5t-95.5 41.5q-66 0 -111.5 -42t-56.5 -115l-57 -360h-50zM331 645l128 140h63l-134 -140h-57z" />
    <glyph glyph-name="uni0145" unicode="&#x145;" 
d="M66 0l116 730h67l162 -675q2 20 5 44l5.5 44t3.5 27l89 560h48l-116 -730h-68l-159 675q-1 -14 -5.5 -45.5t-10.5 -69.5l-89 -560h-48zM133 -240l113 145h65l-128 -145h-50z" />
    <glyph glyph-name="uni0146" unicode="&#x146;" 
d="M66 0l87 550h50l-15 -94q22 48 66.5 76t103.5 28q81 0 121.5 -52t26.5 -141l-58 -367h-50l57 360q12 74 -18.5 115.5t-95.5 41.5q-66 0 -111.5 -42t-56.5 -115l-57 -360h-50zM133 -240l113 145h65l-128 -145h-50z" />
    <glyph glyph-name="Ncaron" unicode="&#x147;" 
d="M66 0l116 730h67l162 -675q2 20 5 44l5.5 44t3.5 27l89 560h48l-116 -730h-68l-159 675q-1 -14 -5.5 -45.5t-10.5 -69.5l-89 -560h-48zM354 810l-98 140h49l84 -109l117 109h50l-142 -140h-60z" />
    <glyph glyph-name="ncaron" unicode="&#x148;" 
d="M66 0l87 550h50l-15 -94q22 48 66.5 76t103.5 28q81 0 121.5 -52t26.5 -141l-58 -367h-50l57 360q12 74 -18.5 115.5t-95.5 41.5q-66 0 -111.5 -42t-56.5 -115l-57 -360h-50zM330 645l-98 140h49l84 -109l117 109h50l-142 -140h-60z" />
    <glyph glyph-name="napostrophe" unicode="&#x149;" 
d="M66 0l87 550h50l-15 -94q22 48 66.5 76t103.5 28q81 0 121.5 -52t26.5 -141l-58 -367h-50l57 360q12 74 -18.5 115.5t-95.5 41.5q-66 0 -111.5 -42t-56.5 -115l-57 -360h-50zM63 645l113 145h65l-128 -145h-50z" />
    <glyph glyph-name="Eng" unicode="&#x14a;" 
d="M154 -180l8 45h80q134 0 155 135l-179 675q-1 -14 -5.5 -45.5t-10.5 -69.5l-89 -560h-48l116 730h68l169 -636q2 18 6 52.5t10 72.5l81 511h48l-116 -730q-13 -86 -68.5 -133t-144.5 -47h-80z" />
    <glyph glyph-name="eng" unicode="&#x14b;" 
d="M172 -180l8 45h41q72 0 120.5 40t58.5 110l55 345q12 74 -18.5 115.5t-95.5 41.5q-66 0 -111.5 -42t-56.5 -115l-57 -360h-50l87 550h50l-15 -94q22 48 66.5 76t103.5 28q81 0 121.5 -52t26.5 -141l-56 -352q-9 -60 -41.5 -103.5t-82.5 -67.5t-113 -24h-41z" />
    <glyph glyph-name="Omacron" unicode="&#x14c;" 
d="M254 -10q-88 0 -132.5 54.5t-30.5 145.5l56 350q10 61 41 105.5t78.5 69.5t106.5 25q89 0 133.5 -54.5t30.5 -145.5l-56 -350q-14 -91 -76 -145.5t-151 -54.5zM261 34q69 0 113.5 41t56.5 115l56 350q11 74 -21 115t-100 41t-113 -41t-56 -115l-56 -350
q-12 -74 19.5 -115t100.5 -41zM251 854l7 43h280l-7 -43h-280z" />
    <glyph glyph-name="omacron" unicode="&#x14d;" 
d="M254 -10q-88 0 -132.5 54.5t-30.5 145.5l27 170q10 61 41 105.5t79 69.5t107 25q89 0 133 -54.5t30 -145.5l-27 -170q-14 -91 -76 -145.5t-151 -54.5zM261 34q69 0 113.5 41t56.5 115l27 170q12 74 -20 115t-100 41t-113 -41t-57 -115l-27 -170q-12 -74 19.5 -115
t100.5 -41zM224 684l7 43h280l-7 -43h-280z" />
    <glyph glyph-name="Obreve" unicode="&#x14e;" 
d="M254 -10q-88 0 -132.5 54.5t-30.5 145.5l56 350q10 61 41 105.5t78.5 69.5t106.5 25q89 0 133.5 -54.5t30.5 -145.5l-56 -350q-14 -91 -76 -145.5t-151 -54.5zM261 34q69 0 113.5 41t56.5 115l56 350q11 74 -21 115t-100 41t-113 -41t-56 -115l-56 -350
q-12 -74 19.5 -115t100.5 -41zM384 808q-67 0 -100 38.5t-23 103.5h45q-7 -47 15 -74.5t68 -27.5q47 0 78.5 27.5t38.5 74.5h45q-10 -65 -55 -103.5t-112 -38.5z" />
    <glyph glyph-name="obreve" unicode="&#x14f;" 
d="M254 -10q-88 0 -132.5 54.5t-30.5 145.5l27 170q10 61 41 105.5t79 69.5t107 25q89 0 133 -54.5t30 -145.5l-27 -170q-14 -91 -76 -145.5t-151 -54.5zM261 34q69 0 113.5 41t56.5 115l27 170q12 74 -20 115t-100 41t-113 -41t-57 -115l-27 -170q-12 -74 19.5 -115
t100.5 -41zM358 643q-67 0 -100 38.5t-23 103.5h45q-7 -47 15 -74.5t68 -27.5q47 0 78.5 27.5t38.5 74.5h45q-10 -65 -55 -103.5t-112 -38.5z" />
    <glyph glyph-name="Ohungarumlaut" unicode="&#x150;" 
d="M254 -10q-88 0 -132.5 54.5t-30.5 145.5l56 350q10 61 41 105.5t78.5 69.5t106.5 25q89 0 133.5 -54.5t30.5 -145.5l-56 -350q-14 -91 -76 -145.5t-151 -54.5zM261 34q69 0 113.5 41t56.5 115l56 350q11 74 -21 115t-100 41t-113 -41t-56 -115l-56 -350
q-12 -74 19.5 -115t100.5 -41zM417 810l128 140h62l-134 -140h-56zM258 810l128 140h62l-134 -140h-56z" />
    <glyph glyph-name="ohungarumlaut" unicode="&#x151;" 
d="M254 -10q-88 0 -132.5 54.5t-30.5 145.5l27 170q10 61 41 105.5t79 69.5t107 25q89 0 133 -54.5t30 -145.5l-27 -170q-14 -91 -76 -145.5t-151 -54.5zM261 34q69 0 113.5 41t56.5 115l27 170q12 74 -20 115t-100 41t-113 -41t-57 -115l-27 -170q-12 -74 19.5 -115
t100.5 -41zM391 645l128 140h62l-134 -140h-56zM232 645l128 140h62l-134 -140h-56z" />
    <glyph glyph-name="OE" unicode="&#x152;" 
d="M150 -10q-45 0 -77 23.5t-45.5 65t-4.5 94.5l61 384q9 54 35.5 95t65.5 64.5t84 23.5q35 0 57.5 -14.5t34 -35t13.5 -40.5h5l13 80h249l-8 -50h-194l-44 -278h158l-8 -50h-158l-48 -302h194l-8 -50h-249l13 80h-5q-8 -19 -26.5 -40t-45.5 -35.5t-62 -14.5zM169 40
q50 0 87.5 36t46.5 97l61 384q10 61 -16 97t-76 36t-86.5 -37t-46.5 -96l-61 -384q-9 -59 16 -96t75 -37z" />
    <glyph glyph-name="oe" unicode="&#x153;" 
d="M128 -10q-64 0 -94.5 40.5t-20.5 108.5l43 269q11 69 57 110.5t112 41.5q39 0 62.5 -14t34.5 -33.5t11 -38.5h2q8 19 25.5 38.5t45 33.5t62.5 14q65 0 97 -41t21 -109l-24 -150h-238l-19 -120q-7 -47 14.5 -76.5t64.5 -29.5q41 0 72 25.5t41 65.5h50q-15 -61 -60.5 -98
t-106.5 -37q-38 0 -62 13.5t-34.5 33.5t-11.5 38h-3q-6 -18 -24 -38t-47 -33.5t-70 -13.5zM144 34q43 0 74 29.5t38 76.5l43 270q8 47 -13.5 76.5t-64.5 29.5t-74.5 -29.5t-39.5 -78.5l-43 -269q-7 -47 15 -76t65 -29zM332 310h188l16 100q8 47 -13.5 76.5t-64.5 29.5
q-42 0 -72 -29.5t-38 -76.5z" />
    <glyph glyph-name="Racute" unicode="&#x154;" 
d="M66 0l116 730h205q97 0 144.5 -54.5t33.5 -147.5q-13 -80 -67.5 -133t-133.5 -64l118 -331h-54l-114 330h-146l-52 -330h-50zM175 375h155q73 0 123.5 42.5t61.5 112.5q11 71 -26 112.5t-110 41.5h-155zM346 810l128 140h63l-134 -140h-57z" />
    <glyph glyph-name="racute" unicode="&#x155;" 
d="M83 0l87 550h50l-12 -75h5q23 41 64 63t96 22q88 0 130 -54t28 -146l-5 -30h-55l5 30q12 74 -19 115.5t-99 41.5q-67 0 -111.5 -41.5t-56.5 -115.5l-57 -360h-50zM350 645l128 140h63l-134 -140h-57z" />
    <glyph glyph-name="uni0156" unicode="&#x156;" 
d="M66 0l116 730h205q97 0 144.5 -54.5t33.5 -147.5q-13 -80 -67.5 -133t-133.5 -64l118 -331h-54l-114 330h-146l-52 -330h-50zM175 375h155q73 0 123.5 42.5t61.5 112.5q11 71 -26 112.5t-110 41.5h-155zM133 -240l113 145h65l-128 -145h-50z" />
    <glyph glyph-name="uni0157" unicode="&#x157;" 
d="M83 0l87 550h50l-12 -75h5q23 41 64 63t96 22q88 0 130 -54t28 -146l-5 -30h-55l5 30q12 74 -19 115.5t-99 41.5q-67 0 -111.5 -41.5t-56.5 -115.5l-57 -360h-50zM-32 -240l113 145h65l-128 -145h-50z" />
    <glyph glyph-name="Rcaron" unicode="&#x158;" 
d="M66 0l116 730h205q97 0 144.5 -54.5t33.5 -147.5q-13 -80 -67.5 -133t-133.5 -64l118 -331h-54l-114 330h-146l-52 -330h-50zM175 375h155q73 0 123.5 42.5t61.5 112.5q11 71 -26 112.5t-110 41.5h-155zM354 810l-98 140h49l84 -109l117 109h50l-142 -140h-60z" />
    <glyph glyph-name="rcaron" unicode="&#x159;" 
d="M83 0l87 550h50l-12 -75h5q23 41 64 63t96 22q88 0 130 -54t28 -146l-5 -30h-55l5 30q12 74 -19 115.5t-99 41.5q-67 0 -111.5 -41.5t-56.5 -115.5l-57 -360h-50zM349 645l-98 140h49l84 -109l117 109h50l-142 -140h-60z" />
    <glyph glyph-name="Sacute" unicode="&#x15a;" 
d="M259 -10q-101 0 -152 53t-37 142h50q-10 -68 30 -109t117 -41q75 0 123.5 37.5t58.5 104.5q9 61 -16 103t-81 59l-81 25q-68 21 -100 73t-21 122q13 83 75 132t154 49t137.5 -51.5t31.5 -140.5h-50q11 67 -24 107t-103 40q-70 0 -116 -35t-55 -97q-8 -56 16 -97t74 -57
l81 -25q71 -22 105.5 -78t23.5 -126q-14 -87 -79 -138.5t-162 -51.5zM346 810l128 140h63l-134 -140h-57z" />
    <glyph glyph-name="sacute" unicode="&#x15b;" 
d="M226 -10q-75 0 -117 40.5t-39 104.5h50q1 -43 31.5 -71.5t82.5 -28.5h67q55 0 91.5 28.5t43.5 76.5q7 43 -14 73.5t-64 36.5l-104 15q-68 10 -101.5 47.5t-23.5 98.5q11 68 65 108.5t133 40.5h42q75 0 116 -37t39 -98h-50q1 39 -29 64.5t-83 25.5h-42q-56 0 -94.5 -28
t-45.5 -75q-12 -85 90 -100l102 -15q63 -9 94 -51.5t21 -105.5q-11 -69 -63.5 -109.5t-130.5 -40.5h-67zM334 645l128 140h63l-134 -140h-57z" />
    <glyph glyph-name="Scircumflex" unicode="&#x15c;" 
d="M259 -10q-101 0 -152 53t-37 142h50q-10 -68 30 -109t117 -41q75 0 123.5 37.5t58.5 104.5q9 61 -16 103t-81 59l-81 25q-68 21 -100 73t-21 122q13 83 75 132t154 49t137.5 -51.5t31.5 -140.5h-50q11 67 -24 107t-103 40q-70 0 -116 -35t-55 -97q-8 -56 16 -97t74 -57
l81 -25q71 -22 105.5 -78t23.5 -126q-14 -87 -79 -138.5t-162 -51.5zM234 810l142 140h60l98 -140h-47l-83 109l-117 -109h-53z" />
    <glyph glyph-name="scircumflex" unicode="&#x15d;" 
d="M226 -10q-75 0 -117 40.5t-39 104.5h50q1 -43 31.5 -71.5t82.5 -28.5h67q55 0 91.5 28.5t43.5 76.5q7 43 -14 73.5t-64 36.5l-104 15q-68 10 -101.5 47.5t-23.5 98.5q11 68 65 108.5t133 40.5h42q75 0 116 -37t39 -98h-50q1 39 -29 64.5t-83 25.5h-42q-56 0 -94.5 -28
t-45.5 -75q-12 -85 90 -100l102 -15q63 -9 94 -51.5t21 -105.5q-11 -69 -63.5 -109.5t-130.5 -40.5h-67zM212 645l142 140h60l98 -140h-47l-84 109l-116 -109h-53z" />
    <glyph glyph-name="Scedilla" unicode="&#x15e;" 
d="M160 -195l6 35h80q24 0 41 13t19 29q4 24 -26 39t-83 15l30 56q-86 8 -128 59.5t-29 133.5h50q-10 -68 30 -109t117 -41q75 0 123.5 37.5t58.5 104.5q9 61 -16 103t-81 59l-81 25q-68 21 -100 73t-21 122q13 83 75 132t154 49t137.5 -51.5t31.5 -140.5h-50q11 67 -24 107
t-103 40q-70 0 -116 -35t-55 -97q-8 -56 16 -97t74 -57l81 -25q71 -22 105.5 -78t23.5 -126q-14 -85 -76 -136t-155 -54l-13 -24q23 -1 47 -10t39 -27t10 -47q-4 -32 -35.5 -54.5t-76.5 -22.5h-80z" />
    <glyph glyph-name="scedilla" unicode="&#x15f;" 
d="M226 -10q-75 0 -117 40.5t-39 104.5h50q1 -43 31.5 -71.5t82.5 -28.5h67q55 0 91.5 28.5t43.5 76.5q7 43 -14 73.5t-64 36.5l-104 15q-68 10 -101.5 47.5t-23.5 98.5q11 68 65 108.5t133 40.5h42q75 0 116 -37t39 -98h-50q1 39 -29 64.5t-83 25.5h-42q-56 0 -94.5 -28
t-45.5 -75q-12 -85 90 -100l102 -15q63 -9 94 -51.5t21 -105.5q-11 -69 -63.5 -109.5t-130.5 -40.5l-13 -24q24 -1 48 -10t39 -27t10 -47q-5 -32 -36 -54.5t-76 -22.5h-80l6 35h80q24 0 41 13t19 29q4 24 -26 39t-83 15l29 54h-25z" />
    <glyph glyph-name="Scaron" unicode="&#x160;" 
d="M259 -10q-101 0 -152 53t-37 142h50q-10 -68 30 -109t117 -41q75 0 123.5 37.5t58.5 104.5q9 61 -16 103t-81 59l-81 25q-68 21 -100 73t-21 122q13 83 75 132t154 49t137.5 -51.5t31.5 -140.5h-50q11 67 -24 107t-103 40q-70 0 -116 -35t-55 -97q-8 -56 16 -97t74 -57
l81 -25q71 -22 105.5 -78t23.5 -126q-14 -87 -79 -138.5t-162 -51.5zM354 810l-98 140h49l84 -109l117 109h50l-142 -140h-60z" />
    <glyph glyph-name="scaron" unicode="&#x161;" 
d="M226 -10q-75 0 -117 40.5t-39 104.5h50q1 -43 31.5 -71.5t82.5 -28.5h67q55 0 91.5 28.5t43.5 76.5q7 43 -14 73.5t-64 36.5l-104 15q-68 10 -101.5 47.5t-23.5 98.5q11 68 65 108.5t133 40.5h42q75 0 116 -37t39 -98h-50q1 39 -29 64.5t-83 25.5h-42q-56 0 -94.5 -28
t-45.5 -75q-12 -85 90 -100l102 -15q63 -9 94 -51.5t21 -105.5q-11 -69 -63.5 -109.5t-130.5 -40.5h-67zM333 645l-98 140h49l84 -109l117 109h50l-142 -140h-60z" />
    <glyph glyph-name="uni0162" unicode="&#x162;" 
d="M232 0l108 684h-216l8 46h480l-8 -46h-214l-108 -684l-19 -34q24 -1 48 -10t39 -27t10 -47q-5 -32 -36 -54.5t-76 -22.5h-80l6 35h80q24 0 41 13t19 29q4 24 -26 39t-83 15l35 64h-8z" />
    <glyph glyph-name="uni0163" unicode="&#x163;" 
d="M270 -195v35h80q24 0 39 13t15 29q0 24 -32.5 39t-85.5 15l25 64q-60 1 -87.5 33t-17.5 92l60 380h-160l7 45h160l24 150h50l-24 -150h225l-7 -45h-225l-60 -380q-12 -80 67 -80h135l-7 -45h-98l-13 -34q24 -1 49.5 -10t43 -27t17.5 -47q0 -32 -27.5 -54.5t-72.5 -22.5
h-80z" />
    <glyph glyph-name="Tcaron" unicode="&#x164;" 
d="M232 0l108 684h-216l8 46h480l-8 -46h-214l-108 -684h-50zM354 810l-98 140h49l84 -109l117 109h50l-142 -140h-60z" />
    <glyph glyph-name="tcaron" unicode="&#x165;" 
d="M442 620l105 156h69l-125 -156h-49zM316 0q-63 0 -91.5 32t-18.5 93l60 380h-160l7 45h160l24 150h50l-24 -150h225l-7 -45h-225l-60 -380q-12 -80 67 -80h135l-7 -45h-135z" />
    <glyph glyph-name="Tbar" unicode="&#x166;" 
d="M232 0l49 310h-155l7 45h155l52 329h-216l8 46h480l-8 -46h-214l-52 -329h155l-7 -45h-155l-49 -310h-50z" />
    <glyph glyph-name="tbar" unicode="&#x167;" 
d="M91 261l7 43h136l32 201h-160l7 45h160l24 150h50l-24 -150h225l-7 -45h-225l-32 -201h185l-7 -43h-185l-21 -136q-12 -80 67 -80h135l-7 -45h-135q-63 0 -91.5 32t-18.5 93l21 136h-136z" />
    <glyph glyph-name="Utilde" unicode="&#x168;" 
d="M255 -10q-88 0 -131.5 54.5t-29.5 145.5l86 540h50l-86 -540q-11 -73 20.5 -114t98.5 -41t110.5 41t54.5 114l86 540h50l-86 -540q-9 -60 -40 -105t-78 -70t-105 -25zM460 815q-28 0 -45.5 13.5t-30 32t-25 32t-30.5 13.5q-23 0 -38.5 -14t-19.5 -37l-5 -35h-40l5 35
q7 42 35 66t70 24q28 0 45.5 -13.5t29.5 -32t24.5 -32t30.5 -13.5q21 0 35 14t18 37l6 35h40l-6 -35q-7 -42 -33 -66t-66 -24z" />
    <glyph glyph-name="utilde" unicode="&#x169;" 
d="M253 -10q-89 0 -131 54.5t-27 149.5l56 356h50l-56 -356q-12 -75 19 -117t97 -42q67 0 111.5 42t56.5 117l56 356h50l-56 -356q-15 -94 -75.5 -149t-150.5 -55zM434 650q-28 0 -45.5 13.5t-30 32t-25 32t-30.5 13.5q-23 0 -38.5 -14t-19.5 -37l-5 -35h-40l5 35
q7 42 35 66t70 24q28 0 45.5 -13.5t29.5 -32t24.5 -32t30.5 -13.5q21 0 35 14t18 37l6 35h40l-6 -35q-7 -42 -33 -66t-66 -24z" />
    <glyph glyph-name="Umacron" unicode="&#x16a;" 
d="M255 -10q-88 0 -131.5 54.5t-29.5 145.5l86 540h50l-86 -540q-11 -73 20.5 -114t98.5 -41t110.5 41t54.5 114l86 540h50l-86 -540q-9 -60 -40 -105t-78 -70t-105 -25zM251 854l7 43h280l-7 -43h-280z" />
    <glyph glyph-name="umacron" unicode="&#x16b;" 
d="M253 -10q-89 0 -131 54.5t-27 149.5l56 356h50l-56 -356q-12 -75 19 -117t97 -42q67 0 111.5 42t56.5 117l56 356h50l-56 -356q-15 -94 -75.5 -149t-150.5 -55zM224 684l7 43h280l-7 -43h-280z" />
    <glyph glyph-name="Ubreve" unicode="&#x16c;" 
d="M255 -10q-88 0 -131.5 54.5t-29.5 145.5l86 540h50l-86 -540q-11 -73 20.5 -114t98.5 -41t110.5 41t54.5 114l86 540h50l-86 -540q-9 -60 -40 -105t-78 -70t-105 -25zM384 808q-67 0 -100 38.5t-23 103.5h45q-7 -47 15 -74.5t68 -27.5q47 0 78.5 27.5t38.5 74.5h45
q-10 -65 -55 -103.5t-112 -38.5z" />
    <glyph glyph-name="ubreve" unicode="&#x16d;" 
d="M253 -10q-89 0 -131 54.5t-27 149.5l56 356h50l-56 -356q-12 -75 19 -117t97 -42q67 0 111.5 42t56.5 117l56 356h50l-56 -356q-15 -94 -75.5 -149t-150.5 -55zM358 643q-67 0 -100 38.5t-23 103.5h45q-7 -47 15 -74.5t68 -27.5q47 0 78.5 27.5t38.5 74.5h45
q-10 -65 -55 -103.5t-112 -38.5z" />
    <glyph glyph-name="Uring" unicode="&#x16e;" 
d="M255 -10q-88 0 -131.5 54.5t-29.5 145.5l86 540h50l-86 -540q-11 -73 20.5 -114t98.5 -41t110.5 41t54.5 114l86 540h50l-86 -540q-9 -60 -40 -105t-78 -70t-105 -25zM381 780q-47 0 -72.5 27.5t-18.5 72.5q8 45 41.5 72.5t80.5 27.5t71.5 -27.5t16.5 -72.5
q-7 -45 -39.5 -72.5t-79.5 -27.5zM385 815q29 0 50 18t25 47q5 29 -10 47t-44 18t-50 -18t-26 -47q-4 -29 11 -47t44 -18z" />
    <glyph glyph-name="uring" unicode="&#x16f;" 
d="M253 -10q-89 0 -131 54.5t-27 149.5l56 356h50l-56 -356q-12 -75 19 -117t97 -42q67 0 111.5 42t56.5 117l56 356h50l-56 -356q-15 -94 -75.5 -149t-150.5 -55zM354 615q-47 0 -72 27.5t-18 72.5q8 45 41.5 72.5t80.5 27.5t71.5 -27.5t16.5 -72.5q-7 -45 -40 -72.5
t-80 -27.5zM359 650q29 0 50 18t25 47q5 29 -10 47t-44 18t-50 -18t-26 -47q-4 -29 11 -47t44 -18z" />
    <glyph glyph-name="Uhungarumlaut" unicode="&#x170;" 
d="M255 -10q-88 0 -131.5 54.5t-29.5 145.5l86 540h50l-86 -540q-11 -73 20.5 -114t98.5 -41t110.5 41t54.5 114l86 540h50l-86 -540q-9 -60 -40 -105t-78 -70t-105 -25zM417 810l128 140h62l-134 -140h-56zM258 810l128 140h62l-134 -140h-56z" />
    <glyph glyph-name="uhungarumlaut" unicode="&#x171;" 
d="M253 -10q-89 0 -131 54.5t-27 149.5l56 356h50l-56 -356q-12 -75 19 -117t97 -42q67 0 111.5 42t56.5 117l56 356h50l-56 -356q-15 -94 -75.5 -149t-150.5 -55zM391 645l128 140h62l-134 -140h-56zM232 645l128 140h62l-134 -140h-56z" />
    <glyph glyph-name="Uogonek" unicode="&#x172;" 
d="M294 -195q-41 0 -61.5 21.5t-14.5 58.5q4 26 24.5 55t52.5 54q-8 -2 -20.5 -3t-20.5 -1q-88 0 -131 54.5t-29 145.5l86 540h50l-86 -540q-12 -74 18 -115t99 -41t112 41t55 115l86 540h50l-86 -540q-10 -64 -41.5 -109t-81.5 -71l-11 -8q-33 -26 -53.5 -55t-23.5 -50
q-4 -23 7.5 -36.5t35.5 -13.5h64l-7 -42h-73z" />
    <glyph glyph-name="uogonek" unicode="&#x173;" 
d="M298 -195q-41 0 -61.5 21.5t-14.5 58.5q4 24 23 51t56 58q-10 -2 -22.5 -3t-24.5 -1q-88 0 -131 54.5t-29 145.5l57 360h50l-57 -360q-12 -74 18 -115t99 -41t112 41t55 115l57 360h50l-57 -360q-18 -113 -99 -165l-31 -25q-33 -27 -53.5 -54.5t-23.5 -48.5
q-4 -23 7.5 -36.5t35.5 -13.5h64l-7 -42h-73z" />
    <glyph glyph-name="Wcircumflex" unicode="&#x174;" 
d="M86 0l26 730h44l-18 -540q0 -18 -1.5 -46t-2.5 -57t-2 -52q7 23 15.5 52t17 57t13.5 46l163 540h64l-12 -540q0 -18 -0.5 -46t-1 -57t-1.5 -52q7 23 15.5 52t16.5 57t13 46l148 540h49l-207 -730h-72l11 530q1 38 2 84.5t2 75.5q-9 -28 -22.5 -74.5t-25.5 -85.5
l-164 -530h-70zM234 810l142 140h60l98 -140h-47l-83 109l-117 -109h-53z" />
    <glyph glyph-name="wcircumflex" unicode="&#x175;" 
d="M99 0l-6 550h46l3 -409q0 -22 -0.5 -53.5t-1.5 -52.5q5 21 15 52t17 53l145 410h51l15 -410q1 -22 1 -53t-1 -52q5 21 13.5 52.5t15.5 53.5l133 409h48l-181 -550h-66l-7 391q-1 27 -1 60.5t-1 55.5q-7 -22 -18 -55.5t-20 -60.5l-134 -391h-66zM208 645l142 140h60
l98 -140h-47l-84 109l-116 -109h-53z" />
    <glyph glyph-name="Ycircumflex" unicode="&#x176;" 
d="M231 0l44 280l-153 450h50l112 -330q8 -22 14 -41t9 -29q6 9 17.5 28.5t26.5 41.5l217 330h54l-297 -450l-44 -280h-50zM234 810l142 140h60l98 -140h-47l-83 109l-117 -109h-53z" />
    <glyph glyph-name="ycircumflex" unicode="&#x177;" 
d="M94 -180l8 45h145q120 0 140 120l10 65l15 94q-22 -48 -66.5 -76t-103.5 -28q-81 0 -121.5 52.5t-26.5 140.5l50 317h50l-49 -310q-12 -74 19 -115.5t95 -41.5q66 0 111.5 42t56.5 115l49 310h50l-89 -565q-27 -165 -198 -165h-145zM208 645l142 140h60l98 -140h-47
l-84 109l-116 -109h-53z" />
    <glyph glyph-name="Ydieresis" unicode="&#x178;" 
d="M231 0l44 280l-153 450h50l112 -330q8 -22 14 -41t9 -29q6 9 17.5 28.5t26.5 41.5l217 330h54l-297 -450l-44 -280h-50zM497 825q-24 0 -36.5 15t-8.5 40q5 25 21.5 40t40.5 15q23 0 35 -15t7 -40q-4 -25 -20 -40t-39 -15zM282 825q-23 0 -35.5 15t-8.5 40q5 25 21.5 40
t39.5 15t35.5 -15t7.5 -40q-4 -25 -20.5 -40t-39.5 -15z" />
    <glyph glyph-name="Zacute" unicode="&#x179;" 
d="M47 0l8 50l453 634h-349l8 46h400l-9 -57l-450 -627h363l-7 -46h-417zM346 810l128 140h63l-134 -140h-57z" />
    <glyph glyph-name="zacute" unicode="&#x17a;" 
d="M59 0l7 46l395 459h-313l7 45h372l-7 -47l-396 -458h336l-7 -45h-394zM330 645l128 140h63l-134 -140h-57z" />
    <glyph glyph-name="Zdotaccent" unicode="&#x17b;" 
d="M47 0l8 50l453 634h-349l8 46h400l-9 -57l-450 -627h363l-7 -46h-417zM387 825q-26 0 -40 15t-10 40q5 25 23 40t44 15t40 -15t9 -40q-4 -25 -22 -40t-44 -15z" />
    <glyph glyph-name="zdotaccent" unicode="&#x17c;" 
d="M59 0l7 46l395 459h-313l7 45h372l-7 -47l-396 -458h336l-7 -45h-394zM359 655q-26 0 -39.5 15t-9.5 40t22.5 40t44.5 15t39.5 -15t9.5 -40t-22.5 -40t-44.5 -15z" />
    <glyph glyph-name="Zcaron" unicode="&#x17d;" 
d="M47 0l8 50l453 634h-349l8 46h400l-9 -57l-450 -627h363l-7 -46h-417zM354 810l-98 140h49l84 -109l117 109h50l-142 -140h-60z" />
    <glyph glyph-name="zcaron" unicode="&#x17e;" 
d="M59 0l7 46l395 459h-313l7 45h372l-7 -47l-396 -458h336l-7 -45h-394zM329 645l-98 140h49l84 -109l117 109h50l-142 -140h-60z" />
    <glyph glyph-name="longs" unicode="&#x17f;" 
d="M-26 -180l8 45h113q38 0 62 21t30 59l105 660q10 59 49.5 92t100.5 33h153l-8 -45h-153q-38 0 -62 -21t-30 -59l-105 -660q-9 -58 -49 -91.5t-101 -33.5h-113z" />
    <glyph glyph-name="uni018F" unicode="&#x18f;" 
d="M253 -10q-91 0 -133.5 54.5t-28.5 145.5l30 188h340l26 162q11 72 -20.5 113.5t-101.5 41.5q-71 0 -114.5 -44t-55.5 -121h-50q15 96 74.5 153t152.5 57q92 0 135.5 -54t29.5 -146l-56 -350q-14 -91 -75 -145.5t-153 -54.5zM260 34q71 0 115.5 41.5t55.5 114.5l23 145
h-290l-23 -145q-11 -72 19.5 -114t99.5 -42z" />
    <glyph glyph-name="uni0190" unicode="&#x190;" 
d="M264 -10q-67 0 -113.5 26t-67.5 72.5t-12 107.5q11 70 57 118t112 61q-54 14 -80 60t-15 112q9 57 43 100.5t85.5 68t114.5 24.5t107.5 -24.5t64.5 -68t11 -100.5h-50q11 66 -28 107.5t-112 41.5t-124 -41.5t-62 -107.5q-10 -66 28 -107.5t111 -41.5h70l-7 -45h-75
q-52 0 -95 -20t-70.5 -56t-35.5 -84q-11 -70 31 -114t120 -44q52 0 95 20t71 55.5t35 82.5h50q-9 -60 -45.5 -105.5t-91.5 -71.5t-122 -26z" />
    <glyph glyph-name="florin" unicode="&#x192;" 
d="M-73 -180l8 45h96q71 0 113.5 37.5t53.5 107.5l51 322h-170l7 45h170l36 228q9 59 49 92t101 33h153l-8 -45h-153q-38 0 -62 -21t-30 -59l-36 -228h233l-7 -45h-233l-53 -332q-13 -85 -73.5 -132.5t-149.5 -47.5h-96z" />
    <glyph glyph-name="uni019B" unicode="&#x19b;" 
d="M25 0l301 539l-12 51l-190 -88l8 48l173 80l-23 100h57l16 -77l187 87l-8 -48l-171 -79l126 -613h-52l-71 357q-7 33 -14 69t-11 57q-10 -21 -27 -57t-35 -69l-195 -357h-59z" />
    <glyph glyph-name="Ohorn" unicode="&#x1a0;" 
d="M254 -10q-88 0 -132.5 54.5t-30.5 145.5l56 350q10 61 41 105.5t78.5 69.5t106.5 25q75 0 119 -40h13q20 0 34 14t18 36l10 60h40l-10 -60q-5 -33 -26 -55t-52 -28q30 -52 18 -127l-56 -350q-14 -91 -76 -145.5t-151 -54.5zM261 34q69 0 113.5 41t56.5 115l56 350
q11 74 -21 115t-100 41t-113 -41t-56 -115l-56 -350q-12 -74 19.5 -115t100.5 -41z" />
    <glyph glyph-name="ohorn" unicode="&#x1a1;" 
d="M254 -10q-88 0 -132.5 54.5t-30.5 145.5l27 170q10 61 41 105.5t79 69.5t107 25q64 0 107 -30h29q20 0 34 14t18 36l10 60h40l-10 -60q-6 -36 -29.5 -58.5t-58.5 -26.5q36 -53 23 -135l-27 -170q-14 -91 -76 -145.5t-151 -54.5zM261 34q69 0 113.5 41t56.5 115l27 170
q12 74 -20 115t-100 41t-113 -41t-57 -115l-27 -170q-12 -74 19.5 -115t100.5 -41z" />
    <glyph glyph-name="Uhorn" unicode="&#x1af;" 
d="M255 -10q-88 0 -131.5 54.5t-29.5 145.5l86 540h50l-86 -540q-11 -73 20.5 -114t98.5 -41t110.5 41t54.5 114l86 540h87q20 0 34 14t18 36l10 60h40l-10 -60q-6 -38 -33 -61.5t-65 -23.5h-37l-80 -505q-9 -60 -40 -105t-78 -70t-105 -25z" />
    <glyph glyph-name="uhorn" unicode="&#x1b0;" 
d="M95 194l56 356h50l-56 -356q-12 -75 19 -117t97 -42q67 0 111.5 42t56.5 117l56 356h49q20 0 34.5 14t18.5 36l10 60h40l-10 -60q-6 -38 -32.5 -61.5t-64.5 -23.5l-51 -321q-15 -94 -75.5 -149t-150.5 -55q-89 0 -131 54.5t-27 149.5z" />
    <glyph glyph-name="uni01CD" unicode="&#x1cd;" 
d="M24 0l317 730h62l85 -730h-50l-23 210h-250l-89 -210h-52zM184 255h226l-32 295q-6 54 -8 90.5t-3 47.5q-4 -11 -18.5 -47.5t-37.5 -90.5zM354 810l-98 140h49l84 -109l117 109h50l-142 -140h-60z" />
    <glyph glyph-name="uni01CE" unicode="&#x1ce;" 
d="M241 -10q-82 0 -123 54.5t-27 144.5l27 171q10 60 39.5 105t74.5 70t100 25q53 0 88.5 -22.5t47.5 -62.5h3l12 75h50l-87 -550h-50l12 75h-4q-24 -40 -67 -62.5t-96 -22.5zM258 33q68 0 112.5 41.5t55.5 114.5l27 171q11 74 -19.5 115.5t-98.5 41.5q-67 0 -111.5 -41.5
t-55.5 -115.5l-27 -171q-11 -73 19.5 -114.5t97.5 -41.5zM334 645l-98 140h49l84 -109l117 109h50l-142 -140h-60z" />
    <glyph glyph-name="uni01D0" unicode="&#x1d0;" 
d="M51 0l7 45h201l73 460h-176l7 45h226l-80 -505h189l-7 -45h-440zM344 645l-98 140h49l84 -109l117 109h50l-142 -140h-60z" />
    <glyph glyph-name="uni01D2" unicode="&#x1d2;" 
d="M254 -10q-88 0 -132.5 54.5t-30.5 145.5l27 170q10 61 41 105.5t79 69.5t107 25q89 0 133 -54.5t30 -145.5l-27 -170q-14 -91 -76 -145.5t-151 -54.5zM261 34q69 0 113.5 41t56.5 115l27 170q12 74 -20 115t-100 41t-113 -41t-57 -115l-27 -170q-12 -74 19.5 -115
t100.5 -41zM329 645l-98 140h49l84 -109l117 109h50l-142 -140h-60z" />
    <glyph glyph-name="uni01D4" unicode="&#x1d4;" 
d="M253 -10q-89 0 -131 54.5t-27 149.5l56 356h50l-56 -356q-12 -75 19 -117t97 -42q67 0 111.5 42t56.5 117l56 356h50l-56 -356q-15 -94 -75.5 -149t-150.5 -55zM329 645l-98 140h49l84 -109l117 109h50l-142 -140h-60z" />
    <glyph glyph-name="uni01D6" unicode="&#x1d6;" 
d="M253 -10q-89 0 -131 54.5t-27 149.5l56 356h50l-56 -356q-12 -75 19 -117t97 -42q67 0 111.5 42t56.5 117l56 356h50l-56 -356q-15 -94 -75.5 -149t-150.5 -55zM468 655q-24 0 -36.5 15t-8.5 40q5 25 21.5 40t40.5 15q23 0 35 -15t7 -40q-4 -25 -20 -40t-39 -15zM253 655
q-23 0 -35.5 15t-8.5 40q5 25 21.5 40t39.5 15t35.5 -15t7.5 -40q-4 -25 -20.5 -40t-39.5 -15zM258 899l7 43h280l-7 -43h-280z" />
    <glyph glyph-name="uni01D8" unicode="&#x1d8;" 
d="M253 -10q-89 0 -131 54.5t-27 149.5l56 356h50l-56 -356q-12 -75 19 -117t97 -42q67 0 111.5 42t56.5 117l56 356h50l-56 -356q-15 -94 -75.5 -149t-150.5 -55zM468 655q-24 0 -36.5 15t-8.5 40q5 25 21.5 40t40.5 15q23 0 35 -15t7 -40q-4 -25 -20 -40t-39 -15zM253 655
q-23 0 -35.5 15t-8.5 40q5 25 21.5 40t39.5 15t35.5 -15t7.5 -40q-4 -25 -20.5 -40t-39.5 -15zM364 860l128 140h63l-134 -140h-57z" />
    <glyph glyph-name="uni01DA" unicode="&#x1da;" 
d="M253 -10q-89 0 -131 54.5t-27 149.5l56 356h50l-56 -356q-12 -75 19 -117t97 -42q67 0 111.5 42t56.5 117l56 356h50l-56 -356q-15 -94 -75.5 -149t-150.5 -55zM468 655q-24 0 -36.5 15t-8.5 40q5 25 21.5 40t40.5 15q23 0 35 -15t7 -40q-4 -25 -20 -40t-39 -15zM253 655
q-23 0 -35.5 15t-8.5 40q5 25 21.5 40t39.5 15t35.5 -15t7.5 -40q-4 -25 -20.5 -40t-39.5 -15zM363 860l-98 140h49l84 -109l117 109h50l-142 -140h-60z" />
    <glyph glyph-name="uni01DC" unicode="&#x1dc;" 
d="M253 -10q-89 0 -131 54.5t-27 149.5l56 356h50l-56 -356q-12 -75 19 -117t97 -42q67 0 111.5 42t56.5 117l56 356h50l-56 -356q-15 -94 -75.5 -149t-150.5 -55zM468 655q-24 0 -36.5 15t-8.5 40q5 25 21.5 40t40.5 15q23 0 35 -15t7 -40q-4 -25 -20 -40t-39 -15zM253 655
q-23 0 -35.5 15t-8.5 40q5 25 21.5 40t39.5 15t35.5 -15t7.5 -40q-4 -25 -20.5 -40t-39.5 -15zM377 860l-90 140h58l84 -140h-52z" />
    <glyph glyph-name="Gcaron" unicode="&#x1e6;" 
d="M260 -10q-91 0 -137 54.5t-32 145.5l56 350q14 92 77.5 146t154.5 54q93 0 139.5 -57t31.5 -153h-50q12 77 -22.5 121t-105.5 44q-70 0 -117 -41.5t-58 -113.5l-56 -350q-11 -72 23 -113.5t104 -41.5q72 0 120 44.5t60 120.5l17 110h-173l7 46h223l-24 -156
q-10 -64 -43 -111t-83 -73t-112 -26zM360 810l-98 140h49l84 -109l117 109h50l-142 -140h-60z" />
    <glyph glyph-name="gcaron" unicode="&#x1e7;" 
d="M101 -180l8 45h145q122 0 140 120l7 45l17 111q-21 -47 -66 -74t-103 -27q-82 0 -123 54.5t-27 144.5l19 121q10 60 39.5 105t74.5 70t100 25q58 0 94 -27t43 -74l14 91h50l-89 -565q-13 -82 -63.5 -123.5t-134.5 -41.5h-145zM266 83q68 0 112.5 41.5t55.5 114.5l19 121
q11 74 -19.5 115.5t-98.5 41.5q-67 0 -111.5 -41.5t-55.5 -115.5l-19 -121q-11 -73 19.5 -114.5t97.5 -41.5zM326 645l-98 140h49l84 -109l117 109h50l-142 -140h-60z" />
    <glyph glyph-name="uni01EA" unicode="&#x1ea;" 
d="M294 -195q-41 0 -61.5 21.5t-14.5 58.5q4 26 24.5 55t52.5 54q-8 -2 -20.5 -3t-20.5 -1q-88 0 -132.5 54.5t-30.5 145.5l56 350q10 61 41 105.5t78.5 69.5t106.5 25q89 0 133.5 -54.5t30.5 -145.5l-56 -350q-10 -64 -43 -109t-83 -71l-11 -8q-33 -26 -53.5 -55t-23.5 -50
q-4 -23 7.5 -36.5t35.5 -13.5h64l-7 -42h-73zM261 34q69 0 113.5 41t56.5 115l56 350q11 74 -21 115t-100 41t-113 -41t-56 -115l-56 -350q-12 -74 19.5 -115t100.5 -41z" />
    <glyph glyph-name="uni01EB" unicode="&#x1eb;" 
d="M298 -195q-41 0 -61.5 21.5t-14.5 58.5q4 24 23 51t56 58q-10 -2 -22.5 -3t-24.5 -1q-88 0 -132.5 54.5t-30.5 145.5l27 170q10 61 41 105.5t79 69.5t107 25q89 0 133 -54.5t30 -145.5l-27 -170q-9 -55 -35.5 -97t-66.5 -68l-31 -25q-33 -27 -53.5 -54.5t-23.5 -48.5
q-4 -23 7.5 -36.5t35.5 -13.5h64l-7 -42h-73zM261 34q69 0 113.5 41t56.5 115l27 170q12 74 -20 115t-100 41t-113 -41t-57 -115l-27 -170q-12 -74 19.5 -115t100.5 -41z" />
    <glyph glyph-name="uni01F4" unicode="&#x1f4;" 
d="M260 -10q-91 0 -137 54.5t-32 145.5l56 350q14 92 77.5 146t154.5 54q93 0 139.5 -57t31.5 -153h-50q12 77 -22.5 121t-105.5 44q-70 0 -117 -41.5t-58 -113.5l-56 -350q-11 -72 23 -113.5t104 -41.5q72 0 120 44.5t60 120.5l17 110h-173l7 46h223l-24 -156
q-10 -64 -43 -111t-83 -73t-112 -26zM352 810l128 140h63l-134 -140h-57z" />
    <glyph glyph-name="uni01F5" unicode="&#x1f5;" 
d="M101 -180l8 45h145q122 0 140 120l7 45l17 111q-21 -47 -66 -74t-103 -27q-82 0 -123 54.5t-27 144.5l19 121q10 60 39.5 105t74.5 70t100 25q58 0 94 -27t43 -74l14 91h50l-89 -565q-13 -82 -63.5 -123.5t-134.5 -41.5h-145zM266 83q68 0 112.5 41.5t55.5 114.5l19 121
q11 74 -19.5 115.5t-98.5 41.5q-67 0 -111.5 -41.5t-55.5 -115.5l-19 -121q-11 -73 19.5 -114.5t97.5 -41.5zM327 645l128 140h63l-134 -140h-57z" />
    <glyph glyph-name="AEacute" unicode="&#x1fc;" 
d="M-10 0l304 730h347l-8 -45h-209l-44 -283h173l-7 -45h-173l-50 -312h209l-7 -45h-259l34 215h-170l-90 -215h-50zM150 260h157l67 425h-51zM346 810l128 140h63l-134 -140h-57z" />
    <glyph glyph-name="aeacute" unicode="&#x1fd;" 
d="M128 -10q-62 0 -91 41t-19 108l7 46q10 59 50 93.5t101 34.5h108l15 97q8 46 -14 76t-64 30q-39 0 -68 -25.5t-40 -65.5h-50q15 62 58 98.5t104 36.5q39 0 62.5 -14t34.5 -33.5t11 -38.5h2q8 19 25.5 38.5t45 33.5t62.5 14q63 0 93.5 -41t19.5 -109l-23 -142h-232
l-20 -128q-7 -46 14.5 -75.5t64.5 -29.5q39 0 65.5 25t36.5 65h50q-15 -61 -55.5 -98t-101.5 -37q-38 0 -62 13.5t-34.5 33.5t-11.5 38h-3q-6 -18 -24 -38t-47 -33.5t-70 -13.5zM334 313h182l15 97q7 45 -12.5 75.5t-60.5 30.5q-40 0 -71 -30.5t-38 -75.5zM144 32
q41 0 73 31t39 77l20 128h-108q-35 0 -61 -23t-32 -60l-7 -46q-7 -46 13.5 -76.5t62.5 -30.5zM330 645l128 140h63l-134 -140h-57z" />
    <glyph glyph-name="Oslashacute" unicode="&#x1fe;" 
d="M0 -40l96 131q-14 44 -5 99l56 350q10 61 41 105.5t78.5 69.5t106.5 25q50 0 87 -18t57 -52l58 80h50l-90 -124q9 -39 2 -86l-56 -350q-15 -91 -76.5 -145.5t-150.5 -54.5q-94 0 -138 61l-66 -91h-50zM141 190q-4 -22 -3 -41l345 475q-24 72 -117 72q-68 0 -112.5 -41
t-56.5 -115zM261 34q69 0 113.5 41t56.5 115l56 350q2 12 3 24l-342 -469q27 -61 113 -61zM346 810l128 140h63l-134 -140h-57z" />
    <glyph glyph-name="oslashacute" unicode="&#x1ff;" 
d="M10 -30l91 107q-20 48 -10 113l27 170q10 61 41 105.5t79 69.5t107 25q83 0 127 -48l67 78h51l-95 -111q24 -50 13 -119l-27 -170q-14 -91 -76 -145.5t-151 -54.5q-87 0 -131 52l-62 -72h-51zM141 190q-6 -38 -1 -67l299 350q-31 43 -101 43q-68 0 -113 -41t-57 -115z
M261 34q69 0 113.5 41t56.5 115l27 170q7 42 -1 74l-301 -353q30 -47 105 -47zM330 645l128 140h63l-134 -140h-57z" />
    <glyph glyph-name="uni0218" unicode="&#x218;" 
d="M259 -10q-101 0 -152 53t-37 142h50q-10 -68 30 -109t117 -41q75 0 123.5 37.5t58.5 104.5q9 61 -16 103t-81 59l-81 25q-68 21 -100 73t-21 122q13 83 75 132t154 49t137.5 -51.5t31.5 -140.5h-50q11 67 -24 107t-103 40q-70 0 -116 -35t-55 -97q-8 -56 16 -97t74 -57
l81 -25q71 -22 105.5 -78t23.5 -126q-14 -87 -79 -138.5t-162 -51.5zM133 -240l113 145h65l-128 -145h-50z" />
    <glyph glyph-name="uni0219" unicode="&#x219;" 
d="M226 -10q-75 0 -117 40.5t-39 104.5h50q1 -43 31.5 -71.5t82.5 -28.5h67q55 0 91.5 28.5t43.5 76.5q7 43 -14 73.5t-64 36.5l-104 15q-68 10 -101.5 47.5t-23.5 98.5q11 68 65 108.5t133 40.5h42q75 0 116 -37t39 -98h-50q1 39 -29 64.5t-83 25.5h-42q-56 0 -94.5 -28
t-45.5 -75q-12 -85 90 -100l102 -15q63 -9 94 -51.5t21 -105.5q-11 -69 -63.5 -109.5t-130.5 -40.5h-67zM138 -240l113 145h65l-128 -145h-50z" />
    <glyph glyph-name="uni021A" unicode="&#x21a;" 
d="M232 0l108 684h-216l8 46h480l-8 -46h-214l-108 -684h-50zM133 -240l113 145h65l-128 -145h-50z" />
    <glyph glyph-name="uni021B" unicode="&#x21b;" 
d="M316 0q-63 0 -91.5 32t-18.5 93l60 380h-160l7 45h160l24 150h50l-24 -150h225l-7 -45h-225l-60 -380q-12 -80 67 -80h135l-7 -45h-135zM193 -240l113 145h65l-128 -145h-50z" />
    <glyph glyph-name="uni0232" unicode="&#x232;" 
d="M231 0l44 280l-153 450h50l112 -330q8 -22 14 -41t9 -29q6 9 17.5 28.5t26.5 41.5l217 330h54l-297 -450l-44 -280h-50zM251 854l7 43h280l-7 -43h-280z" />
    <glyph glyph-name="uni0233" unicode="&#x233;" 
d="M94 -180l8 45h145q120 0 140 120l10 65l15 94q-22 -48 -66.5 -76t-103.5 -28q-81 0 -121.5 52.5t-26.5 140.5l50 317h50l-49 -310q-12 -74 19 -115.5t95 -41.5q66 0 111.5 42t56.5 115l49 310h50l-89 -565q-27 -165 -198 -165h-145zM224 684l7 43h280l-7 -43h-280z" />
    <glyph glyph-name="uni0237" unicode="&#x237;" 
d="M22 -180l8 45h135q71 0 113.5 37.5t53.5 107.5l78 495h-250l7 45h300l-85 -540q-14 -89 -73.5 -139.5t-151.5 -50.5h-135z" />
    <glyph glyph-name="uni0259" unicode="&#x259;" 
d="M253 -10q-91 0 -133.5 54.5t-28.5 145.5l15 95h340l12 75q11 72 -20 114t-101 42q-55 0 -96 -27t-63 -74h-50q26 67 82.5 106t133.5 39q92 0 135 -54t29 -146l-27 -170q-14 -91 -75 -145.5t-153 -54.5zM260 34q71 0 115.5 41.5t55.5 114.5l8 52h-289l-9 -52
q-11 -72 19.5 -114t99.5 -42z" />
    <glyph glyph-name="uni02B9" unicode="&#x2b9;" 
d="M206 410l124 311h90l-174 -311h-40z" />
    <glyph glyph-name="uni02BA" unicode="&#x2ba;" 
d="M366 409l124 311h90l-174 -311h-40zM96 409l124 311h90l-174 -311h-40z" />
    <glyph glyph-name="uni02BC" unicode="&#x2bc;" 
d="M215 465l124 311h90l-174 -311h-40z" />
    <glyph glyph-name="circumflex" unicode="&#x2c6;" 
d="M209 645l142 140h60l98 -140h-47l-84 109l-116 -109h-53z" />
    <glyph glyph-name="caron" unicode="&#x2c7;" 
d="M329 645l-98 140h49l84 -109l117 109h50l-142 -140h-60z" />
    <glyph glyph-name="uni02C9" unicode="&#x2c9;" 
d="M225 684l7 43h280l-7 -43h-280z" />
    <glyph glyph-name="breve" unicode="&#x2d8;" 
d="M359 643q-67 0 -100 38.5t-23 103.5h45q-7 -47 15 -74.5t68 -27.5q47 0 78.5 27.5t38.5 74.5h45q-10 -65 -55 -103.5t-112 -38.5z" />
    <glyph glyph-name="dotaccent" unicode="&#x2d9;" 
d="M360 655q-26 0 -39.5 15t-9.5 40t22.5 40t44.5 15t39.5 -15t9.5 -40t-22.5 -40t-44.5 -15z" />
    <glyph glyph-name="ring" unicode="&#x2da;" 
d="M355 615q-47 0 -72 27.5t-18 72.5q8 45 41.5 72.5t80.5 27.5t71.5 -27.5t16.5 -72.5q-7 -45 -40 -72.5t-80 -27.5zM360 650q29 0 50 18t25 47q5 29 -10 47t-44 18t-50 -18t-26 -47q-4 -29 11 -47t44 -18z" />
    <glyph glyph-name="ogonek" unicode="&#x2db;" 
d="M227 -195q-41 0 -61.5 21.5t-14.5 58.5q5 31 32 64t70 61h37l-13 -10q-33 -27 -53.5 -54.5t-23.5 -48.5q-4 -23 7.5 -36.5t35.5 -13.5h64l-7 -42h-73z" />
    <glyph glyph-name="tilde" unicode="&#x2dc;" 
d="M434 650q-28 0 -45.5 13.5t-30 32t-25 32t-30.5 13.5q-23 0 -38.5 -14t-19.5 -37l-5 -35h-40l5 35q7 42 35 66t70 24q28 0 45.5 -13.5t29.5 -32t24.5 -32t30.5 -13.5q21 0 35 14t18 37l6 35h40l-6 -35q-7 -42 -33 -66t-66 -24z" />
    <glyph glyph-name="hungarumlaut" unicode="&#x2dd;" 
d="M391 645l128 140h62l-134 -140h-56zM232 645l128 140h62l-134 -140h-56z" />
    <glyph glyph-name="uni02F3" unicode="&#x2f3;" 
d="M218 -245q-47 0 -72 26t-18 69t40 69t80 26t72 -26t18 -69t-40 -69t-80 -26zM223 -210q30 0 50.5 17t24.5 43q5 26 -9.5 43.5t-46.5 17.5q-28 0 -48.5 -17.5t-25.5 -43.5q-4 -26 11.5 -43t43.5 -17z" />
    <glyph glyph-name="uni02F7" unicode="&#x2f7;" 
d="M375 -210q-28 0 -47.5 13.5t-34.5 32t-30 32t-33 13.5q-23 0 -36.5 -14t-13.5 -37v-35h-40v35q0 42 24 66t66 24q28 0 47.5 -13.5t34.5 -32t30 -32t33 -13.5q21 0 33 14t12 37v35h40v-35q0 -42 -22.5 -66t-62.5 -24z" />
    <glyph glyph-name="gravecomb" unicode="&#x300;" horiz-adv-x="0" 
d="M-245 645l-90 140h58l84 -140h-52z" />
    <glyph glyph-name="acutecomb" unicode="&#x301;" horiz-adv-x="0" 
d="M-291 645l128 140h63l-134 -140h-57z" />
    <glyph glyph-name="uni0302" unicode="&#x302;" horiz-adv-x="0" 
d="M-391 645l142 140h60l98 -140h-47l-84 109l-116 -109h-53z" />
    <glyph glyph-name="tildecomb" unicode="&#x303;" horiz-adv-x="0" 
d="M-166 650q-28 0 -45.5 13.5t-30 32t-25 32t-30.5 13.5q-23 0 -38.5 -14t-19.5 -37l-5 -35h-40l5 35q7 42 35 66t70 24q28 0 45.5 -13.5t29.5 -32t24.5 -32t30.5 -13.5q21 0 35 14t18 37l6 35h40l-6 -35q-7 -42 -33 -66t-66 -24z" />
    <glyph glyph-name="uni0304" unicode="&#x304;" horiz-adv-x="0" 
d="M-375 684l7 43h280l-7 -43h-280z" />
    <glyph glyph-name="uni0306" unicode="&#x306;" horiz-adv-x="0" 
d="M-241 643q-67 0 -100 38.5t-23 103.5h45q-7 -47 15 -74.5t68 -27.5q47 0 78.5 27.5t38.5 74.5h45q-10 -65 -55 -103.5t-112 -38.5z" />
    <glyph glyph-name="uni0307" unicode="&#x307;" horiz-adv-x="0" 
d="M-240 655q-26 0 -39.5 15t-9.5 40t22.5 40t44.5 15t39.5 -15t9.5 -40t-22.5 -40t-44.5 -15z" />
    <glyph glyph-name="uni0308" unicode="&#x308;" horiz-adv-x="0" 
d="M-131 655q-24 0 -36.5 15t-8.5 40q5 25 21.5 40t40.5 15q23 0 35 -15t7 -40q-4 -25 -20 -40t-39 -15zM-346 655q-23 0 -35.5 15t-8.5 40q5 25 21.5 40t39.5 15t35.5 -15t7.5 -40q-4 -25 -20.5 -40t-39.5 -15z" />
    <glyph glyph-name="hookabovecomb" unicode="&#x309;" horiz-adv-x="0" 
d="M-270 645l68 76q9 11 16 20.5t8 15.5q5 28 -32 28h-88l6 35h88q35 0 53.5 -16t14.5 -43q-2 -12 -9 -26t-18 -27l-55 -63h-52z" />
    <glyph glyph-name="uni030A" unicode="&#x30a;" horiz-adv-x="0" 
d="M-245 615q-47 0 -72 27.5t-18 72.5q8 45 41.5 72.5t80.5 27.5t71.5 -27.5t16.5 -72.5q-7 -45 -40 -72.5t-80 -27.5zM-240 650q29 0 50 18t25 47q5 29 -10 47t-44 18t-50 -18t-26 -47q-4 -29 11 -47t44 -18z" />
    <glyph glyph-name="uni030B" unicode="&#x30b;" horiz-adv-x="0" 
d="M-209 645l128 140h62l-134 -140h-56zM-368 645l128 140h62l-134 -140h-56z" />
    <glyph glyph-name="uni030C" unicode="&#x30c;" horiz-adv-x="0" 
d="M-271 645l-98 140h49l84 -109l117 109h50l-142 -140h-60z" />
    <glyph glyph-name="uni030F" unicode="&#x30f;" horiz-adv-x="0" 
d="M-279 645h-49l-90 140h55zM-120 645h-49l-90 140h55z" />
    <glyph glyph-name="uni0312" unicode="&#x312;" horiz-adv-x="0" 
d="M-103 880l-132 -235h-69l152 235h49z" />
    <glyph glyph-name="uni031B" unicode="&#x31b;" horiz-adv-x="0" 
d="M-202 515l5 35h55q20 0 34.5 14t18.5 36l10 60h40l-10 -60q-6 -38 -33 -61.5t-65 -23.5h-55z" />
    <glyph glyph-name="dotbelowcomb" unicode="&#x323;" horiz-adv-x="0" 
d="M-375 -205q-26 0 -40 15t-10 40t22.5 40t44.5 15t39.5 -15t9.5 -40t-22 -40t-44 -15z" />
    <glyph glyph-name="uni0325" unicode="&#x325;" horiz-adv-x="0" 
d="M-382 -245q-47 0 -72 26t-18 69t40 69t80 26t72 -26t18 -69t-40 -69t-80 -26zM-377 -210q30 0 50.5 17t24.5 43q5 26 -9.5 43.5t-46.5 17.5q-28 0 -48.5 -17.5t-25.5 -43.5q-4 -26 11.5 -43t43.5 -17z" />
    <glyph glyph-name="uni0326" unicode="&#x326;" horiz-adv-x="0" 
d="M-467 -240l113 145h65l-128 -145h-50z" />
    <glyph glyph-name="uni0327" unicode="&#x327;" horiz-adv-x="0" 
d="M-465 -195l6 35h80q24 0 41 13t19 29q4 24 -26 39t-83 15l49 90h42l-32 -60q23 -1 47 -10t39 -27t10 -47q-4 -32 -35.5 -54.5t-76.5 -22.5h-80z" />
    <glyph glyph-name="uni0328" unicode="&#x328;" horiz-adv-x="0" 
d="M-373 -195q-41 0 -61.5 21.5t-14.5 58.5q5 31 32 64t70 61h37l-13 -10q-33 -27 -53.5 -54.5t-23.5 -48.5q-4 -23 7.5 -36.5t35.5 -13.5h64l-7 -42h-73z" />
    <glyph glyph-name="uni0336" unicode="&#x336;" horiz-adv-x="0" 
d="M-625 306l7 40h659l-7 -40h-659z" />
    <glyph glyph-name="uni0337" unicode="&#x337;" horiz-adv-x="0" 
d="M-588 -30l527 620h51l-527 -620h-51z" />
    <glyph glyph-name="uni0338" unicode="&#x338;" horiz-adv-x="0" 
d="M-541 -110l434 770h48l-434 -770h-48z" />
    <glyph glyph-name="uni0374" unicode="&#x374;" 
d="M206 410l124 311h90l-174 -311h-40z" />
    <glyph glyph-name="uni0375" unicode="&#x375;" 
d="M121 -160l124 311h93l-174 -311h-43z" />
    <glyph glyph-name="uni037E" unicode="&#x37e;" 
d="M318 420q-32 0 -48.5 19.5t-11.5 50.5q5 32 27.5 51t54.5 19h10q32 0 48 -19t11 -51q-5 -31 -27 -50.5t-54 -19.5h-10zM121 -160l124 311h93l-174 -311h-43z" />
    <glyph glyph-name="tonos" unicode="&#x384;" 
d="M292 645l128 140h59l-134 -140h-53z" />
    <glyph glyph-name="dieresistonos" unicode="&#x385;" 
d="M352 769l102 131h49l-109 -131h-42zM468 655q-24 0 -36.5 15t-8.5 40q5 25 21.5 40t40.5 15q23 0 35 -15t7 -40q-4 -25 -20 -40t-39 -15zM253 655q-23 0 -35.5 15t-8.5 40q5 25 21.5 40t39.5 15t35.5 -15t7.5 -40q-4 -25 -20.5 -40t-39.5 -15z" />
    <glyph glyph-name="Alphatonos" unicode="&#x386;" 
d="M24 0l317 730h62l85 -730h-50l-23 210h-250l-89 -210h-52zM184 255h226l-32 295q-6 54 -8 90.5t-3 47.5q-4 -11 -18.5 -47.5t-37.5 -90.5zM111 568l81 160h54l-87 -160h-48z" />
    <glyph glyph-name="anoteleia" unicode="&#x387;" 
d="M298 265q-34 0 -50 20.5t-11 54.5t28 53.5t57 19.5t50 -19.5t11 -53.5t-28 -54.5t-57 -20.5z" />
    <glyph glyph-name="Epsilontonos" unicode="&#x388;" 
d="M76 0l116 730h390l-8 -46h-340l-44 -281h305l-7 -45h-305l-50 -312h340l-7 -46h-390zM-9 568l81 160h54l-87 -160h-48z" />
    <glyph glyph-name="Etatonos" unicode="&#x389;" 
d="M-9 568l81 160h54l-87 -160h-48zM66 0l116 730h50l-52 -328h280l52 328h50l-116 -730h-50l56 356h-280l-56 -356h-50z" />
    <glyph glyph-name="Iotatonos" unicode="&#x38a;" 
d="M-9 568l81 160h54l-87 -160h-48zM76 0l7 46h156l101 638h-156l8 46h360l-8 -46h-154l-101 -638h154l-7 -46h-360z" />
    <glyph glyph-name="Omicrontonos" unicode="&#x38c;" 
d="M21 568l81 160h54l-87 -160h-48zM254 -10q-88 0 -132.5 54.5t-30.5 145.5l56 350q10 61 41 105.5t78.5 69.5t106.5 25q89 0 133.5 -54.5t30.5 -145.5l-56 -350q-14 -91 -76 -145.5t-151 -54.5zM261 34q69 0 113.5 41t56.5 115l56 350q11 74 -21 115t-100 41t-113 -41
t-56 -115l-56 -350q-12 -74 19.5 -115t100.5 -41z" />
    <glyph glyph-name="Upsilontonos" unicode="&#x38e;" 
d="M-29 568l81 160h54l-87 -160h-48zM231 0l44 280l-153 450h50l112 -330q8 -22 14 -41t9 -29q6 9 17.5 28.5t26.5 41.5l217 330h54l-297 -450l-44 -280h-50z" />
    <glyph glyph-name="Omegatonos" unicode="&#x38f;" 
d="M6 0l7 45h165l3 15q-22 1 -44.5 16.5t-34 48t-3.5 85.5l52 328q15 92 75 147t148 55q86 0 129 -55t28 -147l-52 -328q-8 -53 -30 -85.5t-48.5 -48t-49.5 -16.5l-3 -15h165l-7 -45h-210l13 84q47 0 79 34t41 92l52 328q12 74 -18.5 115.5t-95.5 41.5t-109.5 -41.5
t-56.5 -115.5l-52 -328q-9 -58 12.5 -91.5t67.5 -33.5l-13 -85h-210zM21 568l81 160h54l-87 -160h-48z" />
    <glyph glyph-name="iotadieresistonos" unicode="&#x390;" 
d="M374 0q-67 0 -98 35t-21 100l59 370h-208l7 45h258l-66 -415q-14 -90 76 -90h122l-7 -45h-122zM352 769l102 131h49l-109 -131h-42zM468 655q-24 0 -36.5 15t-8.5 40q5 25 21.5 40t40.5 15q23 0 35 -15t7 -40q-4 -25 -20 -40t-39 -15zM253 655q-23 0 -35.5 15t-8.5 40
q5 25 21.5 40t39.5 15t35.5 -15t7.5 -40q-4 -25 -20.5 -40t-39.5 -15z" />
    <glyph glyph-name="Alpha" unicode="&#x391;" 
d="M24 0l317 730h62l85 -730h-50l-23 210h-250l-89 -210h-52zM184 255h226l-32 295q-6 54 -8 90.5t-3 47.5q-4 -11 -18.5 -47.5t-37.5 -90.5z" />
    <glyph glyph-name="Beta" unicode="&#x392;" 
d="M66 0l116 730h188q91 0 137.5 -51t32.5 -137q-10 -65 -47 -109t-92 -58q59 -12 86.5 -58.5t16.5 -116.5q-15 -91 -81.5 -145.5t-165.5 -54.5h-191zM179 398h138q71 0 117 38t56 105q11 67 -23.5 105t-104.5 38h-138zM123 46h141q77 0 127.5 41t62.5 112
q11 71 -26.5 112.5t-114.5 41.5h-141z" />
    <glyph glyph-name="Gamma" unicode="&#x393;" 
d="M96 0l116 730h405l-8 -45h-355l-108 -685h-50z" />
    <glyph glyph-name="uni0394" unicode="&#x394;" 
d="M24 0l317 730h62l85 -730h-464zM95 45h338l-55 505q-4 44 -7 82.5t-4 57.5q-7 -19 -22.5 -57.5t-33.5 -82.5z" />
    <glyph glyph-name="Epsilon" unicode="&#x395;" 
d="M76 0l116 730h390l-8 -46h-340l-44 -281h305l-7 -45h-305l-50 -312h340l-7 -46h-390z" />
    <glyph glyph-name="Zeta" unicode="&#x396;" 
d="M47 0l8 50l453 634h-349l8 46h400l-9 -57l-450 -627h363l-7 -46h-417z" />
    <glyph glyph-name="Eta" unicode="&#x397;" 
d="M66 0l116 730h50l-52 -328h280l52 328h50l-116 -730h-50l56 356h-280l-56 -356h-50z" />
    <glyph glyph-name="Theta" unicode="&#x398;" 
d="M254 -10q-88 0 -132.5 54.5t-30.5 145.5l56 350q10 61 41 105.5t78.5 69.5t106.5 25q89 0 133.5 -54.5t30.5 -145.5l-56 -350q-14 -91 -76 -145.5t-151 -54.5zM261 34q69 0 113.5 41t56.5 115l56 350q11 74 -21 115t-100 41t-113 -41t-56 -115l-56 -350
q-12 -74 19.5 -115t100.5 -41zM217 352l7 45h190l-7 -45h-190z" />
    <glyph glyph-name="Iota" unicode="&#x399;" 
d="M76 0l7 46h156l101 638h-156l8 46h360l-8 -46h-154l-101 -638h154l-7 -46h-360z" />
    <glyph glyph-name="Kappa" unicode="&#x39a;" 
d="M66 0l116 730h50l-52 -329h152l212 329h58l-227 -353l121 -377h-56l-113 356h-155l-56 -356h-50z" />
    <glyph glyph-name="Lambda" unicode="&#x39b;" 
d="M24 0l317 730h62l85 -730h-49l-60 550q-7 60 -9.5 100l-2.5 40l-14.5 -40t-40.5 -100l-235 -550h-53z" />
    <glyph glyph-name="Mu" unicode="&#x39c;" 
d="M48 0l116 730h73l57 -280q5 -22 10 -48t8 -43q8 17 21.5 43t24.5 48l146 280h76l-116 -730h-49l70 440q8 51 17 101.5t17 93.5t13 70l-198 -380h-53l-78 380q-3 -27 -8.5 -70t-12.5 -93.5t-15 -101.5l-70 -440h-49z" />
    <glyph glyph-name="Nu" unicode="&#x39d;" 
d="M66 0l116 730h67l162 -675q2 20 5 44l5.5 44t3.5 27l89 560h48l-116 -730h-68l-159 675q-1 -14 -5.5 -45.5t-10.5 -69.5l-89 -560h-48z" />
    <glyph glyph-name="Xi" unicode="&#x39e;" 
d="M149 680l8 50h430l-8 -50h-430zM136 345l8 50h350l-8 -50h-350zM41 0l8 50h430l-8 -50h-430z" />
    <glyph glyph-name="Omicron" unicode="&#x39f;" 
d="M254 -10q-88 0 -132.5 54.5t-30.5 145.5l56 350q10 61 41 105.5t78.5 69.5t106.5 25q89 0 133.5 -54.5t30.5 -145.5l-56 -350q-14 -91 -76 -145.5t-151 -54.5zM261 34q69 0 113.5 41t56.5 115l56 350q11 74 -21 115t-100 41t-113 -41t-56 -115l-56 -350
q-12 -74 19.5 -115t100.5 -41z" />
    <glyph glyph-name="Pi" unicode="&#x3a0;" 
d="M66 0l116 730h380l-116 -730h-50l108 685h-280l-108 -685h-50z" />
    <glyph glyph-name="Rho" unicode="&#x3a1;" 
d="M66 0l116 730h215q96 0 144 -55.5t33 -147.5q-9 -61 -42.5 -107t-84.5 -71t-115 -25h-165l-51 -324h-50zM175 370h165q73 0 123 42.5t61 114.5q12 73 -24.5 115t-110.5 42h-165z" />
    <glyph glyph-name="Sigma" unicode="&#x3a3;" 
d="M41 0l8 48l297 330l-197 304l8 48h470l-8 -46h-416l202 -311l-299 -327h412l-7 -46h-470z" />
    <glyph glyph-name="Tau" unicode="&#x3a4;" 
d="M232 0l108 684h-216l8 46h480l-8 -46h-214l-108 -684h-50z" />
    <glyph glyph-name="Upsilon" unicode="&#x3a5;" 
d="M231 0l44 280l-153 450h50l112 -330q8 -22 14 -41t9 -29q6 9 17.5 28.5t26.5 41.5l217 330h54l-297 -450l-44 -280h-50z" />
    <glyph glyph-name="Phi" unicode="&#x3a6;" 
d="M227 -25l11 70q-97 0 -144.5 54.5t-32.5 147.5l40 253q15 92 79.5 146t161.5 54l11 70h50l-11 -70q98 0 145 -54t32 -146l-40 -253q-15 -93 -79.5 -147.5t-161.5 -54.5l-11 -70h-50zM245 90l90 565q-47 0 -86 -20t-65 -55t-33 -80l-40 -253q-10 -68 27 -112.5t107 -44.5z
M295 90q47 0 86 20.5t65 56t33 80.5l40 253q11 67 -26 111t-108 44z" />
    <glyph glyph-name="Chi" unicode="&#x3a7;" 
d="M9 0l278 381l-147 349h54l86 -222q7 -17 19.5 -44.5t21.5 -47.5q14 20 34.5 47.5t32.5 44.5l160 222h56l-258 -349l157 -381h-54l-96 252q-6 16 -19 43.5t-21 48.5q-16 -21 -36 -48.5t-31 -43.5l-180 -252h-57z" />
    <glyph glyph-name="Psi" unicode="&#x3a8;" 
d="M231 0l27 170q-97 0 -144.5 54.5t-32.5 147.5l57 358h50l-57 -358q-10 -68 27 -112.5t107 -44.5l82 515h50l-82 -515q47 0 86 20.5t65 56t33 80.5l57 358h50l-57 -358q-15 -93 -79.5 -147.5t-161.5 -54.5l-27 -170h-50z" />
    <glyph glyph-name="uni03A9" unicode="&#x3a9;" 
d="M6 0l7 45h165l3 15q-22 1 -44.5 16.5t-34 48t-3.5 85.5l52 328q15 92 75 147t148 55q86 0 129 -55t28 -147l-52 -328q-8 -53 -30 -85.5t-48.5 -48t-49.5 -16.5l-3 -15h165l-7 -45h-210l13 84q47 0 79 34t41 92l52 328q12 74 -18.5 115.5t-95.5 41.5t-109.5 -41.5
t-56.5 -115.5l-52 -328q-9 -58 12.5 -91.5t67.5 -33.5l-13 -85h-210z" />
    <glyph glyph-name="Iotadieresis" unicode="&#x3aa;" 
d="M76 0l7 46h156l101 638h-156l8 46h360l-8 -46h-154l-101 -638h154l-7 -46h-360zM497 825q-24 0 -36.5 15t-8.5 40q5 25 21.5 40t40.5 15q23 0 35 -15t7 -40q-4 -25 -20 -40t-39 -15zM282 825q-23 0 -35.5 15t-8.5 40q5 25 21.5 40t39.5 15t35.5 -15t7.5 -40
q-4 -25 -20.5 -40t-39.5 -15z" />
    <glyph glyph-name="Upsilondieresis" unicode="&#x3ab;" 
d="M231 0l44 280l-153 450h50l112 -330q8 -22 14 -41t9 -29q6 9 17.5 28.5t26.5 41.5l217 330h54l-297 -450l-44 -280h-50zM497 825q-24 0 -36.5 15t-8.5 40q5 25 21.5 40t40.5 15q23 0 35 -15t7 -40q-4 -25 -20 -40t-39 -15zM282 825q-23 0 -35.5 15t-8.5 40q5 25 21.5 40
t39.5 15t35.5 -15t7.5 -40q-4 -25 -20.5 -40t-39.5 -15z" />
    <glyph glyph-name="alphatonos" unicode="&#x3ac;" 
d="M315 645l128 140h59l-134 -140h-53zM241 -10q-82 0 -123 54.5t-27 144.5l27 171q10 60 39.5 105t74.5 70t100 25q53 0 88.5 -22.5t47.5 -62.5h3l12 75h50l-87 -550h-50l12 75h-4q-24 -40 -67 -62.5t-96 -22.5zM258 33q68 0 112.5 41.5t55.5 114.5l27 171
q11 74 -19.5 115.5t-98.5 41.5q-67 0 -111.5 -41.5t-55.5 -115.5l-27 -171q-11 -73 19.5 -114.5t97.5 -41.5z" />
    <glyph glyph-name="epsilontonos" unicode="&#x3ad;" 
d="M281 -10h-56q-79 0 -119.5 44t-30.5 112q8 53 43.5 91t87.5 42l1 4q-47 3 -67.5 38.5t-12.5 88.5q7 43 34 76.5t69 53.5t91 20h56q83 0 119 -36t37 -99h-50q-5 41 -29.5 65.5t-83.5 24.5h-56q-33 0 -63 -15t-50 -40t-25 -54q-7 -43 19 -71.5t75 -28.5h128l-7 -45h-128
q-54 0 -92 -33.5t-46 -81.5q-7 -46 23.5 -78.5t84.5 -32.5h56q59 0 96 25t56 65h50q-22 -63 -74.5 -99t-135.5 -36zM303 645l128 140h59l-134 -140h-53z" />
    <glyph glyph-name="etatonos" unicode="&#x3ae;" 
d="M66 0l87 550h50l-15 -94q22 48 66.5 76t103.5 28q81 0 121.5 -52t26.5 -141l-87 -547h-50l86 540q12 74 -18.5 115.5t-95.5 41.5q-66 0 -111.5 -42t-56.5 -115l-57 -360h-50zM337 645l128 140h59l-134 -140h-53z" />
    <glyph glyph-name="iotatonos" unicode="&#x3af;" 
d="M374 0q-67 0 -98 35t-21 100l59 370h-208l7 45h258l-66 -415q-14 -90 76 -90h122l-7 -45h-122zM333 645l128 140h59l-134 -140h-53z" />
    <glyph glyph-name="upsilondieresistonos" unicode="&#x3b0;" 
d="M253 -10q-89 0 -131 54.5t-27 149.5l56 356h50l-56 -356q-12 -75 19 -117t97 -42q67 0 111.5 42t56.5 117l56 356h50l-56 -356q-15 -94 -75.5 -149t-150.5 -55zM352 769l102 131h49l-109 -131h-42zM468 655q-24 0 -36.5 15t-8.5 40q5 25 21.5 40t40.5 15q23 0 35 -15
t7 -40q-4 -25 -20 -40t-39 -15zM253 655q-23 0 -35.5 15t-8.5 40q5 25 21.5 40t39.5 15t35.5 -15t7.5 -40q-4 -25 -20.5 -40t-39.5 -15z" />
    <glyph glyph-name="alpha" unicode="&#x3b1;" 
d="M241 -10q-82 0 -123 54.5t-27 144.5l27 171q10 60 39.5 105t74.5 70t100 25q53 0 88.5 -22.5t47.5 -62.5h3l12 75h50l-87 -550h-50l12 75h-4q-24 -40 -67 -62.5t-96 -22.5zM258 33q68 0 112.5 41.5t55.5 114.5l27 171q11 74 -19.5 115.5t-98.5 41.5q-67 0 -111.5 -41.5
t-55.5 -115.5l-27 -171q-11 -73 19.5 -114.5t97.5 -41.5z" />
    <glyph glyph-name="beta" unicode="&#x3b2;" 
d="M37 -180l115 723q10 59 41 103.5t79 69t106 24.5q92 0 135.5 -51.5t29.5 -138.5q-10 -66 -49 -113t-94 -61q59 -12 87 -56t17 -112q-15 -96 -79.5 -152t-163.5 -56h-145l-29 -180h-50zM123 45h145q79 0 126 41t59 114q11 73 -23 112.5t-113 39.5h-40l7 45h40
q67 0 112.5 41t55.5 107q11 69 -20.5 109.5t-100.5 40.5q-66 0 -112 -41.5t-57 -110.5z" />
    <glyph glyph-name="gamma" unicode="&#x3b3;" 
d="M203 -180l29 180l-112 550h50l79 -400q4 -20 9 -46t8 -52q12 26 22.5 52t21.5 46l204 400h54l-286 -550l-29 -180h-50z" />
    <glyph glyph-name="delta" unicode="&#x3b4;" 
d="M256 -10q-94 0 -136 55t-26 155l14 92q16 96 67.5 149.5t137.5 53.5q27 0 46 -8t35 -21l4 3l-208 214l8 47h345l-8 -45h-290l192 -193q81 -82 61 -200l-14 -92q-16 -100 -75.5 -155t-152.5 -55zM264 35q69 0 113 43t57 122l14 92q13 79 -18.5 122t-100.5 43t-113.5 -43
t-57.5 -122l-14 -92q-13 -79 18.5 -122t101.5 -43z" />
    <glyph glyph-name="epsilon" unicode="&#x3b5;" 
d="M281 -10h-56q-79 0 -119.5 44t-30.5 112q8 53 43.5 91t87.5 42l1 4q-47 3 -67.5 38.5t-12.5 88.5q7 43 34 76.5t69 53.5t91 20h56q83 0 119 -36t37 -99h-50q-5 41 -29.5 65.5t-83.5 24.5h-56q-33 0 -63 -15t-50 -40t-25 -54q-7 -43 19 -71.5t75 -28.5h128l-7 -45h-128
q-54 0 -92 -33.5t-46 -81.5q-7 -46 23.5 -78.5t84.5 -32.5h56q59 0 96 25t56 65h50q-22 -63 -74.5 -99t-135.5 -36z" />
    <glyph glyph-name="zeta" unicode="&#x3b6;" 
d="M394 -180l22 134q3 21 -7.5 33.5t-32.5 12.5h-154q-88 0 -127.5 44t-26.5 127q5 30 19 63.5t48.5 78.5t97.5 110.5t165 159.5l114 102h-352l8 45h400l-9 -56l-131 -120q-95 -87 -154 -148t-91.5 -103.5t-46.5 -73.5t-18 -58q-10 -61 18.5 -93.5t92.5 -32.5h154
q45 0 67.5 -24.5t15.5 -66.5l-22 -134h-50z" />
    <glyph glyph-name="eta" unicode="&#x3b7;" 
d="M66 0l87 550h50l-15 -94q22 48 66.5 76t103.5 28q81 0 121.5 -52t26.5 -141l-87 -547h-50l86 540q12 74 -18.5 115.5t-95.5 41.5q-66 0 -111.5 -42t-56.5 -115l-57 -360h-50z" />
    <glyph glyph-name="theta" unicode="&#x3b8;" 
d="M254 -10q-88 0 -132.5 54.5t-30.5 145.5l54 340q10 61 41 105.5t79 69.5t107 25q89 0 133 -54.5t30 -145.5l-54 -340q-14 -91 -76 -145.5t-151 -54.5zM174 397h290l21 133q11 74 -20.5 115t-99.5 41t-113.5 -41t-56.5 -115zM261 34q69 0 113.5 41t56.5 115l26 162h-290
l-26 -162q-12 -74 19.5 -115t100.5 -41z" />
    <glyph glyph-name="iota" unicode="&#x3b9;" 
d="M374 0q-67 0 -98 35t-21 100l59 370h-208l7 45h258l-66 -415q-14 -90 76 -90h122l-7 -45h-122z" />
    <glyph glyph-name="kappa" unicode="&#x3ba;" 
d="M69 0l87 550h50l-38 -241h130l210 241h62l-227 -266l144 -284h-58l-134 264h-134l-42 -264h-50z" />
    <glyph glyph-name="lambda" unicode="&#x3bb;" 
d="M25 0l301 539l-44 191h57l150 -730h-52l-71 357q-7 33 -14 69t-11 57q-10 -21 -27 -57t-35 -69l-195 -357h-59z" />
    <glyph glyph-name="uni03BC" unicode="&#x3bc;" 
d="M38 -180l116 730h50l-57 -360q-12 -74 19 -115.5t98 -41.5q68 0 112 41.5t56 115.5l57 360h50l-87 -550h-50l12 75h-3q-23 -40 -63 -62.5t-91 -22.5q-50 0 -82.5 22.5t-43.5 62.5h-2l-12 -75l-29 -180h-50z" />
    <glyph glyph-name="nu" unicode="&#x3bd;" 
d="M225 0l-106 550h49l75 -410q5 -27 10 -56.5t7 -46.5q8 17 21.5 46.5t27.5 56.5l204 410h54l-280 -550h-62z" />
    <glyph glyph-name="xi" unicode="&#x3be;" 
d="M427 -180l22 134q3 21 -7.5 33.5t-32.5 12.5h-132q-100 0 -149 55.5t-34 150.5q12 76 57.5 124.5t112.5 59.5q-57 10 -84 51.5t-17 106.5q14 84 77 133t158 49h176l-8 -45h-176q-72 0 -119.5 -37t-57.5 -100t24.5 -99.5t104.5 -36.5h149l-7 -45h-149q-76 0 -128 -43.5
t-63 -117.5q-12 -74 26 -117.5t114 -43.5h132q45 0 67.5 -24.5t15.5 -66.5l-22 -134h-50z" />
    <glyph glyph-name="omicron" unicode="&#x3bf;" 
d="M254 -10q-88 0 -132.5 54.5t-30.5 145.5l27 170q10 61 41 105.5t79 69.5t107 25q89 0 133 -54.5t30 -145.5l-27 -170q-14 -91 -76 -145.5t-151 -54.5zM261 34q69 0 113.5 41t56.5 115l27 170q12 74 -20 115t-100 41t-113 -41t-57 -115l-27 -170q-12 -74 19.5 -115
t100.5 -41z" />
    <glyph glyph-name="pi" unicode="&#x3c0;" 
d="M473 -5q-58 0 -86 35t-18 95l60 380h-217l-80 -505h-50l80 505h-90l7 45h510l-7 -45h-103l-60 -380q-6 -39 10.5 -62t50.5 -23h28l-7 -45h-28z" />
    <glyph glyph-name="rho" unicode="&#x3c1;" 
d="M37 -180l86 541q14 92 74.5 145.5t150.5 53.5q88 0 131 -54t29 -145l-27 -171q-9 -60 -39 -105t-75 -70t-100 -25q-53 0 -88.5 22.5t-47.5 62.5h-3l-12 -75l-29 -180h-50zM264 33q67 0 111 41.5t56 115.5l27 171q12 74 -19 115t-98 41t-112 -41.5t-56 -114.5l-27 -171
q-12 -74 19.5 -115.5t98.5 -41.5z" />
    <glyph glyph-name="uni03C2" unicode="&#x3c2;" 
d="M394 -180l22 134q3 21 -7.5 33.5t-32.5 12.5h-117q-91 0 -135.5 54.5t-29.5 145.5l25 160q10 61 41 105.5t79.5 69.5t108.5 25q91 0 136.5 -51.5t31.5 -138.5h-50q11 68 -23 106t-103 38q-68 0 -114 -40.5t-57 -113.5l-25 -160q-12 -72 21 -113t101 -41h117
q45 0 67.5 -25t15.5 -67l-22 -134h-50z" />
    <glyph glyph-name="sigma" unicode="&#x3c3;" 
d="M254 -10q-88 0 -132.5 54.5t-30.5 145.5l27 170q9 57 40.5 99.5t79 66.5t105.5 24h220l-7 -44h-115q39 -13 57.5 -52t9.5 -94l-27 -170q-14 -91 -76 -145.5t-151 -54.5zM261 34q69 0 113.5 41t56.5 115l27 170q12 74 -13.5 110t-108.5 36q-68 0 -112 -36t-56 -110
l-27 -170q-12 -74 19.5 -115t100.5 -41z" />
    <glyph glyph-name="tau" unicode="&#x3c4;" 
d="M341 0q-63 0 -91.5 32t-18.5 93l60 380h-185l7 45h435l-7 -45h-200l-60 -380q-12 -80 67 -80h110l-7 -45h-110z" />
    <glyph glyph-name="upsilon" unicode="&#x3c5;" 
d="M253 -10q-89 0 -131 54.5t-27 149.5l56 356h50l-56 -356q-12 -75 19 -117t97 -42q67 0 111.5 42t56.5 117l56 356h50l-56 -356q-15 -94 -75.5 -149t-150.5 -55z" />
    <glyph glyph-name="phi" unicode="&#x3c6;" 
d="M202 -180l29 180q-98 0 -143 53.5t-30 148.5l55 348h48l-55 -348q-12 -74 23 -116t111 -42l80 506h85q79 0 116.5 -44.5t25.5 -123.5l-29 -180q-15 -95 -77 -148.5t-160 -53.5l-29 -180h-50zM286 44q77 0 124.5 42t59.5 116l29 180q9 59 -18 91.5t-83 32.5h-39z" />
    <glyph glyph-name="chi" unicode="&#x3c7;" 
d="M9 -180l278 381l-147 349h54l86 -222q7 -17 19.5 -44.5t21.5 -47.5q14 20 34.5 47.5t32.5 44.5l160 222h56l-258 -349l157 -381h-54l-96 252q-6 16 -19 43.5t-21 48.5q-16 -21 -36 -48.5t-31 -43.5l-180 -252h-57z" />
    <glyph glyph-name="psi" unicode="&#x3c8;" 
d="M202 -180l29 180q-97 0 -140.5 54.5t-28.5 147.5l55 348h48l-55 -348q-12 -76 22.5 -115t108.5 -39l79 502h46l-79 -502q74 0 120.5 39t58.5 115l55 348h48l-55 -348q-15 -93 -75.5 -147.5t-157.5 -54.5l-29 -180h-50z" />
    <glyph glyph-name="omega" unicode="&#x3c9;" 
d="M148 -10q-56 0 -82.5 40.5t-16.5 109.5l39 242q11 72 55 119t111 59l-8 -46q-43 -13 -72.5 -47.5t-37.5 -84.5l-39 -242q-8 -52 8.5 -79t53.5 -27q38 0 63.5 27t33.5 79l39 242h46l-39 -242q-8 -52 8.5 -79t53.5 -27q38 0 63.5 27t33.5 79l39 242q8 50 -10.5 84.5
t-59.5 47.5l8 46q63 -12 92 -59t18 -119l-39 -242q-10 -69 -50.5 -109.5t-96.5 -40.5q-43 0 -67 24t-25 67q-15 -43 -47 -67t-75 -24z" />
    <glyph glyph-name="iotadieresis" unicode="&#x3ca;" 
d="M374 0q-67 0 -98 35t-21 100l59 370h-208l7 45h258l-66 -415q-14 -90 76 -90h122l-7 -45h-122zM469 655q-24 0 -36.5 15t-8.5 40q5 25 21.5 40t40.5 15q23 0 35 -15t7 -40q-4 -25 -20 -40t-39 -15zM254 655q-23 0 -35.5 15t-8.5 40q5 25 21.5 40t39.5 15t35.5 -15
t7.5 -40q-4 -25 -20.5 -40t-39.5 -15z" />
    <glyph glyph-name="upsilondieresis" unicode="&#x3cb;" 
d="M253 -10q-89 0 -131 54.5t-27 149.5l56 356h50l-56 -356q-12 -75 19 -117t97 -42q67 0 111.5 42t56.5 117l56 356h50l-56 -356q-15 -94 -75.5 -149t-150.5 -55zM468 655q-24 0 -36.5 15t-8.5 40q5 25 21.5 40t40.5 15q23 0 35 -15t7 -40q-4 -25 -20 -40t-39 -15zM253 655
q-23 0 -35.5 15t-8.5 40q5 25 21.5 40t39.5 15t35.5 -15t7.5 -40q-4 -25 -20.5 -40t-39.5 -15z" />
    <glyph glyph-name="omicrontonos" unicode="&#x3cc;" 
d="M254 -10q-88 0 -132.5 54.5t-30.5 145.5l27 170q10 61 41 105.5t79 69.5t107 25q89 0 133 -54.5t30 -145.5l-27 -170q-14 -91 -76 -145.5t-151 -54.5zM261 34q69 0 113.5 41t56.5 115l27 170q12 74 -20 115t-100 41t-113 -41t-57 -115l-27 -170q-12 -74 19.5 -115
t100.5 -41zM332 645l128 140h59l-134 -140h-53z" />
    <glyph glyph-name="upsilontonos" unicode="&#x3cd;" 
d="M253 -10q-89 0 -131 54.5t-27 149.5l56 356h50l-56 -356q-12 -75 19 -117t97 -42q67 0 111.5 42t56.5 117l56 356h50l-56 -356q-15 -94 -75.5 -149t-150.5 -55zM332 645l128 140h59l-134 -140h-53z" />
    <glyph glyph-name="omegatonos" unicode="&#x3ce;" 
d="M148 -10q-56 0 -82.5 40.5t-16.5 109.5l39 242q11 72 55 119t111 59l-8 -46q-43 -13 -72.5 -47.5t-37.5 -84.5l-39 -242q-8 -52 8.5 -79t53.5 -27q38 0 63.5 27t33.5 79l39 242h46l-39 -242q-8 -52 8.5 -79t53.5 -27q38 0 63.5 27t33.5 79l39 242q8 50 -10.5 84.5
t-59.5 47.5l8 46q63 -12 92 -59t18 -119l-39 -242q-10 -69 -50.5 -109.5t-96.5 -40.5q-43 0 -67 24t-25 67q-15 -43 -47 -67t-75 -24zM312 645l128 140h59l-134 -140h-53z" />
    <glyph glyph-name="uni03CF" unicode="&#x3cf;" 
d="M66 0l116 730h50l-52 -329h152l212 329h58l-227 -353l105 -326h44l-14 -86q-10 -70 -55 -107.5t-118 -37.5h-45l8 45h45q48 0 78 26t37 74l6 35h-26l-113 356h-155l-56 -356h-50z" />
    <glyph glyph-name="uni03D5" unicode="&#x3d5;" 
d="M223 -55l9 55q-96 0 -143 54t-33 148l23 148q14 93 79 146.5t161 53.5l8 55q8 59 48.5 92t101.5 33h116l-8 -45h-116q-38 0 -62.5 -21t-30.5 -59l-9 -55q96 0 143 -53.5t33 -146.5l-23 -148q-14 -94 -79 -148t-161 -54l-8 -55q-8 -58 -48.5 -91.5t-101.5 -33.5h-113l8 45
h113q38 0 62.5 21t30.5 59zM239 43l73 464q-75 0 -124.5 -41.5t-60.5 -115.5l-23 -148q-12 -75 24 -117t111 -42zM287 43q75 0 124 42t61 117l23 148q11 74 -24.5 115.5t-110.5 41.5z" />
    <glyph glyph-name="uni03D6" unicode="&#x3d6;" 
d="M147 -10q-56 0 -82.5 40.5t-16.5 109.5l40 253q6 38 26 67t50 45h-108l7 45h560l-7 -45h-108q25 -16 35.5 -45t4.5 -67l-40 -253q-10 -69 -50.5 -109.5t-96.5 -40.5q-43 0 -66.5 24t-25.5 67q-15 -43 -47 -67t-75 -24zM158 34q38 0 63.5 27t33.5 79l39 242h46l-39 -242
q-8 -52 8.5 -79t53.5 -27q38 0 63.5 27t33.5 79l41 259q8 53 -8.5 79.5t-54.5 26.5h-205q-37 0 -62.5 -26.5t-33.5 -79.5l-41 -259q-8 -52 8.5 -79t53.5 -27z" />
    <glyph glyph-name="uni03D7" unicode="&#x3d7;" 
d="M252 -180l8 45h45q48 0 78 26t37 74l6 35h-30l55 350q7 38 15 82.5t14 72.5l-347 -505h-67l87 550h50l-55 -350q-6 -38 -14.5 -82.5t-14.5 -72.5l346 505h68l-79 -499h30l-14 -86q-10 -70 -55 -107.5t-118 -37.5h-45z" />
    <glyph glyph-name="uni0401" unicode="&#x401;" 
d="M76 0l116 730h390l-8 -46h-340l-44 -281h305l-7 -45h-305l-50 -312h340l-7 -46h-390zM517 825q-24 0 -36.5 15t-8.5 40q5 25 21.5 40t40.5 15q23 0 35 -15t7 -40q-4 -25 -20 -40t-39 -15zM302 825q-23 0 -35.5 15t-8.5 40q5 25 21.5 40t39.5 15t35.5 -15t7.5 -40
q-4 -25 -20.5 -40t-39.5 -15z" />
    <glyph glyph-name="uni0402" unicode="&#x402;" 
d="M194 -180l8 45h42q74 0 121 40t58 110l51 321q9 54 -9.5 85t-59.5 31q-29 0 -63.5 -16.5t-69.5 -47.5l-87 -78l-49 -310h-50l108 685h-130l8 45h305l-8 -45h-125l-50 -318l55 50q86 78 169 78q60 0 89.5 -40.5t18.5 -108.5l-53 -331q-9 -60 -41.5 -103.5t-82.5 -67.5
t-113 -24h-42z" />
    <glyph glyph-name="uni0403" unicode="&#x403;" 
d="M96 0l116 730h405l-8 -45h-355l-108 -685h-50zM366 810l128 140h63l-134 -140h-57z" />
    <glyph glyph-name="uni0404" unicode="&#x404;" 
d="M260 -10q-91 0 -137 54.5t-32 145.5l56 350q14 92 77.5 146t154.5 54q93 0 139.5 -57t31.5 -153h-50q12 77 -22.5 121t-105.5 44q-70 0 -117 -41.5t-58 -113.5l-24 -149h235l-7 -45h-235l-25 -156q-11 -72 23 -113.5t104 -41.5q72 0 120 44.5t60 120.5h50
q-10 -64 -43 -111t-83 -73t-112 -26z" />
    </font>
</defs>
</svg>
